<?xml version="1.0" encoding="UTF-8" standalone="no"?>
<svg
   height="48"
   width="48"
   version="1.1"
   id="svg6"
   sodipodi:docname="3depict.svg"
   inkscape:version="1.1.2 (0a00cf5339, 2022-02-04)"
   xmlns:inkscape="http://www.inkscape.org/namespaces/inkscape"
   xmlns:sodipodi="http://sodipodi.sourceforge.net/DTD/sodipodi-0.dtd"
   xmlns="http://www.w3.org/2000/svg"
   xmlns:svg="http://www.w3.org/2000/svg"
   xmlns:rdf="http://www.w3.org/1999/02/22-rdf-syntax-ns#"
   xmlns:cc="http://creativecommons.org/ns#"
   xmlns:dc="http://purl.org/dc/elements/1.1/">
  <metadata
     id="metadata12">
    <rdf:RDF>
      <cc:Work
         rdf:about="">
        <dc:format>image/svg+xml</dc:format>
        <dc:type
           rdf:resource="http://purl.org/dc/dcmitype/StillImage" />
        <dc:title />
      </cc:Work>
    </rdf:RDF>
  </metadata>
  <defs
     id="defs10" />
  <sodipodi:namedview
     pagecolor="#ffffff"
     bordercolor="#666666"
     borderopacity="1"
     objecttolerance="10"
     gridtolerance="10"
     guidetolerance="10"
     inkscape:pageopacity="0"
     inkscape:pageshadow="2"
     inkscape:window-width="1920"
     inkscape:window-height="1029"
     id="namedview8"
     showgrid="true"
     inkscape:zoom="9.2708334"
     inkscape:cx="14.723595"
     inkscape:cy="23.352809"
     inkscape:window-x="0"
     inkscape:window-y="0"
     inkscape:window-maximized="1"
     inkscape:current-layer="svg6"
     inkscape:document-rotation="0"
     inkscape:pagecheckerboard="0">
    <inkscape:grid
       type="xygrid"
       id="grid837" />
  </sodipodi:namedview>
  <path
     id="circle2"
     style="opacity:0.99;fill:#adb6cb"
     transform="matrix(1.75830584759 0 0 1.75830608345 -18.15909274367 -30.97874795549)"
     d="M 37.173613,31.534513 A 13.232998,13.232998 0 0 1 23.940615,44.767511 13.232998,13.232998 0 0 1 10.707617,31.534513 13.232998,13.232998 0 0 1 23.940615,18.301516 13.232998,13.232998 0 0 1 37.173613,31.534513 Z" />
  <path
     id="path847"
     style="opacity:1;fill:#ffffff;stroke-width:0.954029;stroke-dasharray:0.954029, 1.90806"
     d="M 43.823725,24.468578 A 19.887896,19.887896 0 0 1 23.935829,44.356474 19.887896,19.887896 0 0 1 4.0479336,24.468578 19.887896,19.887896 0 0 1 23.935829,4.5806828 19.887896,19.887896 0 0 1 43.823725,24.468578 Z" />
  <path
     id="path835"
     style="fill:#88c0d0;stroke-width:4;stroke-linecap:square;stroke-linejoin:round;stroke-opacity:0.088083;fill-opacity:1"
     d="m 25.658607,20.594229 a 8,8 0 0 1 -8,8 8,8 0 0 1 -7.9999995,-8 8,8 0 0 1 7.9999995,-8 8,8 0 0 1 8,8 z" />
  <path
     id="circle837"
     style="fill:#d08770;stroke-width:4;stroke-linecap:square;stroke-linejoin:round;stroke-opacity:0.088083;fill-opacity:1"
     d="m 38.322618,20.594229 a 8,8 0 0 1 -8,8 8,8 0 0 1 -8,-8 8,8 0 0 1 8,-8 8,8 0 0 1 8,8 z" />
  <circle
     style="fill:#b48ead;fill-opacity:1;stroke-width:4;stroke-linecap:square;stroke-linejoin:round;stroke-opacity:0.088083"
     id="circle839"
     cx="23.221458"
     cy="31.086742"
     r="8" />
</svg>
