<?xml version="1.0" encoding="UTF-8" standalone="no"?>
<svg
   height="48"
   width="48"
   version="1.1"
   id="svg14"
   sodipodi:docname="7kaa.svg"
   inkscape:version="1.1.2 (0a00cf5339, 2022-02-04)"
   xmlns:inkscape="http://www.inkscape.org/namespaces/inkscape"
   xmlns:sodipodi="http://sodipodi.sourceforge.net/DTD/sodipodi-0.dtd"
   xmlns="http://www.w3.org/2000/svg"
   xmlns:svg="http://www.w3.org/2000/svg">
  <defs
     id="defs18" />
  <sodipodi:namedview
     id="namedview16"
     pagecolor="#ffffff"
     bordercolor="#666666"
     borderopacity="1.0"
     inkscape:pageshadow="2"
     inkscape:pageopacity="0.0"
     inkscape:pagecheckerboard="0"
     showgrid="false"
     inkscape:zoom="5.8336309"
     inkscape:cx="-4.885465"
     inkscape:cy="47.740421"
     inkscape:window-width="1920"
     inkscape:window-height="1029"
     inkscape:window-x="0"
     inkscape:window-y="0"
     inkscape:window-maximized="1"
     inkscape:current-layer="svg14" />
  <path
     id="path2"
     style="stroke-width:1.15035;fill:#bf616a;fill-opacity:1"
     d="M 23.804688 1.3046875 A 22.696228 22.696232 0 0 0 1.1074219 24 A 22.696228 22.696232 0 0 0 23.804688 46.695312 A 22.696228 22.696232 0 0 0 46.5 24 A 22.696228 22.696232 0 0 0 23.804688 1.3046875 z " />
  <g
     fill="#ffffff"
     id="g10">
    <path
       d="m34.5 21 4.5 10.5-6 3c3-4.5-1.5-10.5-4.5-12l-4.5 6-4.5-6c-3 1.5-7.5 7.5-4.5 12l-6-3 4.5-10.5v-9l5.25 3 5.25-3 5.25 3 5.25-3z"
       id="path4" />
    <path
       d="m33 19.5c4.5 0 6.042421-.65354 7.5-3 0 4.5-3 9-7.5 9"
       fill-opacity=".497696"
       id="path6" />
    <path
       d="m15 19.5c-4.5 0-6.042421-.65354-7.5-3 0 4.5 3 9 7.5 9"
       fill-opacity=".497696"
       id="path8" />
  </g>
  <circle
     cx="24"
     cy="21.75"
     fill="#a77777"
     r="2.25"
     id="circle12"
     style="fill:#bf616a;fill-opacity:1" />
</svg>
