<?xml version="1.0" encoding="UTF-8" standalone="no"?>
<svg
   height="48"
   width="48"
   version="1.1"
   id="svg6"
   sodipodi:docname="airtame-application.svg"
   inkscape:version="1.1.2 (0a00cf5339, 2022-02-04)"
   xmlns:inkscape="http://www.inkscape.org/namespaces/inkscape"
   xmlns:sodipodi="http://sodipodi.sourceforge.net/DTD/sodipodi-0.dtd"
   xmlns="http://www.w3.org/2000/svg"
   xmlns:svg="http://www.w3.org/2000/svg"
   xmlns:rdf="http://www.w3.org/1999/02/22-rdf-syntax-ns#"
   xmlns:cc="http://creativecommons.org/ns#"
   xmlns:dc="http://purl.org/dc/elements/1.1/">
  <metadata
     id="metadata12">
    <rdf:RDF>
      <cc:Work
         rdf:about="">
        <dc:format>image/svg+xml</dc:format>
        <dc:type
           rdf:resource="http://purl.org/dc/dcmitype/StillImage" />
      </cc:Work>
    </rdf:RDF>
  </metadata>
  <defs
     id="defs10">
    <linearGradient
       gradientUnits="userSpaceOnUse"
       gradientTransform="matrix(0.0920001,0,0,0.09064843,-21.193131,1.5846311)"
       y2="269.48999"
       y1="235.14999"
       x2="657.65002"
       x1="319.20999"
       id="a-12">
      <stop
         id="stop1076"
         offset="0"
         stop-color="#e54c18" />
      <stop
         id="stop1078"
         offset="1"
         stop-color="#fec350" />
    </linearGradient>
    <linearGradient
       id="linearGradient946"
       x1="31.833"
       x2="32.167"
       y1="51.558998"
       y2="11.098"
       gradientUnits="userSpaceOnUse"
       gradientTransform="matrix(0.83258662,0,0,0.83258662,-4.004011,0.8380211)">
      <stop
         stop-color="#f9f9f9"
         offset="0"
         id="stop5" />
      <stop
         stop-color="#f0fee6"
         offset="1"
         id="stop7-3" />
    </linearGradient>
    <linearGradient
       gradientUnits="userSpaceOnUse"
       y2="12.7"
       y1="4.2333002"
       x2="7.9373002"
       x1="7.9373002"
       id="linearGradient1166">
      <stop
         id="stop13"
         offset="0"
         stop-color="#ffffff" />
      <stop
         id="stop15"
         offset="1"
         stop-color="#b8ffe1"
         style="stop-color:#d6f2dc;stop-opacity:1" />
    </linearGradient>
    <linearGradient
       id="b"
       x1="36.75"
       x2="36.75"
       y1="51"
       y2="13"
       gradientUnits="userSpaceOnUse">
      <stop
         offset="0"
         stop-color="#8fc1ff"
         id="stop17" />
      <stop
         offset="1"
         stop-color="#c8def9"
         id="stop19" />
    </linearGradient>
    <linearGradient
       id="c"
       x1="35.167"
       x2="35.167"
       y1="13"
       y2="51"
       gradientUnits="userSpaceOnUse">
      <stop
         offset="0"
         stop-color="#428ce6"
         id="stop12" />
      <stop
         offset="1"
         stop-color="#1e75e0"
         id="stop14" />
    </linearGradient>
    <linearGradient
       id="d"
       x1="13"
       x2="22.5"
       y1="30.417"
       y2="30.417"
       gradientUnits="userSpaceOnUse">
      <stop
         offset="0"
         stop-color="#2376c8"
         id="stop7" />
      <stop
         offset="1"
         stop-color="#19468a"
         id="stop9" />
    </linearGradient>
  </defs>
  <sodipodi:namedview
     pagecolor="#ffffff"
     bordercolor="#666666"
     borderopacity="1"
     objecttolerance="10"
     gridtolerance="10"
     guidetolerance="10"
     inkscape:pageopacity="0"
     inkscape:pageshadow="2"
     inkscape:window-width="1920"
     inkscape:window-height="1032"
     id="namedview8"
     showgrid="true"
     inkscape:zoom="9.2708332"
     inkscape:cx="26.480899"
     inkscape:cy="23.460675"
     inkscape:window-x="0"
     inkscape:window-y="0"
     inkscape:window-maximized="1"
     inkscape:current-layer="svg6"
     inkscape:document-rotation="0"
     inkscape:pagecheckerboard="0">
    <inkscape:grid
       type="xygrid"
       id="grid837" />
  </sodipodi:namedview>
  <circle
     cx="23.940615"
     cy="31.534513"
     opacity=".99"
     r="13.232998"
     transform="matrix(1.75830584759 0 0 1.75830608345 -18.15909274367 -30.97874795549)"
     id="circle2"
     style="fill:#81a1c1;fill-opacity:1" />
  <path
     style="fill:#ffffff;stroke-width:1.45692"
     d="M 25.736461,35.424802 C 24.84441,35.14122 23.388964,34.46361 22.502137,33.918951 c -2.19255,-1.346601 -3.620711,-1.804473 -5.628382,-1.804473 -2.161016,0 -3.231059,0.312161 -5.185884,1.51273 -0.864906,0.531206 -1.7054286,0.965809 -1.8678304,0.965809 -0.5394687,0 -2.5849689,-2.966422 -2.4118345,-3.497714 0.2188817,-0.67172 3.0091809,-2.421432 5.0225959,-3.149534 1.271722,-0.4599 2.267747,-0.594032 4.410381,-0.594032 3.185185,0 4.77697,0.460174 7.737137,2.236636 1.007114,0.604405 2.464151,1.250027 3.237859,1.434714 2.593998,0.619201 5.525979,-0.03028 7.674984,-1.700394 0.363043,-0.282096 0.889447,-0.512927 1.169826,-0.512927 0.620827,0 2.79466,2.658055 2.679465,3.276303 -0.130062,0.69816 -3.395041,2.715473 -5.384491,3.326899 -2.361885,0.725889 -5.956898,0.73107 -8.219502,0.01156 z M 27,24 c -0.974137,-0.219817 -3.038657,-1.085119 -4.682951,-1.962728 -2.513545,-1.341554 -3.205304,-1.588195 -4.761843,-1.697807 -2.232968,-0.157204 -3.562122,0.180888 -5.665716,1.441317 -0.890681,0.533685 -1.788251,0.97032 -1.9945999,0.97032 -0.4394718,0 -2.6022045,-2.633486 -2.6022045,-3.168614 0,-0.461167 1.6944746,-1.797876 3.3212154,-2.620008 4.153771,-2.099255 9.496545,-1.816933 13.700021,0.72393 2.267378,1.370552 3.499189,1.759968 5.567189,1.759968 1.983361,0 3.961116,-0.638109 5.427795,-1.751245 0.527078,-0.399989 1.160458,-0.727294 1.40755,-0.727294 0.247075,0 0.974897,0.69275 1.617351,1.539451 1.367051,1.801659 1.331963,1.940037 -0.885714,3.492687 C 34.691741,23.929759 30.361727,24.758636 27,24 Z"
     id="path10" />
</svg>
