<?xml version="1.0" encoding="UTF-8" standalone="no"?>
<svg
   height="48"
   width="48"
   version="1.1"
   id="svg24"
   sodipodi:docname="androidstudio.svg"
   inkscape:version="1.1.2 (0a00cf5339, 2022-02-04)"
   xmlns:inkscape="http://www.inkscape.org/namespaces/inkscape"
   xmlns:sodipodi="http://sodipodi.sourceforge.net/DTD/sodipodi-0.dtd"
   xmlns="http://www.w3.org/2000/svg"
   xmlns:svg="http://www.w3.org/2000/svg">
  <defs
     id="defs28" />
  <sodipodi:namedview
     id="namedview26"
     pagecolor="#ffffff"
     bordercolor="#666666"
     borderopacity="1.0"
     inkscape:pageshadow="2"
     inkscape:pageopacity="0.0"
     inkscape:pagecheckerboard="0"
     showgrid="false"
     inkscape:zoom="11.667262"
     inkscape:cx="29.012806"
     inkscape:cy="49.326055"
     inkscape:window-width="1920"
     inkscape:window-height="1029"
     inkscape:window-x="0"
     inkscape:window-y="0"
     inkscape:window-maximized="1"
     inkscape:current-layer="svg24" />
  <path
     id="path2"
     style="stroke-width:1.15035;fill:#a3be8c;fill-opacity:1"
     d="M 23.804688 1.3046875 A 22.696228 22.696232 0 0 0 1.1074219 24 A 22.696228 22.696232 0 0 0 23.804688 46.695312 A 22.696228 22.696232 0 0 0 46.5 24 A 22.696228 22.696232 0 0 0 23.804688 1.3046875 z " />
  <g
     fill="#ffffff"
     id="g16">
    <path
       d="m16.5 21h15v13.5h-15z"
       id="path4" />
    <path
       d="m33 21h3.6v10.5h-3.6z"
       id="path6" />
    <path
       d="m11.4 21h3.6v10.5h-3.6z"
       id="path8" />
    <path
       d="m24 12.75c-3.75 0-7.5 2.25-7.5 6.75h15c0-4.5-3.75-6.75-7.5-6.75zm-3.769531 2.964844a.75.75 0 0 1 .05273 0 .75.75 0 0 1 .716801.779297v.005859a.75.75 0 0 1 -.783203.712891.75.75 0 0 1 -.714844-.78125.75.75 0 0 1 .728516-.716797zm7.5.0059a.75.75 0 0 1 .05273 0 .75.75 0 0 1 .716801.779256v.0059a.75.75 0 0 1 -.783203.712891.75.75 0 0 1 -.714844-.78125.75.75 0 0 1 .728516-.716797z"
       id="path10" />
    <path
       d="m19.5 36h3v4.5h-3z"
       id="path12" />
    <path
       d="m25.5 36h3v4.5h-3z"
       id="path14" />
  </g>
  <path
     d="m27 15 3-3"
     fill="none"
     stroke="#f9f9f9"
     id="path18" />
  <path
     d="m21 15-3-3"
     fill="none"
     stroke="#f9f9f9"
     id="path20" />
  <path
     id="path22"
     style="fill:#a3be8c;fill-opacity:1"
     d="M 23.195312 23.505859 L 23.195312 24.15625 A 3.750912 3.750912 0 0 0 21.773438 24.773438 L 21.292969 24.292969 L 20.232422 25.353516 L 20.75 25.871094 A 3.750912 3.750912 0 0 0 20.242188 27.255859 L 19.445312 27.255859 L 19.445312 28.755859 L 20.318359 28.755859 A 3.750912 3.750912 0 0 0 20.892578 29.998047 L 20.232422 30.658203 L 21.292969 31.71875 L 21.988281 31.023438 A 3.750912 3.750912 0 0 0 23.195312 31.496094 L 23.195312 32.505859 L 24.695312 32.505859 L 24.695312 31.498047 A 3.750912 3.750912 0 0 0 25.902344 31.023438 L 26.597656 31.71875 L 27.658203 30.658203 L 27 30 A 3.750912 3.750912 0 0 0 27.582031 28.755859 L 28.445312 28.755859 L 28.445312 27.255859 L 27.652344 27.255859 A 3.750912 3.750912 0 0 0 27.144531 25.869141 L 27.658203 25.353516 L 26.597656 24.292969 L 26.119141 24.771484 A 3.750912 3.750912 0 0 0 24.695312 24.15625 L 24.695312 23.505859 L 23.195312 23.505859 z M 23.884766 25.755859 A 2.25 2.25 0 0 1 24.041016 25.757812 A 2.25 2.25 0 0 1 26.193359 28.097656 L 26.193359 28.113281 A 2.25 2.25 0 0 1 23.841797 30.253906 A 2.25 2.25 0 0 1 21.697266 27.90625 A 2.25 2.25 0 0 1 23.884766 25.755859 z " />
</svg>
