<?xml version="1.0" encoding="UTF-8" standalone="no"?>
<svg
   height="48"
   width="48"
   version="1.1"
   id="svg26"
   sodipodi:docname="android-sdk.svg"
   inkscape:version="1.1.2 (0a00cf5339, 2022-02-04)"
   xmlns:inkscape="http://www.inkscape.org/namespaces/inkscape"
   xmlns:sodipodi="http://sodipodi.sourceforge.net/DTD/sodipodi-0.dtd"
   xmlns="http://www.w3.org/2000/svg"
   xmlns:svg="http://www.w3.org/2000/svg">
  <defs
     id="defs30" />
  <sodipodi:namedview
     id="namedview28"
     pagecolor="#ffffff"
     bordercolor="#666666"
     borderopacity="1.0"
     inkscape:pageshadow="2"
     inkscape:pageopacity="0.0"
     inkscape:pagecheckerboard="0"
     showgrid="false"
     inkscape:zoom="16.5"
     inkscape:cx="33.181818"
     inkscape:cy="40.515152"
     inkscape:window-width="1920"
     inkscape:window-height="1029"
     inkscape:window-x="0"
     inkscape:window-y="0"
     inkscape:window-maximized="1"
     inkscape:current-layer="svg26" />
  <path
     id="path2"
     style="stroke-width:1.15035;fill:#8fbcbb;fill-opacity:1"
     d="M 23.804688 1.3046875 A 22.696228 22.696232 0 0 0 1.1074219 24 A 22.696228 22.696232 0 0 0 23.804688 46.695312 A 22.696228 22.696232 0 0 0 46.5 24 A 22.696228 22.696232 0 0 0 23.804688 1.3046875 z " />
  <g
     fill="#ffffff"
     id="g16">
    <path
       d="m16.5 21h15v13.5h-15z"
       id="path4" />
    <path
       d="m33 21h3.6v10.5h-3.6z"
       id="path6" />
    <path
       d="m11.4 21h3.6v10.5h-3.6z"
       id="path8" />
    <path
       d="m24 12.75c-3.75 0-7.5 2.25-7.5 6.75h15c0-4.5-3.75-6.75-7.5-6.75zm-3.769531 2.964844a.75.75 0 0 1 .05273 0 .75.75 0 0 1 .716801.779297v.005859a.75.75 0 0 1 -.783203.712891.75.75 0 0 1 -.714844-.78125.75.75 0 0 1 .728516-.716797zm7.5.0059a.75.75 0 0 1 .05273 0 .75.75 0 0 1 .716801.779256v.0059a.75.75 0 0 1 -.783203.712891.75.75 0 0 1 -.714844-.78125.75.75 0 0 1 .728516-.716797z"
       id="path10" />
    <path
       d="m19.5 36h3v4.5h-3z"
       id="path12" />
    <path
       d="m25.5 36h3v4.5h-3z"
       id="path14" />
  </g>
  <path
     id="path18"
     style="fill:#8fbcbb;fill-opacity:1"
     d="M 22.5 25.5 L 22.5 27.773438 L 25.5 27.773438 L 25.5 25.5 L 22.5 25.5 z M 21 28.5 L 24 31.666016 L 27 28.5 L 21 28.5 z " />
  <path
     d="m27 15 3-3"
     fill="none"
     stroke="#f9f9f9"
     id="path20" />
  <path
     d="m21 15-3-3"
     fill="none"
     stroke="#f9f9f9"
     id="path22" />
</svg>
