<?xml version="1.0" encoding="UTF-8" standalone="no"?>
<svg
   height="48"
   width="48"
   version="1.1"
   id="svg18"
   sodipodi:docname="angry-birds.svg"
   inkscape:version="1.1.2 (0a00cf5339, 2022-02-04)"
   xmlns:inkscape="http://www.inkscape.org/namespaces/inkscape"
   xmlns:sodipodi="http://sodipodi.sourceforge.net/DTD/sodipodi-0.dtd"
   xmlns="http://www.w3.org/2000/svg"
   xmlns:svg="http://www.w3.org/2000/svg">
  <defs
     id="defs22" />
  <sodipodi:namedview
     id="namedview20"
     pagecolor="#ffffff"
     bordercolor="#666666"
     borderopacity="1.0"
     inkscape:pageshadow="2"
     inkscape:pageopacity="0.0"
     inkscape:pagecheckerboard="0"
     showgrid="false"
     inkscape:zoom="3.375"
     inkscape:cx="-10.666667"
     inkscape:cy="54.814815"
     inkscape:window-width="1920"
     inkscape:window-height="1050"
     inkscape:window-x="0"
     inkscape:window-y="0"
     inkscape:window-maximized="1"
     inkscape:current-layer="svg18" />
  <path
     id="path2"
     style="stroke-width:1.15035;fill:#bf616a;fill-opacity:1"
     d="M 23.804688 1.3046875 A 22.696228 22.696232 0 0 0 1.1074219 24 A 22.696228 22.696232 0 0 0 23.804688 46.695312 A 22.696228 22.696232 0 0 0 46.5 24 A 22.696228 22.696232 0 0 0 23.804688 1.3046875 z " />
  <g
     fill="#ffffff"
     fill-rule="evenodd"
     id="g16">
    <path
       d="m18 31.5c7.847606 3.200988 10.165943.160421 16.5 6 .06573-7.260398-.422714-12.333361-12-15 0 3-6.29494 3.384791-4.5 9z"
       fill-opacity=".760563"
       id="path4" />
    <path
       d="m19.5 34.5 4.5-1.5 9 1.5c-1.46521 2.308213-3.723044 3.997355-7.5 4.5-2.467463-.593-4.26348-2.488781-6-4.5z"
       fill-opacity=".464789"
       id="path6" />
    <path
       d="m33.300781 17.400391-9.300781 2.099609v3.386719c.657532.179392 1.275354.368562 1.853516.566406 2.5245-.820324 4.500161-1.627949 8.646484-.652344.621909-2.343826.017141-3.619929-1.199219-5.40039zm-6.800781 2.724609c.62132 0 1.125.50368 1.125 1.125s-.50368 1.125-1.125 1.125-1.125-.50368-1.125-1.125.50368-1.125 1.125-1.125z"
       fill-opacity=".464789"
       id="path8" />
    <path
       d="m12.300781 15.300781c-1.685198 3.141979-2.5956427 7.67306-.300781 9.298828.571206-1.142412 6.347354-1.078777 9.947266-.660156.337343-.424212.552734-.886781.552734-1.439453v-3zm4.699219 3.824219c.828427 0 1.5.671573 1.5 1.5s-.671573 1.5-1.5 1.5-1.5-.671573-1.5-1.5.671573-1.5 1.5-1.5z"
       fill-opacity=".464789"
       id="path10" />
    <path
       d="m10.2 14.7 12.9 5.1 14.4-3.3-1.5-4.5-12.6 5.7-11.4-7.2z"
       fill-opacity=".890845"
       id="path12" />
    <path
       d="m22.5 19.5v3c.531231.12236 1.014446.254247 1.5.386719v-3.386719z"
       id="path14" />
  </g>
</svg>
