<?xml version="1.0" encoding="UTF-8" standalone="no"?>
<svg
   height="48"
   width="48"
   version="1.1"
   id="svg10"
   sodipodi:docname="antidote.svg"
   inkscape:version="1.1.2 (0a00cf5339, 2022-02-04)"
   xmlns:inkscape="http://www.inkscape.org/namespaces/inkscape"
   xmlns:sodipodi="http://sodipodi.sourceforge.net/DTD/sodipodi-0.dtd"
   xmlns="http://www.w3.org/2000/svg"
   xmlns:svg="http://www.w3.org/2000/svg"
   xmlns:rdf="http://www.w3.org/1999/02/22-rdf-syntax-ns#"
   xmlns:cc="http://creativecommons.org/ns#"
   xmlns:dc="http://purl.org/dc/elements/1.1/">
  <metadata
     id="metadata16">
    <rdf:RDF>
      <cc:Work
         rdf:about="">
        <dc:format>image/svg+xml</dc:format>
        <dc:type
           rdf:resource="http://purl.org/dc/dcmitype/StillImage" />
      </cc:Work>
    </rdf:RDF>
  </metadata>
  <defs
     id="defs14" />
  <sodipodi:namedview
     pagecolor="#ffffff"
     bordercolor="#666666"
     borderopacity="1"
     objecttolerance="10"
     gridtolerance="10"
     guidetolerance="10"
     inkscape:pageopacity="0"
     inkscape:pageshadow="2"
     inkscape:window-width="1920"
     inkscape:window-height="1030"
     id="namedview12"
     showgrid="false"
     inkscape:zoom="6.9532167"
     inkscape:cx="-22.795205"
     inkscape:cy="-1.3662741"
     inkscape:window-x="0"
     inkscape:window-y="24"
     inkscape:window-maximized="1"
     inkscape:current-layer="svg10"
     inkscape:pagecheckerboard="0" />
  <g
     fill="#5f8dd3"
     opacity="0.99"
     transform="matrix(1.1503549,0,0,1.1503549,-4.486125,-7.525565)"
     id="g6"
     style="fill:#9b9b67;fill-opacity:1">
    <path
       d="M 44.322082,27.405077 A 19.729762,19.729765 0 0 1 24.59232,47.134842 19.729762,19.729765 0 0 1 4.8625579,27.405077 19.729762,19.729765 0 0 1 24.59232,7.6753138 19.729762,19.729765 0 0 1 44.322082,27.405077 Z"
       id="path4"
       style="fill:#a3be8c;fill-opacity:1" />
  </g>
  <path
     id="path4-3"
     style="fill:#fefeff;fill-opacity:1;stroke-width:0.654949"
     d="m 18.041041,10.901368 c -0.792487,0 -1.441407,0.588149 -1.441407,1.308594 0,0.720446 0.64892,1.310546 1.441407,1.310546 h 0.902343 c 0.489339,1.694262 1.245062,4.738781 0.929688,6.548829 -0.981665,5.634154 -8.398438,14.960937 -8.398438,14.960937 -0.414851,1.034132 0.344901,2.06836 1.451172,2.06836 h 21.78125 c 1.106274,0 1.796885,-1.103166 1.451172,-2.06836 0,0 -7.437831,-9.323342 -8.423828,-14.960937 -0.316537,-1.809844 0.439964,-4.8545 0.929687,-6.548829 h 0.902344 c 0.792487,0 1.441406,-0.5901 1.441406,-1.310546 0,-0.720445 -0.648919,-1.308594 -1.441406,-1.308594 z m 3.847656,11.789062 h 3.832031 c 0.972749,2.957805 2.746803,5.87501 4.400391,8.40625 1.24982,1.913165 1.671915,2.387545 2.423828,3.382813 H 15.084009 c 0.749606,-0.995248 1.170628,-1.471489 2.417969,-3.386719 1.648045,-2.530492 3.416716,-5.447329 4.386719,-8.402344 z m 2.058594,1.388672 c 0,0 -0.754643,1.08073 -0.789063,1.498047 -0.02626,0.318196 0.556223,0.382721 0.533203,0.701172 -0.05328,0.737974 -1.272954,0.707291 -1.365234,1.441406 -0.177886,1.414999 1.108915,0.263866 1.103515,0.710938 -0.01225,0.991287 -1.919327,0.98807 -2.228515,2.257812 -0.113532,0.466242 0.37017,1.957869 0.888672,2.158203 1.21995,0.471329 2.986447,0.495107 3.921875,-0.398437 0.936307,-0.894385 0.100441,-2.221974 -0.742188,-2.894531 -0.345096,-0.275445 -0.548768,-0.390158 -0.669922,-0.427735 0.361238,-0.455327 1.009159,-1.452015 0.802735,-1.894531 -0.178201,-0.382029 -0.99769,0.0447 -1.22461,-0.310547 -0.184984,-0.289593 0.483865,-0.505556 0.396485,-0.837891 -0.06829,-0.259738 -0.671947,-0.68174 -0.753907,-0.9375 -0.123843,-0.386466 0.126954,-1.066406 0.126954,-1.066406 z" />
</svg>
