<?xml version="1.0" encoding="UTF-8" standalone="no"?>
<svg
   version="1.1"
   preserveAspectRatio="xMidYMid meet"
   viewBox="0 0 640 640"
   width="64"
   height="64"
   id="svg53"
   sodipodi:docname="app.briar.gtk.svg"
   inkscape:version="1.1.2 (0a00cf5339, 2022-02-04)"
   xmlns:inkscape="http://www.inkscape.org/namespaces/inkscape"
   xmlns:sodipodi="http://sodipodi.sourceforge.net/DTD/sodipodi-0.dtd"
   xmlns="http://www.w3.org/2000/svg"
   xmlns:svg="http://www.w3.org/2000/svg"
   xmlns:rdf="http://www.w3.org/1999/02/22-rdf-syntax-ns#"
   xmlns:cc="http://creativecommons.org/ns#"
   xmlns:dc="http://purl.org/dc/elements/1.1/">
  <metadata
     id="metadata57">
    <rdf:RDF>
      <cc:Work
         rdf:about="">
        <dc:format>image/svg+xml</dc:format>
        <dc:type
           rdf:resource="http://purl.org/dc/dcmitype/StillImage" />
      </cc:Work>
    </rdf:RDF>
  </metadata>
  <sodipodi:namedview
     pagecolor="#ffffff"
     bordercolor="#666666"
     borderopacity="1"
     objecttolerance="10"
     gridtolerance="10"
     guidetolerance="10"
     inkscape:pageopacity="0"
     inkscape:pageshadow="2"
     inkscape:window-width="1920"
     inkscape:window-height="996"
     id="namedview55"
     showgrid="false"
     inkscape:zoom="9.148194"
     inkscape:cx="4.2631365"
     inkscape:cy="36.728561"
     inkscape:window-x="0"
     inkscape:window-y="0"
     inkscape:window-maximized="1"
     inkscape:current-layer="g49"
     inkscape:pagecheckerboard="0" />
  <defs
     id="defs11">
    <path
       d="M599.77 321.14C599.77 475.86 474.66 601.47 320.57 601.47C166.48 601.47 41.37 475.86 41.37 321.14C41.37 166.42 166.48 40.8 320.57 40.8C474.66 40.8 599.77 166.42 599.77 321.14Z"
       id="a7XWasU4E" />
    <path
       d="M242.93 153.7C255.61 153.7 265.9 163.99 265.9 176.67C265.9 180.29 265.9 189.34 265.9 203.82L207.81 203.82C208.63 188.12 209.15 178.31 209.36 174.39C209.97 162.79 219.55 153.7 231.16 153.7C238.11 153.7 236.43 153.7 242.93 153.7Z"
       id="e2QOaSQL7q" />
    <path
       d="M240.48 490.35C254.52 490.35 265.9 478.97 265.9 464.94C265.9 439.62 265.9 376.34 265.9 275.08L207.81 275.08C209.06 377.67 209.85 441.79 210.17 467.43C210.32 480.14 220.66 490.35 233.37 490.35C239.87 490.35 234.48 490.35 240.48 490.35Z"
       id="a3rYzQYbHG" />
    <path
       d="M152.06 398.85C152.06 386.17 162.34 375.88 175.02 375.88C178.64 375.88 187.69 375.88 202.17 375.88L202.18 433.97C186.49 433.14 176.68 432.63 172.75 432.42C161.15 431.81 152.06 422.23 152.06 410.62C152.06 403.67 152.06 405.35 152.06 398.85Z"
       id="b4sVd15J4" />
    <path
       d="M152.07 241.34C152.09 255.37 163.48 266.73 177.52 266.71C202.83 266.68 266.12 266.59 367.38 266.45L367.3 208.36C264.71 209.76 200.59 210.64 174.95 210.99C162.24 211.16 152.04 221.51 152.06 234.22C152.07 240.72 152.06 235.33 152.07 241.34Z"
       id="caTwdrEiFc" />
    <path
       d="M491.46 408.85C491.44 422.88 480.05 434.25 466.01 434.23C440.7 434.19 377.41 434.11 276.15 433.97L276.23 375.88C378.82 377.28 442.93 378.15 468.58 378.5C481.28 378.67 491.49 389.03 491.47 401.73C491.46 408.24 491.47 402.84 491.46 408.85Z"
       id="cVuYGZRnK" />
    <path
       d="M408.51 153.7C422.55 153.7 433.93 165.08 433.93 179.11C433.93 204.43 433.93 267.72 433.93 368.98L375.83 368.98C377.09 266.39 377.88 202.27 378.19 176.62C378.35 163.92 388.69 153.7 401.4 153.7C407.9 153.7 402.51 153.7 408.51 153.7Z"
       id="b3blSIMLnZ" />
    <path
       d="M410.96 490.35C423.64 490.35 433.93 480.07 433.93 467.38C433.93 463.76 433.93 454.71 433.93 440.23L375.83 440.23C376.66 455.93 377.18 465.74 377.39 469.66C378 481.26 387.58 490.35 399.19 490.35C406.14 490.35 404.46 490.35 410.96 490.35Z"
       id="asBIEKije" />
    <path
       d="M491.47 243.74C491.47 256.42 481.19 266.71 468.5 266.71C464.88 266.71 455.83 266.71 441.35 266.71L441.35 208.62C457.04 209.45 466.85 209.96 470.78 210.17C482.37 210.78 491.47 220.36 491.47 231.97C491.47 238.92 491.47 237.24 491.47 243.74Z"
       id="ajI8Jm2VP" />
  </defs>
  <g
     id="g51"
     transform="matrix(1.087257,0,0,1.1041723,-25.40301,-32.513955)">
    <g
       id="g49">
      <ellipse
         style="opacity:1;fill:#a3be8c;fill-opacity:1;fill-rule:evenodd;stroke:none;stroke-width:13.6901;stroke-linecap:square"
         id="path908"
         cx="321.94846"
         cy="323.45645"
         rx="281.52219"
         ry="277.20941" />
      <g
         id="g19"
         style="fill:#73a652;fill-opacity:1">
        <path
           id="use17"
           style="fill:#ffffff;fill-opacity:1;stroke-width:0.109568"
           d="M 22.591797 13.720703 C 21.329491 13.720703 20.288979 14.723066 20.222656 16.003906 C 20.199824 16.436742 20.143843 17.520356 20.054688 19.253906 L 26.369141 19.253906 L 26.369141 16.255859 C 26.369141 14.855769 25.251689 13.720703 23.873047 13.720703 L 22.591797 13.720703 z M 41.101562 13.720703 C 39.719659 13.720703 38.595521 14.847701 38.578125 16.25 C 38.54442 19.082202 38.45926 26.162531 38.322266 37.490234 L 44.638672 37.490234 L 44.638672 16.525391 C 44.638672 14.976237 43.401509 13.720703 41.875 13.720703 L 41.101562 13.720703 z M 37.394531 19.755859 C 26.240362 19.910443 19.268196 20.006276 16.480469 20.044922 C 15.098565 20.063693 13.990013 21.207925 13.992188 22.611328 C 13.993275 23.32904 13.993053 22.732877 13.994141 23.396484 C 13.996315 24.945638 15.233257 26.199474 16.759766 26.197266 C 19.511613 26.193953 26.394732 26.18538 37.404297 26.169922 L 37.394531 19.755859 z M 45.445312 19.783203 L 45.445312 26.197266 L 48.398438 26.197266 C 49.778167 26.197266 50.894531 25.0622 50.894531 23.662109 L 50.894531 22.361328 C 50.894531 21.079384 49.906615 20.022433 48.646484 19.955078 C 48.219192 19.931891 47.151219 19.874849 45.445312 19.783203 z M 20.054688 27.123047 C 20.190595 38.450751 20.275755 45.53023 20.310547 48.361328 C 20.326856 49.764731 21.452081 50.892578 22.833984 50.892578 L 23.605469 50.892578 C 25.131978 50.892578 26.369141 49.635091 26.369141 48.085938 L 26.369141 27.123047 L 20.054688 27.123047 z M 16.488281 38.251953 C 15.109639 38.251953 13.992188 39.388972 13.992188 40.789062 L 13.992188 42.087891 C 13.992188 43.369835 14.980969 44.428739 16.242188 44.496094 C 16.66948 44.519281 17.7355 44.574369 19.441406 44.666016 L 19.441406 38.251953 L 16.488281 38.251953 z M 27.492188 38.251953 L 27.484375 44.666016 C 38.493939 44.681474 45.375106 44.690896 48.126953 44.695312 C 49.653462 44.697521 50.892357 43.441732 50.894531 41.892578 C 50.895619 41.228971 50.893444 41.826238 50.894531 41.107422 C 50.896706 39.705123 49.787066 38.559787 48.40625 38.541016 C 45.617436 38.50237 38.646357 38.406537 27.492188 38.251953 z M 38.322266 45.357422 C 38.412508 47.090972 38.469355 48.174586 38.492188 48.607422 C 38.55851 49.888262 39.599023 50.892578 40.861328 50.892578 L 42.142578 50.892578 C 43.52122 50.892578 44.638672 49.756663 44.638672 48.355469 L 44.638672 45.357422 L 38.322266 45.357422 z "
           transform="matrix(9.1974575,0,0,9.0565576,23.36431,29.446451)" />
      </g>
      <g
         id="g23"
         style="fill:#73a652;fill-opacity:1" />
      <g
         id="g27"
         style="fill:#73a652;fill-opacity:1" />
      <g
         id="g31"
         style="fill:#73a652;fill-opacity:1" />
      <g
         id="g35"
         style="fill:#73a652;fill-opacity:1" />
      <g
         id="g39"
         style="fill:#73a652;fill-opacity:1" />
      <g
         id="g43"
         style="fill:#73a652;fill-opacity:1" />
      <g
         id="g47"
         style="fill:#73a652;fill-opacity:1" />
    </g>
  </g>
</svg>
