<?xml version="1.0" encoding="UTF-8" standalone="no"?>
<svg
   height="48"
   width="48"
   version="1.1"
   id="svg8"
   sodipodi:docname="appcode.svg"
   inkscape:version="1.1.2 (0a00cf5339, 2022-02-04)"
   xmlns:inkscape="http://www.inkscape.org/namespaces/inkscape"
   xmlns:sodipodi="http://sodipodi.sourceforge.net/DTD/sodipodi-0.dtd"
   xmlns="http://www.w3.org/2000/svg"
   xmlns:svg="http://www.w3.org/2000/svg"
   xmlns:rdf="http://www.w3.org/1999/02/22-rdf-syntax-ns#"
   xmlns:cc="http://creativecommons.org/ns#"
   xmlns:dc="http://purl.org/dc/elements/1.1/">
  <metadata
     id="metadata14">
    <rdf:RDF>
      <cc:Work
         rdf:about="">
        <dc:format>image/svg+xml</dc:format>
        <dc:type
           rdf:resource="http://purl.org/dc/dcmitype/StillImage" />
        <dc:title />
      </cc:Work>
    </rdf:RDF>
  </metadata>
  <defs
     id="defs12" />
  <sodipodi:namedview
     pagecolor="#ffffff"
     bordercolor="#666666"
     borderopacity="1"
     objecttolerance="10"
     gridtolerance="10"
     guidetolerance="10"
     inkscape:pageopacity="0"
     inkscape:pageshadow="2"
     inkscape:window-width="1920"
     inkscape:window-height="1029"
     id="namedview10"
     showgrid="false"
     inkscape:zoom="9.4583333"
     inkscape:cx="-7.876652"
     inkscape:cy="30.290749"
     inkscape:window-x="0"
     inkscape:window-y="0"
     inkscape:window-maximized="1"
     inkscape:current-layer="svg8"
     inkscape:pagecheckerboard="0" />
  <path
     id="path2"
     style="fill:#8fbcbb;fill-opacity:1;stroke-width:1.15035"
     d="M 23.804688 1.3046875 A 22.696228 22.696232 0 0 0 1.1074219 24 A 22.696228 22.696232 0 0 0 23.804688 46.695312 A 22.696228 22.696232 0 0 0 46.5 24 A 22.696228 22.696232 0 0 0 23.804688 1.3046875 z " />
  <path
     id="path839"
     style="fill:#ffffff;fill-opacity:0.162031;stroke-width:1.15035"
     d="M 23.804688 1.3046875 C 11.269907 1.3046874 1.107423 11.465218 1.1074219 24 L 46.5 24 C 46.499999 11.465218 36.339468 1.3046875 23.804688 1.3046875 z " />
  <path
     id="path841"
     style="fill:#ffffff;fill-opacity:0.257601;stroke-width:1.15035"
     d="M 23.804688 1.3046875 L 23.804688 46.695312 C 36.339469 46.695312 46.5 36.534782 46.5 24 C 46.499999 11.465218 36.339468 1.3046875 23.804688 1.3046875 z " />
  <path
     d="M 11.160958,12.338273 V 36.879947 H 35.702632 V 12.338273 Z m 13.688991,1.598316 c 1.079975,0 1.893631,0.288871 2.442928,0.866099 0.553952,0.577228 0.840867,1.430754 0.859488,2.561934 l -0.02149,0.04297 h -1.912359 c 0.02793,-0.665673 -0.06324,-1.146371 -0.272722,-1.439641 -0.209478,-0.293268 -0.57448,-0.439661 -1.095847,-0.439661 -0.446886,0 -0.789018,0.174827 -1.026426,0.523957 -0.237408,0.34913 -0.357018,0.877524 -0.357018,1.585094 v 3.05118 c 0,0.71688 0.125478,1.25084 0.376852,1.599969 0.256029,0.34913 0.628552,0.522304 1.117334,0.522304 0.479472,0 0.812125,-0.136914 0.998327,-0.411562 0.190859,-0.279304 0.274511,-0.754438 0.251235,-1.424766 h 1.914013 l 0.02149,0.04297 c 0.0093,1.117216 -0.256691,1.959307 -0.796679,2.527225 -0.539987,0.567916 -1.336339,0.851222 -2.388383,0.851222 -1.052045,0 -1.892179,-0.321219 -2.520613,-0.963617 -0.628433,-0.647054 -0.94213,-1.561363 -0.94213,-2.743748 V 17.65056 c 0,-1.177732 0.302262,-2.090084 0.90742,-2.737138 0.609813,-0.651709 1.425122,-0.97684 2.444581,-0.97684 z m -8.743632,0.147105 h 2.067728 l 2.856143,10.166745 h -2.004919 l -0.550403,-2.158635 h -2.682593 l -0.543791,2.158635 h -2.004919 z m 1.006592,2.813169 -0.915685,3.596624 h 1.872691 L 17.15423,16.896863 Z M 13.699752,30.10983 h 10.155175 v 1.692529 H 13.699752 Z"
     fill="#ffffff"
     id="path10"
     style="stroke-width:0.846265" />
</svg>
