<?xml version="1.0" encoding="UTF-8" standalone="no"?>
<svg
   height="48"
   width="48"
   version="1.1"
   id="svg6"
   sodipodi:docname="application-system.svg"
   inkscape:version="1.2.2 (b0a8486541, 2022-12-01)"
   xmlns:inkscape="http://www.inkscape.org/namespaces/inkscape"
   xmlns:sodipodi="http://sodipodi.sourceforge.net/DTD/sodipodi-0.dtd"
   xmlns="http://www.w3.org/2000/svg"
   xmlns:svg="http://www.w3.org/2000/svg"
   xmlns:rdf="http://www.w3.org/1999/02/22-rdf-syntax-ns#"
   xmlns:cc="http://creativecommons.org/ns#"
   xmlns:dc="http://purl.org/dc/elements/1.1/">
  <metadata
     id="metadata12">
    <rdf:RDF>
      <cc:Work
         rdf:about="">
        <dc:format>image/svg+xml</dc:format>
        <dc:type
           rdf:resource="http://purl.org/dc/dcmitype/StillImage" />
      </cc:Work>
    </rdf:RDF>
  </metadata>
  <defs
     id="defs10" />
  <sodipodi:namedview
     pagecolor="#ffffff"
     bordercolor="#666666"
     borderopacity="1"
     objecttolerance="10"
     gridtolerance="10"
     guidetolerance="10"
     inkscape:pageopacity="0"
     inkscape:pageshadow="2"
     inkscape:window-width="1920"
     inkscape:window-height="1029"
     id="namedview8"
     showgrid="false"
     inkscape:zoom="13.376103"
     inkscape:cx="-1.3083033"
     inkscape:cy="22.428057"
     inkscape:window-x="0"
     inkscape:window-y="0"
     inkscape:window-maximized="1"
     inkscape:current-layer="svg6"
     inkscape:document-rotation="0"
     inkscape:pagecheckerboard="0"
     inkscape:showpageshadow="2"
     inkscape:deskcolor="#d1d1d1" />
  <path
     id="circle2"
     style="opacity:0.99;fill:#d08770;fill-opacity:1"
     transform="matrix(1.75830584759 0 0 1.75830608345 -18.15909274367 -30.97874795549)"
     d="M 37.173613,31.534513 A 13.232998,13.232998 0 0 1 23.940615,44.767511 13.232998,13.232998 0 0 1 10.707617,31.534513 13.232998,13.232998 0 0 1 23.940615,18.301516 13.232998,13.232998 0 0 1 37.173613,31.534513 Z" />
  <path
     id="rect2"
     style="fill:#ffffff;fill-opacity:0.270031;stroke-width:0.842732"
     transform="rotate(-90)"
     d="m -37.464246,9.6698523 h 25.758658 c 0.801702,0 1.447116,0.6454137 1.447116,1.4471157 v 25.758658 c 0,0.801702 -0.645414,1.447116 -1.447116,1.447116 h -25.758658 c -0.801702,0 -1.447116,-0.645414 -1.447116,-1.447116 V 11.116968 c 0,-0.801702 0.645414,-1.4471157 1.447116,-1.4471157 z" />
  <path
     id="rect4"
     style="fill:#ffffff;fill-opacity:0.81139;stroke-width:0.842732"
     transform="rotate(-45)"
     d="m -13.295546,20.025663 h 25.758658 c 0.801702,0 1.447116,0.645414 1.447116,1.447116 v 25.758658 c 0,0.801702 -0.645414,1.447116 -1.447116,1.447116 h -25.758658 c -0.801702,0 -1.447115,-0.645414 -1.447115,-1.447116 V 21.472779 c 0,-0.801702 0.645413,-1.447116 1.447115,-1.447116 z" />
  <circle
     style="opacity:1;fill:#d08770;fill-opacity:0.992157;fill-rule:evenodd;stroke:none;stroke-width:1.2;stroke-linecap:round;stroke-linejoin:round;stroke-opacity:1"
     id="path288"
     cx="23.935831"
     cy="24.468578"
     r="5.0463128" />
</svg>
