<?xml version="1.0" encoding="UTF-8" standalone="no"?>
<svg
   height="48"
   width="48"
   version="1.1"
   id="svg10"
   sodipodi:docname="audio-card.svg"
   inkscape:version="1.1.2 (0a00cf5339, 2022-02-04)"
   xmlns:inkscape="http://www.inkscape.org/namespaces/inkscape"
   xmlns:sodipodi="http://sodipodi.sourceforge.net/DTD/sodipodi-0.dtd"
   xmlns="http://www.w3.org/2000/svg"
   xmlns:svg="http://www.w3.org/2000/svg"
   xmlns:rdf="http://www.w3.org/1999/02/22-rdf-syntax-ns#"
   xmlns:cc="http://creativecommons.org/ns#"
   xmlns:dc="http://purl.org/dc/elements/1.1/">
  <metadata
     id="metadata16">
    <rdf:RDF>
      <cc:Work
         rdf:about="">
        <dc:format>image/svg+xml</dc:format>
        <dc:type
           rdf:resource="http://purl.org/dc/dcmitype/StillImage" />
      </cc:Work>
    </rdf:RDF>
  </metadata>
  <defs
     id="defs14" />
  <sodipodi:namedview
     pagecolor="#ffffff"
     bordercolor="#666666"
     borderopacity="1"
     objecttolerance="10"
     gridtolerance="10"
     guidetolerance="10"
     inkscape:pageopacity="0"
     inkscape:pageshadow="2"
     inkscape:window-width="1920"
     inkscape:window-height="1031"
     id="namedview12"
     showgrid="false"
     inkscape:zoom="6.5554691"
     inkscape:cx="0.15254438"
     inkscape:cy="32.33941"
     inkscape:window-x="0"
     inkscape:window-y="0"
     inkscape:window-maximized="1"
     inkscape:current-layer="svg10"
     inkscape:pagecheckerboard="0" />
  <path
     id="circle2"
     style="opacity:0.99;fill:#d08770;fill-opacity:1"
     transform="matrix(1.75830584759 0 0 1.75830608345 -18.15909274367 -30.97874795549)"
     d="M 37.173613,31.534513 A 13.232998,13.232998 0 0 1 23.940615,44.767511 13.232998,13.232998 0 0 1 10.707617,31.534513 13.232998,13.232998 0 0 1 23.940615,18.301516 13.232998,13.232998 0 0 1 37.173613,31.534513 Z" />
  <path
     d="m 20.501419,13.020543 v 22.896072 h 2.289608 V 13.020543 Z m 4.579215,0 v 22.896072 h 2.289607 V 13.020543 Z m -9.158429,2.289607 v 18.316857 h 2.289607 V 15.31015 Z m 13.737643,0 v 18.316857 h 2.289607 V 15.31015 Z M 11.34299,17.599757 V 31.3374 h 2.289608 V 17.599757 Z m 22.896072,0 V 31.3374 H 36.52867 V 17.599757 Z M 6.7637762,19.889364 v 9.158429 h 2.2896072 v -9.158429 z m 32.0545008,0 v 9.158429 h 2.289607 V 19.889364 Z M 2.1845619,22.178972 v 4.579214 h 2.2896072 v -4.579214 z m 41.2129291,0 v 4.579214 h 2.289607 v -4.579214 z"
     fill="#ffffff"
     fill-opacity="0.506787"
     id="path4"
     style="stroke-width:1.5264" />
  <g
     id="g883"
     transform="matrix(1.1982449,0,0,1.1982449,-2.250427,-3.6028407)">
    <circle
       style="fill:#ffffff;fill-opacity:1;stroke:none;stroke-width:9.30857;stroke-linecap:square;stroke-linejoin:round"
       id="path856"
       cx="19.346918"
       cy="28.316219"
       r="4.438766" />
    <rect
       style="fill:#ffffff;fill-opacity:1;stroke:none;stroke-width:5.91192;stroke-linecap:square;stroke-linejoin:round"
       id="rect858"
       width="2.5137801"
       height="12.969113"
       x="21.258451"
       y="15.581734" />
    <rect
       style="fill:#ffffff;fill-opacity:1;stroke:none;stroke-width:6.35219;stroke-linecap:square;stroke-linejoin:round"
       id="rect860"
       width="7.5414391"
       height="3.6864228"
       x="21.258097"
       y="14.099242" />
  </g>
  <path
     id="path1654"
     style="fill:#d08770;fill-opacity:1;stroke-width:1.25546"
     d="m 44.038205,32.35598 a 11.8201,11.8201 0 0 1 -11.8201,11.8201 11.8201,11.8201 0 0 1 -11.8201,-11.8201 11.8201,11.8201 0 0 1 11.8201,-11.8201 11.8201,11.8201 0 0 1 11.8201,11.8201 z" />
  <path
     id="circle1656"
     style="fill:#ffffff;fill-opacity:0.27744511;stroke-width:1.03121"
     d="m 41.926934,32.35598 a 9.7088289,9.7088289 0 0 1 -9.708829,9.708829 9.7088289,9.7088289 0 0 1 -9.708829,-9.708829 9.7088289,9.7088289 0 0 1 9.708829,-9.708829 9.7088289,9.7088289 0 0 1 9.708829,9.708829 z" />
  <rect
     style="fill:#ffffff;fill-opacity:1;stroke:none;stroke-width:4;stroke-linecap:square;stroke-linejoin:round"
     id="rect887"
     width="1.6455921"
     height="11.023376"
     x="29.657341"
     y="27.190922" />
  <rect
     style="fill:#ffffff;fill-opacity:1;stroke:none;stroke-width:4;stroke-linecap:square;stroke-linejoin:round"
     id="rect889"
     width="1.6455921"
     height="11.023376"
     x="33.172489"
     y="27.190922" />
  <rect
     style="fill:#ffffff;fill-opacity:1;stroke:none;stroke-width:4;stroke-linecap:square;stroke-linejoin:round"
     id="rect891"
     width="1.6455921"
     height="11.023376"
     x="29.950142"
     y="-37.686138"
     transform="rotate(90)" />
  <rect
     style="fill:#ffffff;fill-opacity:1;stroke:none;stroke-width:4;stroke-linecap:square;stroke-linejoin:round"
     id="rect893"
     width="1.6455921"
     height="11.023376"
     x="33.282574"
     y="-37.744488"
     transform="rotate(90)" />
  <rect
     style="fill:#f1e2db;fill-opacity:0.9921568;stroke:none;stroke-width:4;stroke-linecap:square;stroke-linejoin:round"
     id="rect885"
     width="8.1077271"
     height="8.4280338"
     x="28.164242"
     y="28.495344" />
</svg>
