<?xml version="1.0" encoding="UTF-8" standalone="no"?>
<svg
   height="48"
   width="48"
   version="1.1"
   id="svg6"
   sodipodi:docname="basilisk2.svg"
   inkscape:version="1.1.2 (0a00cf5339, 2022-02-04)"
   xmlns:inkscape="http://www.inkscape.org/namespaces/inkscape"
   xmlns:sodipodi="http://sodipodi.sourceforge.net/DTD/sodipodi-0.dtd"
   xmlns="http://www.w3.org/2000/svg"
   xmlns:svg="http://www.w3.org/2000/svg"
   xmlns:rdf="http://www.w3.org/1999/02/22-rdf-syntax-ns#"
   xmlns:cc="http://creativecommons.org/ns#"
   xmlns:dc="http://purl.org/dc/elements/1.1/">
  <metadata
     id="metadata12">
    <rdf:RDF>
      <cc:Work
         rdf:about="">
        <dc:format>image/svg+xml</dc:format>
        <dc:type
           rdf:resource="http://purl.org/dc/dcmitype/StillImage" />
      </cc:Work>
    </rdf:RDF>
  </metadata>
  <defs
     id="defs10">
    <linearGradient
       gradientUnits="userSpaceOnUse"
       gradientTransform="matrix(0.0920001,0,0,0.09064843,-21.193131,1.5846311)"
       y2="269.48999"
       y1="235.14999"
       x2="657.65002"
       x1="319.20999"
       id="a-12">
      <stop
         id="stop1076"
         offset="0"
         stop-color="#e54c18" />
      <stop
         id="stop1078"
         offset="1"
         stop-color="#fec350" />
    </linearGradient>
    <linearGradient
       id="linearGradient946"
       x1="31.833"
       x2="32.167"
       y1="51.558998"
       y2="11.098"
       gradientUnits="userSpaceOnUse"
       gradientTransform="matrix(0.83258662,0,0,0.83258662,-4.004011,0.8380211)">
      <stop
         stop-color="#f9f9f9"
         offset="0"
         id="stop5" />
      <stop
         stop-color="#f0fee6"
         offset="1"
         id="stop7-3" />
    </linearGradient>
    <linearGradient
       gradientUnits="userSpaceOnUse"
       y2="12.7"
       y1="4.2333002"
       x2="7.9373002"
       x1="7.9373002"
       id="linearGradient1166">
      <stop
         id="stop13"
         offset="0"
         stop-color="#ffffff" />
      <stop
         id="stop15"
         offset="1"
         stop-color="#b8ffe1"
         style="stop-color:#d6f2dc;stop-opacity:1" />
    </linearGradient>
  </defs>
  <sodipodi:namedview
     pagecolor="#ffffff"
     bordercolor="#666666"
     borderopacity="1"
     objecttolerance="10"
     gridtolerance="10"
     guidetolerance="10"
     inkscape:pageopacity="0"
     inkscape:pageshadow="2"
     inkscape:window-width="1920"
     inkscape:window-height="1030"
     id="namedview8"
     showgrid="true"
     inkscape:zoom="3.2777345"
     inkscape:cx="-18.457871"
     inkscape:cy="49.882015"
     inkscape:window-x="0"
     inkscape:window-y="24"
     inkscape:window-maximized="1"
     inkscape:current-layer="svg6"
     inkscape:document-rotation="0"
     inkscape:pagecheckerboard="0">
    <inkscape:grid
       type="xygrid"
       id="grid837" />
  </sodipodi:namedview>
  <circle
     cx="23.940615"
     cy="31.534513"
     opacity=".99"
     r="13.232998"
     transform="matrix(1.75830584759 0 0 1.75830608345 -18.15909274367 -30.97874795549)"
     id="circle2"
     style="fill:#4c566a;fill-opacity:1" />
  <ellipse
     cx="23.935829"
     cy="24.468578"
     opacity="0.99"
     id="circle858"
     style="fill:#eceff4;fill-opacity:1;stroke-width:1.50099;opacity:1"
     rx="19.862556"
     ry="19.862558" />
  <path
     d="m 13.64884,33.001349 c 1.143476,2.450328 2.557376,4.308521 3.971913,4.308521 3.231386,0 4.308514,-1.07713 6.462773,-1.07713 2.154258,0 3.231388,1.07713 6.462772,1.07713 1.412127,0 2.811697,-1.864882 3.950875,-4.308521 z"
     style="fill:#81a1c1;stroke-width:0.538564;fill-opacity:1"
     id="path4" />
  <path
     d="m 12.092052,28.692827 c 0.417779,1.47844 0.935476,2.97713 1.556788,4.308522 h 20.848333 c 0.526104,-1.128536 1.002473,-2.369217 1.388487,-3.626902 a 6.4627732,6.4627825 0 0 1 -1.346411,-0.68162 z"
     style="fill:#b48ead;stroke-width:0.538564;fill-opacity:1"
     id="path8" />
  <path
     d="m 11.362045,25.461436 c 0.155672,1.004183 0.411727,2.105061 0.730007,3.231391 H 34.539249 A 6.4627732,6.4627825 0 0 1 32,25.461436 Z"
     style="fill:#bf616a;stroke-width:0.538564;fill-opacity:1"
     id="path12" />
  <path
     d="m 11.425158,21.152915 c -0.167951,0.705215 -0.267179,1.428449 -0.267179,2.154261 0,0.616959 0.08103,1.360714 0.204066,2.15426 H 32 a 6.4627732,6.4627825 0 0 1 -0.376572,-2.15426 6.4627732,6.4627825 0 0 1 0.378678,-2.154261 z"
     style="fill:#d08770;stroke-width:0.538564;fill-opacity:1"
     id="path16" />
  <path
     d="m 12.80523,17.921524 c -0.623628,0.959432 -1.10273,2.066895 -1.380072,3.231391 h 20.576948 a 6.4627732,6.4627825 0 0 1 2.520312,-3.231391 z"
     style="fill:#ebcb8b;stroke-width:0.538564;fill-opacity:1"
     id="path20" />
  <path
     d="m 29.469169,7.15022 c 0,0 -2.154255,0 -4.308513,2.15426 -2.154259,2.154263 -2.154259,5.385653 -2.154259,5.385653 0,0 3.231387,0 5.385644,-3.23139 0.844971,-1.267457 1.077128,-4.308523 1.077128,-4.308523 z m -11.848416,7.539913 c -1.788148,0 -3.574937,1.322791 -4.815523,3.231391 h 21.717188 a 6.4627732,6.4627825 0 0 1 0.595368,-0.353432 c -1.224948,-1.715281 -2.896463,-2.877959 -4.571488,-2.877959 -4.308514,0 -4.308514,1.07713 -6.462772,1.07713 -2.154259,0 -2.154259,-1.07713 -6.462773,-1.07713 z"
     style="fill:#a3be8c;stroke-width:0.538564;fill-opacity:1"
     id="path24" />
</svg>
