<?xml version="1.0" encoding="UTF-8" standalone="no"?>
<svg
   height="48"
   width="48"
   version="1.1"
   id="svg10"
   sodipodi:docname="bee-package-manager.svg"
   inkscape:version="1.1.2 (0a00cf5339, 2022-02-04)"
   xmlns:inkscape="http://www.inkscape.org/namespaces/inkscape"
   xmlns:sodipodi="http://sodipodi.sourceforge.net/DTD/sodipodi-0.dtd"
   xmlns="http://www.w3.org/2000/svg"
   xmlns:svg="http://www.w3.org/2000/svg">
  <defs
     id="defs14">
    <linearGradient
       id="b-36"
       x1="5.822"
       x2="12.294"
       y1="5.441"
       y2="13.421"
       gradientTransform="matrix(1.933632,0,0,1.933632,0.56961517,0.69055681)"
       gradientUnits="userSpaceOnUse">
      <stop
         offset="0"
         stop-color="#deb247"
         id="stop7-7" />
      <stop
         offset="1"
         stop-color="#de7947"
         id="stop9-5" />
    </linearGradient>
  </defs>
  <sodipodi:namedview
     id="namedview12"
     pagecolor="#ffffff"
     bordercolor="#666666"
     borderopacity="1.0"
     inkscape:pageshadow="2"
     inkscape:pageopacity="0.0"
     inkscape:pagecheckerboard="0"
     showgrid="false"
     inkscape:zoom="5.8336309"
     inkscape:cx="5.3997245"
     inkscape:cy="18.770471"
     inkscape:window-width="1920"
     inkscape:window-height="1030"
     inkscape:window-x="0"
     inkscape:window-y="24"
     inkscape:window-maximized="1"
     inkscape:current-layer="svg10" />
  <g
     fill="#626c97"
     opacity="0.99"
     transform="matrix(1.1503549,0,0,1.1503549,-4.486125,-7.525565)"
     id="g6">
    <path
       d="M 44.322082,27.405077 A 19.729762,19.729765 0 0 1 24.59232,47.134842 19.729762,19.729765 0 0 1 4.8625579,27.405077 19.729762,19.729765 0 0 1 24.59232,7.6753138 19.729762,19.729765 0 0 1 44.322082,27.405077 Z"
       id="path2" />
    <path
       id="path4"
       style="fill:#8690ba;fill-opacity:1;stroke-width:1.15035"
       d="M 23.804688,1.3046875 A 22.696228,22.696232 0 0 0 1.1074219,24 22.696228,22.696232 0 0 0 23.804688,46.695312 22.696228,22.696232 0 0 0 46.5,24 22.696228,22.696232 0 0 0 23.804688,1.3046875 Z"
       transform="matrix(0.86929694,0,0,0.86929694,3.8997748,6.5419507)" />
  </g>
  <path
     d="M 23.465917,40.156239 A 3330.5575,3330.5575 0 0 1 10.749555,32.79734 0.42653487,0.42653487 0 0 1 10.679245,32.71062 c -0.02343,-0.04218 -0.02343,-0.389038 -0.01875,-4.766878 0,-2.59905 0.0094,-5.948052 0.01406,-7.445612 l 0.01406,-2.723261 0.03281,-0.06093 a 0.4734068,0.4734068 0 0 1 0.075,-0.100774 c 0.02343,-0.02343 1.045245,-0.61871 2.268604,-1.324132 1.221013,-0.705423 2.249854,-1.300697 2.285008,-1.324133 0.03281,-0.02343 0.871818,-0.50622 1.863162,-1.078056 l 4.115356,-2.374064 2.320162,-1.335853 h 0.215608 l 6.39802,3.691167 a 1092.4683,1092.4683 0 0 1 6.447241,3.73804 0.44528363,0.44528363 0 0 1 0.08436,0.107809 l 0.03281,0.06093 0.01177,2.72326 c 0.0046,1.49756 0.01177,4.846562 0.01406,7.445612 0.007,4.37784 0.0046,4.724692 -0.01875,4.766879 a 0.42184764,0.42184764 0 0 1 -0.0703,0.08671 c -0.03281,0.03281 -12.674175,7.342494 -12.868694,7.443268 a 0.36794489,0.36794489 0 0 1 -0.142957,0.02343 c -0.09374,0 -0.10781,-0.0046 -0.288264,-0.11015 z m -0.04687,-7.780745 v -6.979236 l -1.50459,-0.871818 a 47.335993,47.335993 0 0 1 -1.567867,-0.925722 0.40544245,0.40544245 0 0 1 -0.07968,-0.105454 0.42653487,0.42653487 0 0 1 -0.0047,-0.246078 0.49449919,0.49449919 0 0 1 0.173423,-0.182797 0.38903726,0.38903726 0 0 1 0.283575,0.0094 c 0.03515,0.0164 0.726515,0.414815 1.535058,0.881192 0.808541,0.46872 1.485842,0.850726 1.502246,0.850726 0.02812,0 3.862248,-2.200638 3.902092,-2.238137 0.007,-0.0046 -0.007,-0.02343 -0.03281,-0.04218 -0.121868,-0.08437 -11.99219,-6.925331 -12.015626,-6.925331 -0.02343,0 -3.803658,2.167827 -3.895059,2.235792 -0.02343,0.0164 0.304668,0.210921 2.906061,1.710828 1.617084,0.930408 2.959965,1.71317 2.988088,1.738949 0.075,0.0703 0.09608,0.121867 0.09608,0.239048 0,0.1453 -0.0539,0.234358 -0.18514,0.29998 a 0.40544245,0.40544245 0 0 1 -0.246078,0.0094 c -0.02343,-0.007 -1.356943,-0.773387 -2.964651,-1.703795 -1.61011,-0.928099 -2.931899,-1.687423 -2.93893,-1.687423 -0.01641,0 -0.03281,3.955992 -0.03515,9.411888 l -0.0047,4.530175 6.041793,3.487274 6.046483,3.487274 c 0,0 0.0046,-3.140423 0.0046,-6.983922 z M 17.75457,34.011326 A 1.2866353,1.2866353 0 0 1 17.152264,33.79572 C 16.770257,33.516826 16.407001,33.038733 16.08124,32.380182 a 4.3262819,4.3262819 0 0 1 -0.452314,-1.535059 c 0,-0.0539 0.03515,-0.295291 0.07734,-0.539026 0.0703,-0.405443 0.08672,-0.531998 0.0703,-0.531998 a 1.8397245,1.8397245 0 0 0 -0.117185,0.0539 c -0.499187,0.227325 -0.906973,0.234361 -1.274918,0.02343 a 2.5779579,2.5779579 0 0 1 -0.56245,-0.543714 c -0.264827,-0.351539 -0.578869,-0.914004 -0.637459,-1.1343 a 1.8209757,1.8209757 0 0 1 -0.03281,-0.267173 c -0.0094,-0.164048 -0.01406,-0.182796 -0.05156,-0.232012 a 6.592541,6.592541 0 0 1 -0.382005,-0.597616 6.7894036,6.7894036 0 0 1 -0.485126,-1.265543 1.4178767,1.4178767 0 0 1 -0.02343,-0.260138 c -0.0023,-0.140614 0,-0.164049 0.04453,-0.248423 0.09375,-0.182798 0.224986,-0.255453 0.46872,-0.253108 0.213268,0 0.424191,0.06093 0.860101,0.243733 0.459345,0.194516 0.979623,0.473407 1.363973,0.728862 0.274202,0.182796 0.820261,0.604647 1.148364,0.883535 0.01406,0.01177 0.03047,0.01875 0.03515,0.01406 a 1.685047,1.685047 0 0 0 -0.107809,-0.485126 2.4467164,2.4467164 0 0 1 -0.14999,-0.822603 c 0,-0.253108 0.02343,-0.356227 0.112491,-0.531996 a 0.78744891,0.78744891 0 0 1 0.309356,-0.31873 c 0.05859,-0.03047 0.0703,-0.04453 0.06328,-0.0703 a 3.6278897,3.6278897 0 0 0 -0.351538,-0.602311 c -0.187489,-0.281231 -0.196863,-0.29998 -0.203894,-0.386694 a 0.53902752,0.53902752 0 0 1 0.0024,-0.12889 0.52730953,0.52730953 0 0 1 0.180454,-0.201545 0.44762722,0.44762722 0 0 1 0.27186,0 c 0.075,0.03749 0.182797,0.171079 0.353884,0.431224 0.187483,0.283574 0.328102,0.553089 0.403098,0.773385 0.04687,0.131244 0.05625,0.149987 0.103113,0.173423 l 0.253109,0.124208 a 4.3684666,4.3684666 0 0 1 0.522622,0.302323 c 0.03515,0.0211 0.03985,0.01875 0.08672,-0.03047 a 0.95618803,0.95618803 0 0 1 0.299981,-0.19217 1.5795851,1.5795851 0 0 1 0.431221,-0.117172 c 0.15233,0 0.304669,0.128889 0.3117,0.262482 0.0047,0.164049 -0.007,0.206233 -0.09374,0.295291 -0.04687,0.04687 -0.08202,0.06796 -0.222638,0.110151 -0.182797,0.05859 -0.269514,0.103113 -0.269514,0.138266 a 1.124927,1.124927 0 0 0 0.117172,0.189826 2.0998639,2.0998639 0 0 1 0.407787,1.174143 1.3358509,1.3358509 0 0 1 -0.159363,0.670268 1.6006774,1.6006774 0 0 0 -0.09608,0.267172 1.7506678,1.7506678 0 0 0 -0.0047,0.546058 1.4061588,1.4061588 0 0 0 0.234359,0.08906 c 0.810886,0.250765 1.363976,0.494498 1.968624,0.871817 0.499186,0.307013 1.019463,0.698393 1.317102,0.991343 0.276544,0.269514 0.382006,0.452313 0.39841,0.693706 a 0.85306966,0.85306966 0 0 1 -0.103115,0.475751 c -0.187484,0.39138 -0.496841,0.712453 -0.768698,0.799165 -0.05625,0.01875 -0.05625,0.01875 -0.075,0.135925 -0.03985,0.26483 -0.187484,0.440598 -0.496842,0.592931 a 1.1647682,1.1647682 0 0 1 -0.562465,0.147644 c -0.459342,0 -0.824946,-0.271859 -1.314757,-0.979627 a 0.7616693,0.7616693 0 0 0 -0.138266,-0.173421 1.0663371,1.0663371 0 0 0 0.01875,0.168735 0.89525441,0.89525441 0 0 1 -0.01177,0.445284 2.3225056,2.3225056 0 0 1 -0.196858,0.557777 1.0757115,1.0757115 0 0 1 -0.241391,0.304667 1.2866353,1.2866353 0 0 1 -0.974938,0.400756 z m 0.29764,-0.712453 a 0.77338738,0.77338738 0 0 0 0.304666,-0.257797 c 0.06093,-0.09374 0.107796,-0.206232 0.09374,-0.222636 a 1.5748978,1.5748978 0 0 0 -0.192172,-0.03985 3.1497958,3.1497958 0 0 1 -1.520996,-0.714797 c -0.06562,-0.05859 -0.11015,-0.08672 -0.11015,-0.07266 0,0.06562 0.314042,0.597617 0.499187,0.846038 a 1.5233386,1.5233386 0 0 0 0.539029,0.489813 0.63745865,0.63745865 0 0 0 0.386692,-0.02813 z m 2.78185,-0.721828 c 0.157017,-0.0703 0.17811,-0.09374 0.17811,-0.180454 v -0.07266 L 20.496574,31.920839 A 29.137955,29.137955 0 0 1 19.195877,30.88028 c -0.03515,0 0.562463,0.94447 0.79448,1.253825 0.147644,0.199203 0.351539,0.398412 0.454658,0.452315 a 0.29294975,0.29294975 0 0 0 0.192172,0.03749 0.53199672,0.53199672 0 0 0 0.196857,-0.04687 z m -2.350629,-0.459347 c 0,-0.06093 -0.07734,-0.506217 -0.08672,-0.515593 a 1.3171021,1.3171021 0 0 0 -0.189828,-0.05625 c -0.642145,-0.154673 -1.150707,-0.431222 -1.736605,-0.949157 -0.0703,-0.05859 -0.11015,-0.08671 -0.119527,-0.075 a 0.35388328,0.35388328 0 0 0 -0.03281,0.11015 l -0.0164,0.09374 0.135925,0.147643 c 0.424191,0.464032 0.97025,0.909317 1.30304,1.063994 0.264825,0.124208 0.742921,0.241391 0.742921,0.180454 z m 3.039646,-0.328104 a 0.42653487,0.42653487 0 0 0 0.168737,-0.126549 c 0.175766,-0.187484 0.290607,-0.410128 0.264827,-0.515591 -0.01406,-0.05858 -0.257797,-0.307012 -0.468719,-0.473407 a 9.7962397,9.7962397 0 0 0 -1.495215,-0.986658 10.405575,10.405575 0 0 0 -1.61005,-0.581214 c -0.02343,0.01875 0.562462,0.65621 0.780417,0.848386 0.316387,0.281231 0.703079,0.621054 0.836664,0.733545 0.168736,0.140614 1.43194,1.124927 1.443657,1.124927 a 0.63277146,0.63277146 0 0 0 0.07968,-0.02343 z M 18.28188,30.82872 a 0.17342626,0.17342626 0 0 0 -0.01177,-0.0703 0.81791572,0.81791572 0 0 0 -0.196859,-0.07968 4.373154,4.373154 0 0 1 -0.902286,-0.398414 c -0.075,-0.04921 -0.128889,-0.07968 -0.128889,-0.0703 a 3.2036983,3.2036983 0 0 0 0.672613,0.46872 c 0.117172,0.05858 0.503874,0.1992 0.548403,0.1992 0.01177,0 0.0211,-0.01875 0.01875,-0.04687 z m -0.222639,-0.944471 0.03985,-0.075 -0.124208,-0.142957 a 3.7942854,3.7942854 0 0 1 -0.168736,-0.210919 c -0.152331,-0.215607 -0.21795,-0.50856 -0.157018,-0.707767 a 0.53668396,0.53668396 0 0 1 0.276547,-0.292949 0.37731927,0.37731927 0 0 0 0.09608,-0.05157 c 0,-0.02343 -0.321073,-0.386695 -0.426536,-0.487471 -0.222637,-0.206232 -0.513247,-0.374974 -0.674957,-0.391379 -0.05157,-0.0024 -0.09374,-0.0024 -0.09374,0.0024 0,0.0046 0.04687,0.07266 0.10781,0.152331 0.117171,0.157018 0.234359,0.370291 0.250767,0.461689 a 0.77338738,0.77338738 0 0 1 -0.02343,0.370289 0.55777631,0.55777631 0 0 1 -0.278887,0.295294 l -0.07968,0.03047 -0.0094,0.117172 a 1.38741,1.38741 0 0 1 -0.01875,0.15233 c -0.0094,0.03515 0.0047,0.05157 0.107809,0.140614 0.276544,0.236703 0.602305,0.466376 0.820259,0.576523 0.12889,0.06328 0.285918,0.133584 0.307011,0.135924 0.007,0 0.02813,-0.03281 0.04921,-0.075 z m -2.945907,-0.562464 c 0.0539,-0.01406 0.14296,-0.04219 0.201549,-0.06328 0.110151,-0.03985 0.590588,-0.281233 0.674956,-0.335135 l 0.04453,-0.02813 -0.06328,-0.05625 c -0.05625,-0.04921 -0.09374,-0.06328 -0.39841,-0.142954 a 10.086846,10.086846 0 0 1 -1.192893,-0.384351 15.927092,15.927092 0 0 0 -0.485124,-0.178109 c -0.02343,0 -0.01406,0.02343 0.08202,0.192171 0.131244,0.239047 0.358572,0.576525 0.487469,0.726516 a 1.0780551,1.0780551 0 0 0 0.346853,0.2742 0.60933548,0.60933548 0 0 0 0.304667,-0.0046 z m 1.345225,-1.167113 a 1.0616499,1.0616499 0 0 0 -0.187485,-0.229668 c -0.09374,-0.08906 -0.740577,-0.632772 -1.017121,-0.853071 A 7.7385605,7.7385605 0 0 0 13.444695,25.94935 3.5107098,3.5107098 0 0 0 12.905668,25.747804 c -0.02343,0.02343 0.246077,0.731203 0.367945,0.965563 0.07031,0.142957 0.304667,0.503875 0.382007,0.595274 0.02813,0.03515 0.171081,0.09374 0.71011,0.295295 0.370288,0.138266 0.74292,0.271856 0.827289,0.297635 0.175768,0.0539 0.82729,0.229668 0.921035,0.248421 a 1.4202204,1.4202204 0 0 0 0.344506,0.0046 z m 1.748325,-0.74995 a 0.75463857,0.75463857 0 0 0 0.08671,-0.43591 1.3944408,1.3944408 0 0 0 -0.295294,-0.773387 1.3592868,1.3592868 0 0 0 -0.379664,-0.398409 3.5364894,3.5364894 0 0 0 -0.67261,-0.398415 c -0.17108,-0.075 -0.206233,-0.08671 -0.257798,-0.07734 -0.09374,0.0164 -0.131244,0.0539 -0.152331,0.159362 -0.03281,0.168736 0,0.382005 0.131244,0.803853 a 4.2184764,4.2184764 0 0 1 0.131244,0.555432 l 0.154674,0.01875 a 1.3124149,1.3124149 0 0 1 0.492156,0.159361 c 0.210919,0.105454 0.374975,0.210919 0.546056,0.363258 a 1.4295948,1.4295948 0 0 0 0.159362,0.124207 c 0.0047,0 0.03047,-0.04687 0.05625,-0.100773 z m 12.029688,8.413517 5.950395,-3.433371 -0.0024,-4.530175 a 702.25679,702.25679 0 0 0 -0.03749,-9.41189 212.09562,212.09562 0 0 0 -1.949873,1.117897 l -1.935813,1.12024 -0.0024,1.989714 c -0.0046,2.212357 0.0024,2.062368 -0.107809,2.170173 -0.03281,0.02812 -0.874162,0.524965 -1.872533,1.099147 l -1.813946,1.045245 h -0.105455 c -0.117172,0 -0.15233,-0.01177 -0.227325,-0.08438 -0.105454,-0.09843 -0.09843,-0.01875 -0.11249,-1.29601 a 206.17569,206.17569 0 0 1 -0.01177,-1.806914 c 0,-0.614021 -0.0024,-0.649177 -0.02812,-0.639803 a 211.36911,211.36911 0 0 0 -1.95456,1.124927 l -1.92878,1.110866 V 39.36175 l 0.09374,-0.0539 c 0.0539,-0.02812 2.774823,-1.598333 6.046483,-3.489616 z M 30.110023,25.272047 c 0.768701,-0.445284 1.417876,-0.82026 1.441312,-0.836663 l 0.04219,-0.02812 -0.0094,-1.659268 -0.01406,-1.663954 c -0.0024,-0.0046 -2.842783,1.631145 -2.870908,1.656924 -0.02343,0.01875 -0.02812,3.339627 -0.0046,3.339627 0.0094,0 0.646834,-0.363258 1.415533,-0.808542 z m -0.328105,-3.923183 c 0.78042,-0.452314 1.429594,-0.829634 1.441315,-0.841351 0.01405,-0.0164 -1.127272,-0.679645 -5.994926,-3.491961 a 1196.7068,1196.7068 0 0 0 -6.044142,-3.477898 95.930499,95.930499 0 0 0 -2.901372,1.666299 c 0.01405,0.01405 12.053122,6.965171 12.062497,6.965171 0.007,0 0.651521,-0.370289 1.434282,-0.82026 z m 4.094267,-2.367035 c 1.06165,-0.611678 1.933469,-1.120238 1.935812,-1.129611 a 1814.1558,1814.1558 0 0 0 -12.062504,-6.965176 208.08806,208.08806 0 0 0 -3.883342,2.256886 c 0.0094,0.02343 12.01797,6.9558 12.05078,6.9558 0.01406,0 0.895255,-0.503873 1.95925,-1.115554 z"
     id="path18"
     style="fill:#fffefd;fill-opacity:1;stroke-width:1.40158" />
</svg>
