<?xml version="1.0" encoding="UTF-8" standalone="no"?>
<svg
   height="48"
   width="48"
   version="1.1"
   id="svg18"
   sodipodi:docname="betaflight-configurator.svg"
   inkscape:version="1.1.2 (0a00cf5339, 2022-02-04)"
   xmlns:inkscape="http://www.inkscape.org/namespaces/inkscape"
   xmlns:sodipodi="http://sodipodi.sourceforge.net/DTD/sodipodi-0.dtd"
   xmlns="http://www.w3.org/2000/svg"
   xmlns:svg="http://www.w3.org/2000/svg"
   xmlns:rdf="http://www.w3.org/1999/02/22-rdf-syntax-ns#"
   xmlns:cc="http://creativecommons.org/ns#"
   xmlns:dc="http://purl.org/dc/elements/1.1/">
  <metadata
     id="metadata24">
    <rdf:RDF>
      <cc:Work
         rdf:about="">
        <dc:format>image/svg+xml</dc:format>
        <dc:type
           rdf:resource="http://purl.org/dc/dcmitype/StillImage" />
      </cc:Work>
    </rdf:RDF>
  </metadata>
  <defs
     id="defs22" />
  <sodipodi:namedview
     pagecolor="#ffffff"
     bordercolor="#666666"
     borderopacity="1"
     objecttolerance="10"
     gridtolerance="10"
     guidetolerance="10"
     inkscape:pageopacity="0"
     inkscape:pageshadow="2"
     inkscape:window-width="1920"
     inkscape:window-height="1007"
     id="namedview20"
     showgrid="true"
     inkscape:zoom="1.7383042"
     inkscape:cx="-149.8587"
     inkscape:cy="-37.105128"
     inkscape:window-x="0"
     inkscape:window-y="0"
     inkscape:window-maximized="1"
     inkscape:current-layer="svg18"
     inkscape:document-rotation="0"
     inkscape:pagecheckerboard="0">
    <inkscape:grid
       type="xygrid"
       id="grid834" />
  </sodipodi:namedview>
  <path
     id="circle2"
     style="opacity:0.99;fill:#b7c4c8"
     transform="matrix(1.72140702696 0 0 1.72140725788 -17.2289093957 -30.06939350282)"
     d="M 37.173613,31.534513 A 13.232998,13.232998 0 0 1 23.940615,44.767511 13.232998,13.232998 0 0 1 10.707617,31.534513 13.232998,13.232998 0 0 1 23.940615,18.301516 13.232998,13.232998 0 0 1 37.173613,31.534513 Z" />
  <path
     id="path4490"
     style="opacity:1;fill:#ffffff;stroke-width:18.3369;stroke-linecap:round;stroke-linejoin:bevel"
     d="M 43.541956,24.214346 A 19.559322,19.559322 0 0 1 23.982634,43.773668 19.559322,19.559322 0 0 1 4.4233112,24.214346 19.559322,19.559322 0 0 1 23.982634,4.6550236 19.559322,19.559322 0 0 1 43.541956,24.214346 Z" />
  <g
     fill="#ffffff"
     fill-rule="evenodd"
     id="g12"
     transform="matrix(0.61227858,-0.3534992,0.3534992,0.61227858,0.7950579,18.69368)"
     style="fill:#e69bc3;fill-opacity:1">
    <path
       d="m 23.172343,14.587282 c -2.195997,0 -3.976529,1.780532 -3.976529,3.976536 0,1.020296 0.385252,1.951171 1.016995,2.65511 -0.39936,-0.134744 -0.826422,-0.208527 -1.271243,-0.208527 -2.196003,0 -3.976535,1.780532 -3.976535,3.976529 0,2.196004 1.780532,3.976536 3.976535,3.976536 0.915375,0 1.758845,-0.309775 2.43097,-0.829652 l -1.687183,5.580081 h 3.48699 3.55499 L 25,28 c 0.678465,0.539023 1.537021,0.860873 2.47112,0.860873 2.196004,0 3.976536,-2.142023 3.976536,-4.338027 0,-2.196003 -1.780532,-3.613924 -3.976536,-3.613924 -0.399864,0 -0.785638,0.05854 -1.149689,0.168383 0.559584,-0.685043 0.895442,-1.559953 0.895442,-2.513487 0,-2.196004 -1.84852,-3.976536 -4.04453,-3.976536 z"
       id="path6"
       style="fill:#fbfbfb;fill-opacity:1" />
    <path
       d="m 11.692894,6.246227 c -0.368999,0 -0.668186,0.299187 -0.668186,0.668188 0,0.171443 0.06473,0.32786 0.170888,0.446145 -0.06711,-0.02264 -0.138866,-0.03504 -0.21361,-0.03504 -0.369001,0 -0.668188,0.299187 -0.668188,0.668186 0,0.369 0.299187,0.668188 0.668188,0.668188 0.153812,0 0.295543,-0.05205 0.408482,-0.139409 l -0.283502,0.937636 h 0.585928 0.597354 L 12,8.5 c 0.114004,0.09057 0.25827,0.144655 0.415229,0.144655 0.369,0 0.668188,-0.35993 0.668188,-0.72893 0,-0.369 -0.299188,-0.607257 -0.668188,-0.607257 -0.06719,0 -0.132013,0.0098 -0.193185,0.02829 0.09403,-0.11511 0.150463,-0.262123 0.150463,-0.422348 0,-0.368996 -0.310611,-0.668183 -0.679613,-0.668183 z"
       id="path8"
       style="fill:#fbfbfb;fill-opacity:1" />
    <path
       d="m 35.997298,42.614333 c -0.368999,0 -0.668186,-0.299187 -0.668186,-0.668188 0,-0.171443 0.06473,-0.32786 0.170888,-0.446145 -0.06711,0.02264 -0.138866,0.03504 -0.21361,0.03504 -0.369001,0 -0.668188,-0.299187 -0.668188,-0.668186 0,-0.369 0.299187,-0.668188 0.668188,-0.668188 0.153812,0 0.295543,0.05205 0.408482,0.139409 L 35.41137,39.400439 h 0.585928 0.597354 l -0.290248,0.960121 c 0.114004,-0.09057 0.25827,-0.144655 0.415229,-0.144655 0.369,0 0.668188,0.35993 0.668188,0.72893 0,0.369 -0.299188,0.607257 -0.668188,0.607257 -0.06719,0 -0.132013,-0.0098 -0.193185,-0.02829 0.09403,0.11511 0.150463,0.262123 0.150463,0.422348 0,0.368996 -0.310611,0.668183 -0.679613,0.668183 z"
       id="path10"
       style="fill:#fbfbfb;fill-opacity:1" />
  </g>
  <path
     style="fill:#4c566a;fill-opacity:1;stroke-width:0.722685"
     class="st0"
     d="m 32.174808,30.326212 c -2.269366,-0.97229 -3.924115,-2.430721 -5.531581,-3.062709 0.851011,-0.388917 1.654749,-0.923673 2.127531,-1.409818 0.520062,-0.534757 0.709177,-1.166745 0.6619,-1.798732 1.70202,1.166742 3.68772,1.263975 4.727843,1.312588 1.040126,0.04863 2.080253,0.291686 2.269369,0.777832 0,0 0.330949,-5.930962 -11.535947,-9.868732 0,0 3.545886,1.652893 4.63329,2.965479 0,0 -1.27652,-0.09724 -1.796582,0.777835 -0.28367,0.437527 -0.33095,1.069515 -0.09457,1.798729 -0.189121,-0.04863 -0.425503,-0.04863 -0.661896,-0.09724 L 8.157343,10.977659 l 1.985696,4.3753 -1.843861,-0.680603 0.56734,1.069519 c 0,0 0.803736,1.55566 2.600316,4.812826 1.418355,2.576564 3.971392,3.840541 7.375439,3.694698 h 0.425508 c 0.85101,-0.04863 2.17481,-0.19445 3.451326,-0.291688 -0.09457,0.486144 -0.09457,1.069518 0.04728,1.750121 0.141847,0.777832 0.472785,1.312588 0.851011,1.604274 -0.992846,0.486146 -1.793755,1.458434 -2.171983,2.576567 v 0 c -0.283671,0.729214 -0.378226,1.555661 0,2.576565 v 0 c 0.04728,0.194448 0.141848,0.388914 0.28367,0.631988 0.09456,0.194447 0.236404,0.388914 0.425507,0.583371 2.080252,2.576564 7.041667,2.139033 10.256602,0.777832 0.04728,0 0.09457,-0.04863 0.141848,-0.04863 0.236404,-0.09724 0.520061,-0.243068 0.756452,-0.340302 0.04728,-0.04863 0.09456,-0.04863 0.141848,-0.09724 0.283666,-0.145863 0.520062,-0.29169 0.803729,-0.437532 3.167668,-1.895962 4.255073,-4.132227 4.255073,-4.132227 0,0 -3.262215,2.236265 -6.335314,0.923674 z m 0.514239,-9.088974 c 0.898292,0.388917 2.269368,2.722412 2.269368,2.722412 -1.134682,-0.194448 -3.451328,-0.972291 -3.68772,-1.847348 -0.236402,-0.875064 0.520063,-1.263975 1.418352,-0.875064 z m -2.689046,11.762767 c 0,0 0.236403,0.777831 -0.04728,1.798735 -0.330951,0.09724 -0.6619,0.145862 -0.992847,0.243067 C 29.527215,34.604277 30,33.923672 30,33 Z m -15.554615,-14.827401 8.179173,4.764215 c -1.512911,0.145862 -3.073099,0.291684 -3.876835,0.340302 -1.229241,0.04863 -2.316647,-0.09724 -3.262214,-0.437531 -1.418352,-0.486144 -2.458478,-1.458433 -3.214934,-2.771022 -0.94557,-1.652894 -1.560188,-2.868251 -1.985696,-3.64608 l 1.702023,0.583371 -1.702023,-3.743314 14.892714,8.458914 c -0.425505,0.04863 -0.803732,0.194448 -1.181961,0.340299 z m 8.699231,5.979574 c 0.567345,-2.819635 4.113233,-1.944576 4.113233,-1.944576 -1.276521,0 -2.032977,0.340302 -2.411204,0.875061 -0.56734,0.777829 0.141849,1.409817 0.141849,1.409817 -0.189122,-0.04863 -0.378226,-0.09724 -0.472785,-0.19445 v 0.04863 c 0.283674,1.118131 1.181963,1.40982 1.181963,1.40982 -0.330949,0.04863 -0.614619,0 -0.851011,-0.04863 0.189122,0.437532 0.472782,0.777832 0.614617,0.87506 -0.803735,0 -1.181958,0.194448 -1.465631,0.291687 -0.61462,-0.437531 -1.134683,-1.507046 -0.851016,-2.722409 z m 2.555865,6.222647 c 0,0 -1.276518,1.652893 -4.065948,1.652893 -0.141847,-0.631987 -0.09457,-1.263975 0.04728,-1.84735 0.898291,0.583375 2.222089,0.875061 4.018671,0.19445 z m -2.316644,3.840543 c 1.18196,-0.291691 2.69487,-0.972291 4.113225,-2.625181 0,0 -0.189122,1.847347 -1.512911,3.548853 -0.614618,-0.09724 -1.229238,-0.243068 -1.79658,-0.486143 -0.283671,-0.145862 -0.56734,-0.291688 -0.803734,-0.437529 z m 11.013058,-1.507049 c -0.141847,-0.437531 -0.236404,-1.361203 -0.236404,-1.361203 0.992852,0.09724 2.174812,-0.340303 2.174812,-0.340303 -0.803734,1.069517 -1.938416,1.701506 -1.938416,1.701506 z"
     id="path8-3" />
</svg>
