<?xml version="1.0" encoding="UTF-8" standalone="no"?>
<svg
   height="48"
   width="48"
   version="1.1"
   id="svg6"
   sodipodi:docname="bitcoin.svg"
   inkscape:version="1.1.2 (0a00cf5339, 2022-02-04)"
   xmlns:inkscape="http://www.inkscape.org/namespaces/inkscape"
   xmlns:sodipodi="http://sodipodi.sourceforge.net/DTD/sodipodi-0.dtd"
   xmlns="http://www.w3.org/2000/svg"
   xmlns:svg="http://www.w3.org/2000/svg">
  <defs
     id="defs10" />
  <sodipodi:namedview
     id="namedview8"
     pagecolor="#ffffff"
     bordercolor="#666666"
     borderopacity="1.0"
     inkscape:pageshadow="2"
     inkscape:pageopacity="0.0"
     inkscape:pagecheckerboard="0"
     showgrid="false"
     inkscape:zoom="3.375"
     inkscape:cx="-28.740741"
     inkscape:cy="76.888889"
     inkscape:window-width="1920"
     inkscape:window-height="1029"
     inkscape:window-x="0"
     inkscape:window-y="0"
     inkscape:window-maximized="1"
     inkscape:current-layer="svg6" />
  <path
     id="path2"
     style="stroke-width:1.15035;fill:#d08770;fill-opacity:1"
     d="M 23.804688 1.3046875 A 22.696228 22.696232 0 0 0 1.1074219 24 A 22.696228 22.696232 0 0 0 23.804688 46.695312 A 22.696228 22.696232 0 0 0 46.5 24 A 22.696228 22.696232 0 0 0 23.804688 1.3046875 z " />
  <path
     d="m20.302864 12.000001v4c-.491694.02-1.394226 0-1.865234 0h-3.134766v2s1.718836-.02999 1.691406 0c.920258-.014 1.213314.654087 1.308594 1.099609v9.900391c-.03527.281551-.0053.98-.648438 1 .0297.026-2.351562 0-2.351562 0v2h3.253906c.550204-.02 1.214576 0 1.746094 0v4l2-.03711v-3.96289h1.96875l.0625 4h2l-.0625-4c3.815624-.276952 6.033065-2 6.033065-4.501953 0-1.498047-1.445329-3.498047-3-3.498047.561809 0 2-2 2-4 0-1.722387-1.089853-3.444775-3.009867-3.889746-.309466-.07172-1.63856-.110254-1.990071-.110254l-.0019-4h-2v4c-.597224 0-1.391758-.022-1.9981 0l-.0019-4zm2 6c2 0 5.000347.000038 5 2.5.000347 2.500163-3 2.5-5 2.5zm0 7c4 .000125 6.000416.000038 6 2.5.000416 2.500163-2 2.5-6 2.5z"
     fill="#ffffff"
     id="path4" />
</svg>
