<?xml version="1.0" encoding="UTF-8" standalone="no"?>
<svg
   width="100%"
   height="100%"
   viewBox="0 0 1024 1024"
   version="1.1"
   xml:space="preserve"
   style="fill-rule:evenodd;clip-rule:evenodd;stroke-linecap:round;stroke-linejoin:round;stroke-miterlimit:1.5;"
   id="svg28"
   sodipodi:docname="com.bitwarden.desktop.svg"
   inkscape:version="1.1.2 (0a00cf5339, 2022-02-04)"
   xmlns:inkscape="http://www.inkscape.org/namespaces/inkscape"
   xmlns:sodipodi="http://sodipodi.sourceforge.net/DTD/sodipodi-0.dtd"
   xmlns="http://www.w3.org/2000/svg"
   xmlns:svg="http://www.w3.org/2000/svg"
   xmlns:rdf="http://www.w3.org/1999/02/22-rdf-syntax-ns#"
   xmlns:cc="http://creativecommons.org/ns#"
   xmlns:dc="http://purl.org/dc/elements/1.1/"><metadata
     id="metadata34"><rdf:RDF><cc:Work
         rdf:about=""><dc:format>image/svg+xml</dc:format><dc:type
           rdf:resource="http://purl.org/dc/dcmitype/StillImage" /></cc:Work></rdf:RDF></metadata><defs
     id="defs32" /><sodipodi:namedview
     pagecolor="#ffffff"
     bordercolor="#666666"
     borderopacity="1"
     objecttolerance="10"
     gridtolerance="10"
     guidetolerance="10"
     inkscape:pageopacity="0"
     inkscape:pageshadow="2"
     inkscape:window-width="1920"
     inkscape:window-height="1029"
     id="namedview30"
     showgrid="false"
     inkscape:zoom="0.4609375"
     inkscape:cx="-277.69492"
     inkscape:cy="547.79661"
     inkscape:window-x="0"
     inkscape:window-y="0"
     inkscape:window-maximized="1"
     inkscape:current-layer="svg28"
     showguides="true"
     inkscape:guide-bbox="true"
     inkscape:pagecheckerboard="0"><sodipodi:guide
       position="434.44068,402.98305"
       orientation="0,1"
       id="guide4556"
       inkscape:locked="false" /></sodipodi:namedview><clipPath
     id="_clip1"><rect
       x="507.91"
       y="595.281"
       width="77.683"
       height="139.869"
       id="rect8" /></clipPath><clipPath
     id="_clip2"><rect
       x="438.407"
       y="595.281"
       width="73.593"
       height="139.869"
       id="rect15" /></clipPath><path
     id="circle2"
     style="fill:#a3be8c;stroke-width:1.08311;fill-opacity:1"
     d="M 981.80887,509.83051 A 480.65634,480.65634 0 0 1 501.15253,990.48685 480.65634,480.65634 0 0 1 20.496185,509.83051 480.65634,480.65634 0 0 1 501.15253,29.174164 480.65634,480.65634 0 0 1 981.80887,509.83051 Z" /><path
     style="opacity:1;fill:#ffffff;fill-opacity:1;stroke:none;stroke-width:6.46427727;stroke-linecap:round;stroke-linejoin:round;stroke-miterlimit:4;stroke-dasharray:none;stroke-dashoffset:0;stroke-opacity:0.02000002"
     d="m 351.78184,311.80546 c -19.42351,0 -35.06219,15.63605 -35.06219,35.05956 v 129.01725 1.80703 c 0,0.6597 0.0222,1.31435 0.0579,1.96485 2.49452,163.74085 166.19267,228.2014 184.37499,228.2014 19.35213,0 184.43286,-65.43598 184.43286,-231.97328 h -0.72861 V 346.86502 c 0,-19.42351 -15.63866,-35.05956 -35.06217,-35.05956 z m 149.03925,17.16548 h 136.09018 c 17.73987,0 32.02154,14.27904 32.02154,32.0189 V 478.8256 h 0.66547 c 0,152.10167 -150.7711,211.86448 -168.44577,211.86448 z"
     id="rect4552"
     inkscape:connector-curvature="0" /></svg>
