<?xml version="1.0" encoding="UTF-8" standalone="no"?>
<svg
   height="48"
   width="48"
   version="1.1"
   id="svg24"
   sodipodi:docname="appimagekit-brackets-electron.svg"
   inkscape:version="1.1.2 (0a00cf5339, 2022-02-04)"
   xmlns:inkscape="http://www.inkscape.org/namespaces/inkscape"
   xmlns:sodipodi="http://sodipodi.sourceforge.net/DTD/sodipodi-0.dtd"
   xmlns="http://www.w3.org/2000/svg"
   xmlns:svg="http://www.w3.org/2000/svg">
  <defs
     id="defs28" />
  <sodipodi:namedview
     id="namedview26"
     pagecolor="#ffffff"
     bordercolor="#666666"
     borderopacity="1.0"
     inkscape:pageshadow="2"
     inkscape:pageopacity="0.0"
     inkscape:pagecheckerboard="0"
     showgrid="false"
     inkscape:zoom="6.75"
     inkscape:cx="-25.037037"
     inkscape:cy="38.074074"
     inkscape:window-width="1920"
     inkscape:window-height="996"
     inkscape:window-x="0"
     inkscape:window-y="0"
     inkscape:window-maximized="1"
     inkscape:current-layer="svg24" />
  <path
     id="circle2"
     transform="matrix(1.72140702696 0 0 1.72140725788 -17.2289093957 -30.06939350282)"
     style="opacity:0.99;fill:#81a1c1;fill-opacity:1"
     d="M 37.173613,31.534513 A 13.232998,13.232998 0 0 1 23.940615,44.767511 13.232998,13.232998 0 0 1 10.707617,31.534513 13.232998,13.232998 0 0 1 23.940615,18.301516 13.232998,13.232998 0 0 1 37.173613,31.534513 Z" />
  <g
     stroke="#ffffff"
     stroke-width="5"
     id="g22">
    <g
       fill="#ffffff"
       fill-rule="evenodd"
       transform="translate(.5 .5)"
       id="g8">
      <path
         d="m22 14h-12"
         id="path4" />
      <path
         d="m38 14h-12"
         id="path6" />
    </g>
    <g
       fill="none"
       stroke-opacity=".43007"
       transform="translate(.5 .5)"
       id="g14">
      <path
         d="m12.5 11.5v25"
         id="path10" />
      <path
         d="m35.5 11.5v25"
         id="path12" />
    </g>
    <g
       fill="#ffffff"
       fill-rule="evenodd"
       transform="translate(.5 20.5)"
       id="g20">
      <path
         d="m22 14h-12"
         id="path16" />
      <path
         d="m38 14h-12"
         id="path18" />
    </g>
  </g>
</svg>
