<?xml version="1.0" encoding="UTF-8" standalone="no"?>
<svg
   height="48"
   width="48"
   version="1.1"
   id="svg6"
   sodipodi:docname="budgiewprviews.svg"
   inkscape:version="1.1.2 (0a00cf5339, 2022-02-04)"
   xmlns:inkscape="http://www.inkscape.org/namespaces/inkscape"
   xmlns:sodipodi="http://sodipodi.sourceforge.net/DTD/sodipodi-0.dtd"
   xmlns="http://www.w3.org/2000/svg"
   xmlns:svg="http://www.w3.org/2000/svg">
  <defs
     id="defs10">
    <linearGradient
       id="b"
       x1="32"
       x2="32"
       y1="51"
       y2="13"
       gradientUnits="userSpaceOnUse"
       gradientTransform="matrix(1.5847064,0,0,1.5847064,-22.289718,-26.8202)">
      <stop
         offset="0"
         stop-color="#f4c3ca"
         id="stop7-3" />
      <stop
         offset="1"
         stop-color="#fff"
         id="stop9-6" />
    </linearGradient>
  </defs>
  <sodipodi:namedview
     id="namedview8"
     pagecolor="#ffffff"
     bordercolor="#666666"
     borderopacity="1.0"
     inkscape:pageshadow="2"
     inkscape:pageopacity="0.0"
     inkscape:pagecheckerboard="0"
     showgrid="false"
     inkscape:zoom="9.6785241"
     inkscape:cx="0.46494692"
     inkscape:cy="19.889396"
     inkscape:window-width="1920"
     inkscape:window-height="1032"
     inkscape:window-x="0"
     inkscape:window-y="24"
     inkscape:window-maximized="1"
     inkscape:current-layer="svg6" />
  <path
     d="m44.322082 27.405077a19.729762 19.729765 0 0 1 -19.729762 19.729765 19.729762 19.729765 0 0 1 -19.7297621-19.729765 19.729762 19.729765 0 0 1 19.7297621-19.7297632 19.729762 19.729765 0 0 1 19.729762 19.7297632z"
     fill="#d6966c"
     opacity=".99"
     transform="matrix(1.1503549 0 0 1.1503549 -4.486125 -7.525565)"
     id="path2" />
  <path
     d="m 23.656699,8.772216 a 15.602518,15.602518 0 0 0 -10.428913,4.052397 h 5.049478 A 12.769847,12.769847 0 0 1 23.6591,11.604889 12.769847,12.769847 0 0 1 36.44096,24.360322 v 0.01433 A 12.769847,12.769847 0 0 1 23.673515,37.144588 12.769847,12.769847 0 0 1 18.261246,35.924863 H 13.207767 A 15.602518,15.602518 0 0 0 23.674316,39.97726 15.602518,15.602518 0 0 0 39.272832,24.374742 v -0.01757 A 15.602518,15.602518 0 0 0 23.655896,8.772392 Z m -3.34683,16.386571 h 6.861839 c 0.876951,0 1.583316,0.706365 1.583316,1.583317 V 30.9803 a 1.5793125,1.5793125 0 0 1 -1.583316,1.583317 H 20.309869 A 1.5801134,1.5801134 0 0 1 18.726552,30.9803 v -4.238196 c 0,-0.876952 0.706365,-1.583317 1.583317,-1.583317 z m -11.4892609,0 H 15.68245 c 0.87695,0 1.58332,0.706365 1.58332,1.583317 V 30.9803 a 1.5793125,1.5793125 0 0 1 -1.58332,1.583317 H 8.8206081 A 1.5801134,1.5801134 0 0 1 7.2372922,30.9803 v -4.238196 c 0,-0.876952 0.7063691,-1.583317 1.5833159,-1.583317 z M 20.441211,16.185054 h 6.861837 c 0.876953,0 1.583321,0.70637 1.583321,1.58332 v 4.238195 a 1.5793125,1.5793125 0 0 1 -1.583321,1.583317 h -6.861837 a 1.5801134,1.5801134 0 0 1 -1.583317,-1.583317 v -4.238195 c 0,-0.87695 0.706365,-1.58332 1.583317,-1.58332 z m -11.4892587,0 h 6.8618417 c 0.87695,0 1.583316,0.70637 1.583316,1.58332 v 4.238195 a 1.5793125,1.5793125 0 0 1 -1.583316,1.583317 H 8.9519523 A 1.5801134,1.5801134 0 0 1 7.3686366,22.006569 v -4.238195 c 0,-0.87695 0.7063651,-1.58332 1.5833157,-1.58332 z"
     id="path22"
     style="fill:#fdfdfd;fill-opacity:1;stroke-width:0.800868" />
</svg>
