<?xml version="1.0" encoding="UTF-8" standalone="no"?>
<svg
   height="48"
   width="48"
   version="1.1"
   id="svg10"
   sodipodi:docname="com.linuxmint.bulky.svg"
   inkscape:version="1.1.2 (0a00cf5339, 2022-02-04)"
   xmlns:inkscape="http://www.inkscape.org/namespaces/inkscape"
   xmlns:sodipodi="http://sodipodi.sourceforge.net/DTD/sodipodi-0.dtd"
   xmlns="http://www.w3.org/2000/svg"
   xmlns:svg="http://www.w3.org/2000/svg"
   xmlns:rdf="http://www.w3.org/1999/02/22-rdf-syntax-ns#"
   xmlns:cc="http://creativecommons.org/ns#"
   xmlns:dc="http://purl.org/dc/elements/1.1/">
  <metadata
     id="metadata16">
    <rdf:RDF>
      <cc:Work
         rdf:about="">
        <dc:format>image/svg+xml</dc:format>
        <dc:type
           rdf:resource="http://purl.org/dc/dcmitype/StillImage" />
      </cc:Work>
    </rdf:RDF>
  </metadata>
  <defs
     id="defs14">
    <linearGradient
       id="SVGID_2_"
       gradientUnits="userSpaceOnUse"
       x1="64"
       y1="40.25"
       x2="64"
       y2="104.4549">
      <stop
         offset="0"
         style="stop-color:#F2F6FD"
         id="stop151364" />
      <stop
         offset="0.5"
         style="stop-color:#E7EFFB"
         id="stop151366" />
      <stop
         offset="1"
         style="stop-color:#DBE7F9"
         id="stop151368" />
    </linearGradient>
  </defs>
  <sodipodi:namedview
     pagecolor="#ffffff"
     bordercolor="#666666"
     borderopacity="1"
     objecttolerance="10"
     gridtolerance="10"
     guidetolerance="10"
     inkscape:pageopacity="0"
     inkscape:pageshadow="2"
     inkscape:window-width="1920"
     inkscape:window-height="996"
     id="namedview12"
     showgrid="false"
     inkscape:zoom="9.4583332"
     inkscape:cx="12.581498"
     inkscape:cy="31.506608"
     inkscape:window-x="0"
     inkscape:window-y="0"
     inkscape:window-maximized="1"
     inkscape:current-layer="svg10"
     inkscape:document-rotation="0"
     inkscape:pagecheckerboard="0" />
  <path
     d="M 46.499999,24 A 22.696228,22.696232 0 0 1 23.803771,46.696231 22.696228,22.696232 0 0 1 1.1075423,24 22.696228,22.696232 0 0 1 23.803771,1.3037698 22.696228,22.696232 0 0 1 46.499999,24 Z"
     id="path2"
     style="opacity:0.99;fill:#85a7bf;fill-opacity:1;stroke-width:1.15035" />
  <path
     id="path4"
     style="opacity:0.99;fill:#ebcb8b;fill-opacity:1;stroke-width:1.15035"
     d="M 23.804688 1.3046875 A 22.696228 22.696232 0 0 0 1.1074219 24 A 22.696228 22.696232 0 0 0 23.804688 46.695312 A 22.696228 22.696232 0 0 0 46.5 24 A 22.696228 22.696232 0 0 0 23.804688 1.3046875 z " />
  <path
     d="M 43.769278,24 A 19.965508,19.965511 0 0 1 23.803772,43.96551 19.965508,19.965511 0 0 1 3.8382628,24 19.965508,19.965511 0 0 1 23.803772,4.0344904 19.965508,19.965511 0 0 1 43.769278,24 Z"
     id="path1131"
     style="opacity:0.99;fill:#eceff4;fill-opacity:0.92329115;stroke-width:1.01194" />
  <path
     id="path24"
     style="fill:#ebcb8b;fill-opacity:1;stroke-width:1.16264"
     d="M 8.1679688 17.363281 C 7.523346 17.363281 7.0058594 17.883613 7.0058594 18.527344 L 7.0058594 30.15625 C 7.0058594 30.800874 7.5233461 31.318359 8.1679688 31.318359 L 25.613281 31.318359 L 25.613281 28.992188 L 9.3320312 28.992188 L 9.3320312 19.689453 L 25.613281 19.689453 L 25.613281 17.363281 L 8.1679688 17.363281 z M 32.589844 17.363281 L 32.589844 19.689453 L 37.242188 19.689453 L 37.242188 28.994141 L 32.589844 28.994141 L 32.589844 31.318359 L 38.40625 31.318359 C 39.049981 31.318359 39.568359 30.800872 39.568359 30.15625 L 39.568359 18.529297 C 39.568359 17.884674 39.049981 17.365234 38.40625 17.365234 L 32.589844 17.363281 z M 22.123047 22.013672 L 11.658203 22.015625 L 11.658203 26.667969 L 22.123047 26.667969 L 22.123047 22.013672 z " />
  <path
     id="path26"
     style="fill:#2e3440;fill-opacity:1;stroke-width:1.16264"
     d="M 23.869141 12.712891 A 0.5795364 0.5795364 0 0 0 23.287109 13.292969 L 23.287109 14.457031 C 23.287109 14.779788 23.546385 15.039063 23.869141 15.039062 L 27.939453 15.039062 L 27.939453 33.646484 L 23.869141 33.646484 A 0.5795364 0.5795364 0 0 0 23.287109 34.228516 L 23.287109 35.390625 C 23.287109 35.712491 23.546385 35.970703 23.869141 35.970703 L 34.335938 35.970703 A 0.5795364 0.5795364 0 0 0 34.916016 35.390625 L 34.916016 34.228516 A 0.5795364 0.5795364 0 0 0 34.335938 33.646484 L 30.265625 33.646484 L 30.265625 15.039062 L 34.335938 15.039062 A 0.5795364 0.5795364 0 0 0 34.916016 14.457031 L 34.916016 13.294922 A 0.5795364 0.5795364 0 0 0 34.335938 12.712891 L 23.869141 12.712891 z " />
</svg>
