<?xml version="1.0" encoding="UTF-8" standalone="no"?>
<svg
   version="1.1"
   viewBox="0 0 48 48"
   id="svg23"
   sodipodi:docname="bulky.svg"
   inkscape:version="1.1.2 (0a00cf5339, 2022-02-04)"
   xmlns:inkscape="http://www.inkscape.org/namespaces/inkscape"
   xmlns:sodipodi="http://sodipodi.sourceforge.net/DTD/sodipodi-0.dtd"
   xmlns="http://www.w3.org/2000/svg"
   xmlns:svg="http://www.w3.org/2000/svg">
  <sodipodi:namedview
     id="namedview25"
     pagecolor="#505050"
     bordercolor="#eeeeee"
     borderopacity="1"
     inkscape:pageshadow="0"
     inkscape:pageopacity="0"
     inkscape:pagecheckerboard="0"
     showgrid="false"
     inkscape:zoom="14.729167"
     inkscape:cx="24.033946"
     inkscape:cy="23.966053"
     inkscape:window-width="2560"
     inkscape:window-height="1365"
     inkscape:window-x="0"
     inkscape:window-y="0"
     inkscape:window-maximized="1"
     inkscape:current-layer="svg23" />
  <defs
     id="defs7">
    <linearGradient
       id="bg"
       x2="0"
       y1="1"
       y2="47"
       gradientUnits="userSpaceOnUse">
      <stop
         style="stop-color:#5a5a5a"
         offset="0"
         id="stop2" />
      <stop
         style="stop-color:#505050"
         offset="1"
         id="stop4" />
    </linearGradient>
  </defs>
  <circle
     cx="24"
     cy="24"
     r="23"
     style="fill:#4c566a"
     id="circle15" />
  <g
     stroke-width="1.304"
     id="g20"
     transform="matrix(0.87915463,0,0,0.83248684,-4.1325086,-2.6399951)">
    <path
       d="m 15.043,24.174 c -0.723,0 -1.304,0.582 -1.304,1.304 v 13.043 c 0,0.723 0.581,1.305 1.304,1.305 h 19.565 v -2.61 H 16.347 V 26.783 h 18.261 v -2.609 z m 27.391,0 v 2.609 h 5.217 v 10.435 h -5.217 v 2.608 h 6.522 c 0.722,0 1.304,-0.581 1.304,-1.304 V 25.48 c 0,-0.723 -0.582,-1.304 -1.304,-1.304 z m -23.478,5.217 v 5.218 H 30.695 V 29.39 Z"
       fill="#f2f2f2"
       id="path16"
       style="fill:#e5e9f0" />
    <path
       d="M 32.652,18.957 A 0.65,0.65 0 0 0 32,19.609 v 1.304 c 0,0.362 0.29,0.653 0.652,0.653 h 4.565 v 20.87 H 32.652 A 0.65,0.65 0 0 0 32,43.088 v 1.304 c 0,0.361 0.29,0.652 0.652,0.652 h 11.739 a 0.65,0.65 0 0 0 0.652,-0.652 v -1.304 a 0.65,0.65 0 0 0 -0.652,-0.652 h -4.565 v -20.87 h 4.565 a 0.65,0.65 0 0 0 0.652,-0.653 V 19.61 a 0.65,0.65 0 0 0 -0.652,-0.652 z"
       fill="#fcefbb"
       id="path18"
       style="fill:#e5e9f0" />
  </g>
</svg>
