<?xml version="1.0" encoding="UTF-8" standalone="no"?>
<svg
   height="48"
   width="48"
   version="1.1"
   id="svg8"
   sodipodi:docname="calligraflow.svg"
   inkscape:version="1.1.2 (0a00cf5339, 2022-02-04)"
   xmlns:inkscape="http://www.inkscape.org/namespaces/inkscape"
   xmlns:sodipodi="http://sodipodi.sourceforge.net/DTD/sodipodi-0.dtd"
   xmlns="http://www.w3.org/2000/svg"
   xmlns:svg="http://www.w3.org/2000/svg"
   xmlns:rdf="http://www.w3.org/1999/02/22-rdf-syntax-ns#"
   xmlns:cc="http://creativecommons.org/ns#"
   xmlns:dc="http://purl.org/dc/elements/1.1/">
  <metadata
     id="metadata14">
    <rdf:RDF>
      <cc:Work
         rdf:about="">
        <dc:format>image/svg+xml</dc:format>
        <dc:type
           rdf:resource="http://purl.org/dc/dcmitype/StillImage" />
        <dc:title />
      </cc:Work>
    </rdf:RDF>
  </metadata>
  <defs
     id="defs12" />
  <sodipodi:namedview
     pagecolor="#ffffff"
     bordercolor="#666666"
     borderopacity="1"
     objecttolerance="10"
     gridtolerance="10"
     guidetolerance="10"
     inkscape:pageopacity="0"
     inkscape:pageshadow="2"
     inkscape:window-width="1920"
     inkscape:window-height="1029"
     id="namedview10"
     showgrid="false"
     inkscape:zoom="9.4583333"
     inkscape:cx="-5.7621146"
     inkscape:cy="27.330397"
     inkscape:window-x="0"
     inkscape:window-y="0"
     inkscape:window-maximized="1"
     inkscape:current-layer="svg8"
     inkscape:document-rotation="0"
     inkscape:pagecheckerboard="0" />
  <path
     id="path2"
     style="fill:#8fbcbb;fill-opacity:1;stroke-width:1.15035"
     d="M 23.804688 1.3046875 A 22.696228 22.696232 0 0 0 1.1074219 24 A 22.696228 22.696232 0 0 0 23.804688 46.695312 A 22.696228 22.696232 0 0 0 46.5 24 A 22.696228 22.696232 0 0 0 23.804688 1.3046875 z " />
  <path
     id="path839"
     style="fill:#76a5a4;fill-opacity:1;stroke-width:1.15035"
     d="M 23.804688 1.3046875 C 11.269908 1.3046875 1.1074229 11.465217 1.1074219 24 C 1.1074219 36.534782 11.269906 46.695313 23.804688 46.695312 L 23.804688 1.3046875 z " />
  <path
     d="m 30.601333,13.121542 a 7.5,7.5 0 0 1 -7.836122,7.133709 7.5,7.5 0 0 1 -7.148003,-7.823085 7.5,7.5 0 0 1 7.810023,-7.1622737 7.5,7.5 0 0 1 7.17652,7.7969337"
     fill="#ffffff"
     id="path14" />
  <path
     d="m 25.612318,27.70846 v 12.5"
     fill="none"
     stroke="#ffffff"
     stroke-width="3.5"
     id="path4-3" />
  <path
     d="m 35.612318,22.70846 v 17.5"
     fill="none"
     stroke="#ffffff"
     stroke-width="3.5"
     id="path10" />
  <path
     d="m 30.612318,30.20846 v 10"
     fill="none"
     stroke="#ffffff"
     stroke-width="3.5"
     id="path12" />
  <g
     aria-label="S"
     id="text16"
     style="font-weight:bold;font-size:14.101px;font-family:'Ubuntu Condensed';-inkscape-font-specification:'Ubuntu Condensed,  Bold';letter-spacing:0;word-spacing:0;fill:#55ba8b;stroke-width:0.352526">
    <path
       d="M 26.93233,8.3131796 V 10.48892 Q 26.085443,10.110231 25.279869,9.9174437 24.474294,9.7246566 23.758228,9.7246566 q -0.950165,0 -1.404592,0.2616396 -0.454427,0.2616398 -0.454427,0.8124598 0,0.413115 0.302951,0.647214 0.309837,0.227213 1.115411,0.39246 l 1.129182,0.227213 q 1.714428,0.344263 2.43738,1.046558 0.722952,0.702296 0.722952,1.996724 0,1.700658 -1.012133,2.533773 -1.005247,0.826231 -3.077708,0.826231 -0.977706,0 -1.962298,-0.185902 -0.984591,-0.185902 -1.969182,-0.55082 v -2.237708 q 0.984591,0.52328 1.90033,0.791804 0.922624,0.26164 1.776395,0.26164 0.867542,0 1.328854,-0.289181 0.461312,-0.28918 0.461312,-0.82623 0,-0.481968 -0.316721,-0.743607 -0.309837,-0.26164 -1.246231,-0.468198 L 22.4638,13.993514 q -1.542297,-0.330492 -2.258363,-1.053444 -0.709181,-0.722952 -0.709181,-1.948527 0,-1.5354113 0.991476,-2.3616418 0.991477,-0.8262304 2.850495,-0.8262304 0.846886,0 1.741969,0.1308198 0.895083,0.1239346 1.852134,0.378689 z"
       id="path1833"
       style="fill:#76a5a4;fill-opacity:1" />
  </g>
</svg>
