<?xml version="1.0" encoding="UTF-8" standalone="no"?>
<svg
   xmlns:dc="http://purl.org/dc/elements/1.1/"
   xmlns:cc="http://creativecommons.org/ns#"
   xmlns:rdf="http://www.w3.org/1999/02/22-rdf-syntax-ns#"
   xmlns:svg="http://www.w3.org/2000/svg"
   xmlns="http://www.w3.org/2000/svg"
   xmlns:sodipodi="http://sodipodi.sourceforge.net/DTD/sodipodi-0.dtd"
   xmlns:inkscape="http://www.inkscape.org/namespaces/inkscape"
   height="48"
   width="48"
   version="1.1"
   id="svg6"
   sodipodi:docname="3dchess.svg"
   inkscape:version="1.0.2 (e86c870879, 2021-01-15)">
  <metadata
     id="metadata12">
    <rdf:RDF>
      <cc:Work
         rdf:about="">
        <dc:format>image/svg+xml</dc:format>
        <dc:type
           rdf:resource="http://purl.org/dc/dcmitype/StillImage" />
        <dc:title></dc:title>
      </cc:Work>
    </rdf:RDF>
  </metadata>
  <defs
     id="defs10" />
  <sodipodi:namedview
     pagecolor="#ffffff"
     bordercolor="#666666"
     borderopacity="1"
     objecttolerance="10"
     gridtolerance="10"
     guidetolerance="10"
     inkscape:pageopacity="0"
     inkscape:pageshadow="2"
     inkscape:window-width="1920"
     inkscape:window-height="1031"
     id="namedview8"
     showgrid="false"
     inkscape:zoom="6.6880516"
     inkscape:cx="-7.311196"
     inkscape:cy="46.773782"
     inkscape:window-x="0"
     inkscape:window-y="24"
     inkscape:window-maximized="1"
     inkscape:current-layer="svg6"
     inkscape:document-rotation="0" />
  <circle
     cx="23.940615"
     cy="31.534513"
     fill="#5e81ac"
     opacity=".99"
     r="13.232998"
     transform="matrix(1.75830584759 0 0 1.75830608345 -18.15909274367 -30.97874795549)"
     id="circle2"
     style="fill:#e1dad5;fill-opacity:1" />
  <path
     d="m 17.825443,41.397364 c -0.413066,-0.433937 -0.341477,-4.947594 0.08263,-5.209705 0.199639,-0.123396 3.648065,-0.107452 7.663164,0.03541 l 7.300181,0.259748 v 2.372314 2.372312 h -2.931813 c -1.612498,0 -4.934762,0.104498 -7.382807,0.232223 -2.448047,0.127732 -4.577155,0.09969 -4.731353,-0.06229 z m 0.625068,-7.109138 c -0.579175,-3.087263 0.619625,-5.831673 4.584913,-10.496234 l 1.634048,-1.922207 -1.41277,-0.19711 c -0.777023,-0.108414 -1.83746,-0.307131 -2.356524,-0.441599 -0.717597,-0.185896 -1.203035,-0.0041 -2.025738,0.75826 -0.915442,0.848406 -1.314768,0.971525 -2.594354,0.799898 -1.726217,-0.231535 -2.473133,-1.026378 -2.473133,-2.631827 0,-0.910882 0.597422,-1.69394 3.262781,-4.27661 1.794528,-1.738855 3.718784,-3.32052 4.276123,-3.514809 0.645545,-0.225037 0.939963,-0.544487 0.811164,-0.880132 -0.126536,-0.329729 0.161711,-0.665233 0.77035,-0.896633 0.807318,-0.306942 0.974252,-0.6094688 0.982646,-1.7808079 l 0.01008,-1.4110505 1.252346,1.3462394 c 0.688789,0.7404316 2.016256,1.716041 2.949926,2.168024 2.491764,1.206241 4.585791,3.661301 5.347598,6.269582 0.941559,3.223711 0.785512,5.779122 -0.613846,10.052191 -0.800869,2.445537 -1.229437,4.5115 -1.254706,6.048466 l -0.03837,2.334281 -6.431334,0.002 -6.431336,0.002 z"
     fill="#ffffff"
     stroke-width="0.373813"
     id="path10"
     style="fill:#3a3a3a;fill-opacity:1" />
</svg>
