<?xml version="1.0" encoding="UTF-8" standalone="no"?>
<svg
   height="48"
   width="48"
   version="1.1"
   id="svg6"
   sodipodi:docname="chiaki.svg"
   inkscape:version="1.1.2 (0a00cf5339, 2022-02-04)"
   xmlns:inkscape="http://www.inkscape.org/namespaces/inkscape"
   xmlns:sodipodi="http://sodipodi.sourceforge.net/DTD/sodipodi-0.dtd"
   xmlns="http://www.w3.org/2000/svg"
   xmlns:svg="http://www.w3.org/2000/svg">
  <defs
     id="defs10" />
  <sodipodi:namedview
     id="namedview8"
     pagecolor="#ffffff"
     bordercolor="#666666"
     borderopacity="1.0"
     inkscape:pageshadow="2"
     inkscape:pageopacity="0.0"
     inkscape:pagecheckerboard="0"
     showgrid="false"
     inkscape:zoom="9.2807765"
     inkscape:cx="-2.9092393"
     inkscape:cy="28.230396"
     inkscape:window-width="1920"
     inkscape:window-height="995"
     inkscape:window-x="0"
     inkscape:window-y="0"
     inkscape:window-maximized="1"
     inkscape:current-layer="svg6" />
  <circle
     style="fill:#7aafbc;fill-opacity:0.992157;stroke-width:48.5242;stroke-linecap:round;stroke-linejoin:round"
     id="path867"
     cx="23.885714"
     cy="24.076189"
     r="22.742857" />
  <path
     id="rect1025"
     style="fill:#ffffff;fill-opacity:1;stroke-width:2.86287"
     d="M 10.710938 8.9902344 A 19.841655 19.99147 0 0 0 10.541016 9.1621094 L 10.541016 10.361328 L 18.3125 10.361328 L 18.3125 8.9902344 L 10.710938 8.9902344 z M 14.548828 11.998047 L 10.576172 18.880859 L 4.6542969 18.880859 A 19.841655 19.99147 0 0 0 3.9628906 24 A 19.841655 19.99147 0 0 0 6.0273438 32.806641 L 19.835938 32.806641 L 23.804688 39.681641 L 27.773438 32.806641 L 41.580078 32.806641 A 19.841655 19.99147 0 0 0 43.644531 24 A 19.841655 19.99147 0 0 0 42.953125 18.880859 L 37.033203 18.880859 L 33.058594 11.998047 L 29.085938 18.880859 L 18.521484 18.880859 L 14.548828 11.998047 z M 16.707031 22.525391 L 19.251953 22.525391 L 19.251953 29.154297 L 16.707031 29.154297 L 16.707031 22.525391 z M 28.357422 22.525391 L 30.902344 22.525391 L 30.902344 29.154297 L 28.357422 29.154297 L 28.357422 22.525391 z " />
  <ellipse
     style="fill:#ffffff;fill-opacity:0.28517824;stroke-width:44.4198;stroke-linecap:round;stroke-linejoin:round"
     id="path2416"
     cx="23.809525"
     cy="24.076189"
     rx="19.847618"
     ry="20" />
</svg>
