<?xml version="1.0" encoding="UTF-8" standalone="no"?>
<svg
   height="48"
   width="48"
   version="1.1"
   id="svg12"
   sodipodi:docname="cmake-gui.svg"
   inkscape:version="1.1.2 (0a00cf5339, 2022-02-04)"
   xmlns:inkscape="http://www.inkscape.org/namespaces/inkscape"
   xmlns:sodipodi="http://sodipodi.sourceforge.net/DTD/sodipodi-0.dtd"
   xmlns="http://www.w3.org/2000/svg"
   xmlns:svg="http://www.w3.org/2000/svg">
  <defs
     id="defs16" />
  <sodipodi:namedview
     id="namedview14"
     pagecolor="#ffffff"
     bordercolor="#666666"
     borderopacity="1.0"
     inkscape:pageshadow="2"
     inkscape:pageopacity="0.0"
     inkscape:pagecheckerboard="0"
     showgrid="false"
     inkscape:zoom="5.8336309"
     inkscape:cx="-23.398806"
     inkscape:cy="24.598745"
     inkscape:window-width="1920"
     inkscape:window-height="1029"
     inkscape:window-x="0"
     inkscape:window-y="0"
     inkscape:window-maximized="1"
     inkscape:current-layer="svg12" />
  <g
     transform="matrix(1.1503549 0 0 1.1503549 -4.486125 -7.525565)"
     id="g8">
    <path
       id="path2"
       style="fill:#a3be8c;fill-opacity:1;stroke-width:1.15035"
       d="M 23.804688 1.3046875 A 22.696228 22.696232 0 0 0 1.1074219 24 A 22.696228 22.696232 0 0 0 23.804688 46.695312 A 22.696228 22.696232 0 0 0 46.5 24 A 22.696228 22.696232 0 0 0 23.804688 1.3046875 z "
       transform="matrix(0.86929694,0,0,0.86929694,3.8997748,6.5419507)" />
    <path
       id="path4"
       style="fill:#81a1c1;fill-opacity:1;stroke-width:1.15035"
       d="M 1.1074219 24 C 1.1074219 36.534782 11.269906 46.695312 23.804688 46.695312 C 36.339469 46.695312 46.5 36.534782 46.5 24 L 1.1074219 24 z "
       transform="matrix(0.86929694,0,0,0.86929694,3.8997748,6.5419507)" />
    <path
       id="path6"
       style="fill:#b48ead;fill-opacity:1;stroke-width:1.15035"
       d="M 4.984375 11.310547 C 4.1686397 12.517994 3.4648709 13.808345 2.890625 15.166016 C 1.7421332 17.881355 1.1074221 20.866304 1.1074219 24 C 1.1074216 27.133696 1.7421333 30.118644 2.890625 32.833984 C 3.4648708 34.191654 4.1686397 35.482006 4.984375 36.689453 L 42.623047 36.689453 C 43.438782 35.482006 44.142551 34.191654 44.716797 32.833984 C 45.865288 30.118644 46.5 27.133696 46.5 24 C 46.5 20.866304 45.865288 17.881355 44.716797 15.166016 C 44.142551 13.808346 43.438782 12.517994 42.623047 11.310547 L 4.984375 11.310547 z "
       transform="matrix(0.86929694,0,0,0.86929694,3.8997748,6.5419507)" />
  </g>
  <path
     d="m 29.555399,19.903283 -4.521143,-7.831496 c -0.263613,-0.456392 -0.73523,-0.7127 -1.216789,-0.7127 h -0.0041 -0.0095 l 0.0035,0.02257 c -0.03686,-4.55e-4 -0.07344,0.0029 -0.110119,0.0055 l 2.012249,11.524952 0.137398,0.785201 1.389147,7.957348 10.68093,4.549791 c 0.01352,-0.02 0.02858,-0.0388 0.04104,-0.05951 0.0048,-0.0065 0.009,-0.01328 0.01369,-0.01984 7e-4,-9.85e-4 0.0013,-0.0024 0.0021,-0.0035 0.0013,-0.0028 0.0031,-0.0054 0.0048,-0.0082 0.303981,-0.428999 0.348007,-1.018139 0.06155,-1.514318 L 29.908971,20.514732 Z m -15.479083,6.908132 -4.509437,7.810293 c -0.2464086,0.426607 -0.2472082,0.922027 -0.04993,1.32554 1.627108,-1.321547 4.857474,-3.94314 8.970996,-7.256959 l 0.616941,-0.498616 c 0.09691,-0.07799 0.168409,-0.136744 0.265382,-0.214768 2.007371,-1.615127 3.933308,-3.154209 5.715282,-4.57031 L 23.026792,11.615577 c -0.1797,0.118583 -0.33748,0.277934 -0.453474,0.478781 l -8.144072,14.105584 z m 14.061811,10.011319 h 8.60849 c 0.201217,0 0.391215,-0.0417 0.563592,-0.115591 l -9.93061,-4.229692 -0.76742,-0.326939 -7.394434,-3.149699 c -4.297841,3.460918 -7.723845,6.242303 -9.3280304,7.545595 0.2348274,0.172493 0.5259464,0.276326 0.8440224,0.276326 H 27.42816 Z"
     fill="#ffffff"
     id="path10"
     style="stroke-width:0.895556" />
</svg>
