<?xml version="1.0" encoding="UTF-8" standalone="no"?>
<svg
   height="48"
   width="48"
   version="1.1"
   id="svg6"
   sodipodi:docname="com.github.dahenson.agenda.svg"
   inkscape:version="1.1.2 (0a00cf5339, 2022-02-04)"
   xmlns:inkscape="http://www.inkscape.org/namespaces/inkscape"
   xmlns:sodipodi="http://sodipodi.sourceforge.net/DTD/sodipodi-0.dtd"
   xmlns="http://www.w3.org/2000/svg"
   xmlns:svg="http://www.w3.org/2000/svg"
   xmlns:rdf="http://www.w3.org/1999/02/22-rdf-syntax-ns#"
   xmlns:cc="http://creativecommons.org/ns#"
   xmlns:dc="http://purl.org/dc/elements/1.1/">
  <metadata
     id="metadata12">
    <rdf:RDF>
      <cc:Work
         rdf:about="">
        <dc:format>image/svg+xml</dc:format>
        <dc:type
           rdf:resource="http://purl.org/dc/dcmitype/StillImage" />
      </cc:Work>
    </rdf:RDF>
  </metadata>
  <defs
     id="defs10" />
  <sodipodi:namedview
     pagecolor="#ffffff"
     bordercolor="#666666"
     borderopacity="1"
     objecttolerance="10"
     gridtolerance="10"
     guidetolerance="10"
     inkscape:pageopacity="0"
     inkscape:pageshadow="2"
     inkscape:window-width="1920"
     inkscape:window-height="1033"
     id="namedview8"
     showgrid="false"
     inkscape:zoom="9.4583333"
     inkscape:cx="-1.4273128"
     inkscape:cy="35.418502"
     inkscape:window-x="0"
     inkscape:window-y="24"
     inkscape:window-maximized="1"
     inkscape:current-layer="svg6"
     inkscape:document-rotation="0"
     inkscape:pagecheckerboard="0" />
  <path
     id="circle2"
     style="opacity:0.99;fill:#81a1c1;fill-opacity:1"
     transform="matrix(1.75830584759 0 0 1.75830608345 -18.15909274367 -30.97874795549)"
     d="M 37.173613,31.534513 A 13.232998,13.232998 0 0 1 23.940615,44.767511 13.232998,13.232998 0 0 1 10.707617,31.534513 13.232998,13.232998 0 0 1 23.940615,18.301516 13.232998,13.232998 0 0 1 37.173613,31.534513 Z" />
  <g
     id="g983"
     transform="translate(0.009613)">
    <rect
       fill="#ff6458"
       height="28"
       ry="1.4527"
       width="34"
       x="6.9262171"
       y="10.103146"
       id="rect4"
       style="fill:#ebcb8b;fill-opacity:1" />
    <path
       id="rect6"
       d="M 8.3886719 14.103516 C 7.5838761 14.103516 6.9355469 14.751845 6.9355469 15.556641 L 6.9355469 40.355469 A 23.267658 23.267661 0 0 0 8.7578125 42.103516 L 39.113281 42.103516 A 23.267658 23.267661 0 0 0 40.935547 40.355469 L 40.935547 15.556641 C 40.935547 14.751845 40.287218 14.103516 39.482422 14.103516 L 8.3886719 14.103516 z "
       transform="translate(-0.009613)"
       style="fill:#8fbcbb;fill-opacity:1" />
    <path
       id="rect8"
       d="M 8.3886719 18.103516 C 7.5838761 18.103516 6.9355469 18.751845 6.9355469 19.556641 L 6.9355469 40.355469 A 23.267658 23.267661 0 0 0 15.373047 46.103516 L 32.496094 46.103516 A 23.267658 23.267661 0 0 0 40.935547 40.355469 L 40.935547 19.556641 C 40.935547 18.751845 40.287218 18.103516 39.482422 18.103516 L 8.3886719 18.103516 z "
       transform="translate(-0.009613)"
       style="fill:#ffffff;fill-opacity:1" />
  </g>
  <path
     id="path10"
     d="M 3.7851562 36.103516 A 23.267658 23.267661 0 0 0 23.935547 47.736328 A 23.267658 23.267661 0 0 0 44.085938 36.103516 L 3.7851562 36.103516 z "
     style="fill:#5e81ac;fill-opacity:1" />
  <path
     style="fill:none;stroke:#4c566a;stroke-width:5;stroke-linecap:butt;stroke-linejoin:miter;stroke-miterlimit:4;stroke-dasharray:none;stroke-opacity:1"
     d="m 17.593683,28.581709 3.594237,3.594236 9.482459,-9.482459"
     id="path3683" />
</svg>
