<?xml version="1.0" encoding="UTF-8" standalone="no"?>
<svg
   height="48"
   width="48"
   version="1.1"
   id="svg6"
   sodipodi:docname="com.katawa_shoujo.KatawaShoujo.svg"
   inkscape:version="1.1.2 (0a00cf5339, 2022-02-04)"
   xmlns:inkscape="http://www.inkscape.org/namespaces/inkscape"
   xmlns:sodipodi="http://sodipodi.sourceforge.net/DTD/sodipodi-0.dtd"
   xmlns="http://www.w3.org/2000/svg"
   xmlns:svg="http://www.w3.org/2000/svg">
  <defs
     id="defs10" />
  <sodipodi:namedview
     id="namedview8"
     pagecolor="#ffffff"
     bordercolor="#666666"
     borderopacity="1.0"
     inkscape:pageshadow="2"
     inkscape:pageopacity="0.0"
     inkscape:pagecheckerboard="0"
     showgrid="false"
     inkscape:zoom="2.8947184"
     inkscape:cx="-67.191337"
     inkscape:cy="-7.4273201"
     inkscape:window-width="1920"
     inkscape:window-height="1007"
     inkscape:window-x="0"
     inkscape:window-y="0"
     inkscape:window-maximized="1"
     inkscape:current-layer="svg6" />
  <path
     d="m44.322082 27.405077a19.729762 19.729765 0 0 1 -19.729762 19.729765 19.729762 19.729765 0 0 1 -19.7297621-19.729765 19.729762 19.729765 0 0 1 19.7297621-19.7297632 19.729762 19.729765 0 0 1 19.729762 19.7297632z"
     opacity=".99"
     transform="matrix(1.1503549 0 0 1.1503549 -4.486125 -7.525565)"
     id="path2"
     style="fill:#d08770;fill-opacity:1" />
  <path
     id="path10"
     style="fill:#ffffff;stroke-width:0.658463;fill-opacity:0.91133666"
     d="m 18.472209,13.365234 c -4.19666,0 -7.599326,3.871643 -7.599326,8.647466 0,1.283176 0.198985,2.51824 0.547861,3.697421 0,0 0.316485,1.06303 0.596732,1.648728 3.202965,7.4886 12.024657,12.344887 12.024657,12.344887 0,0 8.821692,-4.856287 12.024658,-12.344887 0.280247,-0.585698 0.596732,-1.648728 0.596732,-1.648728 0.348876,-1.179181 0.547861,-2.414245 0.547861,-3.697421 0,-4.775823 -3.402665,-8.647466 -7.599326,-8.647466 -2.200916,0 -4.18182,0.932226 -5.569925,2.63385 -1.388105,-1.701624 -3.369008,-2.63385 -5.569924,-2.63385 z m 10.546975,8.653896 c 0.46189,0 0.92442,0.177219 1.278343,0.531142 l 0.682898,0.682898 0.681612,-0.682898 c 0.353923,-0.353923 0.816454,-0.531142 1.278343,-0.531142 0.46189,0 0.923133,0.177219 1.277057,0.531142 0.707847,0.707848 0.707847,1.847553 0,2.555401 l -0.682897,0.682897 0.682897,0.682898 c 0.707847,0.707847 0.707847,1.847553 0,2.555401 -0.707846,0.707847 -1.847553,0.707847 -2.5554,0 l -0.681612,-0.682898 -0.682898,0.682898 c -0.707846,0.707847 -1.847553,0.707847 -2.5554,0 -0.707847,-0.707848 -0.707847,-1.847554 0,-2.555401 l 0.682897,-0.682898 -0.682897,-0.682897 c -0.707847,-0.707848 -0.707847,-1.847553 0,-2.555401 0.353924,-0.353923 0.815168,-0.531142 1.277057,-0.531142 z" />
  <rect
     style="fill:#ffffff;fill-opacity:0.27477664;stroke-width:7.27318;stroke-linecap:round;stroke-linejoin:round;paint-order:fill markers stroke"
     id="rect1153"
     width="3.613888"
     height="9.1581697"
     x="1.8640052"
     y="35.562073"
     rx="1.806944"
     ry="1.806944"
     transform="rotate(-45)" />
  <rect
     style="fill:#ffffff;fill-opacity:0.59593064;stroke-width:7.27318;stroke-linecap:round;stroke-linejoin:round;paint-order:fill markers stroke"
     id="rect1235"
     width="3.613888"
     height="9.1581697"
     x="38.334213"
     y="-8.2500334"
     rx="1.806944"
     ry="1.806944"
     transform="rotate(45)" />
</svg>
