<?xml version="1.0" encoding="UTF-8" standalone="no"?>
<svg
   height="48"
   width="48"
   version="1.1"
   id="svg6"
   sodipodi:docname="com.rafaelmardojai.Blanket.svg"
   inkscape:version="1.1.2 (0a00cf5339, 2022-02-04)"
   xmlns:inkscape="http://www.inkscape.org/namespaces/inkscape"
   xmlns:sodipodi="http://sodipodi.sourceforge.net/DTD/sodipodi-0.dtd"
   xmlns="http://www.w3.org/2000/svg"
   xmlns:svg="http://www.w3.org/2000/svg"
   xmlns:rdf="http://www.w3.org/1999/02/22-rdf-syntax-ns#"
   xmlns:cc="http://creativecommons.org/ns#"
   xmlns:dc="http://purl.org/dc/elements/1.1/">
  <metadata
     id="metadata12">
    <rdf:RDF>
      <cc:Work
         rdf:about="">
        <dc:format>image/svg+xml</dc:format>
        <dc:type
           rdf:resource="http://purl.org/dc/dcmitype/StillImage" />
      </cc:Work>
    </rdf:RDF>
  </metadata>
  <defs
     id="defs10">
    <linearGradient
       gradientUnits="userSpaceOnUse"
       gradientTransform="matrix(0.0920001,0,0,0.09064843,-21.193131,1.5846311)"
       y2="269.48999"
       y1="235.14999"
       x2="657.65002"
       x1="319.20999"
       id="a-12">
      <stop
         id="stop1076"
         offset="0"
         stop-color="#e54c18" />
      <stop
         id="stop1078"
         offset="1"
         stop-color="#fec350" />
    </linearGradient>
    <linearGradient
       id="linearGradient946"
       x1="31.833"
       x2="32.167"
       y1="51.558998"
       y2="11.098"
       gradientUnits="userSpaceOnUse"
       gradientTransform="matrix(0.83258662,0,0,0.83258662,-4.004011,0.8380211)">
      <stop
         stop-color="#f9f9f9"
         offset="0"
         id="stop5" />
      <stop
         stop-color="#f0fee6"
         offset="1"
         id="stop7-3" />
    </linearGradient>
    <linearGradient
       gradientUnits="userSpaceOnUse"
       y2="12.7"
       y1="4.2333002"
       x2="7.9373002"
       x1="7.9373002"
       id="linearGradient1166">
      <stop
         id="stop13"
         offset="0"
         stop-color="#ffffff" />
      <stop
         id="stop15"
         offset="1"
         stop-color="#b8ffe1"
         style="stop-color:#d6f2dc;stop-opacity:1" />
    </linearGradient>
    <linearGradient
       id="b"
       x1="36.75"
       x2="36.75"
       y1="51"
       y2="13"
       gradientUnits="userSpaceOnUse">
      <stop
         offset="0"
         stop-color="#8fc1ff"
         id="stop17" />
      <stop
         offset="1"
         stop-color="#c8def9"
         id="stop19" />
    </linearGradient>
    <linearGradient
       id="c"
       x1="35.167"
       x2="35.167"
       y1="13"
       y2="51"
       gradientUnits="userSpaceOnUse">
      <stop
         offset="0"
         stop-color="#428ce6"
         id="stop12" />
      <stop
         offset="1"
         stop-color="#1e75e0"
         id="stop14" />
    </linearGradient>
    <linearGradient
       id="d"
       x1="13"
       x2="22.5"
       y1="30.417"
       y2="30.417"
       gradientUnits="userSpaceOnUse">
      <stop
         offset="0"
         stop-color="#2376c8"
         id="stop7" />
      <stop
         offset="1"
         stop-color="#19468a"
         id="stop9" />
    </linearGradient>
  </defs>
  <sodipodi:namedview
     pagecolor="#ffffff"
     bordercolor="#666666"
     borderopacity="1"
     objecttolerance="10"
     gridtolerance="10"
     guidetolerance="10"
     inkscape:pageopacity="0"
     inkscape:pageshadow="2"
     inkscape:window-width="1920"
     inkscape:window-height="1030"
     id="namedview8"
     showgrid="true"
     inkscape:zoom="2.3177083"
     inkscape:cx="-64.934832"
     inkscape:cy="132.67416"
     inkscape:window-x="0"
     inkscape:window-y="24"
     inkscape:window-maximized="1"
     inkscape:current-layer="svg6"
     inkscape:document-rotation="0"
     inkscape:pagecheckerboard="0">
    <inkscape:grid
       type="xygrid"
       id="grid837" />
  </sodipodi:namedview>
  <circle
     cx="23.940615"
     cy="31.534513"
     opacity=".99"
     r="13.232998"
     transform="matrix(1.75830584759 0 0 1.75830608345 -18.15909274367 -30.97874795549)"
     id="circle2"
     style="fill:#81a1c1;fill-opacity:1" />
  <path
     id="path30"
     style="fill:#ffffff;fill-opacity:1;stroke-width:0.996083"
     d="M 15.054688 13.044922 L 15.054688 19.021484 L 16.162109 19.021484 L 16.826172 25 L 15.054688 25 L 15.054688 30.978516 L 17.490234 30.978516 L 18.044922 35.958984 L 18.044922 36.955078 L 20.037109 36.955078 L 20.037109 33.966797 L 22.029297 33.966797 L 22.029297 36.955078 L 24.021484 36.955078 L 24.021484 33.966797 L 26.015625 33.966797 L 26.015625 36.955078 L 28.007812 36.955078 L 28.007812 33.966797 L 30 33.966797 L 30 36.955078 L 31.992188 36.955078 L 31.992188 33.966797 L 33.984375 33.966797 L 33.984375 36.955078 L 35.978516 36.955078 L 35.978516 30.978516 L 35.978516 25 L 35.978516 19.021484 L 35.978516 16.033203 A 2.9825855 2.9825855 0 0 0 32.988281 13.044922 L 27.011719 13.044922 A 2.9825855 2.9825855 0 0 1 27.302734 13.058594 C 27.201527 13.050573 27.103519 13.044922 27.011719 13.044922 L 21.033203 13.044922 L 15.054688 13.044922 z " />
  <path
     d="m 15.055611,13.044489 v 5.977755 h 8.966633 v -2.988878 a 2.9825855,2.9825855 0 0 0 -2.988878,-2.988877 z m 8.966633,5.977755 V 25 H 30 v -5.977756 z m 5.977756,0 h 5.977756 V 16.033366 A 2.9825855,2.9825855 0 0 0 32.988878,13.044489 H 27.011122 A 2.9825855,2.9825855 0 0 1 30,16.033366 Z M 30,25 v 5.977756 h 5.977756 V 25 Z m 0,5.977756 h -5.977756 v 2.988877 h 1.992795 v 2.988878 h 1.992166 V 33.966633 H 30 Z m -5.977756,0 V 25 h -8.966633 v 5.977756 z"
     id="path32"
     style="fill:#d4dfe9;fill-opacity:1;stroke-width:0.996083" />
  <path
     d="m 15.055611,13.044489 a 2.9825855,2.9825855 0 0 0 -2.988878,2.988877 v 18.92935 h 1.992795 v -2.988877 h 1.992166 v 2.988877 h 1.992795 v -18.92935 a 2.9825855,2.9825855 0 0 0 -2.988878,-2.988877 z"
     id="path34"
     style="fill:#adc2d6;fill-opacity:0.99607843;stroke-width:0.996083" />
</svg>
