<?xml version="1.0" encoding="UTF-8" standalone="no"?>
<svg
   height="48"
   width="48"
   version="1.1"
   id="svg8"
   sodipodi:docname="com.github.neithern.g4music.svg"
   inkscape:version="1.1.2 (0a00cf5339, 2022-02-04)"
   xmlns:inkscape="http://www.inkscape.org/namespaces/inkscape"
   xmlns:sodipodi="http://sodipodi.sourceforge.net/DTD/sodipodi-0.dtd"
   xmlns="http://www.w3.org/2000/svg"
   xmlns:svg="http://www.w3.org/2000/svg"
   xmlns:rdf="http://www.w3.org/1999/02/22-rdf-syntax-ns#"
   xmlns:cc="http://creativecommons.org/ns#"
   xmlns:dc="http://purl.org/dc/elements/1.1/">
  <metadata
     id="metadata14">
    <rdf:RDF>
      <cc:Work
         rdf:about="">
        <dc:format>image/svg+xml</dc:format>
        <dc:type
           rdf:resource="http://purl.org/dc/dcmitype/StillImage" />
      </cc:Work>
    </rdf:RDF>
  </metadata>
  <defs
     id="defs12" />
  <sodipodi:namedview
     pagecolor="#ffffff"
     bordercolor="#666666"
     borderopacity="1"
     objecttolerance="10"
     gridtolerance="10"
     guidetolerance="10"
     inkscape:pageopacity="0"
     inkscape:pageshadow="2"
     inkscape:window-width="1920"
     inkscape:window-height="1024"
     id="namedview10"
     showgrid="false"
     inkscape:zoom="6.6880518"
     inkscape:cx="63.471398"
     inkscape:cy="13.980155"
     inkscape:window-x="0"
     inkscape:window-y="32"
     inkscape:window-maximized="1"
     inkscape:current-layer="svg8"
     inkscape:document-rotation="0"
     inkscape:pagecheckerboard="0"
     inkscape:lockguides="true" />
  <path
     id="path2"
     style="fill:#a3be8c;fill-opacity:1;stroke-width:1.15035"
     d="M 23.804688 1.3046875 A 22.696228 22.696232 0 0 0 1.1074219 24 A 22.696228 22.696232 0 0 0 23.804688 46.695312 A 22.696228 22.696232 0 0 0 46.5 24 A 22.696228 22.696232 0 0 0 23.804688 1.3046875 z " />
  <path
     id="path880"
     style="fill:#ffffff;fill-opacity:0.46940291;stroke-width:1.01239"
     d="M 23.804654,4.0251237 A 19.97418,19.974184 0 0 0 3.8297771,24 19.97418,19.974184 0 0 0 23.804654,43.974876 19.97418,19.974184 0 0 0 43.777645,24 19.97418,19.974184 0 0 0 23.804654,4.0251237 Z" />
  <path
     id="rect849"
     style="fill:#ffffff;fill-opacity:1;stroke-width:0.837723;stroke-linecap:round;stroke-linejoin:round"
     d="m 21.721864,6.7225951 c -0.855004,0 -1.543305,0.688298 -1.543305,1.543305 V 40.86416 c 0,0.855006 0.688301,1.543304 1.543305,1.543304 0.855006,0 1.543304,-0.688298 1.543307,-1.543304 v -7.521719 c 0.0058,-0.623347 0.508897,-1.123929 1.133667,-1.123929 0.610525,0 1.103811,0.478259 1.131507,1.081722 v 2.610416 c 0,0.855004 0.688297,1.543304 1.543304,1.543304 0.855004,0 1.543844,-0.6883 1.543844,-1.543304 V 13.443979 c 0,-0.855003 -0.68884,-1.543304 -1.543844,-1.543304 -0.855007,0 -1.543304,0.688301 -1.543304,1.543304 v 2.504896 c -8.13e-4,-0.0099 -8.13e-4,-0.01989 -0.0017,-0.02976 -0.04065,0.59095 -0.528258,1.055205 -1.129883,1.055205 -0.601623,0 -1.089235,-0.464255 -1.12988,-1.055205 -0.0016,0.02314 -0.0033,0.04634 -0.0038,0.0698 V 8.2658941 c 0,-0.855007 -0.688301,-1.543305 -1.543307,-1.543305 z M 15.46531,17.237848 c -0.855004,0 -1.543304,0.6883 -1.543304,1.543304 v 11.73767 c 0,0.855004 0.6883,1.543305 1.543304,1.543305 0.855004,0 1.543304,-0.688301 1.543304,-1.543305 v -11.73767 c 0,-0.855004 -0.6883,-1.543304 -1.543304,-1.543304 z m 8.752792,2.158572 h 0.291668 c 0.52816,0 0.952933,0.505785 0.952933,1.13421 v 8.36047 c 0,0.628426 -0.424773,1.134751 -0.952933,1.134751 h -0.291668 c -0.524476,0 -0.947057,-0.499432 -0.952931,-1.121765 v -8.386445 c 0.0059,-0.622321 0.428455,-1.121221 0.952931,-1.121221 z m 9.005497,0.30195 c -0.72922,0 -1.316571,0.6883 -1.316571,1.543304 v 6.578527 c 0,0.855007 0.587351,1.543307 1.316571,1.543307 h 0.454011 c 0.729219,0 1.31603,-0.6883 1.31603,-1.543307 v -6.578527 c 0,-0.855004 -0.586811,-1.543304 -1.31603,-1.543304 z M 9.0247723,21.669708 c -0.8550067,0 -1.5433071,0.688301 -1.5433071,1.543308 v 3.086608 c 0,0.855007 0.6883004,1.543307 1.5433071,1.543307 0.8550042,0 1.5433047,-0.6883 1.5433047,-1.543307 v -3.086608 c 0,-0.855007 -0.6883005,-1.543308 -1.5433047,-1.543308 z m 29.7903337,1.639627 a 1.4219128,1.4219128 0 0 0 -1.422094,1.422094 1.4219128,1.4219128 0 0 0 1.422094,1.422091 1.4219128,1.4219128 0 0 0 1.421548,-1.422091 1.4219128,1.4219128 0 0 0 -1.421548,-1.422094 z" />
</svg>
