<?xml version="1.0" encoding="UTF-8" standalone="no"?>
<svg
   xmlns:dc="http://purl.org/dc/elements/1.1/"
   xmlns:cc="http://creativecommons.org/ns#"
   xmlns:rdf="http://www.w3.org/1999/02/22-rdf-syntax-ns#"
   xmlns:svg="http://www.w3.org/2000/svg"
   xmlns="http://www.w3.org/2000/svg"
   xmlns:sodipodi="http://sodipodi.sourceforge.net/DTD/sodipodi-0.dtd"
   xmlns:inkscape="http://www.inkscape.org/namespaces/inkscape"
   height="48"
   width="48"
   version="1.1"
   id="svg6"
   sodipodi:docname="applications-interfacedesign.svg"
   inkscape:version="1.0.2 (e86c870879, 2021-01-15)">
  <metadata
     id="metadata12">
    <rdf:RDF>
      <cc:Work
         rdf:about="">
        <dc:format>image/svg+xml</dc:format>
        <dc:type
           rdf:resource="http://purl.org/dc/dcmitype/StillImage" />
        <dc:title></dc:title>
      </cc:Work>
    </rdf:RDF>
  </metadata>
  <defs
     id="defs10" />
  <sodipodi:namedview
     pagecolor="#ffffff"
     bordercolor="#666666"
     borderopacity="1"
     objecttolerance="10"
     gridtolerance="10"
     guidetolerance="10"
     inkscape:pageopacity="0"
     inkscape:pageshadow="2"
     inkscape:window-width="1920"
     inkscape:window-height="1031"
     id="namedview8"
     showgrid="false"
     inkscape:zoom="13.376103"
     inkscape:cx="16.315209"
     inkscape:cy="22.326507"
     inkscape:window-x="0"
     inkscape:window-y="24"
     inkscape:window-maximized="1"
     inkscape:current-layer="svg6"
     inkscape:document-rotation="0" />
  <circle
     cx="23.940615"
     cy="31.534513"
     fill="#5e81ac"
     opacity=".99"
     r="13.232998"
     transform="matrix(1.75830584759 0 0 1.75830608345 -18.15909274367 -30.97874795549)"
     id="circle2"
     style="fill:#8cbcd4;fill-opacity:1" />
  <ellipse
     cx="23.935829"
     cy="24.468578"
     fill="#5e81ac"
     opacity="0.99"
     id="circle906"
     style="fill:#b8d6e5;fill-opacity:0.9921568;stroke-width:1.59935"
     rx="21.164135"
     ry="21.164137" />
  <g
     id="g904"
     transform="translate(-1.3114762,-0.42656428)">
    <path
       style="fill:#ffffff;fill-opacity:1;stroke:none;stroke-width:0.2;stroke-linecap:round;stroke-linejoin:round;stroke-miterlimit:4;stroke-dasharray:none;stroke-dashoffset:0;stroke-opacity:1;paint-order:fill markers stroke"
       d="m 14.469026,19.965283 a 4.1707315,4.1707315 0 0 0 -4.048828,3.191406 c -0.765326,0.49973 -1.2714839,1.35963 -1.2714839,2.345703 0,1.55367 1.2510179,2.804688 2.8046869,2.804688 h 2.515625 3.091797 c 1.55367,0 2.804688,-1.251018 2.804688,-2.804688 0,-1.24736 -0.811696,-2.287919 -1.933594,-2.654296 a 4.1707315,4.1707315 0 0 0 -3.962891,-2.882813 z"
       id="rect4529"
       inkscape:connector-curvature="0" />
    <text
       xml:space="preserve"
       style="font-style:normal;font-variant:normal;font-weight:bold;font-stretch:condensed;line-height:0%;font-family:'Roboto Condensed';-inkscape-font-specification:'Roboto Condensed, Bold Condensed';letter-spacing:0px;word-spacing:0px;fill:#ffffff;fill-opacity:1;stroke:none;stroke-width:0.292047"
       x="20.64403"
       y="16.149902"
       id="text4536"><tspan
         sodipodi:role="line"
         id="tspan4534"
         x="20.64403"
         y="16.149902"
         style="font-size:11.6819px;line-height:1.25;fill:#ffffff;fill-opacity:1;stroke-width:0.292047">@</tspan></text>
    <path
       style="fill:#ffffff;fill-opacity:1;fill-rule:nonzero;stroke:none;stroke-width:0.833206;stroke-linecap:square;stroke-linejoin:miter;stroke-miterlimit:4;stroke-dasharray:none;stroke-dashoffset:0;stroke-opacity:1"
       d="m 34.36057,20.808227 c -0.461596,0 -0.833206,0.371609 -0.833206,0.833206 v 3.557398 a 1.6664119,1.6664119 0 0 0 -0.833206,-0.224575 1.6664119,1.6664119 0 0 0 -1.666412,1.666412 1.6664119,1.6664119 0 0 0 1.666412,1.666412 1.6664119,1.6664119 0 0 0 1.666412,-1.666412 v -4.16603 h 4.999235 v 2.724193 a 1.6664119,1.6664119 0 0 0 -0.833206,-0.224575 1.6664119,1.6664119 0 0 0 -1.666411,1.666412 1.6664119,1.6664119 0 0 0 1.666411,1.666412 1.6664119,1.6664119 0 0 0 1.666412,-1.666412 v -4.999235 c 0,-0.461597 -0.37161,-0.833206 -0.833206,-0.833206 z"
       id="rect826-3"
       inkscape:connector-curvature="0" />
    <path
       style="fill:#ffffff;fill-opacity:0.507576;stroke:none;stroke-width:0.2;stroke-linecap:round;stroke-linejoin:round;stroke-miterlimit:4;stroke-dasharray:none;stroke-dashoffset:0;stroke-opacity:1;paint-order:fill markers stroke"
       d="m 25.025667,30.563204 -1.826172,3.164063 a 4.2711864,4.2711864 0 0 0 -2.445312,3.855469 4.2711864,4.2711864 0 0 0 4.271484,4.271484 4.2711864,4.2711864 0 0 0 4.271484,-4.271484 4.2711864,4.2711864 0 0 0 -2.445312,-3.855469 z"
       id="path4605" />
  </g>
</svg>
