<?xml version="1.0" encoding="UTF-8" standalone="no"?>
<svg
   height="48"
   width="48"
   version="1.1"
   id="svg10"
   sodipodi:docname="connectagram.svg"
   inkscape:version="1.1.2 (0a00cf5339, 2022-02-04)"
   xmlns:inkscape="http://www.inkscape.org/namespaces/inkscape"
   xmlns:sodipodi="http://sodipodi.sourceforge.net/DTD/sodipodi-0.dtd"
   xmlns="http://www.w3.org/2000/svg"
   xmlns:svg="http://www.w3.org/2000/svg"
   xmlns:rdf="http://www.w3.org/1999/02/22-rdf-syntax-ns#"
   xmlns:cc="http://creativecommons.org/ns#"
   xmlns:dc="http://purl.org/dc/elements/1.1/">
  <metadata
     id="metadata16">
    <rdf:RDF>
      <cc:Work
         rdf:about="">
        <dc:format>image/svg+xml</dc:format>
        <dc:type
           rdf:resource="http://purl.org/dc/dcmitype/StillImage" />
      </cc:Work>
    </rdf:RDF>
  </metadata>
  <defs
     id="defs14" />
  <sodipodi:namedview
     pagecolor="#ffffff"
     bordercolor="#666666"
     borderopacity="1"
     objecttolerance="10"
     gridtolerance="10"
     guidetolerance="10"
     inkscape:pageopacity="0"
     inkscape:pageshadow="2"
     inkscape:window-width="1920"
     inkscape:window-height="1006"
     id="namedview12"
     showgrid="false"
     inkscape:zoom="6.9532167"
     inkscape:cx="35.451218"
     inkscape:cy="-6.9032797"
     inkscape:window-x="0"
     inkscape:window-y="0"
     inkscape:window-maximized="1"
     inkscape:current-layer="svg10"
     inkscape:pagecheckerboard="0" />
  <g
     fill="#5f8dd3"
     opacity="0.99"
     transform="matrix(1.1503549,0,0,1.1503549,-4.486125,-7.525565)"
     id="g6"
     style="fill:#9b9b67;fill-opacity:1">
    <path
       d="M 44.322082,27.405077 A 19.729762,19.729765 0 0 1 24.59232,47.134842 19.729762,19.729765 0 0 1 4.8625579,27.405077 19.729762,19.729765 0 0 1 24.59232,7.6753138 19.729762,19.729765 0 0 1 44.322082,27.405077 Z"
       id="path4"
       style="fill:#a3be8c;fill-opacity:1" />
  </g>
  <path
     id="path13132"
     style="color:#000000;font-weight:bold;font-size:52.9167px;font-family:'Noto Kufi Arabic';-inkscape-font-specification:'Noto Kufi Arabic Bold';fill:#ffffff;fill-opacity:1;stroke:none;stroke-width:0.760066;-inkscape-stroke:none"
     d="m 23.45531,9.170554 c -2.950971,0 -5.481525,0.64356 -7.56208,1.947374 l -0.0012,0.0016 c -2.044148,1.29831 -3.612081,3.104608 -4.685404,5.388861 -1.072703,2.28293 -1.6044829,4.900931 -1.6044829,7.84252 0,2.988625 0.4611569,5.626537 1.3951349,7.906542 v 0.0016 h 0.0016 c 0.937872,2.261927 2.400647,4.047302 4.367647,5.321696 l 0.0016,0.0016 0.0028,0.0016 c 2.004321,1.252702 4.520723,1.869213 7.522015,1.869213 1.548366,0 2.953593,-0.122608 4.216037,-0.369601 1.255067,-0.245556 2.520505,-0.629178 3.797341,-1.144544 0.796231,-0.28024 1.31835,-0.941088 1.606054,-1.698355 0.288593,-0.759607 0.366393,-1.631397 0.302827,-2.44816 -0.06357,-0.816766 -0.263936,-1.577958 -0.604085,-2.134728 -0.170076,-0.278385 -0.377852,-0.512391 -0.653184,-0.653183 -0.275333,-0.140797 -0.625386,-0.157533 -0.933624,-0.02357 l 0.02513,-0.01067 c -1.355964,0.478575 -2.615414,0.85084 -3.778094,1.115085 h -0.0016 -0.0016 c -1.12512,0.261655 -2.261816,0.391989 -3.412812,0.391989 -2.433692,0 -4.459821,-0.799016 -5.520833,-2.323259 l -0.0016,-0.0031 c -1.110009,-1.665713 -1.623743,-2.751912 -1.623743,-5.760101 0,-2.978342 0.571641,-4.358628 1.779659,-6.06561 1.149826,-1.624752 3.128352,-2.453659 5.366474,-2.453659 1.000246,0 2.016059,0.178971 3.052245,0.541635 h 0.0016 l 0.0016,0.0016 c 1.083733,0.370056 2.153904,0.805902 3.212106,1.30833 0.273739,0.163586 0.599743,0.19859 0.888064,0.12411 0.302168,-0.07806 0.569659,-0.253234 0.817754,-0.479575 0.496196,-0.452698 0.922135,-1.12845 1.229388,-1.880615 0.307254,-0.752167 0.49428,-1.580092 0.446585,-2.347219 -0.04769,-0.767126 -0.359013,-1.507469 -1.052242,-1.907704 l -0.01486,-0.0071 -0.01486,-0.0075 C 30.687429,10.590944 29.284771,10.100554 27.815567,9.74631 26.364217,9.362936 24.909951,9.170504 23.455383,9.170504 Z" />
</svg>
