<?xml version="1.0" encoding="UTF-8" standalone="no"?>
<svg
   height="48"
   width="48"
   version="1.1"
   id="svg10"
   sodipodi:docname="cyan.svg"
   inkscape:version="1.1.2 (0a00cf5339, 2022-02-04)"
   xmlns:inkscape="http://www.inkscape.org/namespaces/inkscape"
   xmlns:sodipodi="http://sodipodi.sourceforge.net/DTD/sodipodi-0.dtd"
   xmlns="http://www.w3.org/2000/svg"
   xmlns:svg="http://www.w3.org/2000/svg"
   xmlns:rdf="http://www.w3.org/1999/02/22-rdf-syntax-ns#"
   xmlns:cc="http://creativecommons.org/ns#"
   xmlns:dc="http://purl.org/dc/elements/1.1/">
  <metadata
     id="metadata16">
    <rdf:RDF>
      <cc:Work
         rdf:about="">
        <dc:format>image/svg+xml</dc:format>
        <dc:type
           rdf:resource="http://purl.org/dc/dcmitype/StillImage" />
      </cc:Work>
    </rdf:RDF>
  </metadata>
  <defs
     id="defs14" />
  <sodipodi:namedview
     pagecolor="#ffffff"
     bordercolor="#666666"
     borderopacity="1"
     objecttolerance="10"
     gridtolerance="10"
     guidetolerance="10"
     inkscape:pageopacity="0"
     inkscape:pageshadow="2"
     inkscape:window-width="1920"
     inkscape:window-height="995"
     id="namedview12"
     showgrid="false"
     inkscape:zoom="6.9532167"
     inkscape:cx="-15.820016"
     inkscape:cy="-6.9032797"
     inkscape:window-x="0"
     inkscape:window-y="0"
     inkscape:window-maximized="1"
     inkscape:current-layer="svg10"
     inkscape:pagecheckerboard="0" />
  <g
     fill="#5f8dd3"
     opacity="0.99"
     transform="matrix(1.1503549,0,0,1.1503549,-4.486125,-7.525565)"
     id="g6"
     style="fill:#9b9b67;fill-opacity:1">
    <path
       d="M 44.322082,27.405077 A 19.729762,19.729765 0 0 1 24.59232,47.134842 19.729762,19.729765 0 0 1 4.8625579,27.405077 19.729762,19.729765 0 0 1 24.59232,7.6753138 19.729762,19.729765 0 0 1 44.322082,27.405077 Z"
       id="path4"
       style="fill:#a3be8c;fill-opacity:1" />
  </g>
  <path
     id="path4-3"
     style="fill:#ffffff;fill-opacity:1;stroke-width:0.556746"
     d="m 23.803771,8.4110751 c -10.909741,0 -14.7538059,5.2345479 -14.7538059,11.6916939 0,6.457144 6.6055029,19.486157 14.7538059,19.486157 8.1483,0 14.753805,-13.029013 14.753805,-19.486157 0,-6.457146 -3.844067,-11.6916939 -14.753805,-11.6916939 z m -4.356113,4.0320679 c 0.129977,-9.08e-4 0.260306,0.0017 0.390376,0.0065 1.040551,0.03894 2.07931,0.260644 3.053411,0.665487 1.102308,0.458133 2.360965,1.318029 3.0371,2.099764 0.04913,0.05677 0.09478,0.09808 0.139185,0.140269 0.01991,-0.0086 0.03082,-0.01083 0.05328,-0.02066 0.143339,-0.06291 0.337453,-0.152816 0.534999,-0.25119 2.126314,-1.058749 4.422097,-1.771369 5.938276,-1.771369 0.591341,0 1.247347,0.163542 1.697427,0.481716 0.692058,0.48926 0.93052,1.444991 0.719858,2.342254 -0.155992,0.664436 -0.614835,1.463272 -1.151554,2.087802 -1.958299,2.278678 -6.443453,4.619693 -10.38573,5.510928 -0.807756,0.18261 -2.385499,0.437734 -3.040362,0.489329 -6.77e-4,0.0065 -0.03809,0.05813 -0.123959,0.23053 -0.276549,0.555149 -0.71588,1.905955 -0.907975,2.847892 -0.299396,1.468048 -0.261972,2.760624 0.02828,3.530779 0.125177,0.332212 0.641362,0.896184 0.957997,1.047164 0.147808,0.07046 0.357619,0.132641 0.533912,0.172895 0.0042,-0.199631 0.0077,-0.45386 0.0043,-0.731818 -0.0311,-2.621739 0.72709,-4.61013 2.392272,-6.192727 0.991048,-0.941901 2.075079,-1.39533 3.279591,-1.336411 0.685255,0.03353 1.285078,0.242795 1.734399,0.637215 0.44932,0.394423 0.726779,0.961288 0.834033,1.627833 0.255831,1.589974 -0.534027,3.241253 -2.149783,4.799772 -1.321857,1.275036 -2.809435,2.089969 -4.437669,2.404235 -0.08842,0.01706 -0.172308,0.03764 -0.246839,0.05763 0.0015,0.03685 -0.0013,0.05337 0.0043,0.103299 0.02477,0.215874 0.09178,0.536149 0.196818,0.896014 0.09675,0.331482 0.149192,0.484982 0.168547,0.669839 0.0096,0.09243 0.02174,0.267678 -0.135921,0.427348 -0.157666,0.159731 -0.311098,0.139186 -0.365365,0.139186 -0.252958,0 -0.29569,-0.102516 -0.345792,-0.152238 -0.05011,-0.04973 -0.08468,-0.09407 -0.118527,-0.143535 -0.0677,-0.09893 -0.128006,-0.213824 -0.184857,-0.341442 -0.117248,-0.263224 -0.244995,-0.659194 -0.316434,-0.973221 -0.05393,-0.236998 -0.08849,-0.406678 -0.115261,-0.505641 -0.01249,-0.04601 0.004,-0.01968 0,-0.02936 -0.06966,-0.008 -0.198047,-0.01113 -0.390375,-0.02392 -1.510342,-0.100411 -2.678429,-0.759201 -3.477495,-1.973626 -1.113624,-1.692505 -1.135961,-4.049701 -0.18812,-6.80167 0.07873,-0.228569 0.139292,-0.424235 0.19247,-0.591544 -0.06249,-0.01758 -0.110717,-0.03021 -0.180508,-0.04893 -1.616697,-0.435023 -3.017762,-1.430918 -3.797193,-2.736978 -0.579733,-0.97145 -0.855685,-2.31485 -0.719857,-3.465537 0.154625,-1.309987 0.642866,-2.286042 1.619135,-3.25023 0.80332,-0.793384 1.582584,-1.282732 2.597794,-1.627832 0.857172,-0.291379 1.761872,-0.439487 2.671734,-0.445834 z m -0.207694,1.39078 c -0.443018,-7e-6 -0.855976,0.02221 -1.13633,0.07067 -1.888271,0.326451 -3.407386,1.457909 -3.888533,2.77395 -0.618342,1.691313 0.200234,3.497823 2.080191,4.430055 0.314528,0.15597 0.792459,0.339499 1.236372,0.477368 0.42107,0.130759 0.83558,0.215206 0.974308,0.226177 0.0018,-0.0018 0.0023,-0.0024 0.0043,-0.0043 0.0721,-0.06899 0.236697,-0.269036 0.517602,-0.629604 1.570197,-2.015485 3.339984,-3.491228 5.893692,-5.116205 -0.106472,-0.09306 -0.181141,-0.163191 -0.489329,-0.406719 -1.14795,-0.907088 -2.034101,-1.36237 -3.201296,-1.652843 -0.430996,-0.107256 -1.252661,-0.168532 -1.991025,-0.168546 z m 13.376074,0.658963 c -0.540595,0.0093 -1.279523,0.132701 -2.059531,0.389289 -0.500779,0.164731 -1.467722,0.611365 -2.277011,1.036288 -0.404643,0.212464 -0.777843,0.421262 -1.036288,0.582847 -0.0657,0.04105 -0.09447,0.0654 -0.143535,0.09895 0.08693,0.155252 0.204546,0.360913 0.337093,0.579583 0.342139,0.564433 0.567234,0.949419 0.706809,1.233106 0.139652,0.283693 0.264841,0.46441 0.160935,0.789451 -0.0254,0.07936 -0.05718,0.146575 -0.110913,0.217479 -0.05373,0.07094 -0.113741,0.205519 -0.391463,0.205519 -0.272896,0 -0.332091,-0.119128 -0.406687,-0.193557 -0.07458,-0.07443 -0.14051,-0.157159 -0.217478,-0.263149 -0.153936,-0.212001 -0.3424,-0.510764 -0.587194,-0.919939 -0.234085,-0.391281 -0.498213,-0.784426 -0.576321,-0.892753 -1.099498,0.786635 -2.971516,2.547495 -3.656917,3.449224 -0.227128,0.298816 -0.516011,0.710005 -0.740518,1.055863 -0.02069,0.03185 -0.02936,0.05096 -0.04893,0.08155 0.135289,-0.0023 0.243993,-0.001 0.402337,-0.0077 0.604289,-0.02481 1.327898,-0.08079 1.722436,-0.140269 3.364141,-0.506918 6.901421,-2.090341 8.787258,-3.887447 1.041251,-0.992222 1.428524,-1.72134 1.425577,-2.375922 -0.0018,-0.441149 -0.336907,-0.88443 -0.690497,-0.981919 -0.148786,-0.04102 -0.353431,-0.06076 -0.599156,-0.05655 z m -5.718622,10.827213 c -0.09489,-0.0017 -0.207705,0.01234 -0.368629,0.03805 -0.530208,0.08499 -1.130396,0.408354 -1.689814,0.953647 -1.070045,1.043022 -1.967698,2.657541 -2.367265,4.28217 -0.08079,0.328444 -0.152361,0.769425 -0.192469,1.130893 -0.01445,0.130308 -0.02388,0.2292 -0.02936,0.328393 0.151119,-0.01818 0.346771,-0.04863 0.641565,-0.122875 1.21018,-0.304788 2.247521,-0.896284 3.270888,-1.879023 1.237558,-1.188417 1.76376,-2.233545 1.76376,-3.328522 0,-0.687564 -0.187964,-1.027642 -0.571972,-1.24507 -0.191753,-0.108577 -0.298563,-0.155019 -0.456705,-0.157669 z" />
</svg>
