<?xml version="1.0" encoding="UTF-8" standalone="no"?>
<svg
   height="48"
   width="48"
   version="1.1"
   id="svg8"
   sodipodi:docname="jetbrains-datagrip.svg"
   inkscape:version="1.1.2 (0a00cf5339, 2022-02-04)"
   xmlns:inkscape="http://www.inkscape.org/namespaces/inkscape"
   xmlns:sodipodi="http://sodipodi.sourceforge.net/DTD/sodipodi-0.dtd"
   xmlns="http://www.w3.org/2000/svg"
   xmlns:svg="http://www.w3.org/2000/svg"
   xmlns:rdf="http://www.w3.org/1999/02/22-rdf-syntax-ns#"
   xmlns:cc="http://creativecommons.org/ns#"
   xmlns:dc="http://purl.org/dc/elements/1.1/">
  <metadata
     id="metadata14">
    <rdf:RDF>
      <cc:Work
         rdf:about="">
        <dc:format>image/svg+xml</dc:format>
        <dc:type
           rdf:resource="http://purl.org/dc/dcmitype/StillImage" />
      </cc:Work>
    </rdf:RDF>
  </metadata>
  <defs
     id="defs12" />
  <sodipodi:namedview
     pagecolor="#ffffff"
     bordercolor="#666666"
     borderopacity="1"
     objecttolerance="10"
     gridtolerance="10"
     guidetolerance="10"
     inkscape:pageopacity="0"
     inkscape:pageshadow="2"
     inkscape:window-width="1920"
     inkscape:window-height="1028"
     id="namedview10"
     showgrid="false"
     inkscape:zoom="9.4583333"
     inkscape:cx="9.6740088"
     inkscape:cy="30.713656"
     inkscape:window-x="0"
     inkscape:window-y="24"
     inkscape:window-maximized="1"
     inkscape:current-layer="svg8"
     inkscape:document-rotation="0"
     inkscape:pagecheckerboard="0" />
  <path
     id="path2"
     style="fill:#a3be8c;fill-opacity:1;stroke-width:1.15035"
     d="M 23.804688 1.3046875 A 22.696228 22.696232 0 0 0 1.1074219 24 A 22.696228 22.696232 0 0 0 23.804688 46.695312 A 22.696228 22.696232 0 0 0 46.5 24 A 22.696228 22.696232 0 0 0 23.804688 1.3046875 z " />
  <path
     id="path839"
     style="fill:#ffffff;fill-opacity:0.162031;stroke-width:1.15035"
     d="M 23.804688 1.3046875 C 11.269907 1.3046874 1.107423 11.465218 1.1074219 24 L 46.5 24 C 46.499999 11.465218 36.339468 1.3046875 23.804688 1.3046875 z " />
  <path
     id="path841"
     style="fill:#b48ead;fill-opacity:0.49678653;stroke-width:1.15035"
     d="M 23.804688 1.3046875 L 23.804688 46.695312 C 36.339469 46.695312 46.5 36.534782 46.5 24 C 46.499999 11.465218 36.339468 1.3046875 23.804688 1.3046875 z " />
  <path
     id="path10"
     style="fill:#ffffff;stroke-width:0.841129"
     d="M 11.154694,12.920294 V 37.313047 H 35.547447 V 12.920294 Z m 17.330224,5.485412 c 0.552546,0 1.080993,0.0814 1.585331,0.243139 0.508046,0.161732 0.987122,0.401872 1.435834,0.71956 v 2.676171 c -0.463546,-0.410106 -0.925068,-0.716177 -1.384906,-0.918342 -0.456129,-0.202165 -0.915211,-0.302281 -1.37505,-0.302281 -0.852925,0 -1.511137,0.372003 -1.974683,1.117125 -0.459837,0.739347 -0.688345,1.800022 -0.688345,3.18052 0,1.368949 0.221985,2.425542 0.666989,3.170665 0.445004,0.745123 1.076277,1.117125 1.895827,1.117125 0.222502,0 0.428577,-0.02035 0.617704,-0.06079 0.192835,-0.04621 0.365449,-0.114579 0.517492,-0.206997 V 26.62807 h -1.307693 v -2.23425 h 3.338232 v 6.219758 c -0.534005,0.404331 -1.087748,0.707963 -1.662545,0.910129 -0.574797,0.202165 -1.168948,0.303924 -1.780828,0.303924 -1.383222,0 -2.478881,-0.600747 -3.287305,-1.802186 -0.808425,-1.207216 -1.21241,-2.841765 -1.21241,-4.903851 0,-2.085189 0.412152,-3.726259 1.235409,-4.921921 0.823258,-1.195663 1.949517,-1.793972 3.380947,-1.793972 z m -13.594427,0.234925 h 2.258893 c 1.260845,0 2.19858,0.140818 2.814169,0.423851 0.619298,0.277254 1.148964,0.751015 1.59026,1.421048 0.389379,0.583391 0.679932,1.256588 0.869058,2.019039 0.189127,0.762452 0.282567,1.626128 0.282567,2.590744 0,0.97617 -0.09344,1.848801 -0.282567,2.617031 -0.189126,0.762451 -0.479679,1.434005 -0.869058,2.017395 -0.445003,0.670034 -0.978754,1.147876 -1.60176,1.430906 -0.623005,0.277255 -1.556658,0.415637 -2.802669,0.415637 h -2.258893 z m 2.142252,2.520102 v 7.893803 h 0.767202 c 0.875175,0 1.542773,-0.337816 2.002611,-1.013627 0.463546,-0.675809 0.694918,-1.657515 0.694918,-2.945596 0,-1.282305 -0.230152,-2.259135 -0.68999,-2.929167 -0.459837,-0.670034 -1.128655,-1.005413 -2.007539,-1.005413 z" />
</svg>
