<?xml version="1.0" encoding="UTF-8" standalone="no"?>
<svg
   height="48"
   width="48"
   version="1.1"
   id="svg6"
   sodipodi:docname="dead-cells.svg"
   inkscape:version="1.1.2 (0a00cf5339, 2022-02-04)"
   xmlns:inkscape="http://www.inkscape.org/namespaces/inkscape"
   xmlns:sodipodi="http://sodipodi.sourceforge.net/DTD/sodipodi-0.dtd"
   xmlns="http://www.w3.org/2000/svg"
   xmlns:svg="http://www.w3.org/2000/svg"
   xmlns:rdf="http://www.w3.org/1999/02/22-rdf-syntax-ns#"
   xmlns:cc="http://creativecommons.org/ns#"
   xmlns:dc="http://purl.org/dc/elements/1.1/">
  <metadata
     id="metadata12">
    <rdf:RDF>
      <cc:Work
         rdf:about="">
        <dc:format>image/svg+xml</dc:format>
        <dc:type
           rdf:resource="http://purl.org/dc/dcmitype/StillImage" />
      </cc:Work>
    </rdf:RDF>
  </metadata>
  <defs
     id="defs10">
    <linearGradient
       gradientUnits="userSpaceOnUse"
       gradientTransform="matrix(0.0920001,0,0,0.09064843,-21.193131,1.5846311)"
       y2="269.48999"
       y1="235.14999"
       x2="657.65002"
       x1="319.20999"
       id="a-12">
      <stop
         id="stop1076"
         offset="0"
         stop-color="#e54c18" />
      <stop
         id="stop1078"
         offset="1"
         stop-color="#fec350" />
    </linearGradient>
    <linearGradient
       id="linearGradient946"
       x1="31.833"
       x2="32.167"
       y1="51.558998"
       y2="11.098"
       gradientUnits="userSpaceOnUse"
       gradientTransform="matrix(0.83258662,0,0,0.83258662,-4.004011,0.8380211)">
      <stop
         stop-color="#f9f9f9"
         offset="0"
         id="stop5" />
      <stop
         stop-color="#f0fee6"
         offset="1"
         id="stop7-3" />
    </linearGradient>
    <linearGradient
       gradientUnits="userSpaceOnUse"
       y2="12.7"
       y1="4.2333002"
       x2="7.9373002"
       x1="7.9373002"
       id="linearGradient1166">
      <stop
         id="stop13"
         offset="0"
         stop-color="#ffffff" />
      <stop
         id="stop15"
         offset="1"
         stop-color="#b8ffe1"
         style="stop-color:#d6f2dc;stop-opacity:1" />
    </linearGradient>
  </defs>
  <sodipodi:namedview
     pagecolor="#ffffff"
     bordercolor="#666666"
     borderopacity="1"
     objecttolerance="10"
     gridtolerance="10"
     guidetolerance="10"
     inkscape:pageopacity="0"
     inkscape:pageshadow="2"
     inkscape:window-width="1920"
     inkscape:window-height="995"
     id="namedview8"
     showgrid="true"
     inkscape:zoom="9.2708332"
     inkscape:cx="-11.865169"
     inkscape:cy="27.937079"
     inkscape:window-x="0"
     inkscape:window-y="0"
     inkscape:window-maximized="1"
     inkscape:current-layer="svg6"
     inkscape:document-rotation="0"
     inkscape:pagecheckerboard="0">
    <inkscape:grid
       type="xygrid"
       id="grid837" />
  </sodipodi:namedview>
  <circle
     cx="23.940615"
     cy="31.534513"
     opacity=".99"
     r="13.232998"
     transform="matrix(1.75830584759 0 0 1.75830608345 -18.15909274367 -30.97874795549)"
     id="circle2"
     style="fill:#5e81ac;fill-opacity:1" />
  <ellipse
     cx="23.935829"
     cy="24.468578"
     opacity="0.99"
     id="circle858"
     style="fill:#ffffff;fill-opacity:0.26542;stroke-width:1.50099"
     rx="19.862556"
     ry="19.862558" />
  <path
     style="fill:#ffffff;stroke-width:0.842278"
     d="m 22.101774,8.521459 c -0.100434,0.0053 -0.283442,0.03403 -0.620754,0.08774 -4.226165,0.673005 -7.283448,4.092655 -8.192646,8.313957 -0.175206,0.813484 -0.241529,2.349888 -0.135995,3.189319 0.08869,0.705485 0.310321,1.695694 0.39044,1.743817 0.0296,0.01777 0.310791,0.07481 0.622949,0.127235 1.377177,0.231244 2.904577,0.725609 3.7004,1.195446 0.211447,0.124843 0.603165,0.440859 0.868618,0.701913 1.500338,1.475516 2.122987,2.730291 2.055288,4.519728 -0.0332,0.87769 -0.178615,1.748677 -0.592239,2.162287 -0.459675,0.459658 -1.393498,0.687419 -2.294971,0.774298 l -0.447471,0.04387 -0.05483,0.280765 c -0.0757,0.392565 -0.0061,1.701053 0.114061,2.357314 0.143743,0.784337 0.436801,1.63007 0.758945,2.178124 0.666562,1.133991 2.20117,2.392029 3.16359,3.013839 0.955181,0.617137 2.175224,1.063253 3.351638,1.223963 0.569689,0.07783 2.118601,0.02596 2.667271,-0.08994 3.308067,-0.698713 5.455372,-3.165297 5.8193,-6.683529 0.04063,-0.392834 0.0531,-0.995332 0.0285,-1.40602 -0.194784,-3.2528 -1.505131,-5.575845 -4.209288,-7.460024 -1.610853,-1.122397 -2.546523,-1.813445 -2.917327,-2.153997 -0.684157,-0.628344 -1.039218,-1.561344 -1.195445,-2.535907 -0.03839,-0.239469 -0.0795,-0.441636 -0.08994,-0.451857 -0.01044,-0.01011 -0.185266,0.07864 -0.388245,0.197413 -0.904608,0.529392 -2.340163,0.542136 -3.21564,0.03071 -0.979356,-0.572109 -1.885701,-1.923089 -2.292172,-3.419634 -0.190224,-0.700355 -0.233119,-2.261673 -0.08994,-2.948464 0.290288,-1.392298 1.242841,-2.919395 2.665079,-4.272896 0.356897,-0.339648 0.647075,-0.641578 0.647075,-0.671204 0,-0.03603 -0.01583,-0.05352 -0.116251,-0.04825 z M 26,27 c 0.04636,-0.04166 0.08648,0.149201 0.201801,0.949776 0.226335,1.571305 0.584792,3.023892 0.870811,3.52273 0.330525,0.576463 1.152816,0.95312 2.69798,1.237123 0.354894,0.06523 0.656899,0.129946 0.673398,0.14477 0.04358,0.03918 -0.07131,0.06545 -0.83133,0.177672 -1.156699,0.170799 -1.962456,0.442929 -2.395277,0.809392 -0.511426,0.43302 -0.894312,1.53532 -1.149385,3.305574 -0.126998,0.88137 -0.194374,1.172475 -0.241284,1.05287 -0.0189,-0.0482 -0.09659,-0.567955 -0.173285,-1.155963 -0.224716,-1.722954 -0.479977,-2.676308 -0.829133,-3.094999 -0.28157,-0.337641 -1.479933,-0.783198 -2.781334,-1.035322 -0.620069,-0.120125 -0.721726,-0.181949 -0.381664,-0.232509 1.645228,-0.244609 2.777042,-0.61927 3.20906,-1.061642 0.351437,-0.359872 0.657103,-1.499681 0.93881,-3.487634 C 25.895028,27.525807 25.981963,27.016218 26,27 Z"
     id="path8" />
  <path
     style="fill:#ffffff;stroke-width:0.842278"
     d="M 29.569842,23.532366 C 28.822728,23.25761 28.167988,22.596905 27.773583,21.719723 27.452388,21.005371 27.39109,20.653051 27.431547,19.75382 c 0.03664,-0.814377 0.17593,-1.534552 0.405215,-2.095068 0.149491,-0.365456 0.409419,-0.770691 0.494346,-0.770691 0.02266,0 0.05561,0.27828 0.07319,0.618401 0.07288,1.409687 0.50569,2.131394 1.474552,2.458875 0.707091,0.238997 0.841312,0.311594 1.142326,0.617892 0.362875,0.369243 0.566997,0.792922 0.604632,1.254998 0.09727,1.194419 -0.986481,2.087446 -2.055958,1.694139 z"
     id="path10" />
</svg>
