<?xml version="1.0" encoding="UTF-8" standalone="no"?>
<svg
   height="48"
   width="48"
   version="1.1"
   id="svg8"
   sodipodi:docname="distributor-logo-aix.svg"
   inkscape:version="1.1.2 (0a00cf5339, 2022-02-04)"
   xmlns:inkscape="http://www.inkscape.org/namespaces/inkscape"
   xmlns:sodipodi="http://sodipodi.sourceforge.net/DTD/sodipodi-0.dtd"
   xmlns="http://www.w3.org/2000/svg"
   xmlns:svg="http://www.w3.org/2000/svg"
   xmlns:rdf="http://www.w3.org/1999/02/22-rdf-syntax-ns#"
   xmlns:cc="http://creativecommons.org/ns#"
   xmlns:dc="http://purl.org/dc/elements/1.1/">
  <metadata
     id="metadata14">
    <rdf:RDF>
      <cc:Work
         rdf:about="">
        <dc:format>image/svg+xml</dc:format>
        <dc:type
           rdf:resource="http://purl.org/dc/dcmitype/StillImage" />
      </cc:Work>
    </rdf:RDF>
  </metadata>
  <defs
     id="defs12" />
  <sodipodi:namedview
     pagecolor="#ffffff"
     bordercolor="#666666"
     borderopacity="1"
     objecttolerance="10"
     gridtolerance="10"
     guidetolerance="10"
     inkscape:pageopacity="0"
     inkscape:pageshadow="2"
     inkscape:window-width="1920"
     inkscape:window-height="1030"
     id="namedview10"
     showgrid="false"
     inkscape:zoom="4.7291668"
     inkscape:cx="25.691629"
     inkscape:cy="46.414096"
     inkscape:window-x="0"
     inkscape:window-y="24"
     inkscape:window-maximized="1"
     inkscape:current-layer="svg8"
     inkscape:document-rotation="0"
     inkscape:pagecheckerboard="0" />
  <path
     id="path2"
     style="fill:#a3be8c;fill-opacity:1;stroke-width:1.15035"
     d="M 23.804688 1.3046875 A 22.696228 22.696232 0 0 0 1.1074219 24 A 22.696228 22.696232 0 0 0 23.804688 46.695312 A 22.696228 22.696232 0 0 0 46.5 24 A 22.696228 22.696232 0 0 0 23.804688 1.3046875 z " />
  <path
     id="path880"
     style="fill:#ffffff;fill-opacity:0.242997;stroke-width:1.01189"
     d="M 23.804688 4.0351562 A 19.964269 19.964273 0 0 0 3.8398438 24 A 19.964269 19.964273 0 0 0 23.804688 43.964844 A 19.964269 19.964273 0 0 0 43.767578 24 A 19.964269 19.964273 0 0 0 23.804688 4.0351562 z " />
  <path
     d="M 23.803709,6.517098 A 17.482902,17.482902 0 0 0 6.3208071,24 17.482902,17.482902 0 0 0 23.803709,41.482902 17.482902,17.482902 0 0 0 41.286615,24 17.482902,17.482902 0 0 0 23.803709,6.517098 Z m 0,1.3986294 A 16.08427,16.08427 0 0 1 39.887981,24 16.08427,16.08427 0 0 1 23.803709,40.084271 16.08427,16.08427 0 0 1 7.7194396,24 16.08427,16.08427 0 0 1 23.803709,7.9157274 Z m -8.391792,11.1890616 -3.496581,9.091108 h 2.09795 l 0.838633,-2.097948 h 3.426922 l 0.629656,2.097948 h 2.097949 l -2.797264,-9.091108 z m 6.993163,0 v 9.091108 h 2.097947 v -9.091108 z m 3.496579,0 3.49658,4.545552 -3.49658,4.545556 h 2.097948 l 2.447606,-3.182435 2.447608,3.182435 h 2.097949 l -3.496583,-4.545556 3.496583,-4.545552 h -2.097949 l -2.447608,3.182432 -2.447606,-3.182432 z M 16.81055,21.202737 17.649183,24 h -1.957266 z"
     style="fill:#ffffff;stroke-width:0.699317"
     id="path10" />
</svg>
