<?xml version="1.0" encoding="UTF-8" standalone="no"?>
<svg
   height="48"
   width="48"
   version="1.1"
   id="svg6"
   sodipodi:docname="distributor-logo-pclinuxos.svg"
   inkscape:version="1.1.2 (0a00cf5339, 2022-02-04)"
   xmlns:inkscape="http://www.inkscape.org/namespaces/inkscape"
   xmlns:sodipodi="http://sodipodi.sourceforge.net/DTD/sodipodi-0.dtd"
   xmlns="http://www.w3.org/2000/svg"
   xmlns:svg="http://www.w3.org/2000/svg"
   xmlns:rdf="http://www.w3.org/1999/02/22-rdf-syntax-ns#"
   xmlns:cc="http://creativecommons.org/ns#"
   xmlns:dc="http://purl.org/dc/elements/1.1/">
  <metadata
     id="metadata12">
    <rdf:RDF>
      <cc:Work
         rdf:about="">
        <dc:format>image/svg+xml</dc:format>
        <dc:type
           rdf:resource="http://purl.org/dc/dcmitype/StillImage" />
      </cc:Work>
    </rdf:RDF>
  </metadata>
  <defs
     id="defs10">
    <linearGradient
       gradientUnits="userSpaceOnUse"
       gradientTransform="matrix(0.0920001,0,0,0.09064843,-21.193131,1.5846311)"
       y2="269.48999"
       y1="235.14999"
       x2="657.65002"
       x1="319.20999"
       id="a-12">
      <stop
         id="stop1076"
         offset="0"
         stop-color="#e54c18" />
      <stop
         id="stop1078"
         offset="1"
         stop-color="#fec350" />
    </linearGradient>
    <linearGradient
       id="linearGradient946"
       x1="31.833"
       x2="32.167"
       y1="51.558998"
       y2="11.098"
       gradientUnits="userSpaceOnUse"
       gradientTransform="matrix(0.83258662,0,0,0.83258662,-4.004011,0.8380211)">
      <stop
         stop-color="#f9f9f9"
         offset="0"
         id="stop5" />
      <stop
         stop-color="#f0fee6"
         offset="1"
         id="stop7-3" />
    </linearGradient>
    <linearGradient
       gradientUnits="userSpaceOnUse"
       y2="12.7"
       y1="4.2333002"
       x2="7.9373002"
       x1="7.9373002"
       id="linearGradient1166">
      <stop
         id="stop13"
         offset="0"
         stop-color="#ffffff" />
      <stop
         id="stop15"
         offset="1"
         stop-color="#b8ffe1"
         style="stop-color:#d6f2dc;stop-opacity:1" />
    </linearGradient>
  </defs>
  <sodipodi:namedview
     pagecolor="#ffffff"
     bordercolor="#666666"
     borderopacity="1"
     objecttolerance="10"
     gridtolerance="10"
     guidetolerance="10"
     inkscape:pageopacity="0"
     inkscape:pageshadow="2"
     inkscape:window-width="1920"
     inkscape:window-height="1030"
     id="namedview8"
     showgrid="true"
     inkscape:zoom="2.3177083"
     inkscape:cx="-118.0045"
     inkscape:cy="18.337079"
     inkscape:window-x="0"
     inkscape:window-y="24"
     inkscape:window-maximized="1"
     inkscape:current-layer="svg6"
     inkscape:document-rotation="0"
     inkscape:pagecheckerboard="0">
    <inkscape:grid
       type="xygrid"
       id="grid837" />
  </sodipodi:namedview>
  <circle
     cx="23.940615"
     cy="31.534513"
     opacity=".99"
     r="13.232998"
     transform="matrix(1.75830584759 0 0 1.75830608345 -18.15909274367 -30.97874795549)"
     id="circle2"
     style="fill:#88c0d0;fill-opacity:1" />
  <ellipse
     cx="23.935829"
     cy="24.468578"
     opacity="0.99"
     id="circle858"
     style="fill:#ffffff;fill-opacity:0.26542;stroke-width:1.50099"
     rx="19.862556"
     ry="19.862558" />
  <path
     d="m 40.45131,12.261403 c 0,-0.03171 -0.172965,0.07774 -0.380022,0.243768 -0.526195,0.422007 -1.068325,0.591416 -2.617126,0.817405 -1.442743,0.210506 -2.137943,0.449826 -2.32315,0.795893 -0.06385,0.119285 -0.290625,0.368407 -0.501913,0.559277 -0.211301,0.190884 -0.409689,0.463377 -0.444558,0.6023 -0.0872,0.347396 0.215699,0.980489 0.788725,1.641976 0.640587,0.739493 0.960807,1.397019 0.960807,1.97898 0,0.415353 -0.04626,0.514608 -0.387198,0.838915 -0.584661,0.556174 -1.317764,0.755351 -2.724681,0.745705 -2.051176,-0.0143 -3.972266,-0.547786 -7.765339,-2.165407 -3.10837,-1.325619 -4.464048,-1.656977 -5.836555,-1.405361 -0.736603,0.135033 -1.858388,0.679196 -2.437868,1.175915 -0.918523,0.787345 -2.623925,3.28421 -3.699833,5.427852 l -0.709848,1.426874 -0.552106,-0.573621 c -0.901707,-0.937184 -1.183087,-1.309685 -1.183087,-1.570277 0,-0.161665 -0.05819,-0.250944 -0.164917,-0.250944 -0.135654,0 -0.155045,0.08235 -0.114723,0.501918 0.05297,0.55139 0.447263,1.215437 1.26913,2.129552 l 0.444554,0.494742 -0.365672,1.168744 c -0.20119,0.644963 -0.421112,1.485275 -0.487575,1.864262 -0.11643,0.663817 -0.144063,0.721255 -0.874765,1.484234 -0.874128,0.912736 -0.993803,0.944513 -2.03634,0.552102 -0.869126,-0.327137 -2.290336,-0.66683 -2.789209,-0.66683 -0.4647128,0 -1.003832,0.234015 -1.003832,0.437386 0,0.09708 0.1553629,0.134676 0.573617,0.129046 0.470674,-0.0064 0.867953,0.102671 2.136721,0.58079 2.011045,0.757811 2.194075,0.80446 2.660152,0.717019 0.291697,-0.05474 0.554496,-0.234769 1.05402,-0.717019 l 0.66683,-0.645321 0.193579,0.20793 c 0.253679,0.280874 1.165233,0.737926 1.907279,0.953635 l 0.595128,0.172093 -0.458898,0.114734 c -0.625633,0.158852 -1.023356,0.470658 -1.247615,0.967978 -0.185174,0.410611 -0.186403,0.422977 0,0.559279 0.247694,0.181129 2.00617,0.185609 2.359,0.0076 0.207136,-0.104809 0.605764,-0.661903 0.731363,-1.018171 0.01783,-0.05015 0.248444,-0.0065 0.509084,0.09321 0.579424,0.22129 1.684295,0.160991 2.466552,-0.136255 0.27921,-0.106122 0.509085,-0.157384 0.509085,-0.114734 0,0.04263 -0.203292,0.274968 -0.45172,0.523428 -0.299151,0.29915 -0.451726,0.540341 -0.451726,0.709848 0,0.56663 0.01744,0.573621 1.419704,0.573621 0.947871,0 1.309162,-0.03014 1.340827,-0.121867 v -0.0076 c 0.02379,-0.06903 0.05585,-0.916902 0.07171,-1.892936 0.02617,-1.614377 0.04655,-1.800181 0.236633,-2.057852 0.58148,-0.788242 3.355495,-1.902607 5.141046,-2.065019 L 27,28 v 0.308307 c 0,0.170151 -0.211142,0.907794 -0.473232,1.63481 l -0.480403,1.319327 -0.530599,0.121866 c -0.597956,0.133798 -1.133456,0.537799 -1.326487,1.003828 -0.230961,0.557579 -0.133559,0.602298 1.204594,0.602298 1.413511,0 1.306965,0.06097 2.057855,-1.261957 0.410893,-0.723917 0.763625,-1.141663 1.943129,-2.315966 l 1.441212,-1.434043 0.437379,0.114734 c 0.890078,0.238057 4.358011,3.117419 4.811217,3.993803 0.161744,0.312786 0.125143,0.511068 -0.164917,0.88911 -0.234253,0.305335 -0.244561,0.680575 -0.0143,0.738531 0.396573,0.09978 2.135447,0.08269 2.330318,-0.02181 0.113611,-0.06082 0.208129,-0.207535 0.20793,-0.329834 -1.95e-4,-0.122293 -0.362976,-0.854685 -0.803062,-1.627632 -0.95417,-1.675823 -1.085124,-1.986823 -2.172608,-5.191099 -0.710196,-2.092606 -0.838906,-2.583097 -0.838906,-3.12621 0,-1.129883 0.475939,-2.017361 1.570271,-2.918278 0.314811,-0.259189 0.583664,-0.544951 0.595126,-0.638149 0.01147,-0.09321 0.06826,-0.383828 0.121867,-0.645318 0.105215,-0.513503 0.03448,-1.084496 -0.179266,-1.484232 -0.07366,-0.137905 -0.374475,-0.54249 -0.673927,-0.89617 -0.679507,-0.802625 -0.796475,-1.072311 -0.566445,-1.326489 0.09691,-0.107079 0.305453,-0.186403 0.487572,-0.186403 0.532336,0 1.338045,-0.290627 2.244279,-0.810237 0.474413,-0.272034 0.928858,-0.494744 1.018171,-0.494744 0.233617,0 0.531567,-0.359961 0.889106,-1.075529 0.17162,-0.34351 0.315487,-0.649391 0.315487,-0.681169 z"
     style="fill:#fbfbfb;fill-opacity:1;stroke-width:1.0489"
     id="path12" />
</svg>
