<?xml version="1.0" encoding="UTF-8" standalone="no"?>
<svg
   height="48"
   width="48"
   version="1.1"
   id="svg16"
   sodipodi:docname="eclipse.svg"
   inkscape:version="1.1.2 (0a00cf5339, 2022-02-04)"
   xmlns:inkscape="http://www.inkscape.org/namespaces/inkscape"
   xmlns:sodipodi="http://sodipodi.sourceforge.net/DTD/sodipodi-0.dtd"
   xmlns="http://www.w3.org/2000/svg"
   xmlns:svg="http://www.w3.org/2000/svg">
  <defs
     id="defs20" />
  <sodipodi:namedview
     id="namedview18"
     pagecolor="#ffffff"
     bordercolor="#666666"
     borderopacity="1.0"
     inkscape:pageshadow="2"
     inkscape:pageopacity="0.0"
     inkscape:pagecheckerboard="0"
     showgrid="false"
     inkscape:zoom="13.229167"
     inkscape:cx="24"
     inkscape:cy="24"
     inkscape:window-width="1920"
     inkscape:window-height="1030"
     inkscape:window-x="0"
     inkscape:window-y="24"
     inkscape:window-maximized="1"
     inkscape:current-layer="svg16" />
  <path
     id="ellipse2"
     style="fill:#b48ead;fill-opacity:1"
     d="M 46.762007,24.214348 A 22.779375,22.779379 0 0 1 23.982632,46.993727 22.779375,22.779379 0 0 1 1.2032566,24.214348 22.779375,22.779379 0 0 1 23.982632,1.4349689 22.779375,22.779379 0 0 1 46.762007,24.214348 Z" />
  <circle
     cx="26.576172"
     cy="24.42857"
     fill="#faf6fb"
     fill-opacity=".427007"
     r="11.285714"
     id="circle4" />
  <path
     d="m21.433594 13.142578a11.285714 11.285714 0 0 0 -11.285156 11.285156 11.285714 11.285714 0 0 0 11.285156 11.28711 11.285714 11.285714 0 0 0 2.566406-.310547 11.285714 11.285714 0 0 1 -8.708984-10.976563 11.285714 11.285714 0 0 1 8.71875-10.974609 11.285714 11.285714 0 0 0 -2.576172-.310547z"
     fill="#faf6fb"
     id="path6" />
  <g
     fill="none"
     stroke="#ffffff"
     stroke-linecap="round"
     transform="translate(0 -.57143)"
     id="g14">
    <path
       d="m14 22h12"
       id="path8" />
    <path
       d="m14 25h14"
       id="path10" />
    <path
       d="m14 28h12"
       id="path12" />
  </g>
</svg>
