<?xml version="1.0" encoding="UTF-8" standalone="no"?>
<svg
   height="48"
   width="48"
   version="1.1"
   id="svg6"
   sodipodi:docname="application-x-pml18free.svg"
   inkscape:version="1.1.2 (0a00cf5339, 2022-02-04)"
   xmlns:inkscape="http://www.inkscape.org/namespaces/inkscape"
   xmlns:sodipodi="http://sodipodi.sourceforge.net/DTD/sodipodi-0.dtd"
   xmlns="http://www.w3.org/2000/svg"
   xmlns:svg="http://www.w3.org/2000/svg"
   xmlns:rdf="http://www.w3.org/1999/02/22-rdf-syntax-ns#"
   xmlns:cc="http://creativecommons.org/ns#"
   xmlns:dc="http://purl.org/dc/elements/1.1/">
  <metadata
     id="metadata12">
    <rdf:RDF>
      <cc:Work
         rdf:about="">
        <dc:format>image/svg+xml</dc:format>
        <dc:type
           rdf:resource="http://purl.org/dc/dcmitype/StillImage" />
      </cc:Work>
    </rdf:RDF>
  </metadata>
  <defs
     id="defs10">
    <marker
       style="overflow:visible"
       id="DotL"
       refX="0.0"
       refY="0.0"
       orient="auto"
       inkscape:stockid="DotL"
       inkscape:isstock="true">
      <path
         transform="scale(0.8) translate(7.4, 1)"
         style="fill-rule:evenodd;stroke:#000000;stroke-width:1pt;stroke-opacity:1;fill:#000000;fill-opacity:1"
         d="M -2.5,-1.0 C -2.5,1.7600000 -4.7400000,4.0 -7.5,4.0 C -10.260000,4.0 -12.5,1.7600000 -12.5,-1.0 C -12.5,-3.7600000 -10.260000,-6.0 -7.5,-6.0 C -4.7400000,-6.0 -2.5,-3.7600000 -2.5,-1.0 z "
         id="path898" />
    </marker>
  </defs>
  <sodipodi:namedview
     pagecolor="#ffffff"
     bordercolor="#666666"
     borderopacity="1"
     objecttolerance="10"
     gridtolerance="10"
     guidetolerance="10"
     inkscape:pageopacity="0"
     inkscape:pageshadow="2"
     inkscape:window-width="1920"
     inkscape:window-height="1031"
     id="namedview8"
     showgrid="false"
     inkscape:zoom="11.313708"
     inkscape:cx="5.9220196"
     inkscape:cy="21.69934"
     inkscape:window-x="0"
     inkscape:window-y="0"
     inkscape:window-maximized="1"
     inkscape:current-layer="svg6"
     inkscape:document-rotation="0"
     inkscape:pagecheckerboard="0" />
  <path
     id="circle2"
     style="opacity:0.99;fill:#a3be8c;fill-opacity:1"
     transform="matrix(1.75830584759 0 0 1.75830608345 -18.15909274367 -30.97874795549)"
     d="M 37.173613,31.534513 A 13.232998,13.232998 0 0 1 23.940615,44.767511 13.232998,13.232998 0 0 1 10.707617,31.534513 13.232998,13.232998 0 0 1 23.940615,18.301516 13.232998,13.232998 0 0 1 37.173613,31.534513 Z" />
  <path
     id="ellipse844"
     style="opacity:0.99;fill:#ffffff;fill-opacity:1;stroke-width:1.56227"
     d="M 44.609346,24.468578 H 3.2623119 c 1e-7,-11.417669 9.2558491,-20.6735189 20.6735171,-20.6735188 11.417668,0 20.673517,9.2558498 20.673517,20.6735188 z"
     sodipodi:nodetypes="ccsc" />
  <g
     id="g881"
     transform="translate(-0.43941978,1.4068988)"
     style="fill:#ffffff;fill-opacity:1">
    <circle
       style="fill:#ffffff;fill-opacity:1;stroke:none;stroke-width:3.04249;stroke-linecap:round;stroke-linejoin:round;stroke-miterlimit:4;stroke-dasharray:none;stroke-opacity:1"
       id="path1576"
       cx="24.37525"
       cy="34.372627"
       r="9.5953712" />
    <g
       aria-label="P"
       style="font-style:normal;font-variant:normal;font-weight:bold;font-stretch:normal;font-size:10.5833px;line-height:1.25;font-family:sans-serif;-inkscape-font-specification:'sans-serif Bold';letter-spacing:0px;word-spacing:0px;fill:#ffffff;fill-opacity:1;stroke:none;stroke-width:0.264583"
       id="text6186"
       transform="matrix(1.2169994,0,0,1.2169994,13.652248,3.7425617)" />
  </g>
  <g
     fill="#50b77e"
     id="g16"
     transform="translate(0.44093177,1.0248534)">
    <path
       d="M 22.5,8 H 25 v 12.5 h -2.5 z"
       id="path12"
       style="fill:#a3be8c;fill-opacity:1;stroke:none;stroke-opacity:1" />
    <path
       d="m 15,13 h 17.5 v 2.5 H 15 Z"
       id="path14"
       style="fill:#a3be8c;fill-opacity:1;stroke:none;stroke-opacity:1" />
  </g>
  <path
     id="path6331"
     style="font-style:normal;font-variant:normal;font-weight:bold;font-stretch:normal;font-size:10.5833px;line-height:1.25;font-family:sans-serif;-inkscape-font-specification:'sans-serif Bold';letter-spacing:0px;word-spacing:0px;fill:#a3be8c;fill-opacity:1;stroke:none;stroke-width:0.321997"
     d="M 21.763672 31.267578 L 21.763672 40.464844 L 23.707031 40.464844 L 23.707031 37.193359 L 24.544922 37.193359 C 25.437929 37.193359 26.143006 37.050935 26.658203 36.767578 C 27.181986 36.48422 27.554092 36.110162 27.777344 35.646484 C 28.000596 35.174221 28.113281 34.672994 28.113281 34.140625 C 28.113281 33.247618 27.838605 32.547626 27.289062 32.041016 C 26.748107 31.525819 25.884171 31.267578 24.699219 31.267578 L 21.763672 31.267578 z M 23.707031 32.865234 L 24.595703 32.865234 C 25.626096 32.865234 26.142578 33.312071 26.142578 34.205078 C 26.142578 34.694515 25.978635 35.050185 25.652344 35.273438 C 25.334639 35.488102 24.901105 35.595703 24.351562 35.595703 L 23.707031 35.595703 L 23.707031 32.865234 z " />
  <path
     style="fill:none;stroke:#a3be8c;stroke-width:2;stroke-linecap:butt;stroke-linejoin:miter;stroke-opacity:0.99215686;stroke-miterlimit:4;stroke-dasharray:none"
     d="m 15.440931,9.0248534 h 17.5 V 21.524853 h -17.5 z"
     id="path891" />
</svg>
