<?xml version="1.0" encoding="UTF-8" standalone="no"?>
<svg
   width="100%"
   height="100%"
   viewBox="0 0 1024 1024"
   version="1.1"
   xml:space="preserve"
   style="fill-rule:evenodd;clip-rule:evenodd;stroke-linejoin:round;stroke-miterlimit:2;"
   id="svg33"
   sodipodi:docname="Gcolor3.svg"
   inkscape:version="1.1.2 (0a00cf5339, 2022-02-04)"
   xmlns:inkscape="http://www.inkscape.org/namespaces/inkscape"
   xmlns:sodipodi="http://sodipodi.sourceforge.net/DTD/sodipodi-0.dtd"
   xmlns="http://www.w3.org/2000/svg"
   xmlns:svg="http://www.w3.org/2000/svg"
   xmlns:rdf="http://www.w3.org/1999/02/22-rdf-syntax-ns#"
   xmlns:cc="http://creativecommons.org/ns#"
   xmlns:dc="http://purl.org/dc/elements/1.1/"><metadata
     id="metadata39"><rdf:RDF><cc:Work
         rdf:about=""><dc:format>image/svg+xml</dc:format><dc:type
           rdf:resource="http://purl.org/dc/dcmitype/StillImage" /><dc:title /></cc:Work></rdf:RDF></metadata><defs
     id="defs37"><clipPath
       id="_clip2"><path
         d="m 304.486,704.103 c -5.874,-23.638 -1.779,-54.361 15.581,-71.721 94.348,-94.349 295.355,-295.356 295.355,-295.356 l 95.691,95.691 c 0,0 -201.007,201.007 -295.356,295.356 -15.893,15.893 -45.212,21.56 -67.811,18.157 l -40.709,40.709 c -5.675,5.674 -13.371,8.862 -21.397,8.862 -8.025,0 -15.721,-3.188 -21.396,-8.862 0,0 0,-10e-4 -0.001,-10e-4 -5.674,-5.675 -8.862,-13.371 -8.862,-21.396 0,-8.025 3.188,-15.722 8.862,-21.397 z"
         id="path19"
         inkscape:connector-curvature="0" /></clipPath></defs><sodipodi:namedview
     pagecolor="#ffffff"
     bordercolor="#666666"
     borderopacity="1"
     objecttolerance="10"
     gridtolerance="10"
     guidetolerance="10"
     inkscape:pageopacity="0"
     inkscape:pageshadow="2"
     inkscape:window-width="1920"
     inkscape:window-height="1029"
     id="namedview35"
     showgrid="false"
     inkscape:zoom="0.23046875"
     inkscape:cx="-1273.4915"
     inkscape:cy="509.83051"
     inkscape:window-x="0"
     inkscape:window-y="0"
     inkscape:window-maximized="1"
     inkscape:current-layer="svg33"
     inkscape:pagecheckerboard="0" /><circle
     cx="509.17929"
     cy="530.16669"
     r="478.64188"
     style="fill:#8c7bc3;stroke-width:1.49449956"
     id="circle2" /><clipPath
     id="_clip1"><circle
       cx="463.62"
       cy="575.726"
       r="320.269"
       id="circle4" /></clipPath><g
     clip-path="url(#_clip1)"
     id="g15"
     transform="matrix(1.4944996,0,0,1.4944996,-183.70056,-330.25557)"><rect
       x="99.513"
       y="575.72601"
       width="364.10699"
       height="368.94501"
       style="fill:#5a5275"
       id="rect7" /><rect
       x="463.62"
       y="575.72601"
       width="364.10699"
       height="368.94501"
       style="fill:#dad4ee"
       id="rect9"
       clip-path="none" /><rect
       x="99.513"
       y="206.78"
       width="364.10699"
       height="368.94501"
       style="fill:#675b91"
       id="rect11" /><path
       style="fill:#8c7bc3"
       d="M 463.62,206.78 H 827.72699 V 575.72501 H 463.62 Z"
       id="rect13" /></g><path
     d="m 271.35365,722.02608 c -8.7787,-35.32698 -2.65872,-81.24249 23.28579,-107.187 C 435.64249,473.83453 736.04737,173.42965 736.04737,173.42965 l 143.01016,143.01016 c 0,0 -300.40488,300.40488 -441.40942,441.40943 -23.75208,23.75208 -67.56932,32.22141 -101.34351,27.13563 l -60.83959,60.83958 c -8.48128,8.47979 -19.98295,13.24426 -31.9778,13.24426 -11.99336,0 -23.49503,-4.76447 -31.97632,-13.24426 0,0 0,-10e-4 -10e-4,-10e-4 -8.47979,-8.48129 -13.24426,-19.98296 -13.24426,-31.97632 0,-11.99336 4.76447,-23.49652 13.24426,-31.97781 z"
     style="fill:#ffffff;fill-opacity:1;stroke-width:1.4945"
     id="path17"
     inkscape:connector-curvature="0" /><g
     clip-path="url(#_clip2)"
     id="g24"
     transform="matrix(1.4944996,0,0,1.4944996,-183.70056,-330.25557)"><path
       id="path1174"
       clip-path="none"
       mask="none"
       style="fill:#b7a6ee;fill-opacity:1;stroke-width:1.4945"
       d="M 283.01172 629.90234 C 267.06946 656.32215 264.08714 692.78427 271.35352 722.02539 L 211.50977 781.86914 C 203.02998 790.35043 198.26562 801.8543 198.26562 813.84766 C 198.26563 825.84102 203.02998 837.34293 211.50977 845.82422 C 211.50977 845.82422 211.51172 845.82422 211.51172 845.82422 C 219.99301 854.30401 231.49297 859.06836 243.48633 859.06836 C 255.48118 859.06836 266.98356 854.30401 275.46484 845.82422 L 336.30469 784.98438 C 370.07888 790.07016 413.89636 781.60169 437.64844 757.84961 C 471.48494 724.01311 497.73159 697.76646 543.57227 651.92578 L 283.01172 629.90234 z "
       transform="matrix(0.66912029,0,0,0.66912029,122.91777,220.9807)" /></g><path
     d="m 704.74358,135.17345 c -8.1495,-8.1495 -21.36387,-8.1495 -29.51337,0 -8.77571,8.7757 -19.86938,19.86937 -28.64358,28.64358 -8.151,8.151 -8.151,21.36387 0,29.51487 42.6037,42.6037 165.47099,165.471 208.07619,208.07619 8.1495,8.14951 21.36387,8.14951 29.51338,0 8.7757,-8.7757 19.86937,-19.86937 28.64507,-28.64358 8.14951,-8.151 8.14951,-21.36387 0,-29.51487 -42.6052,-42.6037 -165.47249,-165.47099 -208.07769,-208.07619 z"
     style="fill:#5a5275;stroke-width:1.4945"
     id="path26"
     inkscape:connector-curvature="0" /><path
     d="m 946.54166,193.05692 c 24.45898,-24.46048 24.45898,-64.11703 0,-88.5775 -0.36914,-0.36765 -0.73828,-0.73679 -1.10593,-1.10444 -24.46047,-24.460472 -64.11702,-24.460472 -88.576,0 C 812.31019,147.92303 750.1689,210.06582 750.1689,210.06582 l 89.68193,89.68193 c 0,0 62.14129,-62.14279 106.69083,-106.69083 z"
     style="fill:#5a5275;stroke-width:1.4945"
     id="path28"
     inkscape:connector-curvature="0" /></svg>
