<?xml version="1.0" encoding="UTF-8" standalone="no"?>
<svg
   height="48"
   width="48"
   version="1.1"
   id="svg30"
   sodipodi:docname="geogebra.svg"
   inkscape:version="1.1.2 (0a00cf5339, 2022-02-04)"
   xmlns:inkscape="http://www.inkscape.org/namespaces/inkscape"
   xmlns:sodipodi="http://sodipodi.sourceforge.net/DTD/sodipodi-0.dtd"
   xmlns="http://www.w3.org/2000/svg"
   xmlns:svg="http://www.w3.org/2000/svg">
  <defs
     id="defs34" />
  <sodipodi:namedview
     id="namedview32"
     pagecolor="#ffffff"
     bordercolor="#666666"
     borderopacity="1.0"
     inkscape:pageshadow="2"
     inkscape:pageopacity="0.0"
     inkscape:pagecheckerboard="0"
     showgrid="false"
     inkscape:zoom="16.375"
     inkscape:cx="3.1755725"
     inkscape:cy="24.030534"
     inkscape:window-width="1920"
     inkscape:window-height="1031"
     inkscape:window-x="0"
     inkscape:window-y="0"
     inkscape:window-maximized="1"
     inkscape:current-layer="svg30" />
  <g
     fill="#549cd4"
     id="g28">
    <path
       id="circle2"
       transform="matrix(1.72140702696 0 0 1.72140725788 -17.2289093957 -30.06939350282)"
       style="opacity:0.99;fill:#81a1c1;fill-opacity:1"
       d="M 37.173613,31.534513 A 13.232998,13.232998 0 0 1 23.940615,44.767511 13.232998,13.232998 0 0 1 10.707617,31.534513 13.232998,13.232998 0 0 1 23.940615,18.301516 13.232998,13.232998 0 0 1 37.173613,31.534513 Z" />
    <g
       stroke="#ffffff"
       stroke-linecap="square"
       stroke-miterlimit="10"
       transform="matrix(.89989438291 0 0 .89326050507 9.07679546899 9.62321209077)"
       id="g26">
      <path
         d="m4.653045 21.715398c2.5528723 5.337746 9.999931 7.092936 16.633471 3.920328 6.63354-3.172609 9.941575-10.071615 7.388703-15.409361-2.552872-5.3377465-9.999931-7.0929369-16.633471-3.9203279-6.6335404 3.172609-9.9415753 10.0716149-7.388703 15.4093609z"
         stroke-linecap="round"
         stroke-linejoin="round"
         stroke-miterlimit="10"
         stroke-width="2.499522"
         id="path4"
         style="fill:#81a1c1;fill-opacity:1" />
      <path
         d="m19 5c0 1.6568542-1.343146 3-3 3s-3-1.3431458-3-3 1.343146-3 3-3 3 1.3431458 3 3z"
         id="path6" />
      <path
         d="m19 5c0 1.6568542-1.343146 3-3 3s-3-1.3431458-3-3 1.343146-3 3-3 3 1.3431458 3 3z"
         stroke-linecap="round"
         stroke-linejoin="round"
         id="path8"
         style="fill:#81a1c1;fill-opacity:1" />
      <path
         d="m8 13c0 1.656854-1.3431458 3-3 3s-3-1.343146-3-3 1.3431458-3 3-3 3 1.343146 3 3z"
         id="path10" />
      <path
         d="m8 13c0 1.656854-1.3431458 3-3 3s-3-1.343146-3-3 1.3431458-3 3-3 3 1.343146 3 3z"
         stroke-linecap="round"
         stroke-linejoin="round"
         id="path12"
         style="fill:#81a1c1;fill-opacity:1" />
      <path
         d="m12 26c0 1.656854-1.343146 3-3 3-1.6568542 0-3-1.343146-3-3s1.3431458-3 3-3c1.656854 0 3 1.343146 3 3z"
         id="path14" />
      <path
         d="m12 26c0 1.656854-1.343146 3-3 3-1.6568542 0-3-1.343146-3-3s1.3431458-3 3-3c1.656854 0 3 1.343146 3 3z"
         stroke-linecap="round"
         stroke-linejoin="round"
         id="path16"
         style="fill:#81a1c1;fill-opacity:1" />
      <path
         d="m27 24c0 1.656854-1.343146 3-3 3s-3-1.343146-3-3 1.343146-3 3-3 3 1.343146 3 3z"
         id="path18" />
      <path
         d="m27 24c0 1.656854-1.343146 3-3 3s-3-1.343146-3-3 1.343146-3 3-3 3 1.343146 3 3z"
         stroke-linecap="round"
         stroke-linejoin="round"
         id="path20"
         style="fill:#81a1c1;fill-opacity:1" />
      <path
         d="m32 11c0 1.656854-1.343146 3-3 3s-3-1.343146-3-3c0-1.6568542 1.343146-3 3-3s3 1.3431458 3 3z"
         id="path22" />
      <path
         d="m32 11c0 1.656854-1.343146 3-3 3s-3-1.343146-3-3c0-1.6568542 1.343146-3 3-3s3 1.3431458 3 3z"
         stroke-linecap="round"
         stroke-linejoin="round"
         id="path24"
         style="fill:#81a1c1;fill-opacity:1" />
    </g>
  </g>
</svg>
