<?xml version="1.0" encoding="UTF-8" standalone="no"?>
<svg
   height="48"
   width="48"
   version="1.1"
   id="svg10"
   sodipodi:docname="gimp.svg"
   inkscape:version="1.1.2 (0a00cf5339, 2022-02-04)"
   xmlns:inkscape="http://www.inkscape.org/namespaces/inkscape"
   xmlns:sodipodi="http://sodipodi.sourceforge.net/DTD/sodipodi-0.dtd"
   xmlns="http://www.w3.org/2000/svg"
   xmlns:svg="http://www.w3.org/2000/svg"
   xmlns:rdf="http://www.w3.org/1999/02/22-rdf-syntax-ns#"
   xmlns:cc="http://creativecommons.org/ns#"
   xmlns:dc="http://purl.org/dc/elements/1.1/">
  <metadata
     id="metadata16">
    <rdf:RDF>
      <cc:Work
         rdf:about="">
        <dc:format>image/svg+xml</dc:format>
        <dc:type
           rdf:resource="http://purl.org/dc/dcmitype/StillImage" />
      </cc:Work>
    </rdf:RDF>
  </metadata>
  <defs
     id="defs14" />
  <sodipodi:namedview
     pagecolor="#ffffff"
     bordercolor="#666666"
     borderopacity="1"
     objecttolerance="10"
     gridtolerance="10"
     guidetolerance="10"
     inkscape:pageopacity="0"
     inkscape:pageshadow="2"
     inkscape:window-width="1920"
     inkscape:window-height="1031"
     id="namedview12"
     showgrid="false"
     inkscape:zoom="7.8020835"
     inkscape:cx="-14.098798"
     inkscape:cy="37.361815"
     inkscape:window-x="0"
     inkscape:window-y="0"
     inkscape:window-maximized="1"
     inkscape:current-layer="svg10"
     inkscape:pagecheckerboard="0" />
  <path
     id="circle2"
     style="opacity:0.99;fill:#80aca8"
     transform="matrix(1.72140702696 0 0 1.72140725788 -17.2289093957 -30.06939350282)"
     d="M 37.173613,31.534513 A 13.232998,13.232998 0 0 1 23.940615,44.767511 13.232998,13.232998 0 0 1 10.707617,31.534513 13.232998,13.232998 0 0 1 23.940615,18.301516 13.232998,13.232998 0 0 1 37.173613,31.534513 Z" />
  <g
     stroke-width=".043162"
     id="g8">
    <path
       id="path4"
       d="M 26.681641 9.9238281 C 25.875447 11.285338 25.34194 12.789622 24.384766 14.058594 C 23.635649 15.051738 22.80386 16.002775 21.728516 16.726562 C 23.816301 15.961289 26.327274 15.627967 27.908203 14.90625 C 27.962453 14.88043 28.020668 14.852642 28.076172 14.826172 C 27.828068 13.159638 27.385498 11.494565 26.681641 9.9238281 z "
       style="fill:#ffffff;fill-opacity:0.49900201" />
    <path
       id="path6"
       style="fill:#ffffff;fill-opacity:1"
       d="M 34.976562 9.0410156 C 34.285216 11.697313 30.543902 13.569754 28.033203 14.767578 C 28.016913 14.775278 27.998632 14.783296 27.982422 14.791016 C 27.942482 14.810126 27.901601 14.829426 27.863281 14.847656 C 27.817901 14.868376 27.773456 14.888103 27.726562 14.908203 C 27.719362 14.911203 27.710345 14.914969 27.703125 14.917969 C 27.678835 14.928289 27.655559 14.939059 27.630859 14.949219 C 27.591159 14.965569 27.550427 14.982087 27.509766 14.998047 C 27.488866 15.006247 27.468406 15.013384 27.447266 15.021484 C 27.402946 15.038474 27.357872 15.055676 27.3125 15.072266 C 27.29369 15.079166 27.274819 15.08694 27.255859 15.09375 C 27.195759 15.11531 27.13406 15.13531 27.072266 15.15625 C 27.069166 15.15725 27.067553 15.159056 27.064453 15.160156 L 27.0625 15.160156 C 26.99493 15.182986 26.926869 15.206346 26.857422 15.228516 C 26.844172 15.232816 26.829716 15.236004 26.816406 15.240234 C 26.760306 15.257954 26.703696 15.275629 26.646484 15.292969 C 26.628304 15.298469 26.610077 15.303114 26.591797 15.308594 C 26.534497 15.325764 26.476285 15.342515 26.417969 15.359375 C 26.405039 15.363075 26.391876 15.367464 26.378906 15.371094 C 26.283686 15.398404 26.187469 15.426475 26.089844 15.453125 C 26.003654 15.476645 25.915974 15.500306 25.828125 15.523438 C 25.785515 15.534667 25.744137 15.545481 25.701172 15.556641 C 25.677312 15.562841 25.652886 15.568039 25.628906 15.574219 C 25.480878 15.612399 25.331127 15.651607 25.179688 15.689453 C 24.704234 15.808261 24.21458 15.925653 23.724609 16.052734 C 23.030855 16.232669 22.337958 16.430787 21.685547 16.669922 C 21.17385 16.857482 20.686972 17.070807 20.246094 17.322266 C 18.250697 18.460361 16.797961 20.009404 15.667969 21.8125 C 14.147785 24.23821 15.201954 27.357369 11.042969 29.677734 C 10.974069 29.759534 10.889352 29.835585 10.792969 29.90625 C 10.797569 29.90285 10.802021 29.899904 10.806641 29.896484 C 10.810141 29.898584 10.812746 29.901997 10.816406 29.904297 C 9.7958028 30.635721 7.7863333 30.653855 8.6367188 32.232422 C 9.0954527 32.941131 9.450112 33.514479 10.011719 34.064453 C 9.9998096 34.073253 9.9920796 34.080654 9.9785156 34.089844 C 11.462597 35.535349 13.611187 36.521013 15.935547 36.720703 C 17.086461 36.844834 18.708938 36.786426 19.392578 36.785156 C 25.201104 36.770686 30.735346 34.074734 34.060547 30.25 C 34.307685 29.950148 35.280655 28.808972 35.298828 28.605469 C 36.830211 26.151198 38.528069 23.639708 38.632812 20.828125 L 38.632812 20.826172 C 36.971955 21.319179 35.225508 21.870773 33.441406 22.037109 C 33.460136 22.036241 33.478404 22.035556 33.496094 22.035156 C 33.504094 22.035061 33.511801 22.035234 33.519531 22.035156 C 33.062568 22.041082 32.20505 22.216756 32 22 C 33.959195 19.810616 35.818893 17.422261 36.232422 14.673828 C 36.492065 12.765408 36.164679 10.702874 34.976562 9.0410156 z M 39.535156 13.277344 C 37.841385 13.572346 39.786245 15.343453 39.380859 16.310547 C 40.851017 15.901237 41.142469 13.68503 39.535156 13.277344 z M 40.238281 17.023438 C 40.156531 17.024438 40.065727 17.055013 40.009766 17.095703 C 38.952719 17.864266 39.680327 19.49756 38.974609 20.455078 C 39.473401 20.483588 39.9758 20.318374 40.416016 20.142578 C 41.847697 19.672136 41.321804 17.729458 40.367188 17.056641 C 40.333157 17.032651 40.287332 17.022786 40.238281 17.023438 z M 38.052734 17.097656 C 37.543536 17.093956 37.715913 18.432745 38.275391 18.455078 C 38.748687 18.473978 38.800326 17.678725 38.601562 17.328125 C 38.515203 17.175806 38.182531 17.098605 38.052734 17.097656 z M 19.035156 22.326172 C 20.220214 22.324772 20.308931 24.167523 20.439453 24.994141 C 20.636683 26.230851 20.866255 27.620932 19.039062 28.083984 C 18.914911 28.136944 18.435357 28.441803 18.576172 28.0625 C 19.095607 27.159377 18.193979 24.880038 16.804688 26.013672 C 16.666266 24.726639 17.127127 23.25445 18.457031 22.447266 C 18.67439 22.363486 18.865863 22.326379 19.035156 22.326172 z M 35.259766 28.574219 L 35.261719 28.574219 C 35.266219 28.573667 35.269866 28.57392 35.273438 28.574219 C 35.215637 28.575219 35.055996 28.677056 34.746094 28.931641 C 34.730921 28.939922 34.721622 28.941555 34.707031 28.949219 C 34.718243 28.943281 34.728728 28.93792 34.740234 28.931641 C 34.789314 28.891321 34.835174 28.855187 34.876953 28.822266 C 34.893163 28.809516 34.906735 28.798789 34.921875 28.787109 C 34.946795 28.767859 34.970056 28.748862 34.992188 28.732422 C 35.005758 28.722342 35.01872 28.714118 35.03125 28.705078 C 35.05163 28.690388 35.072084 28.676113 35.089844 28.664062 C 35.105024 28.653762 35.119462 28.643206 35.132812 28.634766 C 35.135613 28.633066 35.138025 28.632459 35.140625 28.630859 C 35.159515 28.619109 35.176296 28.609553 35.191406 28.601562 C 35.197606 28.598364 35.203454 28.594397 35.208984 28.591797 C 35.211284 28.590597 35.214597 28.588891 35.216797 28.587891 C 35.224297 28.584491 35.231961 28.582178 35.238281 28.580078 L 35.240234 28.578125 C 35.247434 28.575725 35.254086 28.575119 35.259766 28.574219 z M 10.761719 29.927734 C 10.753719 29.933434 10.744538 29.939692 10.736328 29.945312 C 10.744528 29.939612 10.753629 29.933454 10.761719 29.927734 z M 23.007812 30.494141 A 0.50005 0.50005 0 0 1 23.40625 31.291016 C 22.408808 32.678989 21.056011 34.090645 18.066406 34.496094 A 0.50051874 0.50051874 0 0 1 17.933594 33.503906 C 20.674161 33.132231 21.645244 32.028861 22.59375 30.708984 A 0.50005 0.50005 0 0 1 23.007812 30.494141 z " />
  </g>
</svg>
