<?xml version="1.0" encoding="UTF-8" standalone="no"?>
<svg
   height="48"
   width="48"
   version="1.1"
   id="svg6"
   sodipodi:docname="gisto.svg"
   inkscape:version="1.1.2 (0a00cf5339, 2022-02-04)"
   xmlns:inkscape="http://www.inkscape.org/namespaces/inkscape"
   xmlns:sodipodi="http://sodipodi.sourceforge.net/DTD/sodipodi-0.dtd"
   xmlns="http://www.w3.org/2000/svg"
   xmlns:svg="http://www.w3.org/2000/svg"
   xmlns:rdf="http://www.w3.org/1999/02/22-rdf-syntax-ns#"
   xmlns:cc="http://creativecommons.org/ns#"
   xmlns:dc="http://purl.org/dc/elements/1.1/">
  <metadata
     id="metadata12">
    <rdf:RDF>
      <cc:Work
         rdf:about="">
        <dc:format>image/svg+xml</dc:format>
        <dc:type
           rdf:resource="http://purl.org/dc/dcmitype/StillImage" />
      </cc:Work>
    </rdf:RDF>
  </metadata>
  <defs
     id="defs10" />
  <sodipodi:namedview
     pagecolor="#ffffff"
     bordercolor="#666666"
     borderopacity="1"
     objecttolerance="10"
     gridtolerance="10"
     guidetolerance="10"
     inkscape:pageopacity="0"
     inkscape:pageshadow="2"
     inkscape:window-width="1920"
     inkscape:window-height="995"
     id="namedview8"
     showgrid="false"
     inkscape:zoom="6.6880516"
     inkscape:cx="34.838248"
     inkscape:cy="47.098919"
     inkscape:window-x="0"
     inkscape:window-y="0"
     inkscape:window-maximized="1"
     inkscape:current-layer="svg6"
     inkscape:document-rotation="0"
     inkscape:pagecheckerboard="0" />
  <path
     id="circle2"
     style="opacity:0.99;fill:#88c0d0;fill-opacity:1"
     transform="matrix(1.75830584759 0 0 1.75830608345 -18.15909274367 -30.97874795549)"
     d="M 37.173613,31.534513 A 13.232998,13.232998 0 0 1 23.940615,44.767511 13.232998,13.232998 0 0 1 10.707617,31.534513 13.232998,13.232998 0 0 1 23.940615,18.301516 13.232998,13.232998 0 0 1 37.173613,31.534513 Z" />
  <path
     style="fill:#ffffff;stroke-width:0.715911"
     d="m 12.658589,17.362229 c -0.713,0 -1.257699,0.20536 -1.63457,0.613838 -0.376872,0.397729 -0.564899,0.96094 -0.564899,1.6919 v 2.806316 c 0,0.440727 -0.08173,0.777254 -0.244696,1.013742 -0.162971,0.236486 -0.5835197,0.409864 -0.8585342,0.517358 -0.2648285,0.09675 -0.5643529,0.150051 -0.9004818,0.1608 v 0.67676 c 0.3361289,0.0215 0.6356526,0.08083 0.9004818,0.17758 0.2750137,0.09674 0.6955632,0.270122 0.8585342,0.517357 0.162974,0.236488 0.244696,0.574415 0.244696,1.01514 v 2.806316 c 0,0.709462 0.188027,1.272674 0.564899,1.6919 0.376871,0.419228 0.92157,0.629219 1.63457,0.629219 h 0.808198 v -0.693539 h -0.457233 c -0.448172,0 -0.769875,-0.144627 -0.963404,-0.43486 -0.193533,-0.290235 -0.28944,-0.710217 -0.28944,-1.258438 v -2.788139 c 0,-0.526722 -0.138872,-0.963396 -0.413887,-1.307377 -0.275015,-0.354731 -0.701619,-0.584646 -1.282208,-0.69214 v -0.01678 c 0.560216,-0.09675 0.981627,-0.317398 1.266828,-0.66138 0.2852,-0.354731 0.429267,-0.794638 0.429267,-1.32136 v -2.757377 c 0,-0.55897 0.09591,-0.978952 0.28944,-1.258438 0.193529,-0.290234 0.515232,-0.43486 0.963404,-0.43486 h 0.457233 v -0.693538 z m 20.63978,0 v 0.693539 H 33.7556 c 0.448173,0 0.769876,0.144627 0.963405,0.434861 0.193528,0.279485 0.28944,0.699468 0.28944,1.258437 v 2.757378 c 0,0.526721 0.144067,0.966629 0.429268,1.321359 0.285199,0.343983 0.706612,0.564634 1.266827,0.661379 v 0.01678 c -0.580586,0.107494 -1.007193,0.337409 -1.282208,0.69214 -0.275015,0.343982 -0.413887,0.780656 -0.413887,1.307377 v 2.78814 c 0,0.54822 -0.09591,0.968202 -0.28944,1.258437 -0.193529,0.290233 -0.515232,0.43486 -0.963405,0.43486 h -0.457231 v 0.693538 h 0.808196 c 0.713001,0 1.2577,-0.209991 1.634571,-0.629219 0.376871,-0.419226 0.566297,-0.982438 0.566297,-1.6919 v -2.806316 c 0,-0.440725 0.08172,-0.778652 0.244696,-1.01514 0.162972,-0.247235 0.582124,-0.420612 0.857136,-0.517357 0.264831,-0.09674 0.564354,-0.15608 0.900483,-0.17758 v -0.67676 c -0.336129,-0.01075 -0.635654,-0.06405 -0.900483,-0.1608 -0.275012,-0.107494 -0.694164,-0.280872 -0.857136,-0.517358 -0.162972,-0.236488 -0.244696,-0.573015 -0.244696,-1.013742 v -2.806316 c 0,-0.73096 -0.189426,-1.294171 -0.566297,-1.6919 -0.376871,-0.408478 -0.92157,-0.613838 -1.634571,-0.613838 z m -9.608872,1.431823 c -1.376464,0 -2.317361,0.243713 -3.250965,0.732691 -0.9336,0.478574 -1.639599,1.149986 -2.11837,2.0135 -0.4668,0.853112 -0.70053,1.842108 -0.70053,2.965719 0,1.154821 0.221314,2.165124 0.664175,3.028639 0.454833,0.853111 1.137396,1.518147 2.047059,1.996722 0.921631,0.478574 2.076465,0.717309 3.464899,0.717309 0.778001,0 1.483999,-0.05755 2.11837,-0.171986 0.634371,-0.124845 1.606596,-0.306036 2.205063,-0.545323 v -3.192238 c 0.04055,-0.833461 0.505156,-1.130545 0.955014,-1.122806 v -0.655785 h -3.818659 c 0,0 0.03408,0.613665 0.03635,0.655785 0.691481,0.02917 0.91866,0.826572 0.91866,1.061283 v 2.893009 c -0.251354,0.06242 -0.799638,0.111409 -1.122806,0.142622 -0.323171,0.03121 -0.656846,0.04614 -1.003954,0.04614 -1.639789,0 -2.796018,-0.416345 -3.466297,-1.24865 -0.670275,-0.842707 -1.089247,-2.044155 -1.089247,-3.604725 0,-1.56057 0.407952,-2.762018 1.054291,-3.604725 0.646341,-0.853112 1.514139,-1.279412 3.034233,-1.279412 0.586493,0 1.052553,0.103736 1.399662,0.311813 0.347108,0.197671 0.593255,0.451339 0.736886,0.763452 0.155604,0.301711 0.23351,0.614319 0.23351,0.936837 0.0034,0 0.0049,-0.0027 0.0084,-0.0028 v 0.02657 h 0.955014 v -0.229318 -1.963163 -0.671167 h -0.955014 v 0.255882 c -0.604,-0.166504 -1.36638,-0.255882 -2.305738,-0.255882 z"
     id="path8" />
</svg>
