<?xml version="1.0" encoding="UTF-8" standalone="no"?>
<svg
   height="48"
   width="48"
   version="1.1"
   id="svg6"
   sodipodi:docname="gitg.svg"
   inkscape:version="1.1.2 (0a00cf5339, 2022-02-04)"
   xmlns:inkscape="http://www.inkscape.org/namespaces/inkscape"
   xmlns:sodipodi="http://sodipodi.sourceforge.net/DTD/sodipodi-0.dtd"
   xmlns="http://www.w3.org/2000/svg"
   xmlns:svg="http://www.w3.org/2000/svg">
  <defs
     id="defs10" />
  <sodipodi:namedview
     id="namedview8"
     pagecolor="#ffffff"
     bordercolor="#666666"
     borderopacity="1.0"
     inkscape:pageshadow="2"
     inkscape:pageopacity="0.0"
     inkscape:pagecheckerboard="0"
     showgrid="false"
     inkscape:zoom="8.1875"
     inkscape:cx="8.9160305"
     inkscape:cy="37.435114"
     inkscape:window-width="1920"
     inkscape:window-height="1031"
     inkscape:window-x="0"
     inkscape:window-y="0"
     inkscape:window-maximized="1"
     inkscape:current-layer="svg6" />
  <path
     id="path2"
     style="stroke-width:1.15035;fill:#bf616a;fill-opacity:1"
     d="M 23.804688 1.3046875 A 22.696228 22.696232 0 0 0 1.1074219 24 A 22.696228 22.696232 0 0 0 23.804688 46.695312 A 22.696228 22.696232 0 0 0 46.5 24 A 22.696228 22.696232 0 0 0 23.804688 1.3046875 z " />
  <path
     d="m22.839453 5.859375c-.255601.00303-.511541.1045611-.705078.3027344l-3.203125 3.2792968 4.283203 4.2832028a2.875 2.875 0 0 1 .744141-.09961 2.875 2.875 0 0 1 2.875 2.875 2.875 2.875 0 0 1 -.101562.742188l4.167968 4.167969a2.875 2.875 0 0 1 .433594-.03516 2.875 2.875 0 0 1 2.875 2.875 2.875 2.875 0 0 1 -2.875 2.875 2.875 2.875 0 0 1 -2.875-2.875 2.875 2.875 0 0 1 .357422-1.386719l-3.72461-3.724609a2.875 2.875 0 0 1 -.359374.128906l-1.601563 7.646484a2.875 2.875 0 0 1 1.203125 2.335938 2.875 2.875 0 0 1 -2.875 2.875 2.875 2.875 0 0 1 -2.875-2.875 2.875 2.875 0 0 1 2.083984-2.761719l1.603516-7.664062a2.875 2.875 0 0 1 -1.1875-2.324215 2.875 2.875 0 0 1 .234375-1.134766l-4.134766-4.134765-11.4667965 11.74414c-.3870729.396347-.3807216 1.02699.015625 1.414063l17.8867185 17.466797c.396347.387073 1.02699.378768 1.414063-.01758l16.417969-16.8125c.387072-.396347.380721-1.02699-.01563-1.414063l-17.886714-17.4667948c-.198174-.1935364-.453383-.2881819-.708985-.2851562z"
     fill="#ffffff"
     id="path4" />
</svg>
