<?xml version="1.0" encoding="UTF-8" standalone="no"?>
<svg
   height="48"
   width="48"
   version="1.1"
   id="svg6"
   sodipodi:docname="utilities-terminal_su.svg"
   inkscape:version="1.1.2 (0a00cf5339, 2022-02-04)"
   xmlns:inkscape="http://www.inkscape.org/namespaces/inkscape"
   xmlns:sodipodi="http://sodipodi.sourceforge.net/DTD/sodipodi-0.dtd"
   xmlns="http://www.w3.org/2000/svg"
   xmlns:svg="http://www.w3.org/2000/svg">
  <defs
     id="defs10" />
  <sodipodi:namedview
     id="namedview8"
     pagecolor="#ffffff"
     bordercolor="#666666"
     borderopacity="1.0"
     inkscape:pageshadow="2"
     inkscape:pageopacity="0.0"
     inkscape:pagecheckerboard="0"
     showgrid="false"
     inkscape:zoom="11.578874"
     inkscape:cx="-3.8000242"
     inkscape:cy="27.766086"
     inkscape:window-width="1920"
     inkscape:window-height="1031"
     inkscape:window-x="0"
     inkscape:window-y="0"
     inkscape:window-maximized="1"
     inkscape:current-layer="svg6" />
  <path
     id="circle2"
     transform="matrix(1.75830584759 0 0 1.75830608345 -18.15909274367 -30.97874795549)"
     style="opacity:0.99;fill:#bf616a;fill-opacity:1"
     d="M 37.173613,31.534513 A 13.232998,13.232998 0 0 1 23.940615,44.767511 13.232998,13.232998 0 0 1 10.707617,31.534513 13.232998,13.232998 0 0 1 23.940615,18.301516 13.232998,13.232998 0 0 1 37.173613,31.534513 Z" />
  <path
     d="m15.351391 18.125863a.90008998.90008998 0 0 0 -.533203 1.615235l5.964844 4.722656-5.964844 4.722656a.90008998.90008998 0 1 0 1.117188 1.410156l6.857422-5.427734a.90008998.90008998 0 0 0 0-1.41211l-6.857422-5.427734a.90008998.90008998 0 0 0 -.583985-.203125zm8.882813 10.884766a.9003905.9003905 0 1 0 0 1.800781h8.285156a.9003905.9003905 0 1 0 0-1.800781z"
     fill="#fcf2f2"
     fill-rule="evenodd"
     id="path4" />
</svg>
