<?xml version="1.0" encoding="UTF-8" standalone="no"?>
<svg
   height="48"
   width="48"
   version="1.1"
   id="svg6"
   sodipodi:docname="gnome-mines.svg"
   inkscape:version="1.1.2 (0a00cf5339, 2022-02-04)"
   xmlns:inkscape="http://www.inkscape.org/namespaces/inkscape"
   xmlns:sodipodi="http://sodipodi.sourceforge.net/DTD/sodipodi-0.dtd"
   xmlns="http://www.w3.org/2000/svg"
   xmlns:svg="http://www.w3.org/2000/svg">
  <defs
     id="defs10" />
  <sodipodi:namedview
     id="namedview8"
     pagecolor="#ffffff"
     bordercolor="#666666"
     borderopacity="1.0"
     inkscape:pageshadow="2"
     inkscape:pageopacity="0.0"
     inkscape:pagecheckerboard="0"
     showgrid="false"
     inkscape:zoom="13.229167"
     inkscape:cx="24"
     inkscape:cy="24"
     inkscape:window-width="1920"
     inkscape:window-height="1022"
     inkscape:window-x="0"
     inkscape:window-y="32"
     inkscape:window-maximized="1"
     inkscape:current-layer="svg6" />
  <path
     id="circle2"
     transform="matrix(1.72140702696 0 0 1.72140725788 -17.2289093957 -30.06939350282)"
     style="opacity:0.99;fill:#bf616a;fill-opacity:1"
     d="M 37.173613,31.534513 A 13.232998,13.232998 0 0 1 23.940615,44.767511 13.232998,13.232998 0 0 1 10.707617,31.534513 13.232998,13.232998 0 0 1 23.940615,18.301516 13.232998,13.232998 0 0 1 37.173613,31.534513 Z" />
  <path
     d="m22.482633 10.214347-.298828 4.166016a10 10 0 0 0 -3.876953 1.615234l-3.16211-2.742188-2.123047 2.123047 2.734376 3.154297a10 10 0 0 0 -1.601563 3.884766l-4.1718753.298828v3l4.1660163.298828a10 10 0 0 0 1.615234 3.876953l-2.742188 3.16211 2.123047 2.123047 3.154297-2.734376a10 10 0 0 0 3.884766 1.601563l.298828 4.171875h3l.298828-4.166016a10 10 0 0 0 3.876953-1.615234l3.16211 2.742188 2.123047-2.123047-2.734376-3.154297a10 10 0 0 0 1.601563-3.884766l4.171875-.298828v-3l-4.166016-.298828a10 10 0 0 0 -1.615234-3.876953l2.742188-3.16211-2.123047-2.123047-3.154297 2.734376a10 10 0 0 0 -3.884766-1.601563l-.298828-4.171875zm-.601562 5.474609a3.5 3.5 0 0 1 3.5 3.5 3.5 3.5 0 0 1 -3.5 3.5 3.5 3.5 0 0 1 -3.5-3.5 3.5 3.5 0 0 1 3.5-3.5z"
     fill="#ffffff"
     id="path4" />
</svg>
