<?xml version="1.0" encoding="UTF-8" standalone="no"?>
<svg
   height="48"
   width="48"
   version="1.1"
   id="svg6"
   sodipodi:docname="org.gnome.tweak.svg"
   inkscape:version="1.1.2 (0a00cf5339, 2022-02-04)"
   xmlns:inkscape="http://www.inkscape.org/namespaces/inkscape"
   xmlns:sodipodi="http://sodipodi.sourceforge.net/DTD/sodipodi-0.dtd"
   xmlns="http://www.w3.org/2000/svg"
   xmlns:svg="http://www.w3.org/2000/svg"
   xmlns:rdf="http://www.w3.org/1999/02/22-rdf-syntax-ns#"
   xmlns:cc="http://creativecommons.org/ns#"
   xmlns:dc="http://purl.org/dc/elements/1.1/">
  <metadata
     id="metadata12">
    <rdf:RDF>
      <cc:Work
         rdf:about="">
        <dc:format>image/svg+xml</dc:format>
        <dc:type
           rdf:resource="http://purl.org/dc/dcmitype/StillImage" />
      </cc:Work>
    </rdf:RDF>
  </metadata>
  <defs
     id="defs10" />
  <sodipodi:namedview
     pagecolor="#ffffff"
     bordercolor="#666666"
     borderopacity="1"
     objecttolerance="10"
     gridtolerance="10"
     guidetolerance="10"
     inkscape:pageopacity="0"
     inkscape:pageshadow="2"
     inkscape:window-width="1920"
     inkscape:window-height="1031"
     id="namedview8"
     showgrid="false"
     inkscape:zoom="4.7291666"
     inkscape:cx="29.814978"
     inkscape:cy="10.46696"
     inkscape:window-x="0"
     inkscape:window-y="0"
     inkscape:window-maximized="1"
     inkscape:current-layer="svg6"
     inkscape:document-rotation="0"
     inkscape:pagecheckerboard="0" />
  <path
     id="circle2"
     style="opacity:0.99;fill:#b48ead;fill-opacity:1"
     transform="matrix(1.75830584759 0 0 1.75830608345 -18.15909274367 -30.97874795549)"
     d="M 37.173613,31.534513 A 13.232998,13.232998 0 0 1 23.940615,44.767511 13.232998,13.232998 0 0 1 10.707617,31.534513 13.232998,13.232998 0 0 1 23.940615,18.301516 13.232998,13.232998 0 0 1 37.173613,31.534513 Z" />
  <path
     id="rect2"
     style="fill:#ffffff;fill-opacity:0.79640716;stroke-width:0.842732"
     transform="rotate(-90)"
     d="m -37.464246,9.6698523 h 25.758658 c 0.801702,0 1.447116,0.6454137 1.447116,1.4471157 v 25.758658 c 0,0.801702 -0.645414,1.447116 -1.447116,1.447116 h -25.758658 c -0.801702,0 -1.447116,-0.645414 -1.447116,-1.447116 V 11.116968 c 0,-0.801702 0.645414,-1.4471157 1.447116,-1.4471157 z" />
  <path
     id="rect4"
     style="fill:#ffffff;fill-opacity:0.54690617;stroke-width:0.842732"
     transform="rotate(-45)"
     d="m -13.295546,20.025663 h 25.758658 c 0.801702,0 1.447116,0.645414 1.447116,1.447116 v 25.758658 c 0,0.801702 -0.645414,1.447116 -1.447116,1.447116 h -25.758658 c -0.801702,0 -1.447115,-0.645414 -1.447115,-1.447116 V 21.472779 c 0,-0.801702 0.645413,-1.447116 1.447115,-1.447116 z" />
  <g
     fill="#ffffff"
     transform="matrix(0.190398,0,0,0.190398,14.042796,14.445481)"
     id="g16"
     style="fill:#99a7ba;fill-opacity:0.992157">
    <path
       id="path6"
       style="fill:#b48ead;fill-opacity:1;stroke-width:0.190398"
       d="M 30.429688 14.445312 C 25.745516 14.445312 24.866845 21.117188 27.501953 21.117188 C 30.136681 21.117188 35.114049 14.445312 30.429688 14.445312 z M 23.193359 15.263672 C 23.118978 15.263416 23.039438 15.266652 22.957031 15.277344 C 20.320971 15.619489 21.24873 20.205337 22.652344 20.291016 C 24.011542 20.374017 25.499178 15.271615 23.193359 15.263672 z M 18.707031 17.078125 C 18.545942 17.067606 18.366566 17.099692 18.167969 17.181641 C 16.04922 18.055948 17.846262 21.664442 19.033203 21.421875 C 20.109731 21.202394 20.264229 17.179805 18.707031 17.078125 z M 15.25 19.90625 C 15.065786 19.900051 14.8664 19.960958 14.654297 20.107422 C 12.958231 21.279322 15.22478 24.10898 16.222656 23.669922 C 17.095798 23.28558 16.539499 19.949646 15.25 19.90625 z M 24.935547 22.072266 C 21.299408 22.010751 16.501591 23.834789 15.683594 27.498047 C 14.797672 31.462324 19.331061 36.962891 24.060547 36.962891 C 26.38721 36.962891 29.070186 34.860602 29.572266 32.199219 C 29.955727 30.169766 25.0604 30.983295 25.236328 32.326172 C 25.447099 33.935797 24.056228 34.731028 22.693359 33.693359 C 18.35476 30.390144 29.876685 28.741329 29.117188 24.228516 C 28.880785 22.823807 27.11723 22.109175 24.935547 22.072266 z "
       transform="matrix(5.252156,0,0,5.252156,-73.754955,-75.86992)" />
  </g>
</svg>
