<?xml version="1.0" encoding="UTF-8" standalone="no"?>
<svg
   height="48"
   width="48"
   version="1.1"
   id="svg6"
   sodipodi:docname="gnome-arcade.svg"
   inkscape:version="1.1.2 (0a00cf5339, 2022-02-04)"
   xmlns:inkscape="http://www.inkscape.org/namespaces/inkscape"
   xmlns:sodipodi="http://sodipodi.sourceforge.net/DTD/sodipodi-0.dtd"
   xmlns="http://www.w3.org/2000/svg"
   xmlns:svg="http://www.w3.org/2000/svg">
  <defs
     id="defs10" />
  <sodipodi:namedview
     id="namedview8"
     pagecolor="#ffffff"
     bordercolor="#666666"
     borderopacity="1.0"
     inkscape:pageshadow="2"
     inkscape:pageopacity="0.0"
     inkscape:pagecheckerboard="0"
     showgrid="false"
     inkscape:zoom="13.229167"
     inkscape:cx="23.244094"
     inkscape:cy="23.999999"
     inkscape:window-width="1920"
     inkscape:window-height="1032"
     inkscape:window-x="0"
     inkscape:window-y="24"
     inkscape:window-maximized="1"
     inkscape:current-layer="svg6" />
  <path
     id="circle2"
     transform="matrix(1.72140702696 0 0 1.72140725788 -17.2289093957 -30.06939350282)"
     style="opacity:0.99;fill:#8fbcbb;fill-opacity:1"
     d="M 37.173613,31.534513 A 13.232998,13.232998 0 0 1 23.940615,44.767511 13.232998,13.232998 0 0 1 10.707617,31.534513 13.232998,13.232998 0 0 1 23.940615,18.301516 13.232998,13.232998 0 0 1 37.173613,31.534513 Z" />
  <circle
     style="fill:#ffffff;stroke-width:2.10411;stroke-linecap:round;stroke-linejoin:round;paint-order:fill markers stroke;fill-opacity:0.3294456"
     id="path953"
     cx="23.982634"
     cy="24.214348"
     r="19.863396" />
  <path
     fill="#ffffff"
     d="m 16.845524,14.061916 c -1.780294,0 -3.646139,0.985502 -4.689665,3.628739 -2.2023303,5.577994 -3.4017647,9.891293 -3.4017647,12.509148 0,2.012342 0.7113848,3.287185 2.2204727,4.033386 a 1.2806468,1.2806468 0 0 0 1.422055,-0.191452 l 3.946355,-3.482257 c 0.706325,-0.627271 1.324884,-1.274846 3.050782,-1.274846 h 9.17918 c 1.725899,0 2.340846,0.647575 3.049352,1.274846 l 3.945622,3.482982 c 0.391595,0.346629 0.954311,0.422774 1.42352,0.190729 1.509071,-0.745472 2.21974,-2.020318 2.21974,-4.034834 0,-2.616405 -1.198719,-6.930431 -3.400333,-12.507699 -1.043492,-2.643239 -2.911535,-3.62874 -4.691828,-3.62874 a 5.1486934,5.1486934 0 0 0 -2.348104,0.579409 c -3.013083,1.551859 -6.497504,1.585216 -9.57292,0 a 5.1806006,5.1806006 0 0 0 -2.352464,-0.579409 z m 7.137119,2.900669 a 2.175505,2.175505 0 1 1 0,4.35101 2.175505,2.175505 0 0 1 0,-4.35101 z m -7.107375,2.175506 a 3.0457063,3.0457063 0 1 1 0.0018,6.091412 3.0457063,3.0457063 0 0 1 -0.0018,-6.091412 z m 13.996457,0 a 1.0877521,1.0877521 0 0 1 1.087766,1.087752 1.0877521,1.0877521 0 0 1 -1.087766,1.087752 1.0877521,1.0877521 0 0 1 -1.087733,-1.087752 1.0877521,1.0877521 0 0 1 1.087733,-1.087752 z m -13.996457,1.015234 a 2.0304706,2.0304706 0 1 0 0.0014,4.060941 2.0304706,2.0304706 0 0 0 -0.0014,-4.060941 z m 11.820956,1.16027 a 1.0877521,1.0877521 0 0 1 1.087768,1.087753 1.0877521,1.0877521 0 0 1 -1.087768,1.087752 1.0877521,1.0877521 0 0 1 -1.087732,-1.087752 1.0877521,1.0877521 0 0 1 1.087732,-1.087753 z m 4.350999,0 a 1.0877521,1.0877521 0 0 1 1.087768,1.087753 1.0877521,1.0877521 0 0 1 -1.087768,1.087752 1.0877521,1.0877521 0 0 1 -1.087732,-1.087752 1.0877521,1.0877521 0 0 1 1.087732,-1.087753 z M 30.871725,23.4891 a 1.0877521,1.0877521 0 0 1 1.087766,1.087749 1.0877521,1.0877521 0 0 1 -1.087766,1.087754 1.0877521,1.0877521 0 0 1 -1.087733,-1.087754 1.0877521,1.0877521 0 0 1 1.087733,-1.087749 z"
     id="path18"
     style="stroke-width:0.725169" />
</svg>
