<?xml version="1.0" encoding="UTF-8" standalone="no"?>
<svg
   height="48"
   width="48"
   version="1.1"
   id="svg6"
   sodipodi:docname="godot.svg"
   inkscape:version="1.1.2 (0a00cf5339, 2022-02-04)"
   xmlns:inkscape="http://www.inkscape.org/namespaces/inkscape"
   xmlns:sodipodi="http://sodipodi.sourceforge.net/DTD/sodipodi-0.dtd"
   xmlns="http://www.w3.org/2000/svg"
   xmlns:svg="http://www.w3.org/2000/svg">
  <defs
     id="defs10" />
  <sodipodi:namedview
     id="namedview8"
     pagecolor="#ffffff"
     bordercolor="#666666"
     borderopacity="1.0"
     inkscape:pageshadow="2"
     inkscape:pageopacity="0.0"
     inkscape:pagecheckerboard="0"
     showgrid="false"
     inkscape:zoom="3.3072918"
     inkscape:cx="-69.392124"
     inkscape:cy="62.740156"
     inkscape:window-width="1920"
     inkscape:window-height="1022"
     inkscape:window-x="0"
     inkscape:window-y="32"
     inkscape:window-maximized="1"
     inkscape:current-layer="svg6" />
  <path
     id="path2"
     style="fill:#81a1c1;fill-opacity:1"
     d="M 23.804688 1.3046875 A 22.696228 22.696232 0 0 0 1.1074219 24 A 22.696228 22.696232 0 0 0 23.804688 46.695312 A 22.696228 22.696232 0 0 0 46.5 24 A 22.696228 22.696232 0 0 0 23.804688 1.3046875 z " />
  <path
     d="m20.487445 8.6619906-.136021.079346-4.009388 1.5788174.829082 4.145408-3.816691 1.745605-1.98688-1.745605-4.1454083 4.145408 2.4872449 2.56659v7.322476.524653.746497.446927h4.9744904a.82916455.82916455 0 0 1 .829081.829081v1.658164h4.145408v-1.658164a.82916455.82916455 0 0 1 .829082-.829081h3.316326 3.316327a.82916455.82916455 0 0 1 .829081.829081v1.658164h4.145409v-1.658164a.82916455.82916455 0 0 1 .829082-.829081h4.97449v-1.109221-.0842-.524653-7.322476l2.487244-2.566593-4.145408-4.145408-1.986881 1.745605-3.81669-1.745605.829081-4.145408-4.145408-1.6581633-1.418508 2.4872443h-1.899438-1.899439zm-4.97449 12.4362244c1.831938 0 3.316327 1.484388 3.316327 3.316327 0 1.831938-1.484389 3.316326-3.316327 3.316326-1.831939 0-3.316327-1.484388-3.316327-3.316326 0-1.831939 1.484388-3.316327 3.316327-3.316327zm16.581633 0c1.831939 0 3.316326 1.484388 3.316326 3.316327 0 1.831938-1.484387 3.316326-3.316326 3.316326s-3.316327-1.484388-3.316327-3.316326c0-1.831939 1.484388-3.316327 3.316327-3.316327zm-8.290817 1.658163c.918622 0 1.658164.554656 1.658164 1.243623v2.487245c0 .688966-.739542 1.243622-1.658164 1.243622s-1.658163-.554656-1.658163-1.243622v-2.487245c0-.688967.739541-1.243623 1.658163-1.243623zm-14.0943874 9.119898c.00203.01814.8452354 7.461735 14.0943874 7.461735 13.249153 0 14.092354-7.443598 14.094389-7.461735h-4.145409v1.658164a.82916455.82916455 0 0 1 -.829081.829081h-5.803572a.82916455.82916455 0 0 1 -.829081-.829081v-1.658164h-2.487246-2.487244v1.658164a.82916455.82916455 0 0 1 -.829082.829081h-5.803571a.82916455.82916455 0 0 1 -.829082-.829081v-1.658164z"
     fill="#ffffff"
     stroke-width=".829082"
     id="path4" />
</svg>
