<?xml version="1.0" encoding="UTF-8" standalone="no"?>
<svg
   height="48"
   width="48"
   version="1.1"
   id="svg8"
   sodipodi:docname="goland.svg"
   inkscape:version="1.1.2 (0a00cf5339, 2022-02-04)"
   xmlns:inkscape="http://www.inkscape.org/namespaces/inkscape"
   xmlns:sodipodi="http://sodipodi.sourceforge.net/DTD/sodipodi-0.dtd"
   xmlns="http://www.w3.org/2000/svg"
   xmlns:svg="http://www.w3.org/2000/svg"
   xmlns:rdf="http://www.w3.org/1999/02/22-rdf-syntax-ns#"
   xmlns:cc="http://creativecommons.org/ns#"
   xmlns:dc="http://purl.org/dc/elements/1.1/">
  <metadata
     id="metadata14">
    <rdf:RDF>
      <cc:Work
         rdf:about="">
        <dc:format>image/svg+xml</dc:format>
        <dc:type
           rdf:resource="http://purl.org/dc/dcmitype/StillImage" />
      </cc:Work>
    </rdf:RDF>
  </metadata>
  <defs
     id="defs12" />
  <sodipodi:namedview
     pagecolor="#ffffff"
     bordercolor="#666666"
     borderopacity="1"
     objecttolerance="10"
     gridtolerance="10"
     guidetolerance="10"
     inkscape:pageopacity="0"
     inkscape:pageshadow="2"
     inkscape:window-width="1920"
     inkscape:window-height="1028"
     id="namedview10"
     showgrid="false"
     inkscape:zoom="9.4583333"
     inkscape:cx="11.682819"
     inkscape:cy="30.713656"
     inkscape:window-x="0"
     inkscape:window-y="24"
     inkscape:window-maximized="1"
     inkscape:current-layer="svg8"
     inkscape:document-rotation="0"
     inkscape:pagecheckerboard="0" />
  <path
     id="path2"
     style="fill:#81a1c1;fill-opacity:1;stroke-width:1.15035"
     d="M 23.804688 1.3046875 A 22.696228 22.696232 0 0 0 1.1074219 24 A 22.696228 22.696232 0 0 0 23.804688 46.695312 A 22.696228 22.696232 0 0 0 46.5 24 A 22.696228 22.696232 0 0 0 23.804688 1.3046875 z " />
  <path
     id="path839"
     style="fill:#ffffff;fill-opacity:0.162031;stroke-width:1.15035"
     d="M 23.804688 1.3046875 C 11.269907 1.3046874 1.107423 11.465218 1.1074219 24 L 46.5 24 C 46.499999 11.465218 36.339468 1.3046875 23.804688 1.3046875 z " />
  <path
     id="path841"
     style="fill:#45c469;fill-opacity:0.257601;stroke-width:1.15035"
     d="M 23.804688 1.3046875 L 23.804688 46.695312 C 36.339469 46.695312 46.5 36.534782 46.5 24 C 46.499999 11.465218 36.339468 1.3046875 23.804688 1.3046875 z " />
  <path
     id="path10-3"
     style="fill:#ffffff;stroke-width:0.846003"
     d="M 11.013368,12.920294 V 37.454373 H 35.547447 V 12.920294 Z m 7.929623,3.435234 c 0.553448,0 1.082747,0.10605 1.587907,0.318903 0.508875,0.212853 0.988099,0.528691 1.437544,0.946797 v 3.52446 c -0.464302,-0.539736 -0.927384,-0.943453 -1.387973,-1.209519 -0.456873,-0.266067 -0.915819,-0.398216 -1.376406,-0.398216 -0.854317,0 -1.51356,0.489945 -1.977863,1.47059 -0.460587,0.973044 -0.690681,2.366893 -0.690681,4.183747 0,1.801651 0.223471,3.193189 0.669201,4.173834 0.44573,0.980645 1.079315,1.470591 1.900201,1.470591 0.222865,0 0.428544,-0.0261 0.617979,-0.07931 0.19315,-0.06081 0.366546,-0.151005 0.518837,-0.272637 v -3.308006 h -1.310312 v -2.941181 h 3.342702 v 8.187389 c -0.534877,0.532133 -1.089834,0.930234 -1.665568,1.196301 -0.575735,0.266066 -1.170006,0.399868 -1.782885,0.399868 -1.385478,0 -2.483388,-0.791577 -3.293131,-2.372773 -0.809744,-1.588798 -1.214477,-3.740196 -1.214477,-6.454076 0,-2.744286 0.413008,-4.901961 1.23761,-6.475556 0.8246,-1.573593 1.95355,-2.361206 3.387315,-2.361206 z m 9.020173,0 c 1.337191,0 2.385027,0.783648 3.142768,2.349641 0.757741,1.565991 1.136816,3.727631 1.136816,6.487121 0,2.751889 -0.379075,4.911217 -1.136816,6.477209 -0.757741,1.565992 -1.805577,2.34964 -3.142768,2.34964 -1.333476,0 -2.381312,-0.783648 -3.142768,-2.34964 -0.75774,-1.565992 -1.136816,-3.72532 -1.136816,-6.477209 0,-2.75949 0.379076,-4.92113 1.136816,-6.487121 0.761456,-1.565993 1.809292,-2.349641 3.142768,-2.349641 z m 0,3.182425 c -0.653737,0 -1.159862,0.493909 -1.520161,1.482157 -0.360299,0.988247 -0.54197,2.378132 -0.54197,4.17218 0,1.786448 0.181671,3.174021 0.54197,4.162268 0.360299,0.988248 0.866424,1.482157 1.520161,1.482157 0.657453,0 1.166472,-0.493909 1.526771,-1.482157 0.360298,-0.988247 0.540318,-2.37582 0.540318,-4.162268 0,-1.794048 -0.18002,-3.183933 -0.540318,-4.17218 -0.360299,-0.988248 -0.869318,-1.482157 -1.526771,-1.482157 z" />
</svg>
