<?xml version="1.0" encoding="UTF-8" standalone="no"?>
<svg
   version="1.1"
   preserveAspectRatio="xMidYMid meet"
   viewBox="0 0 480 480"
   width="48"
   height="48"
   id="svg81"
   sodipodi:docname="google-translate.svg"
   inkscape:version="1.1.2 (0a00cf5339, 2022-02-04)"
   xmlns:inkscape="http://www.inkscape.org/namespaces/inkscape"
   xmlns:sodipodi="http://sodipodi.sourceforge.net/DTD/sodipodi-0.dtd"
   xmlns="http://www.w3.org/2000/svg"
   xmlns:svg="http://www.w3.org/2000/svg"
   xmlns:rdf="http://www.w3.org/1999/02/22-rdf-syntax-ns#"
   xmlns:cc="http://creativecommons.org/ns#"
   xmlns:dc="http://purl.org/dc/elements/1.1/">
  <metadata
     id="metadata85">
    <rdf:RDF>
      <cc:Work
         rdf:about="">
        <dc:format>image/svg+xml</dc:format>
        <dc:type
           rdf:resource="http://purl.org/dc/dcmitype/StillImage" />
      </cc:Work>
    </rdf:RDF>
  </metadata>
  <sodipodi:namedview
     pagecolor="#ffffff"
     bordercolor="#666666"
     borderopacity="1"
     objecttolerance="10"
     gridtolerance="10"
     guidetolerance="10"
     inkscape:pageopacity="0"
     inkscape:pageshadow="2"
     inkscape:window-width="1920"
     inkscape:window-height="1020"
     id="namedview83"
     showgrid="false"
     inkscape:zoom="11.313709"
     inkscape:cx="19.047688"
     inkscape:cy="14.716659"
     inkscape:window-x="0"
     inkscape:window-y="24"
     inkscape:window-maximized="1"
     inkscape:current-layer="svg81"
     inkscape:document-rotation="0"
     inkscape:pagecheckerboard="0" />
  <defs
     id="defs11">
    <path
       d="M 470.44,566.69 C 427.92,590.72 223.32,590.81 180.55,566.94 119.76,533 72.58,478.37 48.99,412.86 38.23,382.99 67.95,160.48 124.9,108.12 177.35,59.88 247.94,30.34 325.58,30.34 c 161.93,0 290.83,128.52 290.83,287.06 0,106.71 -58.4,199.82 -145.97,249.29 z"
       id="c8j5TY2yQ"
       inkscape:connector-curvature="0" />
    <path
       d="m 303.58,126.72 c 10.64,0 19.27,-8.43 19.27,-18.83 0,-10.4 -8.63,-18.83 -19.27,-18.83 -3.86,0 -34.7,0 -38.56,0 -10.64,0 -19.27,8.43 -19.27,18.83 0,10.4 8.63,18.83 19.27,18.83 7.72,0 30.85,0 38.56,0 z"
       id="bFZqX3lTF"
       inkscape:connector-curvature="0" />
    <path
       d="m 204.95,501.27 c 10.64,0 19.28,-8.43 19.28,-18.83 0,-10.4 -8.64,-18.83 -19.28,-18.83 -3.86,0 -34.7,0 -38.55,0 -10.65,0 -19.28,8.43 -19.28,18.83 0,10.4 8.63,18.83 19.28,18.83 7.71,0 30.84,0 38.55,0 z"
       id="cKERSkAeb"
       inkscape:connector-curvature="0" />
    <path
       d="m 46.97,409.12 c 17.8,0 160.2,0 178,0 21.5,0 38.93,-16.85 38.93,-37.65 0,-20.8 -17.43,-37.65 -38.93,-37.65 -5.83,0 -52.55,0 -58.39,0 -10.75,0 -19.46,-8.43 -19.46,-18.83 0,-10.4 8.71,-18.83 19.46,-18.83 5.84,0 52.56,0 58.39,0 21.5,0 38.93,-16.86 38.93,-37.65 0,-20.8 -17.43,-37.66 -38.93,-37.66 -9.73,0 -87.58,0 -97.31,0 -10.76,0 -19.47,-8.43 -19.47,-18.82 0,-10.4 8.71,-18.83 19.47,-18.83 3.89,0 35.03,0 38.92,0 21.5,0 38.93,-16.86 38.93,-37.65 0,-20.8 -17.43,-37.66 -38.93,-37.66 -4.27,0 -38.48,0 -42.75,0 -57.5,51.58 -93.49,125.27 -93.49,207.1 0,33.01 5.87,64.69 16.63,94.13 z"
       id="a29DGWoP7"
       inkscape:connector-curvature="0" />
    <path
       d="m 469.67,567.61 c -4.35,-21.89 -24.03,-38.41 -47.66,-38.41 -1.94,0 -17.48,0 -19.43,0 0,-21 -17.39,-38.03 -38.85,-38.03 -7.77,0 -69.94,0 -77.71,0 -21.46,0 -38.85,17.03 -38.85,38.03 -1.95,0 -17.49,0 -19.43,0 -23.63,0 -43.31,16.52 -47.66,38.41 42.65,23.95 92.09,37.65 144.79,37.65 52.71,0 102.15,-13.7 144.8,-37.65 z"
       id="b6m8VAKUkP"
       inkscape:connector-curvature="0" />
    <path
       d="m 404.05,552.4 c 10.64,0 19.28,-8.43 19.28,-18.83 0,-10.4 -8.63,-18.83 -19.28,-18.83 -3.86,0 -34.7,0 -38.55,0 -10.65,0 -19.28,8.43 -19.28,18.83 0,10.4 8.63,18.83 19.28,18.83 7.71,0 30.84,0 38.55,0 z"
       id="a1FY8i5Bh"
       inkscape:connector-curvature="0" />
    <path
       d="m 423.38,151.06 c 3.51,0 31.59,0 35.1,0 9.69,0 17.55,8.29 17.55,18.52 0,10.23 -7.86,18.52 -17.55,18.52 -7.02,0 -63.17,0 -70.19,0 -19.39,0 -35.1,16.59 -35.1,37.04 0,20.46 15.71,37.05 35.1,37.05 15.79,0 142.14,0 157.93,0 9.69,0 17.55,8.29 17.55,18.52 0,10.23 -7.86,18.52 -17.55,18.52 -7.02,0 -63.17,0 -70.19,0 -19.39,0 -35.1,16.58 -35.1,37.04 0,20.45 15.71,37.04 35.1,37.04 7.02,0 63.17,0 70.19,0 9.69,0 17.55,8.29 17.55,18.52 0,10.23 -7.86,18.52 -17.55,18.52 -3.51,0 -31.59,0 -35.09,0 -19.39,0 -35.1,16.58 -35.1,37.04 0,20.46 15.71,37.04 35.1,37.04 5.26,0 47.39,0 52.65,0 33.05,-46.43 52.63,-104.14 52.63,-166.68 0,-102.92 -53.03,-192.77 -131.82,-240.77 -6.12,0 -55.09,0 -61.21,0 -19.38,0 -35.09,16.58 -35.09,37.04 0,20.46 15.71,37.04 35.09,37.04 z"
       id="c7GwQZUIj"
       inkscape:connector-curvature="0" />
    <path
       d="m 344.3,229.58 20,90.56 h -40 -40 l 20,-90.56 20,-90.56 z"
       id="czlIFIfmG"
       inkscape:connector-curvature="0" />
    <path
       d="m 344.3,410.71 20,-90.57 h -40 -40 l 20,90.57 20,90.56 z"
       id="g3s5fX1Q8e"
       inkscape:connector-curvature="0" />
    <linearGradient
       id="d"
       x1="4"
       x2="44.088001"
       y1="26"
       y2="26"
       gradientUnits="userSpaceOnUse"
       gradientTransform="matrix(4.6919609,0,0,4.6919609,86.327879,92.473889)">
      <stop
         offset="0"
         stop-color="#4285f4"
         id="stop7-3" />
      <stop
         offset="1"
         stop-color="#42b0f4"
         id="stop9-56" />
    </linearGradient>
    <linearGradient
       id="c-6"
       x1="31.059999"
       x2="44.088001"
       y1="54"
       y2="54"
       gradientUnits="userSpaceOnUse"
       gradientTransform="matrix(4.6919609,0,0,4.6919609,86.327879,92.473889)">
      <stop
         offset="0"
         stop-color="#1e57b9"
         id="stop12-7" />
      <stop
         offset="1"
         stop-color="#1f32a3"
         id="stop14-5" />
    </linearGradient>
    <linearGradient
       id="b-3"
       x1="19.912001"
       x2="60"
       y1="38"
       y2="38"
       gradientUnits="userSpaceOnUse"
       gradientTransform="matrix(4.6919609,0,0,4.6919609,86.327879,92.473889)">
      <stop
         offset="0"
         stop-color="#d1d1d1"
         id="stop17" />
      <stop
         offset="1"
         stop-color="#e6e6e6"
         id="stop19" />
    </linearGradient>
  </defs>
  <circle
     r="223.62251"
     cy="242.23532"
     cx="240.41631"
     id="path970"
     style="fill:#81a1c1;fill-opacity:1;stroke:none;stroke-width:2.76503;stroke-linecap:butt;stroke-linejoin:round;stroke-miterlimit:4;stroke-dasharray:none;stroke-opacity:1" />
  <circle
     r="201.86069"
     cy="242.23532"
     cx="240.41631"
     id="path968"
     style="fill:#ffffff;fill-opacity:0.38427463;stroke:none;stroke-width:3.65407;stroke-linecap:butt;stroke-linejoin:round;stroke-miterlimit:4;stroke-dasharray:none;stroke-opacity:1" />
  <path
     d="m 350.36788,373.99153 c 9.60932,0 17.4778,-7.60564 17.4778,-16.92388 V 184.47386 c 0,-9.32762 -7.86848,-16.92859 -17.4778,-16.92859 H 179.75436 l 76.49281,116.9518 -8.02302,89.49446 z"
     id="path30"
     style="fill:#dfe6ef;stroke-width:4.69195;fill-opacity:1" />
  <path
     d="m 293.18711,317.68801 h -61.127 l 16.16404,56.30352 z"
     id="path32"
     style="fill:#d5dfea;stroke-width:4.69195;fill-opacity:1" />
  <path
     d="m 283.39682,209.76929 v 14.08625 h -33.50035 v 14.08625 h 5.72208 v -0.0146 h 42.22928 v 0.0146 h 19.57504 c -3.61302,12.53163 -11.60471,24.62539 -19.38532,33.82156 -9.76525,-11.38578 -12.59695,-17.26112 -13.44371,-19.76453 h -14.349 c 1.05231,3.21871 4.99223,11.80908 19.55998,28.63231 -6.2911,6.33519 -11.04997,10.09393 -11.04997,10.09393 l 4.39388,13.56075 c 0,0 6.64903,-5.6345 14.96947,-14.33439 8.34947,8.91886 19.12216,19.64046 33.06238,32.42756 l 8.5905,-8.91885 a 537.78807,537.78807 0 0 1 -33.42753,-32.42757 c 10.77269,-12.56085 21.71313,-28.64691 24.02698,-43.11997 h 23.38454 v 0.0215 h 0.0307 v -14.08621 h -56.3159 v -14.07895 z"
     id="path34"
     style="stroke-width:7.29857;fill:#81a1c1;fill-opacity:1" />
  <path
     d="m 122.57805,111.24176 c -9.60917,0 -17.48226,7.61973 -17.48226,16.95206 v 172.57029 c 0,9.30418 7.87309,16.9239 17.47781,16.9239 H 293.19663 L 224.71272,111.24176 Z"
     id="path36"
     style="fill:#ffffff;stroke-width:4.69195;fill-opacity:1" />
  <path
     d="m 181.01236,172.24003 c -23.77873,0 -43.06895,18.9179 -43.06895,42.22222 0,23.30438 19.29022,42.22957 43.06174,42.22957 24.91707,0 41.39019,-17.13705 41.39019,-41.30993 0,-2.35754 -0.18742,-3.98503 -0.51156,-5.6126 h -37.0255 v 14.07165 l 8.30569,0.0146 h 14.2029 c 0,0 -5.21851,19.29744 -27.20157,18.75733 a 28.150596,28.150596 0 1 1 18.78635,-49.09748 l 10.92601,-10.2837 c -7.48827,-6.76577 -17.23908,-10.99164 -28.86591,-10.99164 z"
     id="path38"
     style="stroke-width:7.29857;fill:#81a1c1;fill-opacity:1" />
</svg>
