<?xml version="1.0" encoding="UTF-8" standalone="no"?>
<svg
   xmlns:dc="http://purl.org/dc/elements/1.1/"
   xmlns:cc="http://creativecommons.org/ns#"
   xmlns:rdf="http://www.w3.org/1999/02/22-rdf-syntax-ns#"
   xmlns:svg="http://www.w3.org/2000/svg"
   xmlns="http://www.w3.org/2000/svg"
   xmlns:xlink="http://www.w3.org/1999/xlink"
   xmlns:sodipodi="http://sodipodi.sourceforge.net/DTD/sodipodi-0.dtd"
   xmlns:inkscape="http://www.inkscape.org/namespaces/inkscape"
   height="48"
   width="48"
   version="1.1"
   id="svg6"
   sodipodi:docname="accessories-image-viewer.svg"
   inkscape:version="1.0.2 (e86c870879, 2021-01-15)">
  <metadata
     id="metadata12">
    <rdf:RDF>
      <cc:Work
         rdf:about="">
        <dc:format>image/svg+xml</dc:format>
        <dc:type
           rdf:resource="http://purl.org/dc/dcmitype/StillImage" />
        <dc:title></dc:title>
      </cc:Work>
    </rdf:RDF>
  </metadata>
  <defs
     id="defs10">
    <linearGradient
       inkscape:collect="always"
       id="linearGradient847">
      <stop
         style="stop-color:#f3ded4;stop-opacity:1"
         offset="0"
         id="stop843" />
      <stop
         style="stop-color:#bdcbc8;stop-opacity:1"
         offset="1"
         id="stop845" />
    </linearGradient>
    <radialGradient
       inkscape:collect="always"
       xlink:href="#linearGradient847"
       id="radialGradient849"
       cx="23.760611"
       cy="32.779697"
       fx="23.760611"
       fy="32.779697"
       r="20.310076"
       gradientTransform="matrix(11.371884,0,0,1.6262795,-246.4423,-20.529252)"
       gradientUnits="userSpaceOnUse" />
  </defs>
  <sodipodi:namedview
     pagecolor="#ffffff"
     bordercolor="#666666"
     borderopacity="1"
     objecttolerance="10"
     gridtolerance="10"
     guidetolerance="10"
     inkscape:pageopacity="0"
     inkscape:pageshadow="2"
     inkscape:window-width="1920"
     inkscape:window-height="1031"
     id="namedview8"
     showgrid="false"
     inkscape:zoom="6.6880516"
     inkscape:cx="13.37198"
     inkscape:cy="53.034467"
     inkscape:window-x="0"
     inkscape:window-y="24"
     inkscape:window-maximized="1"
     inkscape:current-layer="svg6"
     inkscape:document-rotation="0" />
  <circle
     cx="23.940615"
     cy="31.534513"
     fill="#5e81ac"
     opacity=".99"
     r="13.232998"
     transform="matrix(1.75830584759 0 0 1.75830608345 -18.15909274367 -30.97874795549)"
     id="circle2"
     style="fill:#b0bfce;fill-opacity:1" />
  <ellipse
     cx="23.935829"
     cy="24.468578"
     fill="#5e81ac"
     opacity="0.99"
     id="circle831"
     style="fill:#ffffff;fill-opacity:0.99442691;stroke-width:1.6391"
     rx="21.690235"
     ry="21.690239" />
  <ellipse
     cx="23.935829"
     cy="24.468578"
     fill="#5e81ac"
     opacity="0.99"
     id="ellipse833"
     style="fill:url(#radialGradient849);fill-opacity:1;stroke-width:1.5348"
     rx="20.310076"
     ry="20.31008" />
  <path
     id="ellipse835"
     style="fill:#d89f95;fill-opacity:1;stroke-width:1.5348"
     d="M 5.3828125 32.732422 A 20.310076 20.31008 0 0 0 23.935547 44.779297 A 20.310076 20.31008 0 0 0 42.488281 32.732422 L 5.3828125 32.732422 z " />
  <circle
     style="opacity:1;fill:#d89f95;fill-opacity:1;stroke:none;stroke-width:4.69726;stroke-linecap:round"
     id="path862"
     cx="23.935829"
     cy="20.585831"
     r="7.3090816" />
  <path
     id="path845"
     style="fill:#d8ba95;fill-opacity:1;stroke:none;stroke-width:1px;stroke-linecap:butt;stroke-linejoin:miter;stroke-opacity:1"
     d="m 17.779297,32.732422 2.050781,0.609375 -3.195312,0.726562 3.111328,0.212891 -2.84375,1.179688 2.966797,0.253906 -1.439453,0.375 1.955078,0.833984 -1.085938,0.521484 1.046875,0.31836 -0.466797,0.787109 0.921875,0.802735 -0.503906,0.792968 1.212891,0.712891 -0.748047,1.638672 0.521484,2.105469 c 0.118355,0.01602 0.23685,0.03099 0.355469,0.04492 1.720109,0.299615 3.496045,0.04526 5.259766,-0.08789 0.255993,-0.03744 0.511248,-0.07976 0.765624,-0.126953 l -0.917968,-1.685547 0.863281,-1.009766 -0.695313,-0.679687 1.175782,-0.347656 -1.435547,-0.746094 1.759765,-1.199219 L 26.75,38.220703 28.814453,37.646484 27.847656,36.916016 29.933594,36.5 27.177734,35.802734 31.257812,34.683594 27.78125,34.625 30.236328,33.458984 28.083984,32.732422 Z"
     sodipodi:nodetypes="ccccccccccccccccccccccccccccccccccc" />
</svg>
