<?xml version="1.0" encoding="UTF-8" standalone="no"?>
<svg
   height="48"
   width="48"
   version="1.1"
   id="svg34"
   sodipodi:docname="appimagekit-colorpicker.svg"
   inkscape:version="1.1.2 (0a00cf5339, 2022-02-04)"
   xmlns:inkscape="http://www.inkscape.org/namespaces/inkscape"
   xmlns:sodipodi="http://sodipodi.sourceforge.net/DTD/sodipodi-0.dtd"
   xmlns="http://www.w3.org/2000/svg"
   xmlns:svg="http://www.w3.org/2000/svg"
   xmlns:rdf="http://www.w3.org/1999/02/22-rdf-syntax-ns#"
   xmlns:cc="http://creativecommons.org/ns#"
   xmlns:dc="http://purl.org/dc/elements/1.1/">
  <metadata
     id="metadata40">
    <rdf:RDF>
      <cc:Work
         rdf:about="">
        <dc:format>image/svg+xml</dc:format>
        <dc:type
           rdf:resource="http://purl.org/dc/dcmitype/StillImage" />
      </cc:Work>
    </rdf:RDF>
  </metadata>
  <defs
     id="defs38" />
  <sodipodi:namedview
     pagecolor="#ffffff"
     bordercolor="#666666"
     borderopacity="1"
     objecttolerance="10"
     gridtolerance="10"
     guidetolerance="10"
     inkscape:pageopacity="0"
     inkscape:pageshadow="2"
     inkscape:window-width="1920"
     inkscape:window-height="1031"
     id="namedview36"
     showgrid="false"
     inkscape:zoom="9.4583335"
     inkscape:cx="30.766519"
     inkscape:cy="30.290748"
     inkscape:window-x="0"
     inkscape:window-y="0"
     inkscape:window-maximized="1"
     inkscape:current-layer="svg34"
     inkscape:pagecheckerboard="0" />
  <g
     fill="#c7b892"
     opacity=".99"
     transform="matrix(1.1503549 0 0 1.1503549 -4.486125 -7.525565)"
     id="g12">
    <path
       d="m44.322082 27.405077a19.729762 19.729765 0 0 1 -19.729762 19.729765 19.729762 19.729765 0 0 1 -19.7297621-19.729765 19.729762 19.729765 0 0 1 19.7297621-19.7297632 19.729762 19.729765 0 0 1 19.729762 19.7297632z"
       fill="#80c778"
       id="path2" />
    <path
       d="m44.322082 27.405077c0 10.896448-8.833315 19.729765-19.729762 19.729765s-19.7297621-8.833317-19.7297621-19.729765h19.7297621z"
       fill="#80c7f3"
       id="path4" />
    <path
       d="m24.59232 7.6753138c10.896446 0 19.729761 8.8333152 19.729762 19.7297632 0 10.896448-8.833315 19.729765-19.729762 19.729765"
       fill="#ffc778"
       id="path6" />
    <path
       d="m10.641272 13.454028c3.570385-3.5703853 8.502825-5.7787142 13.951048-5.7787142 10.896446.0000001 19.729761 8.8333152 19.729762 19.7297632h-19.729762z"
       fill="#4dc778"
       id="path8" />
    <path
       d="m24.59232 27.529263v-19.8539492c10.896446 0 19.729761 8.8333152 19.729762 19.7297632"
       fill="#ffc778"
       id="path10" />
  </g>
  <path
     id="path14"
     style="fill:#a3be8c;fill-opacity:1"
     d="M 23.804688 1.3046875 A 22.696228 22.696232 0 0 0 1.1074219 24 A 22.696228 22.696232 0 0 0 5.2597656 37.003906 L 42.347656 37.003906 A 22.696228 22.696232 0 0 0 46.5 24 A 22.696228 22.696232 0 0 0 23.804688 1.3046875 z " />
  <path
     id="path16"
     style="fill:#88c0d0;fill-opacity:1"
     d="M 1.1074219 24 C 1.1074219 36.534782 11.269906 46.695312 23.804688 46.695312 C 36.339469 46.695313 46.5 36.534782 46.5 24 L 23.804688 24 L 1.1074219 24 z " />
  <path
     id="path18"
     style="fill:#bf616a;fill-opacity:1"
     d="M 23.804688 1.3046875 L 23.804688 46.695312 C 36.339469 46.695313 46.5 36.534782 46.5 24 C 46.499999 11.465217 36.339468 1.3046875 23.804688 1.3046875 z " />
  <path
     id="path20"
     style="fill:#8db174;fill-opacity:1"
     d="M 23.804688 1.3046875 C 17.537298 1.3046875 11.863069 3.8439617 7.7558594 7.9511719 L 23.804688 24 L 46.5 24 C 46.499999 11.465217 36.339467 1.3046877 23.804688 1.3046875 z " />
  <path
     id="path22"
     style="fill:#ebcb8b;fill-opacity:1"
     d="M 23.804688 1.3046875 L 23.804688 24.142578 L 46.5 24 C 46.499999 11.465217 36.339468 1.3046875 23.804688 1.3046875 z " />
  <path
     id="path24"
     style="fill:#d08770;fill-opacity:1"
     d="M 23.902344 1.3066406 C 23.869612 1.3067793 23.837385 1.3102698 23.804688 1.3105469 L 23.804688 24 L 24 24 L 39.947266 8.0527344 C 35.853859 3.9090385 30.180892 1.3332349 23.902344 1.3066406 z " />
  <path
     id="path26"
     style="fill:#b48ead;fill-opacity:1"
     d="M 23.804688 24 L 39.851562 40.048828 C 43.958771 35.941618 46.5 30.267391 46.5 24 L 23.804688 24 z " />
  <path
     id="path28"
     style="fill:#81a1c1;fill-opacity:1"
     d="M 23.804688 24 L 7.7558594 40.048828 C 11.863068 44.156039 17.537297 46.695312 23.804688 46.695312 L 23.804688 24 z " />
  <circle
     cx="23.803772"
     cy="24.000002"
     fill="#ffffff"
     r="13.5"
     id="circle30" />
  <path
     id="path32"
     style="fill:#88c0d0;fill-opacity:1"
     d="M 28.978516 14.232422 C 28.577108 14.250426 28.182455 14.422766 27.888672 14.744141 L 25.060547 17.837891 C 24.935742 17.974419 24.845443 18.128353 24.777344 18.289062 L 24.707031 18.224609 C 24.278531 17.832898 23.618274 17.862522 23.226562 18.291016 L 22.519531 19.064453 C 22.127819 19.492953 22.157443 20.153211 22.585938 20.544922 L 23.359375 21.251953 L 16.429688 28.830078 C 16.037976 29.258578 16.0676 29.918837 16.496094 30.310547 L 14.941406 32.013672 C 14.549695 32.442173 14.57932 33.10243 15.007812 33.494141 C 15.436312 33.885852 16.096571 33.856227 16.488281 33.427734 L 18.042969 31.724609 C 18.471469 32.116319 19.131727 32.088648 19.523438 31.660156 L 26.453125 24.080078 L 27.226562 24.787109 C 27.655062 25.17882 28.31532 25.149197 28.707031 24.720703 L 29.414062 23.947266 C 29.805772 23.518765 29.776149 22.858508 29.347656 22.466797 L 29.277344 22.402344 C 29.431312 22.320134 29.576367 22.216605 29.701172 22.080078 L 32.529297 18.986328 C 33.116863 18.343577 33.072437 17.353192 32.429688 16.765625 L 30.109375 14.644531 C 29.787999 14.350748 29.379923 14.214417 28.978516 14.232422 z " />
</svg>
