<?xml version="1.0" encoding="UTF-8" standalone="no"?>
<svg
   height="48"
   width="48"
   version="1.1"
   id="svg14"
   sodipodi:docname="hb-icon.svg"
   inkscape:version="1.1.2 (0a00cf5339, 2022-02-04)"
   xmlns:inkscape="http://www.inkscape.org/namespaces/inkscape"
   xmlns:sodipodi="http://sodipodi.sourceforge.net/DTD/sodipodi-0.dtd"
   xmlns="http://www.w3.org/2000/svg"
   xmlns:svg="http://www.w3.org/2000/svg">
  <defs
     id="defs18" />
  <sodipodi:namedview
     id="namedview16"
     pagecolor="#ffffff"
     bordercolor="#666666"
     borderopacity="1.0"
     inkscape:pageshadow="2"
     inkscape:pageopacity="0.0"
     inkscape:pagecheckerboard="0"
     showgrid="false"
     inkscape:zoom="13.229167"
     inkscape:cx="23.319684"
     inkscape:cy="23.999999"
     inkscape:window-width="1920"
     inkscape:window-height="1022"
     inkscape:window-x="0"
     inkscape:window-y="32"
     inkscape:window-maximized="1"
     inkscape:current-layer="svg14" />
  <path
     id="path2"
     style="fill:#ebcb8b;fill-opacity:1;stroke-width:1.15035"
     d="M 23.804688 1.3046875 A 22.696228 22.696232 0 0 0 1.1074219 24 A 22.696228 22.696232 0 0 0 23.804688 46.695312 A 22.696228 22.696232 0 0 0 46.5 24 A 22.696228 22.696232 0 0 0 23.804688 1.3046875 z " />
  <rect
     fill="#ffffff"
     fill-opacity=".908451"
     height="12"
     ry="1.5"
     width="3"
     x="22.5"
     y="16.5"
     id="rect4" />
  <circle
     cx="24"
     cy="31.368526"
     fill="#ffffff"
     fill-opacity=".908451"
     r="1.5"
     id="circle6" />
  <g
     fill="none"
     stroke="#ffffff"
     stroke-linejoin="bevel"
     stroke-opacity=".996479"
     stroke-width="2.4"
     id="g12">
    <circle
       cx="24.090607"
       cy="24.727156"
       r="10.817291"
       id="circle8" />
    <path
       d="m13.415028 35.402734c-2.713838-2.713838-4.3923817-6.462971-4.392382-10.604148s1.678544-7.89031 4.392382-10.604148m21.208297-.000001c2.713838 2.713839 4.392382 6.462971 4.392382 10.604149 0 4.141177-1.678544 7.89031-4.392382 10.604148"
       stroke-linecap="round"
       id="path10" />
  </g>
</svg>
