<?xml version="1.0" encoding="UTF-8" standalone="no"?>
<!-- Created with Inkscape (http://www.inkscape.org/) -->

<svg
   width="48"
   height="48"
   viewBox="0 0 12.7 12.7"
   version="1.1"
   id="svg3772"
   inkscape:version="1.1.2 (0a00cf5339, 2022-02-04)"
   sodipodi:docname="homebank.svg"
   xmlns:inkscape="http://www.inkscape.org/namespaces/inkscape"
   xmlns:sodipodi="http://sodipodi.sourceforge.net/DTD/sodipodi-0.dtd"
   xmlns="http://www.w3.org/2000/svg"
   xmlns:svg="http://www.w3.org/2000/svg">
  <sodipodi:namedview
     id="namedview3774"
     pagecolor="#ffffff"
     bordercolor="#666666"
     borderopacity="1.0"
     inkscape:pageshadow="2"
     inkscape:pageopacity="0.0"
     inkscape:pagecheckerboard="0"
     inkscape:document-units="mm"
     showgrid="false"
     units="px"
     inkscape:zoom="13.24361"
     inkscape:cx="22.123877"
     inkscape:cy="36.20614"
     inkscape:window-width="1920"
     inkscape:window-height="1028"
     inkscape:window-x="0"
     inkscape:window-y="24"
     inkscape:window-maximized="1"
     inkscape:current-layer="layer1" />
  <defs
     id="defs3769" />
  <g
     inkscape:label="Capa 1"
     inkscape:groupmode="layer"
     id="layer1">
    <path
       id="path4"
       style="fill:#ebcb8b;fill-opacity:1;stroke-width:1.15036"
       d="M 23.878906 1.3828125 A 22.696228 22.696232 0 0 0 1.1835938 24.078125 A 22.696228 22.696232 0 0 0 23.878906 46.775391 A 22.696228 22.696232 0 0 0 46.576172 24.078125 A 22.696228 22.696232 0 0 0 23.878906 1.3828125 z "
       transform="scale(0.26458333)" />
    <path
       id="path11-8"
       style="fill:#ffffff;stroke-width:0.903492"
       d="M 26.542969 10.570312 A 3.4881979 3.4881979 0 0 0 23.054688 14.058594 A 3.4881979 3.4881979 0 0 0 26.542969 17.546875 A 3.4881979 3.4881979 0 0 0 30.03125 14.058594 A 3.4881979 3.4881979 0 0 0 26.542969 10.570312 z M 16.890625 14.748047 C 16.443298 14.749347 16.032793 14.774244 15.683594 14.808594 C 15.075543 14.867324 14.717844 15.515128 14.984375 16.064453 L 16.167969 18.488281 C 14.852482 19.633007 13.858237 21.035516 13.300781 22.597656 L 11.857422 22.591797 C 11.372247 22.589097 10.976563 22.983574 10.976562 23.46875 L 10.976562 26.705078 C 10.976562 27.032143 11.158147 27.328682 11.447266 27.480469 L 13.322266 28.457031 C 14.105593 30.615477 15.725761 32.468408 17.865234 33.744141 L 17.865234 36.607422 C 17.865234 37.171202 18.324892 37.630859 18.888672 37.630859 L 21.513672 37.630859 C 21.920245 37.630859 22.28764 37.388916 22.451172 37.017578 L 23.109375 35.507812 C 24.606623 35.703662 26.165309 35.575972 27.542969 35.357422 L 27.542969 36.607422 C 27.542969 37.171202 28.000674 37.630859 28.564453 37.630859 L 31.177734 37.630859 C 31.554493 37.630859 31.90314 37.422327 32.082031 37.089844 C 33.473412 34.478744 34.982891 31.858972 36.099609 29.125 C 36.66339 27.740847 36.870917 26.270684 36.748047 24.835938 C 36.549276 22.522994 35.496188 20.301751 33.734375 18.683594 L 33.734375 18.681641 C 32.705297 17.735654 31.512672 16.996564 30.232422 16.458984 L 28.701172 17.890625 C 29.072507 18.013501 29.427107 18.153632 29.769531 18.314453 C 30.117376 18.477986 30.251942 18.90294 30.058594 19.236328 C 29.888738 19.53177 29.520079 19.648319 29.212891 19.501953 C 26.880975 18.400613 24.275733 18.608683 23.132812 18.78125 C 22.796714 18.83094 22.475088 18.616883 22.396484 18.287109 L 22.396484 18.285156 C 22.306134 17.911112 22.558033 17.541149 22.9375 17.482422 C 23.145302 17.449922 23.395699 17.416825 23.675781 17.390625 L 22.417969 15.595703 C 22.070124 15.654433 21.726724 15.727572 21.390625 15.8125 C 19.922221 14.95802 18.232609 14.744278 16.890625 14.748047 z M 18.033203 21.492188 C 18.760516 21.492188 19.347656 22.079328 19.347656 22.806641 C 19.347656 23.533954 18.76142 24.121094 18.033203 24.121094 C 17.30589 24.121094 16.716797 23.533954 16.716797 22.806641 C 16.716797 22.079328 17.304987 21.492187 18.033203 21.492188 z "
       transform="scale(0.26458333)" />
  </g>
</svg>
