<?xml version="1.0" encoding="UTF-8" standalone="no"?>
<svg
   height="48"
   width="48"
   version="1.1"
   id="svg10"
   sodipodi:docname="jabref.svg"
   inkscape:version="1.1.2 (0a00cf5339, 2022-02-04)"
   xmlns:inkscape="http://www.inkscape.org/namespaces/inkscape"
   xmlns:sodipodi="http://sodipodi.sourceforge.net/DTD/sodipodi-0.dtd"
   xmlns="http://www.w3.org/2000/svg"
   xmlns:svg="http://www.w3.org/2000/svg">
  <defs
     id="defs14" />
  <sodipodi:namedview
     id="namedview12"
     pagecolor="#ffffff"
     bordercolor="#666666"
     borderopacity="1.0"
     inkscape:pageshadow="2"
     inkscape:pageopacity="0.0"
     inkscape:pagecheckerboard="0"
     showgrid="false"
     inkscape:zoom="4.125"
     inkscape:cx="50.30303"
     inkscape:cy="74.545455"
     inkscape:window-width="1920"
     inkscape:window-height="1032"
     inkscape:window-x="0"
     inkscape:window-y="24"
     inkscape:window-maximized="1"
     inkscape:current-layer="svg10" />
  <g
     fill="#626c97"
     opacity="0.99"
     transform="matrix(1.1503549,0,0,1.1503549,-4.486125,-7.525565)"
     id="g6">
    <path
       d="M 44.322082,27.405077 A 19.729762,19.729765 0 0 1 24.59232,47.134842 19.729762,19.729765 0 0 1 4.8625579,27.405077 19.729762,19.729765 0 0 1 24.59232,7.6753138 19.729762,19.729765 0 0 1 44.322082,27.405077 Z"
       id="path2" />
    <path
       id="path4"
       style="fill:#8690ba;fill-opacity:1;stroke-width:1.15035"
       d="M 23.804688,1.3046875 A 22.696228,22.696232 0 0 0 1.1074219,24 22.696228,22.696232 0 0 0 23.804688,46.695312 22.696228,22.696232 0 0 0 46.5,24 22.696228,22.696232 0 0 0 23.804688,1.3046875 Z"
       transform="matrix(0.86929694,0,0,0.86929694,3.8997748,6.5419507)" />
  </g>
  <path
     fill="#ffffff"
     d="m 28.246815,19.320609 c 3.248383,-2.208218 7.33998,-2.780617 7.355711,-2.686925 l 0.118997,4.67562 c -4.757685,0.273547 -5.042176,3.233338 -4.754951,5.126293 l 4.910873,1.576319 0.235932,8.729605 -8.621556,-3.34139 a 76.75419,76.75419 0 0 0 -3.021336,-1.171469 v -6.016691 c 0,-2.687612 1.369109,-5.254177 3.776332,-6.89068 m -3.653235,-0.503328 c 0.42742,-5.280844 7.67371,-7.639513 7.686703,-7.558134 l 0.01499,1.325342 c -2.277288,0.946476 -5.985915,3.100666 -7.702431,6.232792 m -0.123115,3.245648 c 0.495121,-6.684832 9.8915,-9.102313 9.913385,-8.972378 l 0.05198,2.506386 c -2.233511,0.454089 -7.74277,2.523482 -9.964666,6.465992 m -5.109819,-2.74232 C 16.11222,17.113076 12.020624,16.540677 12.004895,16.634366 l -0.118996,4.675623 c 4.757684,0.273547 5.042174,3.233339 4.754949,5.12629 l -4.910872,1.576322 -0.235932,8.729605 8.621553,-3.341391 a 76.75419,76.75419 0 0 1 3.021339,-1.171468 v -6.016692 c 0,-2.687611 -1.369109,-5.254177 -3.776333,-6.890679 m 3.653231,-0.503327 c -0.42742,-5.280848 -7.673025,-7.639517 -7.686703,-7.558135 l -0.01499,1.325339 c 2.27729,0.946476 5.985918,3.100669 7.702432,6.232796 m 0.123115,3.245647 C 22.64256,15.379465 13.246181,12.961983 13.224297,13.091918 l -0.05198,2.506385 c 2.233519,0.454089 7.742781,2.52348 9.964676,6.465993"
     id="path20"
     style="stroke-width:0.68387" />
</svg>
