<?xml version="1.0" encoding="UTF-8" standalone="no"?>
<svg
   height="48"
   width="48"
   version="1.1"
   id="svg6"
   sodipodi:docname="jubler.svg"
   inkscape:version="1.1.2 (0a00cf5339, 2022-02-04)"
   xmlns:inkscape="http://www.inkscape.org/namespaces/inkscape"
   xmlns:sodipodi="http://sodipodi.sourceforge.net/DTD/sodipodi-0.dtd"
   xmlns="http://www.w3.org/2000/svg"
   xmlns:svg="http://www.w3.org/2000/svg"
   xmlns:rdf="http://www.w3.org/1999/02/22-rdf-syntax-ns#"
   xmlns:cc="http://creativecommons.org/ns#"
   xmlns:dc="http://purl.org/dc/elements/1.1/">
  <metadata
     id="metadata12">
    <rdf:RDF>
      <cc:Work
         rdf:about="">
        <dc:format>image/svg+xml</dc:format>
        <dc:type
           rdf:resource="http://purl.org/dc/dcmitype/StillImage" />
        <dc:title />
      </cc:Work>
    </rdf:RDF>
  </metadata>
  <defs
     id="defs10" />
  <sodipodi:namedview
     pagecolor="#ffffff"
     bordercolor="#666666"
     borderopacity="1"
     objecttolerance="10"
     gridtolerance="10"
     guidetolerance="10"
     inkscape:pageopacity="0"
     inkscape:pageshadow="2"
     inkscape:window-width="1920"
     inkscape:window-height="1029"
     id="namedview8"
     showgrid="false"
     inkscape:zoom="3.9999998"
     inkscape:cx="-46.875002"
     inkscape:cy="32.625002"
     inkscape:window-x="0"
     inkscape:window-y="0"
     inkscape:window-maximized="1"
     inkscape:current-layer="svg6"
     inkscape:document-rotation="0"
     inkscape:pagecheckerboard="0" />
  <path
     id="circle2"
     style="opacity:0.99;fill:#a9b7c0"
     transform="matrix(1.75830584759 0 0 1.75830608345 -18.15909274367 -30.97874795549)"
     d="M 37.173613,31.534513 A 13.232998,13.232998 0 0 1 23.940615,44.767511 13.232998,13.232998 0 0 1 10.707617,31.534513 13.232998,13.232998 0 0 1 23.940615,18.301516 13.232998,13.232998 0 0 1 37.173613,31.534513 Z" />
  <path
     id="circle856"
     style="opacity:0.99;fill:#ffffff;stroke-width:1.54048"
     d="M 44.320925,24.468578 A 20.385096,20.385099 0 0 1 23.935829,44.853678 20.385096,20.385099 0 0 1 3.5507336,24.468578 20.385096,20.385099 0 0 1 23.935829,4.0834789 20.385096,20.385099 0 0 1 44.320925,24.468578 Z" />
  <g
     id="g870"
     transform="matrix(0.44148583,0,0,0.44148583,49.77569,17.081588)">
    <path
       style="fill:#e7d49e;fill-opacity:1;stroke:none;stroke-width:1px;stroke-linecap:butt;stroke-linejoin:miter;stroke-opacity:1"
       d="M -64.350794,-18.806346 -87.38864,-5.6506 -92.877873,14.835499 h 28.527079 z"
       id="path855"
       sodipodi:nodetypes="ccccc" />
    <path
       style="fill:#a854a0;fill-opacity:1;stroke:none;stroke-width:1px;stroke-linecap:butt;stroke-linejoin:miter;stroke-opacity:1"
       d="m -64.350794,14.835499 -18.208213,11.79323 -8.510366,18.000252 h 26.718579 z"
       id="path857"
       sodipodi:nodetypes="ccccc" />
    <path
       style="fill:#7fa5d0;fill-opacity:1;stroke:none;stroke-width:1px;stroke-linecap:butt;stroke-linejoin:miter;stroke-opacity:1"
       d="M -64.350794,-18.806346 -34.94661,-8.5225384 -24.86299,44.628981 H -64.350794 Z"
       id="path859"
       sodipodi:nodetypes="ccccc" />
    <circle
       style="fill:#ffffff;fill-opacity:1;stroke:none;stroke-width:3.77953;stroke-linecap:round;stroke-linejoin:round"
       id="path861"
       cx="-47.222912"
       cy="0.80227643"
       r="6.6691666" />
    <circle
       style="fill:#7fa5d0;fill-opacity:1;stroke:none;stroke-width:3.77953;stroke-linecap:round;stroke-linejoin:round"
       id="path863"
       cx="-47.222912"
       cy="0.80227643"
       r="2.8139727" />
  </g>
</svg>
