<?xml version="1.0" encoding="UTF-8" standalone="no"?>
<svg
   height="48"
   width="48"
   version="1.1"
   id="svg6"
   sodipodi:docname="kakaotalk.svg"
   inkscape:version="1.1.2 (0a00cf5339, 2022-02-04)"
   xmlns:inkscape="http://www.inkscape.org/namespaces/inkscape"
   xmlns:sodipodi="http://sodipodi.sourceforge.net/DTD/sodipodi-0.dtd"
   xmlns="http://www.w3.org/2000/svg"
   xmlns:svg="http://www.w3.org/2000/svg"
   xmlns:rdf="http://www.w3.org/1999/02/22-rdf-syntax-ns#"
   xmlns:cc="http://creativecommons.org/ns#"
   xmlns:dc="http://purl.org/dc/elements/1.1/">
  <metadata
     id="metadata12">
    <rdf:RDF>
      <cc:Work
         rdf:about="">
        <dc:format>image/svg+xml</dc:format>
        <dc:type
           rdf:resource="http://purl.org/dc/dcmitype/StillImage" />
      </cc:Work>
    </rdf:RDF>
  </metadata>
  <defs
     id="defs10" />
  <sodipodi:namedview
     pagecolor="#ffffff"
     bordercolor="#666666"
     borderopacity="1"
     objecttolerance="10"
     gridtolerance="10"
     guidetolerance="10"
     inkscape:pageopacity="0"
     inkscape:pageshadow="2"
     inkscape:window-width="1920"
     inkscape:window-height="1032"
     id="namedview8"
     showgrid="true"
     inkscape:zoom="1.7383041"
     inkscape:cx="-180.92346"
     inkscape:cy="11.793103"
     inkscape:window-x="0"
     inkscape:window-y="24"
     inkscape:window-maximized="1"
     inkscape:current-layer="svg6"
     inkscape:pagecheckerboard="0">
    <inkscape:grid
       type="xygrid"
       id="grid822" />
  </sodipodi:namedview>
  <path
     d="m44.322082 27.405077a19.729762 19.729765 0 0 1 -19.729762 19.729765 19.729762 19.729765 0 0 1 -19.7297621-19.729765 19.729762 19.729765 0 0 1 19.7297621-19.7297632 19.729762 19.729765 0 0 1 19.729762 19.7297632z"
     opacity=".99"
     transform="matrix(1.1503549 0 0 1.1503549 -4.486125 -7.525565)"
     id="path2"
     style="fill:#ebcb8b;fill-opacity:1" />
  <path
     d="m 24.265645,11 a 15.460243,12.64929 0 0 0 -15.460244,12.649286 15.460243,12.64929 0 0 0 5.626124,9.736442 l -1.389314,5.553742 a 0.70273831,0.70273831 0 0 0 1.095568,0.737873 l 5.474332,-3.98101 A 15.460243,12.64929 0 0 0 24.265645,36.298577 15.460243,12.64929 0 0 0 39.725889,23.649286 15.460243,12.64929 0 0 0 24.265645,11 Z m -11.039319,8.432858 h 4.735053 c 0.500349,0 0.90864,0.40548 0.90864,0.904425 0,0.498943 -0.407588,0.907234 -0.90864,0.907234 h -1.442018 v 5.493305 c 0,0.486998 -0.41532,0.881936 -0.925507,0.881936 -0.51019,0 -0.923398,-0.394938 -0.923398,-0.881936 v -5.493305 h -1.444832 c -0.500348,0 -0.907235,-0.407588 -0.907235,-0.906531 0,-0.499648 0.407587,-0.905128 0.907235,-0.905128 z m 7.838346,0 c 0.604356,0.0141 1.078001,0.470834 1.234008,0.91356 l 2.210111,5.820078 c 0.281096,0.874208 0.03656,1.196062 -0.217846,1.314122 a 1.4139095,1.4139095 0 0 1 -0.588191,0.126501 c -0.385805,0 -0.680956,-0.154611 -0.769499,-0.40759 l -0.456782,-1.198884 h -2.821494 l -0.456781,1.199575 c -0.08855,0.250887 -0.384399,0.407586 -0.770202,0.407586 A 1.4110986,1.4110986 0 0 1 17.840509,27.47991 c -0.254394,-0.117336 -0.498947,-0.439915 -0.217847,-1.312015 l 2.210815,-5.822185 c 0.156019,-0.442725 0.628951,-0.899504 1.231195,-0.912856 z m 4.990847,0 C 26.575544,19.432858 27,19.847475 27,20.35766 v 5.432168 h 1.964152 c 0.488405,0 0.886154,0.381586 0.886154,0.84891 0,0.467319 -0.397749,0.846799 -0.886154,0.846799 h -2.966258 c -0.489106,0 -0.886854,-0.37948 -0.886854,-0.846799 V 20.35766 c 0,-0.509484 0.423749,-0.924802 0.944479,-0.924802 z m 5.077987,0 c 0.510188,0 0.925506,0.414617 0.925506,0.924802 v 1.986641 l 2.580455,-2.579049 c 0.132832,-0.133522 0.31553,-0.205894 0.512999,-0.205894 0.231208,0 0.463807,0.0991 0.63668,0.27266 0.161647,0.161615 0.257209,0.370344 0.270557,0.586083 0.0141,0.217847 -0.05763,0.418129 -0.203079,0.562895 l -2.108217,2.108215 2.276874,3.014747 a 0.91707353,0.91707353 0 0 1 0.177103,0.685871 0.91777627,0.91777627 0 0 1 -0.358396,0.609275 0.91566805,0.91566805 0 0 1 -0.555164,0.18693 0.91777627,0.91777627 0 0 1 -0.738576,-0.368231 l -2.168651,-2.872795 -0.321152,0.321151 v 2.01756 a 0.92620911,0.92620911 0 0 1 -0.926912,0.9241 0.92410089,0.92410089 0 0 1 -0.923399,-0.9241 v -6.32605 c 0,-0.509486 0.413913,-0.924801 0.923399,-0.924801 z m -10.068834,2.305683 -0.921992,2.624728 h 1.846091 z"
     style="fill:#ffffff;fill-opacity:1;stroke-width:0.70274;stroke-linejoin:round"
     id="path13" />
</svg>
