<?xml version="1.0" encoding="UTF-8" standalone="no"?>
<svg
   height="48"
   width="48"
   version="1.1"
   id="svg8"
   sodipodi:docname="kicad.svg"
   inkscape:version="1.1.2 (0a00cf5339, 2022-02-04)"
   xmlns:inkscape="http://www.inkscape.org/namespaces/inkscape"
   xmlns:sodipodi="http://sodipodi.sourceforge.net/DTD/sodipodi-0.dtd"
   xmlns="http://www.w3.org/2000/svg"
   xmlns:svg="http://www.w3.org/2000/svg"
   xmlns:rdf="http://www.w3.org/1999/02/22-rdf-syntax-ns#"
   xmlns:cc="http://creativecommons.org/ns#"
   xmlns:dc="http://purl.org/dc/elements/1.1/">
  <metadata
     id="metadata14">
    <rdf:RDF>
      <cc:Work
         rdf:about="">
        <dc:format>image/svg+xml</dc:format>
        <dc:type
           rdf:resource="http://purl.org/dc/dcmitype/StillImage" />
      </cc:Work>
    </rdf:RDF>
  </metadata>
  <defs
     id="defs12" />
  <sodipodi:namedview
     pagecolor="#ffffff"
     bordercolor="#666666"
     borderopacity="1"
     objecttolerance="10"
     gridtolerance="10"
     guidetolerance="10"
     inkscape:pageopacity="0"
     inkscape:pageshadow="2"
     inkscape:window-width="1920"
     inkscape:window-height="1028"
     id="namedview10"
     showgrid="false"
     inkscape:zoom="9.4583333"
     inkscape:cx="14.114537"
     inkscape:cy="27.330397"
     inkscape:window-x="0"
     inkscape:window-y="24"
     inkscape:window-maximized="1"
     inkscape:current-layer="g26"
     inkscape:document-rotation="0"
     inkscape:pagecheckerboard="0" />
  <path
     id="path2"
     style="fill:#e8a28c;fill-opacity:1;stroke-width:1.15035"
     d="M 23.804688 1.3046875 A 22.696228 22.696232 0 0 0 1.1074219 24 A 22.696228 22.696232 0 0 0 23.804688 46.695312 A 22.696228 22.696232 0 0 0 46.5 24 A 22.696228 22.696232 0 0 0 23.804688 1.3046875 z " />
  <g
     fill="none"
     id="g10"
     transform="translate(0.19918651,-0.567484)">
    <path
       d="m 25.229498,21.3672 v 11.759244 l -3.666859,3.666862 3.28753,3.287532 v 3.892787"
       stroke="#ffffff"
       stroke-opacity="0.989011"
       stroke-width="0.89409"
       id="path4" />
    <path
       d="m 21.249372,33.724446 v 5.632773"
       stroke="#ffffff"
       stroke-opacity="0.989011"
       stroke-width="0.89409"
       id="path6" />
    <path
       d="M 21.562639,36.793306 H 18.030646"
       stroke="#ffffff"
       stroke-opacity="0.989011"
       stroke-width="0.89409"
       id="path8" />
  </g>
  <path
     id="path839"
     style="fill:#d08770;fill-opacity:1;stroke-width:1.15035"
     d="M 23.804688 1.3046875 C 11.269908 1.3046875 1.1074229 11.465217 1.1074219 24 C 1.1074219 36.534782 11.269906 46.695313 23.804688 46.695312 L 23.804688 1.3046875 z " />
  <path
     d="m 30.601333,13.121542 a 7.5,7.5 0 0 1 -7.836122,7.133709 7.5,7.5 0 0 1 -7.148003,-7.823085 7.5,7.5 0 0 1 7.810023,-7.1622737 7.5,7.5 0 0 1 7.17652,7.7969337"
     fill="#ffffff"
     id="path14" />
  <path
     d="m 24.354357,23.903124 h 2.145817 v 4.291635 h -2.145817 z"
     style="opacity:0.924;fill:#edbe9a;stroke:#ffffff;stroke-width:0.89409;stroke-linecap:round;stroke-opacity:0.989011;fill-opacity:0.99215686"
     id="path14-3" />
  <path
     d="m 25.428685,31.35775 h 7.14406"
     fill="none"
     stroke="#ffffff"
     stroke-opacity="0.989011"
     stroke-width="0.89409"
     id="path16" />
  <path
     d="m 32.699187,30.409423 v 2.023093 h 4.046192 l 2.157098,-1.027427 -2.359733,-1.027433 z"
     fill="none"
     stroke="#ffffff"
     stroke-opacity="0.989011"
     stroke-width="0.89409"
     id="path18" />
  <g
     fill="#e38855"
     stroke-width="0.153797"
     transform="matrix(0.78335276,0,0,1.2765641,0.95835631,-0.20208615)"
     id="g26"
     style="fill:#e4985f;fill-opacity:1">
    <path
       id="path22"
       style="fill:#d08770;fill-opacity:1"
       d="M 19.210938 7.3632812 L 19.210938 18.050781 L 20.560547 18.050781 L 20.560547 14.474609 L 21.234375 13.330078 L 23.384766 18.050781 L 24.994141 18.050781 L 22.097656 11.966797 L 24.716797 7.3632812 L 23.123047 7.3632812 L 20.560547 12.054688 L 20.560547 7.3632812 L 19.210938 7.3632812 z M 25.613281 7.3632812 L 25.613281 18.050781 L 26.960938 18.050781 L 26.960938 7.3632812 L 25.613281 7.3632812 z "
       transform="matrix(1.2765641,0,0,0.78335275,-1.2234032,0.15830474)" />
  </g>
</svg>
