<?xml version="1.0" encoding="UTF-8" standalone="no"?>
<svg
   height="48"
   width="48"
   version="1.1"
   id="svg18"
   sodipodi:docname="alsamixergui.svg"
   inkscape:version="1.1.2 (0a00cf5339, 2022-02-04)"
   xmlns:inkscape="http://www.inkscape.org/namespaces/inkscape"
   xmlns:sodipodi="http://sodipodi.sourceforge.net/DTD/sodipodi-0.dtd"
   xmlns="http://www.w3.org/2000/svg"
   xmlns:svg="http://www.w3.org/2000/svg">
  <defs
     id="defs22" />
  <sodipodi:namedview
     id="namedview20"
     pagecolor="#ffffff"
     bordercolor="#666666"
     borderopacity="1.0"
     inkscape:pageshadow="2"
     inkscape:pageopacity="0.0"
     inkscape:pagecheckerboard="0"
     showgrid="false"
     inkscape:zoom="8.1875"
     inkscape:cx="27.969466"
     inkscape:cy="40.122137"
     inkscape:window-width="1920"
     inkscape:window-height="1031"
     inkscape:window-x="0"
     inkscape:window-y="0"
     inkscape:window-maximized="1"
     inkscape:current-layer="svg18" />
  <path
     id="path2"
     style="stroke-width:1.15035;fill:#d08770;fill-opacity:1"
     d="M 23.804688 1.3046875 A 22.696228 22.696232 0 0 0 1.1074219 24 A 22.696228 22.696232 0 0 0 23.804688 46.695312 A 22.696228 22.696232 0 0 0 46.5 24 A 22.696228 22.696232 0 0 0 23.804688 1.3046875 z " />
  <g
     fill="#ffffff"
     id="g10">
    <path
       d="m22.303771 9.5000008c-.554 0-.95907.447514-1 1.0000002l-.171875 2.330078c-2.165358.518359-4.133678 1.654163-5.666016 3.269531l-2.103515-1.015625c-.479778-.277-1.088236-.112591-1.365235.367188l-1.5 2.597656c-.277.479779-.09277 1.055499.365235 1.367188l1.923828 1.308593c-.317947 1.062814-.480437 2.16604-.482422 3.275391.0028 1.108791.165954 2.211349.484375 3.273438l-1.925781 1.310546c-.479779.277-.642235.88741-.365235 1.367188l1.5 2.597656c.277.479779.866303.607985 1.365235.367188l2.097656-1.011719c1.53418 1.615627 3.504639 2.750812 5.671875 3.267578l.171875 2.328125c0 .554.446 1 1 1h3c.554 0 .95907-.447514 1-1l.171875-2.330078c2.165358-.518359 4.133678-1.654163 5.666016-3.269531l2.103515 1.015625c.479778.277 1.088236.112591 1.365235-.367188l1.5-2.597656c.277001-.479779.09277-1.055499-.365235-1.367188l-1.923828-1.308593c.317947-1.062814.480437-2.16604.482422-3.275391-.0028-1.108791-.165954-2.211349-.484375-3.273438l1.925781-1.310546c.479778-.277.642236-.88741.365235-1.367188l-1.5-2.597656c-.277-.479779-.866303-.607985-1.365235-.367188l-2.097656 1.011719c-1.53418-1.615627-3.504639-2.750812-5.671875-3.267578l-.171875-2.328125c0-.5540002-.446-1.0000002-1-1.0000002z"
       id="path4" />
    <circle
       cx="19.428585"
       cy="24.447145"
       r="1.5"
       id="circle6" />
    <circle
       cx="28.35581"
       cy="24.447145"
       r="1.5"
       id="circle8" />
  </g>
  <path
     d="m18.6 30c3.3.9 6.9.9 9.9 0v-2.4l3-3.6c-6 .9-10.2.9-15.9 0l3 3.6z"
     fill="none"
     stroke="#a05f34"
     id="path12"
     style="stroke:#d08770;stroke-opacity:0.86666667" />
  <path
     d="m18 21.9h11.1"
     fill="none"
     stroke="#a05f34"
     id="path14"
     style="stroke:#d08770;stroke-opacity:0.86666667" />
  <path
     d="m16.2 19.2h14.4"
     fill="none"
     stroke="#a05f34"
     id="path16"
     style="stroke:#d08770;stroke-opacity:0.86666667" />
</svg>
