<?xml version="1.0" encoding="UTF-8" standalone="no"?>
<svg
   xmlns:dc="http://purl.org/dc/elements/1.1/"
   xmlns:cc="http://creativecommons.org/ns#"
   xmlns:rdf="http://www.w3.org/1999/02/22-rdf-syntax-ns#"
   xmlns:svg="http://www.w3.org/2000/svg"
   xmlns="http://www.w3.org/2000/svg"
   xmlns:sodipodi="http://sodipodi.sourceforge.net/DTD/sodipodi-0.dtd"
   xmlns:inkscape="http://www.inkscape.org/namespaces/inkscape"
   height="48"
   width="48"
   version="1.1"
   id="svg8"
   sodipodi:docname="libreoffice-math.svg"
   inkscape:version="1.0.2 (e86c870879, 2021-01-15)">
  <metadata
     id="metadata14">
    <rdf:RDF>
      <cc:Work
         rdf:about="">
        <dc:format>image/svg+xml</dc:format>
        <dc:type
           rdf:resource="http://purl.org/dc/dcmitype/StillImage" />
        <dc:title></dc:title>
      </cc:Work>
    </rdf:RDF>
  </metadata>
  <defs
     id="defs12" />
  <sodipodi:namedview
     pagecolor="#ffffff"
     bordercolor="#666666"
     borderopacity="1"
     objecttolerance="10"
     gridtolerance="10"
     guidetolerance="10"
     inkscape:pageopacity="0"
     inkscape:pageshadow="2"
     inkscape:window-width="1920"
     inkscape:window-height="1031"
     id="namedview10"
     showgrid="false"
     inkscape:zoom="9.4583333"
     inkscape:cx="14.070137"
     inkscape:cy="27.288289"
     inkscape:window-x="0"
     inkscape:window-y="24"
     inkscape:window-maximized="1"
     inkscape:current-layer="svg8"
     inkscape:document-rotation="0" />
  <path
     d="m44.322082 27.405077a19.729762 19.729765 0 0 1 -19.729762 19.729765 19.729762 19.729765 0 0 1 -19.7297621-19.729765 19.729762 19.729765 0 0 1 19.7297621-19.7297632 19.729762 19.729765 0 0 1 19.729762 19.7297632z"
     fill="#89a02c"
     opacity=".99"
     transform="matrix(1.1503549 0 0 1.1503549 -4.486125 -7.525565)"
     id="path2"
     style="fill:#829ca9;fill-opacity:1" />
  <path
     d="m 1.1075423,24 c 0,12.534782 10.1614467,22.696231 22.6962277,22.696231 V 1.3037694 C 11.26899,1.3037694 1.1075433,11.465217 1.1075423,24 Z"
     fill="#89a02c"
     opacity="0.99"
     id="path839"
     sodipodi:nodetypes="sccs"
     style="fill:#658493;fill-opacity:1;stroke-width:1.15035" />
  <path
     d="m 30.601333,13.121542 a 7.5,7.5 0 0 1 -7.836122,7.133709 7.5,7.5 0 0 1 -7.148003,-7.823085 7.5,7.5 0 0 1 7.810023,-7.1622737 7.5,7.5 0 0 1 7.17652,7.7969337"
     fill="#ffffff"
     id="path14" />
  <path
     d="m 20.552068,6.8290193 h 2.092951 l 0.523238,3.9088937 c 0.07695,0.738689 0.138504,1.477378 0.169283,2.185288 h 0.06156 c 0.03078,-0.70791 0.07695,-1.446599 0.169283,-2.185288 l 0.523238,-3.9088937 h 2.15451 l 0.923358,11.4342847 h -1.754386 l -0.323177,-6.401968 c -0.04617,-0.938751 -0.04617,-1.66205 -0.06156,-2.6469677 h -0.06156 c -0.12311,0.9849177 -0.215446,1.7236067 -0.338561,2.6469677 l -0.46168,3.477992 H 22.783523 L 22.275675,11.861336 C 22.137171,10.922585 22.060224,10.168507 21.952499,9.2143683 h -0.06156 c -0.03078,0.9541387 -0.04617,1.7082167 -0.09234,2.6469677 l -0.307781,6.401968 H 19.56715 Z"
     fill="#658493"
     id="path8" />
  <path
     d="m 32.197151,20.227591 v 7.5"
     id="path10-3"
     style="stroke:#ffffff;stroke-opacity:1;stroke-width:2;stroke-miterlimit:4;stroke-dasharray:none" />
  <path
     d="m 35.947151,23.977591 h -7.5"
     id="path12-6"
     style="stroke:#ffffff;stroke-opacity:1;stroke-width:2;stroke-miterlimit:4;stroke-dasharray:none" />
  <path
     d="m 35.947151,32.477591 h -7.5"
     id="path14-7"
     style="stroke:#ffffff;stroke-opacity:1;stroke-width:2;stroke-miterlimit:4;stroke-dasharray:none" />
  <path
     d="m 35.947151,36.977591 h -7.5"
     id="path16"
     style="stroke:#ffffff;stroke-opacity:1;stroke-width:2;stroke-miterlimit:4;stroke-dasharray:none" />
</svg>
