<?xml version="1.0" encoding="UTF-8" standalone="no"?>
<svg
   xmlns:dc="http://purl.org/dc/elements/1.1/"
   xmlns:cc="http://creativecommons.org/ns#"
   xmlns:rdf="http://www.w3.org/1999/02/22-rdf-syntax-ns#"
   xmlns:svg="http://www.w3.org/2000/svg"
   xmlns="http://www.w3.org/2000/svg"
   xmlns:sodipodi="http://sodipodi.sourceforge.net/DTD/sodipodi-0.dtd"
   xmlns:inkscape="http://www.inkscape.org/namespaces/inkscape"
   height="48"
   width="48"
   version="1.1"
   id="svg8"
   sodipodi:docname="libreoffice-impress.svg"
   inkscape:version="1.0.2 (e86c870879, 2021-01-15)">
  <metadata
     id="metadata14">
    <rdf:RDF>
      <cc:Work
         rdf:about="">
        <dc:format>image/svg+xml</dc:format>
        <dc:type
           rdf:resource="http://purl.org/dc/dcmitype/StillImage" />
        <dc:title></dc:title>
      </cc:Work>
    </rdf:RDF>
  </metadata>
  <defs
     id="defs12" />
  <sodipodi:namedview
     pagecolor="#ffffff"
     bordercolor="#666666"
     borderopacity="1"
     objecttolerance="10"
     gridtolerance="10"
     guidetolerance="10"
     inkscape:pageopacity="0"
     inkscape:pageshadow="2"
     inkscape:window-width="1920"
     inkscape:window-height="1031"
     id="namedview10"
     showgrid="false"
     inkscape:zoom="9.4583333"
     inkscape:cx="14.070137"
     inkscape:cy="27.288289"
     inkscape:window-x="0"
     inkscape:window-y="24"
     inkscape:window-maximized="1"
     inkscape:current-layer="svg8"
     inkscape:document-rotation="0" />
  <path
     d="m44.322082 27.405077a19.729762 19.729765 0 0 1 -19.729762 19.729765 19.729762 19.729765 0 0 1 -19.7297621-19.729765 19.729762 19.729765 0 0 1 19.7297621-19.7297632 19.729762 19.729765 0 0 1 19.729762 19.7297632z"
     fill="#89a02c"
     opacity=".99"
     transform="matrix(1.1503549 0 0 1.1503549 -4.486125 -7.525565)"
     id="path2"
     style="fill:#ddad88;fill-opacity:1" />
  <path
     d="m 1.1075423,24 c 0,12.534782 10.1614467,22.696231 22.6962277,22.696231 V 1.3037694 C 11.26899,1.3037694 1.1075433,11.465217 1.1075423,24 Z"
     fill="#89a02c"
     opacity="0.99"
     id="path839"
     sodipodi:nodetypes="sccs"
     style="fill:#d79e70;fill-opacity:1;stroke-width:1.15035" />
  <path
     d="m 30.601333,13.121542 a 7.5,7.5 0 0 1 -7.836122,7.133709 7.5,7.5 0 0 1 -7.148003,-7.823085 7.5,7.5 0 0 1 7.810023,-7.1622737 7.5,7.5 0 0 1 7.17652,7.7969337"
     fill="#ffffff"
     id="path14" />
  <path
     d="m 36.648472,32.498278 c 1e-6,-8.000012 -12,-8.000012 -12,0 0,8.000013 12.000001,8.000013 12,0 z"
     fill="#ffffff"
     id="path8" />
  <path
     d="m 32.648472,24.498266 v 6 h 6.000001 c 0,-3.999988 -2,-6 -6.000001,-6 z"
     fill="#ffffff"
     id="path12"
     style="fill-opacity:1;fill:#ffffff;stroke:#ddad88;stroke-opacity:0.99215686" />
  <text
     style="font-size:14.5521px;font-family:sans-serif;letter-spacing:0;word-spacing:0;fill:#d79e70;stroke-width:0.363801"
     x="20.762178"
     y="18.341454"
     id="text16"><tspan
       fill="#d79e70"
       font-family="'Noto Sans Gurmukhi'"
       font-weight="bold"
       stroke-width="0.363801"
       x="20.762178"
       y="18.341454"
       id="tspan14">I</tspan></text>
</svg>
