<?xml version="1.0" encoding="UTF-8" standalone="no"?>
<svg
   xmlns:dc="http://purl.org/dc/elements/1.1/"
   xmlns:cc="http://creativecommons.org/ns#"
   xmlns:rdf="http://www.w3.org/1999/02/22-rdf-syntax-ns#"
   xmlns:svg="http://www.w3.org/2000/svg"
   xmlns="http://www.w3.org/2000/svg"
   xmlns:sodipodi="http://sodipodi.sourceforge.net/DTD/sodipodi-0.dtd"
   xmlns:inkscape="http://www.inkscape.org/namespaces/inkscape"
   height="48"
   width="48"
   version="1.1"
   id="svg8"
   sodipodi:docname="docear.svg"
   inkscape:version="1.0.2 (e86c870879, 2021-01-15)">
  <metadata
     id="metadata14">
    <rdf:RDF>
      <cc:Work
         rdf:about="">
        <dc:format>image/svg+xml</dc:format>
        <dc:type
           rdf:resource="http://purl.org/dc/dcmitype/StillImage" />
        <dc:title></dc:title>
      </cc:Work>
    </rdf:RDF>
  </metadata>
  <defs
     id="defs12" />
  <sodipodi:namedview
     pagecolor="#ffffff"
     bordercolor="#666666"
     borderopacity="1"
     objecttolerance="10"
     gridtolerance="10"
     guidetolerance="10"
     inkscape:pageopacity="0"
     inkscape:pageshadow="2"
     inkscape:window-width="1920"
     inkscape:window-height="1031"
     id="namedview10"
     showgrid="false"
     inkscape:zoom="9.4583333"
     inkscape:cx="14.070137"
     inkscape:cy="27.288289"
     inkscape:window-x="0"
     inkscape:window-y="24"
     inkscape:window-maximized="1"
     inkscape:current-layer="svg8"
     inkscape:document-rotation="0" />
  <path
     d="m44.322082 27.405077a19.729762 19.729765 0 0 1 -19.729762 19.729765 19.729762 19.729765 0 0 1 -19.7297621-19.729765 19.729762 19.729765 0 0 1 19.7297621-19.7297632 19.729762 19.729765 0 0 1 19.729762 19.7297632z"
     fill="#89a02c"
     opacity=".99"
     transform="matrix(1.1503549 0 0 1.1503549 -4.486125 -7.525565)"
     id="path2"
     style="fill:#6c98b6;fill-opacity:1" />
  <g
     fill="none"
     stroke="#fefefe"
     stroke-linecap="round"
     stroke-width="2"
     id="g16"
     transform="translate(-0.18584736,1.0244838)">
    <path
       d="M 22.5,23 H 30"
       id="path4" />
    <path
       d="m 32.5,23 h 5"
       id="path6" />
    <path
       d="m 22.5,28 h 10"
       id="path8" />
    <path
       d="m 22.5,33 h 5"
       id="path10" />
    <path
       d="m 32.5,33 h 5"
       id="path12" />
    <path
       d="M 22.5,38 H 35"
       id="path14-3" />
  </g>
  <path
     d="m 1.1075423,24 c 0,12.534782 10.1614467,22.696231 22.6962277,22.696231 V 1.3037694 C 11.26899,1.3037694 1.1075433,11.465217 1.1075423,24 Z"
     fill="#89a02c"
     opacity="0.99"
     id="path839"
     sodipodi:nodetypes="sccs"
     style="fill:#5182a3;fill-opacity:1;stroke-width:1.15035" />
  <path
     d="m 30.601333,13.121542 a 7.5,7.5 0 0 1 -7.836122,7.133709 7.5,7.5 0 0 1 -7.148003,-7.823085 7.5,7.5 0 0 1 7.810023,-7.1622737 7.5,7.5 0 0 1 7.17652,7.7969337"
     fill="#ffffff"
     id="path14" />
  <path
     d="m 20.439706,18.521842 h 2.092951 l 0.523238,-3.908894 c 0.07695,-0.738689 0.138504,-1.477378 0.169283,-2.185288 h 0.06156 c 0.03078,0.70791 0.07695,1.446599 0.169283,2.185288 l 0.523238,3.908894 h 2.154509 L 27.057126,7.0875562 H 25.30274 l -0.323176,6.4019688 c -0.04617,0.938751 -0.04617,1.66205 -0.06156,2.646968 h -0.06156 c -0.12311,-0.984918 -0.215446,-1.723607 -0.338561,-2.646968 l -0.46168,-3.477992 h -1.385042 l -0.507848,3.477992 c -0.138504,0.938751 -0.215451,1.692829 -0.323176,2.646968 h -0.06156 c -0.03078,-0.954139 -0.04617,-1.708217 -0.09234,-2.646968 L 21.378456,7.0875562 h -1.923668 z"
     fill="#3f6eb9"
     id="path22"
     style="fill:#5182a3;fill-opacity:1" />
</svg>
