<?xml version="1.0" encoding="UTF-8" standalone="no"?>
<svg
   xmlns:dc="http://purl.org/dc/elements/1.1/"
   xmlns:cc="http://creativecommons.org/ns#"
   xmlns:rdf="http://www.w3.org/1999/02/22-rdf-syntax-ns#"
   xmlns:svg="http://www.w3.org/2000/svg"
   xmlns="http://www.w3.org/2000/svg"
   xmlns:sodipodi="http://sodipodi.sourceforge.net/DTD/sodipodi-0.dtd"
   xmlns:inkscape="http://www.inkscape.org/namespaces/inkscape"
   height="48"
   width="48"
   version="1.1"
   id="svg8"
   sodipodi:docname="libreoffice3-calc.svg"
   inkscape:version="1.0.2 (e86c870879, 2021-01-15)">
  <metadata
     id="metadata14">
    <rdf:RDF>
      <cc:Work
         rdf:about="">
        <dc:format>image/svg+xml</dc:format>
        <dc:type
           rdf:resource="http://purl.org/dc/dcmitype/StillImage" />
        <dc:title></dc:title>
      </cc:Work>
    </rdf:RDF>
  </metadata>
  <defs
     id="defs12" />
  <sodipodi:namedview
     pagecolor="#ffffff"
     bordercolor="#666666"
     borderopacity="1"
     objecttolerance="10"
     gridtolerance="10"
     guidetolerance="10"
     inkscape:pageopacity="0"
     inkscape:pageshadow="2"
     inkscape:window-width="1920"
     inkscape:window-height="1031"
     id="namedview10"
     showgrid="false"
     inkscape:zoom="9.4583333"
     inkscape:cx="14.070137"
     inkscape:cy="27.288289"
     inkscape:window-x="0"
     inkscape:window-y="24"
     inkscape:window-maximized="1"
     inkscape:current-layer="svg8"
     inkscape:document-rotation="0" />
  <path
     d="m44.322082 27.405077a19.729762 19.729765 0 0 1 -19.729762 19.729765 19.729762 19.729765 0 0 1 -19.7297621-19.729765 19.729762 19.729765 0 0 1 19.7297621-19.7297632 19.729762 19.729765 0 0 1 19.729762 19.7297632z"
     fill="#89a02c"
     opacity=".99"
     transform="matrix(1.1503549 0 0 1.1503549 -4.486125 -7.525565)"
     id="path2"
     style="fill:#93cfc4;fill-opacity:1" />
  <g
     fill="none"
     stroke="#ffffff"
     id="g12"
     transform="translate(-0.7897615,-2.0080931)">
    <path
       d="m 20,25.5 h 17.5 v 15 H 20 Z"
       stroke-linecap="round"
       stroke-width="2"
       id="path4" />
    <path
       d="m 27.5,25.5 v 15"
       stroke-width="1.3"
       id="path6" />
    <path
       d="m 32.5,25.5 v 15"
       stroke-width="1.3"
       id="path8" />
    <path
       d="M 37.5,33 H 20"
       stroke-width="1.3"
       id="path10" />
  </g>
  <path
     d="m 1.1075423,24 c 0,12.534782 10.1614467,22.696231 22.6962277,22.696231 V 1.3037694 C 11.26899,1.3037694 1.1075433,11.465217 1.1075423,24 Z"
     fill="#89a02c"
     opacity="0.99"
     id="path839"
     sodipodi:nodetypes="sccs"
     style="fill:#8fbcbb;fill-opacity:1;stroke-width:1.15035" />
  <path
     d="m 30.601333,13.121542 a 7.5,7.5 0 0 1 -7.836122,7.133709 7.5,7.5 0 0 1 -7.148003,-7.823085 7.5,7.5 0 0 1 7.810023,-7.1622737 7.5,7.5 0 0 1 7.17652,7.7969337"
     fill="#ffffff"
     id="path14" />
  <path
     d="m 26.690464,16.904235 q -0.679165,0.352397 -1.415996,0.531799 -0.73683,0.179403 -1.537733,0.179403 -2.389893,0 -3.786667,-1.332702 -1.396774,-1.33911 -1.396774,-3.626487 0,-2.293785 1.396774,-3.6264865 1.396774,-1.339109 3.786667,-1.339109 0.800903,0 1.537733,0.179402 0.736831,0.179402 1.415996,0.531799 V 10.381684 Q 26.004891,9.9139575 25.338541,9.6961125 24.67219,9.4782665 23.935359,9.4782665 q -1.319887,0 -2.075939,0.8457525 -0.756052,0.845753 -0.756052,2.332229 0,1.480068 0.756052,2.325821 0.756052,0.845753 2.075939,0.845753 0.736831,0 1.403182,-0.217846 0.66635,-0.217845 1.351923,-0.685572 z"
     fill="#8fbcbb"
     id="path18" />
</svg>
