<?xml version="1.0" encoding="UTF-8" standalone="no"?>
<svg
   width="64"
   height="64"
   version="1.1"
   viewBox="0 0 16.933 16.933"
   id="svg22"
   sodipodi:docname="linuxmint-logo-ring.svg"
   inkscape:version="1.1.2 (0a00cf5339, 2022-02-04)"
   xmlns:inkscape="http://www.inkscape.org/namespaces/inkscape"
   xmlns:sodipodi="http://sodipodi.sourceforge.net/DTD/sodipodi-0.dtd"
   xmlns:xlink="http://www.w3.org/1999/xlink"
   xmlns="http://www.w3.org/2000/svg"
   xmlns:svg="http://www.w3.org/2000/svg">
  <sodipodi:namedview
     id="namedview24"
     pagecolor="#505050"
     bordercolor="#eeeeee"
     borderopacity="1"
     inkscape:pageshadow="0"
     inkscape:pageopacity="0"
     inkscape:pagecheckerboard="0"
     showgrid="false"
     inkscape:zoom="11.046875"
     inkscape:cx="31.954738"
     inkscape:cy="31.954738"
     inkscape:window-width="2560"
     inkscape:window-height="1365"
     inkscape:window-x="0"
     inkscape:window-y="0"
     inkscape:window-maximized="1"
     inkscape:current-layer="g18" />
  <defs
     id="defs10">
    <linearGradient
       id="linearGradient1324">
      <stop
         stop-color="#8fbcbb"
         offset="0"
         id="stop2" />
      <stop
         stop-color="#97b67c"
         offset="1"
         id="stop4" />
    </linearGradient>
    <linearGradient
       id="linearGradient1022"
       x1="192"
       x2="193.17"
       y1=".0010205"
       y2="414.55"
       gradientUnits="userSpaceOnUse"
       xlink:href="#linearGradient1324" />
    <linearGradient
       id="linearGradient949"
       x1="55.033"
       x2="54.608"
       y1="186.93"
       y2="297.28"
       gradientUnits="userSpaceOnUse"
       xlink:href="#linearGradient1324" />
    <linearGradient
       id="linearGradient951"
       x1="192"
       x2="193.55"
       y1=".0010205"
       y2="415.66"
       gradientUnits="userSpaceOnUse"
       xlink:href="#linearGradient1324" />
  </defs>
  <g
     stroke-linecap="round"
     stroke-linejoin="round"
     id="g20">
    <g
       transform="matrix(0.15384,0,0,0.15384,2.2725e-7,-28.759)"
       id="g18">
      <path
         d="M 55.033,186.93 C 24.693,186.93 0,211.623 0,241.963 c 0,30.34 24.693,55.033 55.033,55.033 30.34,0 55.033,-24.693 55.033,-55.033 0,-30.34 -24.693,-55.033 -55.033,-55.033 z m 0,9.1719 c 25.383,0 45.861,20.479 45.861,45.861 0,25.383 -20.479,45.861 -45.861,45.861 -25.382,0 -45.861,-20.479 -45.861,-45.861 0,-25.383 20.479,-45.861 45.861,-45.861 z"
         color="#000000"
         color-rendering="auto"
         dominant-baseline="auto"
         fill="url(#linearGradient949)"
         image-rendering="auto"
         shape-rendering="auto"
         solid-color="#000000"
         style="font-variant-ligatures:normal;font-variant-position:normal;font-variant-caps:normal;font-variant-numeric:normal;font-variant-alternates:normal;font-feature-settings:normal;text-indent:0;text-decoration-line:none;text-decoration-style:solid;text-decoration-color:#000000;text-transform:none;text-orientation:mixed;white-space:normal;shape-padding:0;isolation:auto;mix-blend-mode:normal;fill:#6f917c;fill-opacity:1"
         id="path12" />
      <g
         transform="matrix(0.26458,0,0,0.26458,4.2333,186.93)"
         fill="url(#linearGradient951)"
         id="g16"
         style="fill:#6f917c;fill-opacity:1">
        <path
           d="m 80,104 v 144 c 0,35.157 28.843,64 64,64 h 96 c 35.157,0 64,-28.843 64,-64 v -80 c 0,-26.32 -21.68,-48 -48,-48 -12.296,0 -23.467,4.8602 -32,12.586 C 215.4668,124.8603 204.296,120 192,120 c -26.32,0 -48,21.68 -48,48 v 80 h 32 v -80 c 0,-9.0261 6.9739,-16 16,-16 9.0261,0 16,6.9739 16,16 v 80 h 32 v -80 c 0,-9.0261 6.9739,-16 16,-16 9.0261,0 16,6.9739 16,16 v 80 c 0,17.863 -14.137,32 -32,32 h -96 c -17.863,0 -32,-14.137 -32,-32 V 104 Z"
           color="#000000"
           color-rendering="auto"
           dominant-baseline="auto"
           fill="url(#linearGradient1022)"
           image-rendering="auto"
           shape-rendering="auto"
           solid-color="#000000"
           style="font-variant-ligatures:normal;font-variant-position:normal;font-variant-caps:normal;font-variant-numeric:normal;font-variant-alternates:normal;font-feature-settings:normal;text-indent:0;text-decoration-line:none;text-decoration-style:solid;text-decoration-color:#000000;text-transform:none;text-orientation:mixed;white-space:normal;shape-padding:0;isolation:auto;mix-blend-mode:normal;fill:#6f917c;fill-opacity:1"
           id="path14" />
      </g>
    </g>
  </g>
</svg>
