<?xml version="1.0" encoding="UTF-8" standalone="no"?>
<svg
   width="64"
   height="64"
   version="1.1"
   viewBox="0 0 16.933 16.933"
   id="svg42"
   sodipodi:docname="linuxmint-logo-filled-leaf.svg"
   inkscape:version="1.1.2 (0a00cf5339, 2022-02-04)"
   xmlns:inkscape="http://www.inkscape.org/namespaces/inkscape"
   xmlns:sodipodi="http://sodipodi.sourceforge.net/DTD/sodipodi-0.dtd"
   xmlns:xlink="http://www.w3.org/1999/xlink"
   xmlns="http://www.w3.org/2000/svg"
   xmlns:svg="http://www.w3.org/2000/svg">
  <sodipodi:namedview
     id="namedview44"
     pagecolor="#505050"
     bordercolor="#eeeeee"
     borderopacity="1"
     inkscape:pageshadow="0"
     inkscape:pageopacity="0"
     inkscape:pagecheckerboard="0"
     showgrid="false"
     inkscape:zoom="11.046875"
     inkscape:cx="31.954738"
     inkscape:cy="31.954738"
     inkscape:window-width="2560"
     inkscape:window-height="1365"
     inkscape:window-x="0"
     inkscape:window-y="0"
     inkscape:window-maximized="1"
     inkscape:current-layer="g28" />
  <defs
     id="defs20">
    <linearGradient
       id="linearGradient854"
       x1="577.98"
       x2="577.77"
       y1="496.07"
       y2="670.25"
       gradientUnits="userSpaceOnUse">
      <stop
         stop-color="#8fbcbb"
         offset="0"
         id="stop2" />
      <stop
         stop-color="#a3be8c"
         offset="1"
         id="stop4" />
    </linearGradient>
    <linearGradient
       id="linearGradient936">
      <stop
         stop-color="#d8dee9"
         offset="0"
         id="stop7" />
      <stop
         stop-color="#eceff4"
         offset="1"
         id="stop9" />
    </linearGradient>
    <linearGradient
       id="linearGradient938-2"
       x1="590.57"
       x2="591.81"
       y1="494.61"
       y2="670.55"
       gradientTransform="translate(4e-6)"
       gradientUnits="userSpaceOnUse"
       xlink:href="#linearGradient936" />
    <filter
       id="filter1170"
       x="-0.07111822"
       y="-0.079329934"
       width="1.1422364"
       height="1.1586599"
       color-interpolation-filters="sRGB">
      <feGaussianBlur
         stdDeviation="5.8099142"
         id="feGaussianBlur13" />
    </filter>
    <linearGradient
       id="linearGradient847-7"
       x1="155.39"
       x2="153.88"
       y1="33.812"
       y2="382.82"
       gradientUnits="userSpaceOnUse"
       xlink:href="#linearGradient936" />
    <filter
       id="filter1303"
       x="-0.072321429"
       y="-0.077884615"
       width="1.1446429"
       height="1.1557692"
       color-interpolation-filters="sRGB">
      <feGaussianBlur
         stdDeviation="6.75"
         id="feGaussianBlur17" />
    </filter>
  </defs>
  <g
     stroke-linecap="round"
     stroke-linejoin="round"
     id="g40">
    <g
       transform="matrix(0.086364,0,0,0.086364,-42.019,-41.829)"
       id="g30">
      <g
         fill-rule="evenodd"
         id="g28">
        <path
           d="m 671.91,642.97 v -84.674 c 0,-28.289 -24.808,-51.22 -55.417,-51.22 h -31.769 v -0.0683 L 498.8,506.63227 v 30.895 h 13.19 c 9.2068,0 10.833,6.3556 10.833,15.153 l 0.0683,54.618 c 0,28.289 24.808,51.22 55.383,51.22 h 75.49 c 9.6778,0 18.146,-6.1289 18.146,-15.548 z"
           fill="url(#linearGradient854)"
           stroke-width="1.1271"
           id="path22"
           style="fill:#97b67c;fill-opacity:1" />
        <path
           d="m 577.77,670.25 c -36.459,0 -68.098,-27.639 -68.098,-64.065 l -0.0327,-44.229 v -11.278 h -23.115 v -56.197 l 97.475,0.45904 30.492,0.0656 c 36.492,0 68.098,27.606 68.098,64.065 v 111.18 h -104.82 z m 89.967,-29.824 V 559.07 c 0,-27.18 -23.836,-49.213 -53.246,-49.213 h -30.524 v -0.0656 l -82.557,-0.36075 v 26.393 h 9.248 c 6.2786,0 13.834,5.9003 13.834,14.559 l 0.0656,55.769 c 0,27.18 23.836,49.213 53.213,49.213 h 72.531 c 9.2986,0 17.435,-5.8887 17.435,-14.939 z"
           fill="url(#linearGradient938-2)"
           id="path26"
           style="fill:#d8dee9;fill-opacity:1" />
      </g>
    </g>
    <g
       transform="matrix(0.043479,0,0,0.043479,1.1898,-0.57704)"
       fill="url(#linearGradient847-7)"
       id="g38"
       style="fill:#d8dee9;fill-opacity:1">
      <path
         d="m 80,104 v 144 c 0,35.157 28.843,64 64,64 h 96 c 35.157,0 64,-28.843 64,-64 v -80 c 0,-26.32 -21.68,-48 -48,-48 -12.296,0 -23.467,4.8602 -32,12.586 C 215.4668,124.8603 204.296,120 192,120 c -26.32,0 -48,21.68 -48,48 v 80 h 32 v -80 c 0,-9.0261 6.9739,-16 16,-16 9.0261,0 16,6.9739 16,16 v 80 h 32 v -80 c 0,-9.0261 6.9739,-16 16,-16 9.0261,0 16,6.9739 16,16 v 80 c 0,17.863 -14.137,32 -32,32 h -96 c -17.863,0 -32,-14.137 -32,-32 V 104 Z"
         color="#000000"
         color-rendering="auto"
         dominant-baseline="auto"
         fill="url(#linearGradient847-7)"
         image-rendering="auto"
         shape-rendering="auto"
         solid-color="#000000"
         style="font-variant-ligatures:normal;font-variant-position:normal;font-variant-caps:normal;font-variant-numeric:normal;font-variant-alternates:normal;font-feature-settings:normal;text-indent:0;text-decoration-line:none;text-decoration-style:solid;text-decoration-color:#000000;text-transform:none;text-orientation:mixed;white-space:normal;shape-padding:0;isolation:auto;mix-blend-mode:normal;fill:#d8dee9;fill-opacity:1"
         id="path36" />
    </g>
  </g>
</svg>
