<?xml version="1.0" encoding="UTF-8" standalone="no"?>
<svg
   height="48"
   width="48"
   version="1.1"
   id="svg8"
   sodipodi:docname="lxkeymap.svg"
   inkscape:version="1.1.2 (0a00cf5339, 2022-02-04)"
   xmlns:inkscape="http://www.inkscape.org/namespaces/inkscape"
   xmlns:sodipodi="http://sodipodi.sourceforge.net/DTD/sodipodi-0.dtd"
   xmlns="http://www.w3.org/2000/svg"
   xmlns:svg="http://www.w3.org/2000/svg"
   xmlns:rdf="http://www.w3.org/1999/02/22-rdf-syntax-ns#"
   xmlns:cc="http://creativecommons.org/ns#"
   xmlns:dc="http://purl.org/dc/elements/1.1/">
  <metadata
     id="metadata14">
    <rdf:RDF>
      <cc:Work
         rdf:about="">
        <dc:format>image/svg+xml</dc:format>
        <dc:type
           rdf:resource="http://purl.org/dc/dcmitype/StillImage" />
      </cc:Work>
    </rdf:RDF>
  </metadata>
  <defs
     id="defs12" />
  <sodipodi:namedview
     pagecolor="#ffffff"
     bordercolor="#666666"
     borderopacity="1"
     objecttolerance="10"
     gridtolerance="10"
     guidetolerance="10"
     inkscape:pageopacity="0"
     inkscape:pageshadow="2"
     inkscape:window-width="1920"
     inkscape:window-height="1022"
     id="namedview10"
     showgrid="false"
     inkscape:zoom="9.4583333"
     inkscape:cx="17.286344"
     inkscape:cy="27.330397"
     inkscape:window-x="0"
     inkscape:window-y="32"
     inkscape:window-maximized="1"
     inkscape:current-layer="svg8"
     inkscape:document-rotation="0"
     inkscape:pagecheckerboard="0" />
  <path
     id="path2"
     style="fill:#b48ead;fill-opacity:1;stroke-width:1.15035"
     d="M 23.804688 1.3046875 A 22.696228 22.696232 0 0 0 1.1074219 24 A 22.696228 22.696232 0 0 0 23.804688 46.695312 A 22.696228 22.696232 0 0 0 46.5 24 A 22.696228 22.696232 0 0 0 23.804688 1.3046875 z " />
  <path
     d="M 9.2273908,8.5153089 H 29.227391 V 30.515309 H 9.2273908 Z"
     fill="#ffffff"
     fill-opacity="0.375912"
     id="path4" />
  <path
     d="m 16.227391,18.515309 h 22 v 22 h -22 z"
     fill="#fefefe"
     fill-opacity="0.375912"
     id="path6" />
  <path
     d="m 18.427392,20.71531 h 17.6 v 17.6 h -17.6 z"
     fill="#fdfdfd"
     id="path8" />
  <path
     d="m 33.908831,31.29831 c 0,-1.157101 -0.202034,-1.744836 -0.734668,-2.185636 -0.606101,-0.477535 -1.506069,-0.734668 -2.681538,-0.734668 -2.05707,0 -3.581505,0.973435 -3.581505,2.295837 0,0.697934 0.422434,1.138735 1.065268,1.138735 1.759663,-0.899446 1.689171,-2.782281 3.728439,-2.185637 0.348968,0.293867 0.477534,0.734668 0.477534,1.561169 v 0.716301 c -1.928503,0.330601 -2.516237,0.477535 -3.416205,0.826502 -1.579536,0.587734 -2.350937,1.450969 -2.350937,2.608071 0,1.304035 1.046902,2.148903 2.663171,2.148903 1.267302,0 2.406037,-0.514267 3.195805,-1.450969 0.293867,0.936702 0.753035,1.304036 1.616269,1.304036 0.826502,0 1.689736,-0.532635 1.689736,-1.065269 0,-0.128567 -0.09183,-0.2204 -0.183667,-0.2204 -0.07347,0 -0.146933,0.01837 -0.2755,0.07347 -0.293867,0.1102 -0.367334,0.128566 -0.514268,0.128566 -0.514267,0 -0.697934,-0.348967 -0.697934,-1.267302 z m -1.72647,2.240737 c 0,1.102002 -0.0551,1.359136 -0.367333,1.83667 -0.459168,0.679568 -1.304036,1.138735 -2.093804,1.138735 -0.826501,0 -1.450969,-0.606101 -1.450969,-1.432602 0.917545,-2.219355 2.880738,-2.030957 3.912106,-1.542803 z"
     fill="#8d97a5"
     id="path10"
     style="stroke-width:0.459167;fill:#b48ead;fill-opacity:1" />
  <path
     style="color:#000000;fill:#b48ead;-inkscape-stroke:none"
     d="m 30.894531,23.464844 -3.373047,2.53125 0.878907,1.171875 2.49414,-1.869141 2.492188,1.869141 0.880859,-1.171875 z"
     id="path12" />
</svg>
