<?xml version="1.0" encoding="UTF-8" standalone="no"?>
<svg
   height="48"
   width="48"
   version="1.1"
   id="svg6"
   sodipodi:docname="mailnag.svg"
   inkscape:version="1.1.2 (0a00cf5339, 2022-02-04)"
   xmlns:inkscape="http://www.inkscape.org/namespaces/inkscape"
   xmlns:sodipodi="http://sodipodi.sourceforge.net/DTD/sodipodi-0.dtd"
   xmlns="http://www.w3.org/2000/svg"
   xmlns:svg="http://www.w3.org/2000/svg"
   xmlns:rdf="http://www.w3.org/1999/02/22-rdf-syntax-ns#"
   xmlns:cc="http://creativecommons.org/ns#"
   xmlns:dc="http://purl.org/dc/elements/1.1/">
  <metadata
     id="metadata12">
    <rdf:RDF>
      <cc:Work
         rdf:about="">
        <dc:format>image/svg+xml</dc:format>
        <dc:type
           rdf:resource="http://purl.org/dc/dcmitype/StillImage" />
      </cc:Work>
    </rdf:RDF>
  </metadata>
  <defs
     id="defs10" />
  <sodipodi:namedview
     pagecolor="#ffffff"
     bordercolor="#666666"
     borderopacity="1"
     objecttolerance="10"
     gridtolerance="10"
     guidetolerance="10"
     inkscape:pageopacity="0"
     inkscape:pageshadow="2"
     inkscape:window-width="1920"
     inkscape:window-height="1030"
     id="namedview8"
     showgrid="false"
     inkscape:zoom="18.916667"
     inkscape:cx="28.30837"
     inkscape:cy="27.991189"
     inkscape:window-x="0"
     inkscape:window-y="24"
     inkscape:window-maximized="1"
     inkscape:current-layer="svg6"
     inkscape:pagecheckerboard="0" />
  <path
     id="path2"
     style="fill:#81a1c1;fill-opacity:1;stroke-width:1.15035"
     d="M 23.804688 1.3046875 A 22.696228 22.696232 0 0 0 1.1074219 24 A 22.696228 22.696232 0 0 0 23.804688 46.695312 A 22.696228 22.696232 0 0 0 46.5 24 A 22.696228 22.696232 0 0 0 23.804688 1.3046875 z " />
  <path
     d="m24 10.5-13.5 10.5h27zm13.5 10.5-13.5 6 10.5 7.5-24-12.705078v15.705078h27z"
     fill="#ffffff"
     id="path4" />
  <path
     id="path4516"
     style="fill:#ffffff;stroke:#81a1c1;stroke-width:2;stroke-linecap:round;stroke-linejoin:round;stroke-opacity:1;paint-order:fill markers stroke"
     d="m 41.10714,33.886417 a 8,8 0 0 1 -8,8 8,8 0 0 1 -8,-8 8,8 0 0 1 8,-8 8,8 0 0 1 8,8 z" />
  <path
     id="path14"
     style="stroke-width:0.91047;fill:#81a1c1;fill-opacity:0.99215686"
     d="M 29.601562 30.357422 C 29.188433 30.361919 28.760139 30.474096 28.380859 30.697266 C 27.279271 31.345443 26.951172 32.602257 26.951172 33.757812 C 26.951172 34.913368 27.279271 36.168228 28.380859 36.816406 C 28.886565 37.113966 29.481382 37.212369 30.007812 37.125 C 30.534243 37.03763 30.987668 36.803002 31.400391 36.515625 C 31.973765 36.116389 32.448065 35.553965 32.939453 35.021484 C 33.430841 35.553965 33.907095 36.116389 34.480469 36.515625 C 34.893192 36.803002 35.344664 37.037632 35.871094 37.125 C 36.397524 37.21237 36.994294 37.113965 37.5 36.816406 C 38.601588 36.168228 38.929688 34.913368 38.929688 33.757812 C 38.929688 32.602257 38.601588 31.345443 37.5 30.697266 C 36.994294 30.399706 36.397524 30.301303 35.871094 30.388672 C 35.344664 30.476042 34.893192 30.710671 34.480469 30.998047 C 33.907095 31.397284 33.430841 31.959707 32.939453 32.492188 C 32.448065 31.959708 31.973765 31.397284 31.400391 30.998047 C 30.987668 30.710671 30.534242 30.476041 30.007812 30.388672 C 29.876205 30.366829 29.739272 30.355923 29.601562 30.357422 z M 29.603516 32.173828 C 29.635447 32.17522 29.670703 32.179193 29.708984 32.185547 C 29.862107 32.210957 30.088046 32.305217 30.359375 32.494141 C 30.725579 32.749128 31.193701 33.280054 31.642578 33.757812 C 31.193701 34.235569 30.725579 34.764545 30.359375 35.019531 C 30.088046 35.208455 29.862107 35.302713 29.708984 35.328125 C 29.55586 35.353535 29.472237 35.346627 29.304688 35.248047 C 29.098429 35.126683 28.771484 34.493661 28.771484 33.757812 C 28.771484 33.021963 29.098428 32.386989 29.304688 32.265625 C 29.430349 32.191682 29.507721 32.169653 29.603516 32.173828 z M 36.275391 32.173828 C 36.371185 32.169653 36.448557 32.191682 36.574219 32.265625 C 36.780478 32.386989 37.107422 33.021963 37.107422 33.757812 C 37.107422 34.49366 36.780478 35.126683 36.574219 35.248047 C 36.40667 35.346637 36.323046 35.353539 36.169922 35.328125 C 36.016799 35.302715 35.79086 35.208455 35.519531 35.019531 C 35.153327 34.764545 34.685205 34.23557 34.236328 33.757812 C 34.685205 33.280054 35.153327 32.749128 35.519531 32.494141 C 35.79086 32.305217 36.016799 32.210959 36.169922 32.185547 C 36.208203 32.179194 36.243459 32.17522 36.275391 32.173828 z " />
</svg>
