<?xml version="1.0" encoding="UTF-8" standalone="no"?>
<svg
   height="48"
   width="48"
   version="1.1"
   id="svg8"
   sodipodi:docname="mame.svg"
   inkscape:version="1.1.2 (0a00cf5339, 2022-02-04)"
   xmlns:inkscape="http://www.inkscape.org/namespaces/inkscape"
   xmlns:sodipodi="http://sodipodi.sourceforge.net/DTD/sodipodi-0.dtd"
   xmlns="http://www.w3.org/2000/svg"
   xmlns:svg="http://www.w3.org/2000/svg"
   xmlns:rdf="http://www.w3.org/1999/02/22-rdf-syntax-ns#"
   xmlns:cc="http://creativecommons.org/ns#"
   xmlns:dc="http://purl.org/dc/elements/1.1/">
  <metadata
     id="metadata14">
    <rdf:RDF>
      <cc:Work
         rdf:about="">
        <dc:format>image/svg+xml</dc:format>
        <dc:type
           rdf:resource="http://purl.org/dc/dcmitype/StillImage" />
      </cc:Work>
    </rdf:RDF>
  </metadata>
  <defs
     id="defs12" />
  <sodipodi:namedview
     pagecolor="#ffffff"
     bordercolor="#666666"
     borderopacity="1"
     objecttolerance="10"
     gridtolerance="10"
     guidetolerance="10"
     inkscape:pageopacity="0"
     inkscape:pageshadow="2"
     inkscape:window-width="1920"
     inkscape:window-height="1031"
     id="namedview10"
     showgrid="false"
     inkscape:zoom="6.6880515"
     inkscape:cx="26.913668"
     inkscape:cy="30.576918"
     inkscape:window-x="0"
     inkscape:window-y="0"
     inkscape:window-maximized="1"
     inkscape:current-layer="svg8"
     inkscape:document-rotation="0"
     inkscape:pagecheckerboard="0" />
  <path
     id="path1156"
     style="fill:#88c0d0;fill-opacity:1;stroke-width:1.15035"
     d="M 23.804688,1.3046875 C 11.269861,1.3041142 1.1079297,11.465171 1.1074219,24 1.10793,36.534829 11.269861,46.695885 23.804688,46.695312 36.338752,46.694806 46.499492,36.534066 46.5,24 46.499492,11.465934 36.338752,1.3051934 23.804688,1.3046875 Z"
     sodipodi:nodetypes="ccccc" />
  <circle
     style="fill:#4c566a;fill-opacity:1;fill-rule:evenodd;stroke:none;stroke-width:1.09164;stroke-linecap:square"
     id="path1273"
     cx="23.803711"
     cy="24"
     r="20.334772" />
  <path
     id="path1136"
     style="fill:#88c0d0;fill-opacity:1;stroke-width:1.15035"
     d="M 1.1816406 25.832031 A 22.696228 22.696232 0 0 0 23.804688 46.695312 A 22.696228 22.696232 0 0 0 46.423828 25.845703 C 46.379938 25.841746 46.337923 25.832031 46.292969 25.832031 L 1.1816406 25.832031 z " />
  <circle
     style="fill:#ffffff;fill-opacity:1;stroke-width:35;stroke-linecap:round;stroke-linejoin:round"
     id="path839"
     cx="8.7300787"
     cy="30.959213"
     r="2.8051097" />
  <circle
     style="fill:#ffffff;fill-opacity:1;stroke-width:35;stroke-linecap:round;stroke-linejoin:round"
     id="circle841"
     cx="16.088963"
     cy="37.135891"
     r="2.8051097" />
  <rect
     style="fill:#ffffff;fill-opacity:1;stroke-width:35;stroke-linecap:round;stroke-linejoin:round"
     id="rect843"
     width="4.7316813"
     height="11.902602"
     x="32.336079"
     y="28.066406"
     rx="0"
     ry="0" />
  <rect
     style="fill:#ffffff;fill-opacity:1;stroke-width:35;stroke-linecap:round;stroke-linejoin:round"
     id="rect845"
     width="4.7316813"
     height="11.902602"
     x="31.651867"
     y="-40.653221"
     rx="0"
     ry="0"
     transform="rotate(90)" />
  <path
     id="path4"
     style="fill:#88c0d0;fill-opacity:1;fill-rule:evenodd;stroke-width:0.416808"
     d="M 26.710938 8.1289062 L 10.873047 23.966797 L 17.125 23.966797 L 24.210938 16.880859 L 24.210938 23.966797 L 30.878906 17.298828 L 30.878906 23.966797 L 34.664062 20.183594 L 34.630859 8.1289062 L 26.710938 16.048828 L 26.710938 8.1289062 z " />
</svg>
