<?xml version="1.0" encoding="UTF-8" standalone="no"?>
<svg
   height="48"
   viewBox="0 0 47.999999 47.999999"
   width="48"
   version="1.1"
   id="svg10"
   sodipodi:docname="org.midori_browser.Midori.svg"
   inkscape:version="1.1.2 (0a00cf5339, 2022-02-04)"
   xmlns:inkscape="http://www.inkscape.org/namespaces/inkscape"
   xmlns:sodipodi="http://sodipodi.sourceforge.net/DTD/sodipodi-0.dtd"
   xmlns="http://www.w3.org/2000/svg"
   xmlns:svg="http://www.w3.org/2000/svg"
   xmlns:rdf="http://www.w3.org/1999/02/22-rdf-syntax-ns#"
   xmlns:cc="http://creativecommons.org/ns#"
   xmlns:dc="http://purl.org/dc/elements/1.1/">
  <metadata
     id="metadata16">
    <rdf:RDF>
      <cc:Work
         rdf:about="">
        <dc:format>image/svg+xml</dc:format>
        <dc:type
           rdf:resource="http://purl.org/dc/dcmitype/StillImage" />
      </cc:Work>
    </rdf:RDF>
  </metadata>
  <defs
     id="defs14" />
  <sodipodi:namedview
     pagecolor="#ffffff"
     bordercolor="#666666"
     borderopacity="1"
     objecttolerance="10"
     gridtolerance="10"
     guidetolerance="10"
     inkscape:pageopacity="0"
     inkscape:pageshadow="2"
     inkscape:window-width="1920"
     inkscape:window-height="1028"
     id="namedview12"
     showgrid="false"
     inkscape:zoom="13.376104"
     inkscape:cx="18.204106"
     inkscape:cy="27.100568"
     inkscape:window-x="0"
     inkscape:window-y="24"
     inkscape:window-maximized="1"
     inkscape:current-layer="g8"
     inkscape:pagecheckerboard="0" />
  <g
     fill-rule="evenodd"
     transform="translate(0 -1004.3622)"
     id="g8">
    <path
       d="m196.27499 575.17534c-121.139071 0-219.342946 98.20391-219.342946 219.34297 0 93.87058 58.966816 173.96863 141.880506 205.27237-78.725001-33.29789-133.967323-111.25281-133.967323-202.10711 0-121.13905 98.203875-219.34295 219.342953-219.34295 27.26436 0 53.36748 4.97977 77.45002 14.07056-26.23883-11.09647-55.08247-17.23584-85.36321-17.23584z"
       fill="#ffffff"
       fill-opacity=".158416"
       id="path2" />
    <path
       id="circle4"
       style="fill:#81a1c1;fill-opacity:1"
       d="m 47.129015,1029.2708 a 23.14761,23.14761 0 0 1 -23.14761,23.1476 23.14761,23.14761 0 0 1 -23.14760945,-23.1476 23.14761,23.14761 0 0 1 23.14760945,-23.1477 23.14761,23.14761 0 0 1 23.14761,23.1477 z" />
    <path
       id="path6"
       style="fill:#a3be8c;fill-opacity:1"
       d="M 23.431641 1.6386719 C 29.393073 1.6461719 34.585938 6.8383875 34.585938 13.242188 C 34.585937 19.646088 29.394097 24.837891 22.990234 24.837891 L 23.533203 24.78125 C 17.129361 24.78125 11.9375 29.973153 11.9375 36.376953 C 11.9375 42.780853 17.127968 47.970687 23.703125 48.054688 C 36.717334 48.138988 47.128906 37.729619 47.128906 24.886719 C 47.128906 12.043819 36.716967 1.6286719 23.431641 1.6386719 z "
       transform="translate(0,1004.3622)" />
  </g>
</svg>
