<?xml version="1.0" encoding="UTF-8" standalone="no"?>
<svg
   height="48"
   width="48"
   version="1.1"
   id="svg6"
   sodipodi:docname="mine.svg"
   inkscape:version="1.1.2 (0a00cf5339, 2022-02-04)"
   xmlns:inkscape="http://www.inkscape.org/namespaces/inkscape"
   xmlns:sodipodi="http://sodipodi.sourceforge.net/DTD/sodipodi-0.dtd"
   xmlns="http://www.w3.org/2000/svg"
   xmlns:svg="http://www.w3.org/2000/svg">
  <defs
     id="defs10" />
  <sodipodi:namedview
     id="namedview8"
     pagecolor="#ffffff"
     bordercolor="#666666"
     borderopacity="1.0"
     inkscape:pageshadow="2"
     inkscape:pageopacity="0.0"
     inkscape:pagecheckerboard="0"
     showgrid="false"
     inkscape:zoom="16.375"
     inkscape:cx="9.2824427"
     inkscape:cy="25.251908"
     inkscape:window-width="1920"
     inkscape:window-height="1031"
     inkscape:window-x="0"
     inkscape:window-y="0"
     inkscape:window-maximized="1"
     inkscape:current-layer="svg6" />
  <path
     id="circle2"
     transform="matrix(1.72140702696 0 0 1.72140725788 -17.2289093957 -30.06939350282)"
     style="opacity:0.99;fill:#bf616a;fill-opacity:1"
     d="M 37.173613,31.534513 A 13.232998,13.232998 0 0 1 23.940615,44.767511 13.232998,13.232998 0 0 1 10.707617,31.534513 13.232998,13.232998 0 0 1 23.940615,18.301516 13.232998,13.232998 0 0 1 37.173613,31.534513 Z" />
  <path
     d="m22.206309 7.63532-.353874 4.933464a11.842162 11.842162 0 0 0 -4.591152 1.912786l-3.744623-3.247343-2.514144 2.514148 3.238092 3.735367a11.842162 11.842162 0 0 0 -1.896599 4.600405l-4.9404023.353876v3.552649l4.9334663.353876a11.842162 11.842162 0 0 0 1.912783 4.591152l-3.24734 3.744622 2.514144 2.514146 3.735368-3.238093a11.842162 11.842162 0 0 0 4.600407 1.896598l.353874 4.940401h3.552648l.353875-4.933463a11.842162 11.842162 0 0 0 4.591151-1.912786l3.744623 3.247343 2.514151-2.514146-3.238098-3.73537a11.842162 11.842162 0 0 0 1.896598-4.600404l4.940402-.353876v-3.552649l-4.933466-.353876a11.842162 11.842162 0 0 0 -1.912782-4.591151l3.247346-3.744621-2.514151-2.514148-3.735368 3.238093a11.842162 11.842162 0 0 0 -4.600406-1.896598l-.353875-4.940402zm-.71238 6.483122a4.1447567 4.1447567 0 0 1 4.144753 4.144756 4.1447567 4.1447567 0 0 1 -4.144753 4.144757 4.1447567 4.1447567 0 0 1 -4.144753-4.144757 4.1447567 4.1447567 0 0 1 4.144753-4.144756z"
     fill="#ffffff"
     stroke-width="1.184216"
     id="path4" />
</svg>
