<?xml version="1.0" encoding="UTF-8" standalone="no"?>
<svg
   width="64"
   height="64"
   version="1.1"
   viewBox="0 0 16.933 16.933"
   id="svg38"
   sodipodi:docname="mintwelcome.svg"
   inkscape:version="1.1.2 (0a00cf5339, 2022-02-04)"
   xmlns:inkscape="http://www.inkscape.org/namespaces/inkscape"
   xmlns:sodipodi="http://sodipodi.sourceforge.net/DTD/sodipodi-0.dtd"
   xmlns:xlink="http://www.w3.org/1999/xlink"
   xmlns="http://www.w3.org/2000/svg"
   xmlns:svg="http://www.w3.org/2000/svg">
  <sodipodi:namedview
     id="namedview40"
     pagecolor="#505050"
     bordercolor="#eeeeee"
     borderopacity="1"
     inkscape:pageshadow="0"
     inkscape:pageopacity="0"
     inkscape:pagecheckerboard="0"
     showgrid="false"
     inkscape:zoom="11.046875"
     inkscape:cx="31.954738"
     inkscape:cy="31.954738"
     inkscape:window-width="2560"
     inkscape:window-height="1365"
     inkscape:window-x="0"
     inkscape:window-y="0"
     inkscape:window-maximized="1"
     inkscape:current-layer="svg38" />
  <defs
     id="defs20">
    <filter
       id="filter1178"
       x="-0.047999482"
       y="-0.047999482"
       width="1.095999"
       height="1.095999"
       color-interpolation-filters="sRGB">
      <feGaussianBlur
         stdDeviation="0.30691668"
         id="feGaussianBlur2" />
    </filter>
    <linearGradient
       id="linearGradient862"
       x1="8.3549995"
       x2="8.3549995"
       y1="16.007"
       y2="0.79374999"
       gradientUnits="userSpaceOnUse"
       spreadMethod="pad">
      <stop
         stop-color="#a3be8c"
         offset="0"
         id="stop5" />
      <stop
         stop-color="#8fbcbb"
         offset="1"
         id="stop7" />
    </linearGradient>
    <linearGradient
       id="linearGradient832"
       x1="380.38"
       x2="403.14"
       y1="368.15"
       y2="368.87"
       gradientUnits="userSpaceOnUse"
       xlink:href="#linearGradient830" />
    <linearGradient
       id="linearGradient830">
      <stop
         stop-color="#d8dee9"
         offset="0"
         id="stop11" />
      <stop
         stop-color="#eceff4"
         offset="1"
         id="stop13" />
    </linearGradient>
    <linearGradient
       id="linearGradient861"
       x1="196.84"
       x2="193.15"
       y1="31.419"
       y2="383.4"
       gradientUnits="userSpaceOnUse"
       xlink:href="#linearGradient830" />
    <filter
       id="filter862"
       x="-0.072045074"
       y="-0.077587003"
       width="1.1440901"
       height="1.155174"
       color-interpolation-filters="sRGB">
      <feGaussianBlur
         stdDeviation="6.7242068"
         id="feGaussianBlur17" />
    </filter>
  </defs>
  <g
     stroke-linecap="round"
     stroke-linejoin="round"
     id="g28">
    <rect
       transform="matrix(0.99138,0,0,1,0.072989,0.0019055)"
       x="0.79374999"
       y="0.90544999"
       width="15.346"
       height="15.346"
       rx="3.0525999"
       ry="3.0525999"
       fill="#000000"
       filter="url(#filter1178)"
       opacity="0.15"
       stroke-width="1.2489"
       style="mix-blend-mode:normal"
       id="rect22" />
    <rect
       x="0.92603999"
       y="0.92603999"
       width="15.081"
       height="15.081"
       rx="3"
       ry="3"
       fill="url(#linearGradient862)"
       stroke-width="1.2274"
       id="rect24"
       style="fill:#6f917c;fill-opacity:1" />
    <rect
       x="0.01215"
       y="0.0060174"
       width="16.924"
       height="16.927"
       fill="none"
       opacity="0.15"
       stroke-width="1.052"
       id="rect26" />
  </g>
  <g
     transform="matrix(0.048056,0,0,0.049724,-0.760252,-1.876092)"
     fill="url(#linearGradient832)"
     stroke="#ffffff"
     id="g36"
     style="fill:#d8dee9;fill-opacity:1">
    <path
       d="m 80,104 v 144 c 0,35.157 28.843,64 64,64 h 96 c 35.157,0 64,-28.843 64,-64 v -80 c 0,-26.32 -21.68,-48 -48,-48 -12.296,0 -23.467,4.8602 -32,12.586 C 215.4668,124.8603 204.296,120 192,120 c -26.32,0 -48,21.68 -48,48 v 80 h 32 v -80 c 0,-9.0261 6.9739,-16 16,-16 9.0261,0 16,6.9739 16,16 v 80 h 32 v -80 c 0,-9.0261 6.9739,-16 16,-16 9.0261,0 16,6.9739 16,16 v 80 c 0,17.863 -14.137,32 -32,32 h -96 c -17.863,0 -32,-14.137 -32,-32 V 104 Z"
       color="#000000"
       color-rendering="auto"
       dominant-baseline="auto"
       fill="url(#linearGradient861)"
       image-rendering="auto"
       shape-rendering="auto"
       solid-color="#000000"
       stroke="none"
       style="font-variant-ligatures:normal;font-variant-position:normal;font-variant-caps:normal;font-variant-numeric:normal;font-variant-alternates:normal;font-feature-settings:normal;text-indent:0;text-decoration-line:none;text-decoration-style:solid;text-decoration-color:#000000;text-transform:none;text-orientation:mixed;white-space:normal;shape-padding:0;isolation:auto;mix-blend-mode:normal;fill:#d8dee9;fill-opacity:1"
       id="path34" />
  </g>
</svg>
