<?xml version="1.0" encoding="UTF-8" standalone="no"?>
<svg
   height="48"
   width="48"
   version="1.1"
   id="svg6"
   sodipodi:docname="mockoon.svg"
   inkscape:version="1.1.2 (0a00cf5339, 2022-02-04)"
   xmlns:inkscape="http://www.inkscape.org/namespaces/inkscape"
   xmlns:sodipodi="http://sodipodi.sourceforge.net/DTD/sodipodi-0.dtd"
   xmlns="http://www.w3.org/2000/svg"
   xmlns:svg="http://www.w3.org/2000/svg"
   xmlns:rdf="http://www.w3.org/1999/02/22-rdf-syntax-ns#"
   xmlns:cc="http://creativecommons.org/ns#"
   xmlns:dc="http://purl.org/dc/elements/1.1/">
  <metadata
     id="metadata12">
    <rdf:RDF>
      <cc:Work
         rdf:about="">
        <dc:format>image/svg+xml</dc:format>
        <dc:type
           rdf:resource="http://purl.org/dc/dcmitype/StillImage" />
      </cc:Work>
    </rdf:RDF>
  </metadata>
  <defs
     id="defs10">
    <linearGradient
       gradientUnits="userSpaceOnUse"
       gradientTransform="matrix(0.0920001,0,0,0.09064843,-21.193131,1.5846311)"
       y2="269.48999"
       y1="235.14999"
       x2="657.65002"
       x1="319.20999"
       id="a-12">
      <stop
         id="stop1076"
         offset="0"
         stop-color="#e54c18" />
      <stop
         id="stop1078"
         offset="1"
         stop-color="#fec350" />
    </linearGradient>
    <linearGradient
       id="linearGradient946"
       x1="31.833"
       x2="32.167"
       y1="51.558998"
       y2="11.098"
       gradientUnits="userSpaceOnUse"
       gradientTransform="matrix(0.83258662,0,0,0.83258662,-4.004011,0.8380211)">
      <stop
         stop-color="#f9f9f9"
         offset="0"
         id="stop5" />
      <stop
         stop-color="#f0fee6"
         offset="1"
         id="stop7-3" />
    </linearGradient>
    <linearGradient
       gradientUnits="userSpaceOnUse"
       y2="12.7"
       y1="4.2333002"
       x2="7.9373002"
       x1="7.9373002"
       id="linearGradient1166">
      <stop
         id="stop13"
         offset="0"
         stop-color="#ffffff" />
      <stop
         id="stop15"
         offset="1"
         stop-color="#b8ffe1"
         style="stop-color:#d6f2dc;stop-opacity:1" />
    </linearGradient>
    <filter
       id="c-5"
       width="1.1008318"
       height="1.3361104"
       x="-0.050415914"
       y="-0.16805519"
       color-interpolation-filters="sRGB">
      <feGaussianBlur
         stdDeviation=".548"
         id="feGaussianBlur2" />
    </filter>
  </defs>
  <sodipodi:namedview
     pagecolor="#ffffff"
     bordercolor="#666666"
     borderopacity="1"
     objecttolerance="10"
     gridtolerance="10"
     guidetolerance="10"
     inkscape:pageopacity="0"
     inkscape:pageshadow="2"
     inkscape:window-width="1920"
     inkscape:window-height="1002"
     id="namedview8"
     showgrid="true"
     inkscape:zoom="3.2777345"
     inkscape:cx="-51.407458"
     inkscape:cy="-43.627695"
     inkscape:window-x="0"
     inkscape:window-y="0"
     inkscape:window-maximized="1"
     inkscape:current-layer="svg6"
     inkscape:document-rotation="0"
     inkscape:pagecheckerboard="0">
    <inkscape:grid
       type="xygrid"
       id="grid837" />
  </sodipodi:namedview>
  <circle
     cx="23.940615"
     cy="31.534513"
     opacity=".99"
     r="13.232998"
     transform="matrix(1.75830584759 0 0 1.75830608345 -18.15909274367 -30.97874795549)"
     id="circle2"
     style="fill:#4c566a;fill-opacity:1" />
  <ellipse
     cx="23.935829"
     cy="24.468578"
     opacity="0.99"
     id="circle858"
     style="fill:#eceff4;fill-opacity:1;stroke-width:1.50099;opacity:1"
     rx="19.862556"
     ry="19.862558" />
  <path
     fill="#424957"
     d="m 14.645175,17.202683 c -1.518728,0 -3.163619,1.26545 -5.6964575,3.797317 -1.756489,1.756489 -3.797312,3.797317 -3.797312,5.062761 0,1.265451 1.838005,2.75798 3.797312,4.114651 1.9602815,1.355695 3.9244425,2.214533 5.5703035,2.214533 1.645858,0 2.786118,-1.077185 5.505281,-3.797316 2.532836,-2.531868 2.848228,-3.797312 2.848228,-4.430039 0,-1.265446 -1.265449,-2.848229 -3.163621,-4.430039 -1.628392,-1.356668 -3.545002,-2.531868 -5.063734,-2.531868 z m 18.986576,0 c -1.518733,0 -3.435344,1.174228 -5.062763,2.531868 -1.899144,1.58181 -3.164591,3.163621 -3.164591,4.430039 0,0.632727 0.316349,1.898171 2.847257,4.430039 2.720131,2.720131 3.860395,3.797316 5.506252,3.797316 1.64586,0 3.610022,-0.858838 5.5703,-2.215505 1.959311,-1.355699 3.797317,-2.847261 3.797317,-4.113679 0,-1.266416 -2.041796,-3.307244 -3.797317,-5.062761 -2.532834,-2.531867 -4.177724,-3.797317 -5.696455,-3.797317 z"
     id="path21"
     style="stroke-width:0.970435;fill:#4c566a;fill-opacity:0.99215686" />
  <path
     d="m 24.174,29.391 a 3.913,3.913 0 0 0 -3.913,3.913 3.913,3.913 0 0 0 3.913,3.913 3.913,3.913 0 0 0 3.913,-3.913 3.913,3.913 0 0 0 -3.913,-3.913 z m 18.261,0 a 3.913,3.913 0 0 0 -3.913,3.913 3.913,3.913 0 0 0 3.913,3.913 3.913,3.913 0 0 0 3.913,-3.913 3.913,3.913 0 0 0 -3.913,-3.913 z M 24.174,32 a 1.304,1.304 0 0 1 1.304,1.304 1.304,1.304 0 0 1 -1.304,1.304 A 1.304,1.304 0 0 1 22.87,33.304 1.304,1.304 0 0 1 24.174,32 Z m 18.261,0 a 1.304,1.304 0 0 1 1.304,1.304 1.304,1.304 0 0 1 -1.304,1.304 A 1.304,1.304 0 0 1 41.131,33.304 1.304,1.304 0 0 1 42.435,32 Z"
     filter="url(#c)"
     opacity="0.1"
     id="path23"
     style="filter:url(#c-5)"
     transform="matrix(0.97043569,0,0,0.97043569,-6.9149935,-6.2566281)" />
  <path
     fill="#f0f0f0"
     d="m 15.27887,21 a 3.7973151,3.7973151 0 0 0 -3.797314,3.797317 3.7973151,3.7973151 0 0 0 3.797314,3.797312 3.7973151,3.7973151 0 0 0 3.797317,-3.797312 A 3.7973151,3.7973151 0 0 0 15.27887,21 Z M 33,21 A 3.7973151,3.7973151 0 0 0 29.202683,24.797317 3.7973151,3.7973151 0 0 0 33,28.594629 3.7973151,3.7973151 0 0 0 36.797311,24.797317 3.7973151,3.7973151 0 0 0 33,21 Z m -17.72113,2.531867 a 1.2654481,1.2654481 0 0 1 1.26545,1.26545 1.2654481,1.2654481 0 0 1 -1.26545,1.265444 1.2654481,1.2654481 0 0 1 -1.265446,-1.265444 1.2654481,1.2654481 0 0 1 1.265446,-1.26545 z m 17.72113,0 a 1.2654481,1.2654481 0 0 1 1.265444,1.26545 A 1.2654481,1.2654481 0 0 1 33,26.062761 1.2654481,1.2654481 0 0 1 31.734551,24.797317 1.2654481,1.2654481 0 0 1 33,23.531867 Z"
     id="path25"
     style="stroke-width:0.970435" />
</svg>
