<?xml version="1.0" encoding="UTF-8" standalone="no"?>
<svg
   height="48"
   width="48"
   version="1.1"
   id="svg6"
   sodipodi:docname="monodevelopment.svg"
   inkscape:version="1.1.2 (0a00cf5339, 2022-02-04)"
   xmlns:inkscape="http://www.inkscape.org/namespaces/inkscape"
   xmlns:sodipodi="http://sodipodi.sourceforge.net/DTD/sodipodi-0.dtd"
   xmlns="http://www.w3.org/2000/svg"
   xmlns:svg="http://www.w3.org/2000/svg">
  <defs
     id="defs10" />
  <sodipodi:namedview
     id="namedview8"
     pagecolor="#ffffff"
     bordercolor="#666666"
     borderopacity="1.0"
     inkscape:pageshadow="2"
     inkscape:pageopacity="0.0"
     inkscape:pagecheckerboard="0"
     showgrid="false"
     inkscape:zoom="8.1875"
     inkscape:cx="28.21374"
     inkscape:cy="38.900763"
     inkscape:window-width="1920"
     inkscape:window-height="1031"
     inkscape:window-x="0"
     inkscape:window-y="0"
     inkscape:window-maximized="1"
     inkscape:current-layer="svg6" />
  <path
     id="path2"
     style="stroke-width:1.15035;fill:#a3be8c;fill-opacity:1"
     d="M 23.804688 1.3046875 A 22.696228 22.696232 0 0 0 1.1074219 24 A 22.696228 22.696232 0 0 0 23.804688 46.695312 A 22.696228 22.696232 0 0 0 46.5 24 A 22.696228 22.696232 0 0 0 23.804688 1.3046875 z " />
  <path
     d="m16.779297 11.707031c-.431579.001486-.820435.017808-1.154297.052735-1.156019.117792-2.338965.401132-2.712891.636718-.09999.08081.642.26246 1.919922.498047 1.15054.213671 1.99046.40209 1.867188.433594-.139709.02192-1.939149-.178224-4.029297-.445313-3.6598141-.471173-3.793457-.48168-4.060547-.246093-.535549.482132-1.2934551 1.794609-1.4550781 2.5-.149296.680736-.1410484.760848.1972656 1.451172.578009 1.182043 1.6605707 2.044419 4.1054685 3.28125 1.156019.601294 2.075842 1.093877 2.042969 1.130859-.03698.0315-1.026382-.337192-2.193359-.826172l-2.134766-.882812-3.1308594.876953c-1.6884602.470289-3.0863218.84878-3.1992187.861328a21.196228 21.196231 0 0 0 -.234375 2.970703 21.196228 21.196231 0 0 0 5.2089843 13.876953c2.003459-2.438072 4.5504248-5.457732 4.6406248-5.4375.08081.02192 3.14878 1.320757 6.808594 2.894531 6.258117 2.687334 6.676065 2.845721 6.841797 2.621094.257502-.347902 1.13782-2.187909 1.603516-3.353516l.396484-.99414-.664063-.363281c-.945087-.513634-2.330251-1.665964-3.197265-2.65625-.791681-.903996-2.220703-3.081278-2.220703-3.386719 0-.102726.455623.358554 1.011718 1.021484 1.557338 1.853192 5.144511 4.765793 5.369141 4.353516.26709-.491719.444553-1.939114.433594-3.621094-.01095-2.050427-.277616-3.646564-.984375-5.847656l-.396485-1.234375-1.947265-.611328c-1.075207-.342422-2.151512-.673094-2.392578-.753907-.8451-.268459-.312015-.25344.917968.027344 1.476527.331466 2.978387.602909 3.904297.720703.824555.101357.999647-.058896 1.085938-.96289.112314-1.162872-.632399-4.373263-1.392578-5.964844-.299962-.636906-.437565-.779379-1.042969-1.054687-1.754573-.819761-6.791445-1.576808-9.8125-1.566407z"
     fill="#ffffff"
     stroke-width="1.369691"
     id="path4" />
</svg>
