<?xml version="1.0" encoding="UTF-8" standalone="no"?>
<svg
   xmlns:dc="http://purl.org/dc/elements/1.1/"
   xmlns:cc="http://creativecommons.org/ns#"
   xmlns:rdf="http://www.w3.org/1999/02/22-rdf-syntax-ns#"
   xmlns:svg="http://www.w3.org/2000/svg"
   xmlns="http://www.w3.org/2000/svg"
   xmlns:sodipodi="http://sodipodi.sourceforge.net/DTD/sodipodi-0.dtd"
   xmlns:inkscape="http://www.inkscape.org/namespaces/inkscape"
   height="48"
   width="48"
   version="1.1"
   id="svg8"
   sodipodi:docname="thinderbird-icon.svg"
   inkscape:version="1.0.2 (e86c870879, 2021-01-15)">
  <metadata
     id="metadata14">
    <rdf:RDF>
      <cc:Work
         rdf:about="">
        <dc:format>image/svg+xml</dc:format>
        <dc:type
           rdf:resource="http://purl.org/dc/dcmitype/StillImage" />
        <dc:title></dc:title>
      </cc:Work>
    </rdf:RDF>
  </metadata>
  <defs
     id="defs12" />
  <sodipodi:namedview
     pagecolor="#ffffff"
     bordercolor="#666666"
     borderopacity="1"
     objecttolerance="10"
     gridtolerance="10"
     guidetolerance="10"
     inkscape:pageopacity="0"
     inkscape:pageshadow="2"
     inkscape:window-width="1920"
     inkscape:window-height="1031"
     id="namedview10"
     showgrid="false"
     inkscape:zoom="2.3645834"
     inkscape:cx="21.708389"
     inkscape:cy="20.97443"
     inkscape:window-x="0"
     inkscape:window-y="24"
     inkscape:window-maximized="1"
     inkscape:current-layer="svg8"
     inkscape:document-rotation="0" />
  <path
     d="m44.322082 27.405077a19.729762 19.729765 0 0 1 -19.729762 19.729765 19.729762 19.729765 0 0 1 -19.7297621-19.729765 19.729762 19.729765 0 0 1 19.7297621-19.7297632 19.729762 19.729765 0 0 1 19.729762 19.7297632z"
     fill="#89a02c"
     opacity=".99"
     transform="matrix(1.1503549 0 0 1.1503549 -4.486125 -7.525565)"
     id="path2"
     style="fill:#82a5cd;fill-opacity:1" />
  <path
     d="M 44.508129,24 A 20.704357,20.704361 0 0 1 23.803772,44.70436 20.704357,20.704361 0 0 1 3.099413,24 20.704357,20.704361 0 0 1 23.803772,3.2956408 20.704357,20.704361 0 0 1 44.508129,24 Z"
     fill="#89a02c"
     opacity="0.99"
     id="path880"
     style="fill:#ffffff;fill-opacity:1;stroke-width:1.0494" />
  <path
     id="rect1065"
     style="fill:#e66865;fill-opacity:1;stroke-width:0.29899"
     d="M 28.880859 1.8789062 L 19.390625 19.330078 L 22.285156 21.560547 L 21.822266 21.572266 L 21.494141 24.027344 L 20.222656 21.947266 L 20.291016 21.822266 L 20.015625 21.607422 L 10.933594 6.765625 L 7.734375 8.0839844 L 5.8164062 11.048828 L 12.603516 22.142578 L 4.8242188 36.447266 A 22.696228 22.696232 0 0 0 5.2285156 37.041016 L 10.011719 40.722656 L 17.412109 27.119141 L 28.375 45.037109 L 34.552734 42.490234 L 25.732422 28.074219 L 45.050781 27.648438 L 45.134766 21.023438 L 25.521484 21.478516 L 34.130859 5.6484375 L 29.402344 2.0058594 A 22.696228 22.696232 0 0 0 28.880859 1.8789062 z " />
  <rect
     transform="matrix(0.38121582,0.92448607,-0.85300099,0.52190929,0,0)"
     y="-33.947304"
     x="28.866119"
     height="20.768768"
     width="6.6103535"
     id="rect1067"
     style="fill:#69d0ff;fill-opacity:1;stroke-width:0.30087" />
  <rect
     transform="matrix(-0.61002051,0.79238562,-0.8784872,-0.47776589,0,0)"
     y="-55.021343"
     x="8.9049406"
     height="20.946804"
     width="6.6284051"
     id="rect1071"
     style="fill:#69d0ff;fill-opacity:1;stroke-width:0.30087" />
  <rect
     transform="matrix(-0.99123633,-0.13210045,-0.0254862,-0.99967517,0,0)"
     y="-42.755432"
     x="-21.290707"
     height="21.51623"
     width="6.6831264"
     id="rect1075"
     style="fill:#69d0ff;fill-opacity:1;stroke-width:0.30087" />
  <path
     id="rect1079"
     style="fill:#69d0ff;fill-opacity:1;stroke-width:0.298991"
     d="M 16.574219 2.4863281 A 22.696228 22.696232 0 0 0 16.203125 2.6152344 L 16.708984 22.466797 L 22.990234 23.304688 L 22.480469 3.2734375 L 16.574219 2.4863281 z " />
  <path
     style="fill:#69d0ff;fill-opacity:1;stroke-width:0.29899"
     d="m 1.2066533,23.185046 2.7046944,-5.981687 18.9017293,10.27972 -4.076841,5.295612 z"
     id="rect1085"
     inkscape:connector-curvature="0"
     sodipodi:nodetypes="ccccc" />
  <path
     id="path1160"
     style="fill:#a7bad0;fill-opacity:1;stroke-width:1.15035"
     d="M 23.804688 1.3046875 A 22.696228 22.696232 0 0 0 1.1074219 24 A 22.696228 22.696232 0 0 0 23.804688 46.695312 A 22.696228 22.696232 0 0 0 46.5 24 A 22.696228 22.696232 0 0 0 23.804688 1.3046875 z M 23.804688 3.2949219 A 20.704357 20.704361 0 0 1 44.507812 24 A 20.704357 20.704361 0 0 1 23.804688 44.705078 A 20.704357 20.704361 0 0 1 3.0996094 24 A 20.704357 20.704361 0 0 1 23.804688 3.2949219 z " />
  <path
     d="M 42.632051,23.999999 A 18.82834,18.828343 0 0 1 23.803712,42.828342 18.82834,18.828343 0 0 1 4.9753705,23.999999 18.82834,18.828343 0 0 1 23.803712,5.1716575 18.82834,18.828343 0 0 1 42.632051,23.999999 Z"
     fill="#89a02c"
     opacity="0.99"
     id="path1173"
     style="fill:#ffffff;fill-opacity:1;stroke-width:0.954314" />
  <path
     d="m 31.75566,8.8897848 c -3.228622,0.1748406 -4.460628,2.4523872 -6.105191,6.1051922 v -1.526299 c -4.422223,3.205703 -3.592284,5.211007 -4.578893,7.63149 v -1.526299 c -2.696454,4.564794 -2.090775,6.15537 -3.052595,9.157787 L 28.703065,13.468678 19.545278,28.731656 c 3.439015,-0.913961 6.182197,-1.879256 6.105191,-3.052595 h -1.526298 c 1.844906,-0.847187 3.82189,-1.623759 4.578894,-3.052596 h -1.526299 c 2.535271,-2.002934 3.105092,-2.707074 4.578894,-6.105191 h -1.526298 c 1.95892,-1.935701 1.772126,-4.771216 1.526298,-7.6314892 z M 19.545278,28.731656 h -1.526297 c -2.141623,3.18007 -2.170932,4.594301 -3.052596,7.631489 v 1.526298 c 0.850776,-3.143362 2.681605,-6.584046 4.578893,-9.157787 z"
     fill="#ffffff"
     id="path19"
     style="fill:#69d0ff;stroke-width:1.52629;fill-opacity:1" />
</svg>
