<?xml version="1.0" encoding="UTF-8" standalone="no"?>
<svg
   height="48"
   width="48"
   version="1.1"
   id="svg8"
   sodipodi:docname="myrulib.svg"
   inkscape:version="1.1.2 (0a00cf5339, 2022-02-04)"
   xmlns:inkscape="http://www.inkscape.org/namespaces/inkscape"
   xmlns:sodipodi="http://sodipodi.sourceforge.net/DTD/sodipodi-0.dtd"
   xmlns="http://www.w3.org/2000/svg"
   xmlns:svg="http://www.w3.org/2000/svg"
   xmlns:rdf="http://www.w3.org/1999/02/22-rdf-syntax-ns#"
   xmlns:cc="http://creativecommons.org/ns#"
   xmlns:dc="http://purl.org/dc/elements/1.1/">
  <metadata
     id="metadata14">
    <rdf:RDF>
      <cc:Work
         rdf:about="">
        <dc:format>image/svg+xml</dc:format>
        <dc:type
           rdf:resource="http://purl.org/dc/dcmitype/StillImage" />
      </cc:Work>
    </rdf:RDF>
  </metadata>
  <defs
     id="defs12" />
  <sodipodi:namedview
     pagecolor="#ffffff"
     bordercolor="#666666"
     borderopacity="1"
     objecttolerance="10"
     gridtolerance="10"
     guidetolerance="10"
     inkscape:pageopacity="0"
     inkscape:pageshadow="2"
     inkscape:window-width="1920"
     inkscape:window-height="1032"
     id="namedview10"
     showgrid="false"
     inkscape:zoom="6.6880516"
     inkscape:cx="-22.203776"
     inkscape:cy="19.587169"
     inkscape:window-x="0"
     inkscape:window-y="0"
     inkscape:window-maximized="1"
     inkscape:current-layer="svg8"
     inkscape:document-rotation="0"
     inkscape:pagecheckerboard="0" />
  <path
     id="path2"
     style="fill:#e4a895;fill-opacity:1;stroke-width:1.15035"
     d="M 23.804688 1.3046875 A 22.696228 22.696232 0 0 0 1.1074219 24 A 22.696228 22.696232 0 0 0 23.804688 46.695312 A 22.696228 22.696232 0 0 0 46.5 24 A 22.696228 22.696232 0 0 0 23.804688 1.3046875 z " />
  <g
     aria-label="I"
     id="text16"
     style="font-size:14.5521px;letter-spacing:0;word-spacing:0;fill:#d08770;stroke-width:0.363801" />
  <path
     id="path1929"
     style="fill:#d08770;fill-opacity:1;stroke-width:1.03513"
     d="M 23.80459,3.5777924 A 20.423032,20.423035 0 0 0 3.3806247,24.000001 20.423032,20.423035 0 0 0 23.80459,44.422207 20.423032,20.423035 0 0 0 44.226797,24.000001 20.423032,20.423035 0 0 0 23.80459,3.5777924 Z" />
  <path
     id="rect1375"
     style="opacity:1;fill:#322d2d;stroke-width:3.77953;stroke-linejoin:round;paint-order:fill markers stroke;fill-opacity:0.14028777"
     d="M 16.916016 4.828125 A 20.423032 20.423035 0 0 0 3.3808594 24 A 20.423032 20.423035 0 0 0 16.916016 43.171875 L 16.916016 4.828125 z " />
  <path
     id="rect2088"
     style="opacity:1;fill:#e4a895;fill-opacity:1;stroke-width:3.77953;stroke-linejoin:round;paint-order:fill markers stroke"
     d="M 28.863281 4.2539062 L 28.863281 22.097656 L 33.726562 14.802734 L 38.589844 22.097656 L 38.589844 9.9785156 A 20.423032 20.423035 0 0 0 28.863281 4.2539062 z " />
</svg>
