<?xml version="1.0" encoding="UTF-8" standalone="no"?>
<svg
   height="48"
   width="48"
   version="1.1"
   id="svg6"
   sodipodi:docname="nota.svg"
   inkscape:version="1.1.2 (0a00cf5339, 2022-02-04)"
   xmlns:inkscape="http://www.inkscape.org/namespaces/inkscape"
   xmlns:sodipodi="http://sodipodi.sourceforge.net/DTD/sodipodi-0.dtd"
   xmlns="http://www.w3.org/2000/svg"
   xmlns:svg="http://www.w3.org/2000/svg"
   xmlns:rdf="http://www.w3.org/1999/02/22-rdf-syntax-ns#"
   xmlns:cc="http://creativecommons.org/ns#"
   xmlns:dc="http://purl.org/dc/elements/1.1/">
  <metadata
     id="metadata12">
    <rdf:RDF>
      <cc:Work
         rdf:about="">
        <dc:format>image/svg+xml</dc:format>
        <dc:type
           rdf:resource="http://purl.org/dc/dcmitype/StillImage" />
      </cc:Work>
    </rdf:RDF>
  </metadata>
  <defs
     id="defs10">
    <linearGradient
       id="b"
       x1="24"
       x2="24"
       y1="51"
       y2="4"
       gradientTransform="matrix(2.335642,0,0,2.335642,-29.308122,-27.28926)"
       gradientUnits="userSpaceOnUse">
      <stop
         offset="0"
         stop-color="#7f8c8d"
         stop-opacity="0"
         id="stop7-3" />
      <stop
         offset="1"
         stop-color="#7f8c8d"
         id="stop9-6" />
    </linearGradient>
  </defs>
  <sodipodi:namedview
     pagecolor="#ffffff"
     bordercolor="#666666"
     borderopacity="1"
     objecttolerance="10"
     gridtolerance="10"
     guidetolerance="10"
     inkscape:pageopacity="0"
     inkscape:pageshadow="2"
     inkscape:window-width="1920"
     inkscape:window-height="1032"
     id="namedview8"
     showgrid="false"
     inkscape:zoom="6.6880515"
     inkscape:cx="-21.007613"
     inkscape:cy="53.004975"
     inkscape:window-x="0"
     inkscape:window-y="24"
     inkscape:window-maximized="1"
     inkscape:current-layer="svg6"
     inkscape:document-rotation="0"
     inkscape:pagecheckerboard="0" />
  <path
     id="circle2"
     style="opacity:0.99;fill:#b48ead;fill-opacity:1"
     transform="matrix(1.75830584759 0 0 1.75830608345 -18.15909274367 -30.97874795549)"
     d="M 37.173613,31.534513 A 13.232998,13.232998 0 0 1 23.940615,44.767511 13.232998,13.232998 0 0 1 10.707617,31.534513 13.232998,13.232998 0 0 1 23.940615,18.301516 13.232998,13.232998 0 0 1 37.173613,31.534513 Z" />
  <path
     d="m 15.539983,13.891511 v 1.747569 h -3.495138 v 0.873784 h 3.495138 v 5.242707 h -3.495138 v 0.873786 h 3.495138 v 5.243463 h -3.495138 v 0.873784 h 3.495138 v 5.242711 h -3.495138 v 0.873783 h 23.592941 v -0.873783 h -2.622109 v -5.243464 h 2.621355 v -0.873786 h -2.621355 v -5.243463 h 2.621355 v -0.873784 h -2.621355 v -5.24271 h 2.621355 V 15.63908 H 33.015677 V 13.891511 H 30.394322 V 15.63908 H 19.450131 l -1.288794,-1.747569 z m 4.553036,2.621353 h 10.301303 v 5.242707 h -6.43869 z m -1.931682,2.621354 2.038833,2.621353 h -2.038833 z m 0,3.495139 h 2.718694 l 4.077662,5.243463 h -6.796356 z m 6.439445,0 h 5.794296 v 5.243463 h -1.931685 z m -6.439445,6.117247 h 7.476216 l 4.077662,5.242711 H 18.161337 Z m 10.944947,0 h 1.288794 v 1.747572 z"
     style="font-variant-ligatures:normal;font-variant-position:normal;font-variant-caps:normal;font-variant-numeric:normal;font-variant-alternates:normal;font-feature-settings:normal;text-indent:0;text-decoration-line:none;text-decoration-style:solid;text-decoration-color:#000000;text-transform:none;text-orientation:mixed;white-space:normal;shape-padding:0;isolation:auto;mix-blend-mode:normal;fill:#fcfcfd;fill-opacity:1;stroke-width:0.754566;paint-order:normal"
     id="path23" />
  <path
     d="m 9.423148,9.5220948 c -0.484082,0 -0.8737966,0.389714 -0.8737966,0.8737972 v 1.74759 c 0,0.484082 0.3897146,0.873797 0.8737966,0.873797 h 1.747591 c 0.484082,0 0.873798,-0.389715 0.873798,-0.873797 v -1.74759 c 0,-0.4840832 -0.389716,-0.8737972 -0.873798,-0.8737972 z m 0,0.8737972 h 1.747591 v 1.74759 H 9.423148 Z M 37.384615,9.5220948 c -0.48408,0 -0.873793,0.389714 -0.873793,0.8737972 v 1.74759 c 0,0.484082 0.389713,0.873797 0.873793,0.873797 h 1.747594 c 0.484085,0 0.873797,-0.389715 0.873797,-0.873797 v -1.74759 c 0,-0.4840832 -0.389712,-0.8737972 -0.873797,-0.8737972 z m 0,0.8737972 h 1.747594 v 1.74759 H 37.384615 Z M 9.423148,35.735972 c -0.484082,0 -0.8737966,0.389716 -0.8737966,0.873798 v 1.747591 c 0,0.484082 0.3897146,0.873797 0.8737966,0.873797 h 1.747591 c 0.484082,0 0.873798,-0.389715 0.873798,-0.873797 V 36.60977 c 0,-0.484082 -0.389716,-0.873798 -0.873798,-0.873798 z m 0,0.873798 h 1.747591 v 1.747591 H 9.423148 Z m 27.961467,-0.873798 c -0.48408,0 -0.873793,0.389716 -0.873793,0.873798 v 1.747591 c 0,0.484082 0.389713,0.873797 0.873793,0.873797 h 1.747594 c 0.484085,0 0.873797,-0.389715 0.873797,-0.873797 V 36.60977 c 0,-0.484082 -0.389712,-0.873798 -0.873797,-0.873798 z m 0,0.873798 h 1.747594 v 1.747591 h -1.747594 z"
     style="fill:#fcfcfd;fill-opacity:1;stroke-width:0.873796;paint-order:normal"
     id="path27" />
  <path
     d="m 9.423148,15.638667 v 3.495184 h 1.747592 v -3.495184 z m 0,6.990367 v 3.495184 h 1.747592 v -3.495184 z m 0,6.990367 v 3.495184 h 1.747592 v -3.495184 z"
     opacity="0.5"
     style="font-variant-ligatures:normal;font-variant-position:normal;font-variant-caps:normal;font-variant-numeric:normal;font-variant-alternates:normal;font-feature-settings:normal;text-indent:0;text-decoration-line:none;text-decoration-style:solid;text-decoration-color:#000000;text-transform:none;text-orientation:mixed;white-space:normal;shape-padding:0;isolation:auto;mix-blend-mode:normal;fill:#fcfcfd;fill-opacity:1;stroke-width:0.873796;paint-order:normal"
     id="path29" />
  <path
     d="m 33.88951,36.60902 h -3.495184 v 1.747592 h 3.495184 z m -7.864163,0 h -3.495184 v 1.747592 h 3.495184 z m -7.864164,0 h -3.495184 v 1.747592 h 3.495184 z"
     opacity="0.5"
     style="font-variant-ligatures:normal;font-variant-position:normal;font-variant-caps:normal;font-variant-numeric:normal;font-variant-alternates:normal;font-feature-settings:normal;text-indent:0;text-decoration-line:none;text-decoration-style:solid;text-decoration-color:#000000;text-transform:none;text-orientation:mixed;white-space:normal;shape-padding:0;isolation:auto;mix-blend-mode:normal;fill:#fcfcfd;fill-opacity:1;stroke-width:0.873796;paint-order:normal"
     id="path31" />
  <path
     d="m 33.888761,10.395142 h -3.495184 v 1.747592 h 3.495184 z m -7.864163,0 h -3.495184 v 1.747592 h 3.495184 z m -7.864164,0 H 14.66525 v 1.747592 h 3.495184 z"
     opacity="0.5"
     style="font-variant-ligatures:normal;font-variant-position:normal;font-variant-caps:normal;font-variant-numeric:normal;font-variant-alternates:normal;font-feature-settings:normal;text-indent:0;text-decoration-line:none;text-decoration-style:solid;text-decoration-color:#000000;text-transform:none;text-orientation:mixed;white-space:normal;shape-padding:0;isolation:auto;mix-blend-mode:normal;fill:#fcfcfd;fill-opacity:1;stroke-width:0.873796;paint-order:normal"
     id="path33" />
  <path
     d="m 37.38432,15.638667 v 3.495184 h 1.747591 v -3.495184 z m 0,6.990367 v 3.495184 h 1.747591 v -3.495184 z m 0,6.990367 v 3.495184 h 1.747591 v -3.495184 z"
     opacity="0.5"
     style="font-variant-ligatures:normal;font-variant-position:normal;font-variant-caps:normal;font-variant-numeric:normal;font-variant-alternates:normal;font-feature-settings:normal;text-indent:0;text-decoration-line:none;text-decoration-style:solid;text-decoration-color:#000000;text-transform:none;text-orientation:mixed;white-space:normal;shape-padding:0;isolation:auto;mix-blend-mode:normal;fill:#fcfcfd;fill-opacity:1;stroke-width:0.873796;paint-order:normal"
     id="path35" />
</svg>
