<?xml version="1.0" encoding="UTF-8" standalone="no"?>
<svg
   height="48"
   width="48"
   version="1.1"
   id="svg6"
   sodipodi:docname="nuvalaplayer.svg"
   inkscape:version="1.1.2 (0a00cf5339, 2022-02-04)"
   xmlns:inkscape="http://www.inkscape.org/namespaces/inkscape"
   xmlns:sodipodi="http://sodipodi.sourceforge.net/DTD/sodipodi-0.dtd"
   xmlns="http://www.w3.org/2000/svg"
   xmlns:svg="http://www.w3.org/2000/svg"
   xmlns:rdf="http://www.w3.org/1999/02/22-rdf-syntax-ns#"
   xmlns:cc="http://creativecommons.org/ns#"
   xmlns:dc="http://purl.org/dc/elements/1.1/">
  <metadata
     id="metadata12">
    <rdf:RDF>
      <cc:Work
         rdf:about="">
        <dc:format>image/svg+xml</dc:format>
        <dc:type
           rdf:resource="http://purl.org/dc/dcmitype/StillImage" />
      </cc:Work>
    </rdf:RDF>
  </metadata>
  <defs
     id="defs10">
    <linearGradient
       gradientUnits="userSpaceOnUse"
       gradientTransform="matrix(0.0920001,0,0,0.09064843,-21.193131,1.5846311)"
       y2="269.48999"
       y1="235.14999"
       x2="657.65002"
       x1="319.20999"
       id="a-12">
      <stop
         id="stop1076"
         offset="0"
         stop-color="#e54c18" />
      <stop
         id="stop1078"
         offset="1"
         stop-color="#fec350" />
    </linearGradient>
  </defs>
  <sodipodi:namedview
     pagecolor="#ffffff"
     bordercolor="#666666"
     borderopacity="1"
     objecttolerance="10"
     gridtolerance="10"
     guidetolerance="10"
     inkscape:pageopacity="0"
     inkscape:pageshadow="2"
     inkscape:window-width="1920"
     inkscape:window-height="1022"
     id="namedview8"
     showgrid="true"
     inkscape:zoom="9.2708332"
     inkscape:cx="39.42472"
     inkscape:cy="22.705618"
     inkscape:window-x="0"
     inkscape:window-y="32"
     inkscape:window-maximized="1"
     inkscape:current-layer="svg6"
     inkscape:document-rotation="0"
     inkscape:pagecheckerboard="0">
    <inkscape:grid
       type="xygrid"
       id="grid837" />
  </sodipodi:namedview>
  <path
     id="circle2"
     style="opacity:0.99;fill:#b48ead;fill-opacity:1;stroke-width:1.75831"
     d="M 23.935547 1.2011719 A 23.267658 23.267661 0 0 0 0.66796875 24.46875 A 23.267658 23.267661 0 0 0 23.935547 47.736328 A 23.267658 23.267661 0 0 0 47.203125 24.46875 A 23.267658 23.267661 0 0 0 23.935547 1.2011719 z " />
  <path
     id="circle845"
     style="opacity:0.99;fill:#ffffff;fill-opacity:0.106358;stroke-width:1.33846"
     d="M 41.64761,24.468578 A 17.711781,17.711782 0 0 1 23.935829,42.180361 17.711781,17.711782 0 0 1 6.2240486,24.468578 17.711781,17.711782 0 0 1 23.935829,6.7567959 17.711781,17.711782 0 0 1 41.64761,24.468578 Z" />
  <path
     id="ellipse847"
     style="opacity:0.99;fill:#ffffff;fill-opacity:0.251144;stroke-width:1.44551"
     d="M 43.064251,24.468578 A 19.128422,19.128426 0 0 1 23.935829,43.597004 19.128422,19.128426 0 0 1 4.8074074,24.468578 19.128422,19.128426 0 0 1 23.935829,5.3401527 19.128422,19.128426 0 0 1 43.064251,24.468578 Z" />
  <path
     id="ellipse849"
     style="opacity:0.99;fill:#ffffff;fill-opacity:0.251144;stroke-width:1.52691"
     d="M 44.141451,24.468578 A 20.205622,20.205626 0 0 1 23.935829,44.674204 20.205622,20.205626 0 0 1 3.7302074,24.468578 20.205622,20.205626 0 0 1 23.935829,4.2629528 20.205622,20.205626 0 0 1 44.141451,24.468578 Z" />
  <path
     id="ellipse851"
     style="opacity:0.99;fill:#ffffff;fill-opacity:0.251144;stroke-width:1.59056"
     d="M 44.98378,24.468578 A 21.047951,21.047955 0 0 1 23.935829,45.516533 21.047951,21.047955 0 0 1 2.8878784,24.468578 21.047951,21.047955 0 0 1 23.935829,3.4206238 21.047951,21.047955 0 0 1 44.98378,24.468578 Z" />
  <path
     style="fill:#ffffff;fill-opacity:0.992157;stroke:#b48ead;stroke-width:1.83988;stroke-opacity:0.99215686"
     d="m 26.673164,13.396291 c -3.804678,0 -7.076893,2.217935 -8.519947,5.395538 -0.772173,-0.606119 -1.741875,-0.966621 -2.795073,-0.966621 -2.479665,0 -4.498127,2.001156 -4.561506,4.493074 -2.5595609,0.970709 -4.3797319,3.467068 -4.3797319,6.394235 0,3.457812 2.540668,6.315892 5.8382139,6.766344 v 0.06201 h 23.359279 v -0.0129 c 3.256828,-0.191032 5.840355,-2.920537 5.840355,-6.261648 0,-3.222154 -2.403781,-5.877535 -5.49605,-6.233845 0.0129,-0.196419 0.02138,-0.394849 0.02138,-0.594513 -8e-6,-4.993597 -4.16686,-9.041678 -9.306935,-9.041678 z m -5.855325,8.043051 7.497722,5.218039 -7.497722,5.218038 z"
     id="path922-7"
     inkscape:connector-curvature="0" />
</svg>
