<?xml version="1.0" encoding="UTF-8" standalone="no"?>
<svg
   height="48"
   width="48"
   version="1.1"
   id="svg8"
   sodipodi:docname="bumblebee.svg"
   inkscape:version="1.1.2 (0a00cf5339, 2022-02-04)"
   xmlns:inkscape="http://www.inkscape.org/namespaces/inkscape"
   xmlns:sodipodi="http://sodipodi.sourceforge.net/DTD/sodipodi-0.dtd"
   xmlns="http://www.w3.org/2000/svg"
   xmlns:svg="http://www.w3.org/2000/svg">
  <defs
     id="defs12" />
  <sodipodi:namedview
     id="namedview10"
     pagecolor="#ffffff"
     bordercolor="#666666"
     borderopacity="1.0"
     inkscape:pageshadow="2"
     inkscape:pageopacity="0.0"
     inkscape:pagecheckerboard="0"
     showgrid="false"
     inkscape:zoom="11.667262"
     inkscape:cx="1.1570838"
     inkscape:cy="25.241569"
     inkscape:window-width="1920"
     inkscape:window-height="1029"
     inkscape:window-x="0"
     inkscape:window-y="0"
     inkscape:window-maximized="1"
     inkscape:current-layer="svg8" />
  <path
     id="path2"
     style="stroke-width:1.15035;fill:#434c5e;fill-opacity:1"
     d="M 23.804688 1.3046875 A 22.696228 22.696232 0 0 0 1.1074219 24 A 22.696228 22.696232 0 0 0 23.804688 46.695312 A 22.696228 22.696232 0 0 0 35.3125 43.548828 L 35.3125 4.4511719 A 22.696228 22.696232 0 0 0 23.804688 1.3046875 z " />
  <path
     id="path4"
     style="stroke-width:1.15035;fill:#a3be8c;fill-opacity:1"
     d="M 23.804688 1.3046875 L 23.804688 46.695312 C 36.339469 46.695312 46.5 36.534782 46.5 24 C 46.499999 11.465218 36.339468 1.3046875 23.804688 1.3046875 z " />
  <path
     id="path6"
     d="m 23.832031,16.265625 c -0.128281,8.19e-4 -0.258985,0.0015 -0.388672,0.0059 -0.215481,0.0073 -0.430261,0.02831 -0.644531,0.04492 h -0.002 c -7.299024,0.587833 -13.6132812,6.771485 -13.6132812,6.771485 0,0 3.5738282,10.34446 13.6152342,11.292968 0.482008,0.04652 0.981585,0.08789 1.492188,0.08789 5.297052,0 14.640875,-2.712029 18.65039,-6.068359 -0.588337,-0.596392 -3.455498,-1.957735 -4.154297,-2.517579 -4.216432,3.639977 -8.576337,6.714844 -14.597656,6.714844 -0.482408,0 -0.944666,-0.03132 -1.390625,-0.08789 -7.368565,-0.927166 -9.886719,-9.052735 -9.886719,-9.052735 0,0 3.29569,-4.867638 9.886719,-5.371093 0.212054,-0.0148 0.426329,-0.02246 0.644531,-0.0293 0.09324,-0.0029 0.185112,-0.0056 0.277344,-0.0059 5.811481,-0.01813 9.613281,5.125 9.613281,5.125 0,0 -4.229357,5.882813 -8.763672,5.882813 -0.652575,0 -1.244873,-0.119759 -1.771484,-0.296875 -3.139543,-1.054937 -4.152344,-4.707031 -4.152344,-4.707031 0,0 1.821347,-2.18011 4.152344,-1.900391 2.322939,0.280729 2.804289,1.311643 4.201172,3.640625 l 3.099609,-2.634766 c 0,0 -2.262802,-2.966797 -6.085937,-2.966797 -0.415853,0 -0.824768,0.03049 -1.214844,0.07227 -4.441477,0.480196 -7.107422,3.4375 -7.107422,3.4375 0,0 1.538608,5.794298 7.107422,6.787109 0.521478,0.09223 1.074899,0.148438 1.667969,0.148438 6.4704,0 12.681641,-7.548828 12.681641,-7.548828 0,0 -5.23596,-6.874625 -13.316407,-6.822266 z"
     sodipodi:nodetypes="ccccccsccsccccccscccccscccsccc"
     style="fill:#ffffff;fill-opacity:1" />
</svg>
