<?xml version="1.0" encoding="UTF-8" standalone="no"?>
<svg
   height="48"
   width="48"
   version="1.1"
   id="svg6"
   sodipodi:docname="octopi.svg"
   inkscape:version="1.1.2 (0a00cf5339, 2022-02-04)"
   xmlns:inkscape="http://www.inkscape.org/namespaces/inkscape"
   xmlns:sodipodi="http://sodipodi.sourceforge.net/DTD/sodipodi-0.dtd"
   xmlns="http://www.w3.org/2000/svg"
   xmlns:svg="http://www.w3.org/2000/svg">
  <defs
     id="defs10" />
  <sodipodi:namedview
     id="namedview8"
     pagecolor="#ffffff"
     bordercolor="#666666"
     borderopacity="1.0"
     inkscape:pageshadow="2"
     inkscape:pageopacity="0.0"
     inkscape:pagecheckerboard="0"
     showgrid="false"
     inkscape:zoom="13.229167"
     inkscape:cx="24"
     inkscape:cy="24"
     inkscape:window-width="1920"
     inkscape:window-height="1022"
     inkscape:window-x="0"
     inkscape:window-y="32"
     inkscape:window-maximized="1"
     inkscape:current-layer="svg6" />
  <path
     id="path2"
     style="stroke-width:1.15035;fill:#8fbcbb;fill-opacity:1"
     d="M 23.804688 1.3046875 A 22.696228 22.696232 0 0 0 1.1074219 24 A 22.696228 22.696232 0 0 0 23.804688 46.695312 A 22.696228 22.696232 0 0 0 46.5 24 A 22.696228 22.696232 0 0 0 23.804688 1.3046875 z " />
  <path
     d="m21.948105 9.019755c-5.936327 0-10.714897 4.803849-10.755108 10.785908h-.0046v16.178861c0 1.659869 1.115121 2.995229 2.759615 2.995229 1.644416 0 2.759616-.705578 2.759616-2.365384 0 1.659869 1.903661 2.365384 3.548077 2.365384 1.907446.02596 3.505894-.974538 3.548077-2.365384 0 1.659869 1.903582 2.365384 3.548077 2.365384 1.907426.02596 3.505874-.974538 3.548056-2.365384 0 1.659869 1.1152 2.365384 2.759616 2.365384 1.644415 0 2.759615-1.335439 2.759615-2.995229v-16.178861h-.0047c-.0394-5.98127-4.818749-10.785908-10.755076-10.785908zm-2.086651 7.884615c1.388763 0 2.550578.89392 2.97367 2.13593-.208349-.335106-.577261-.559007-1.002516-.559007-.655212 0-1.182693.527481-1.182693 1.182693 0 .655211.527481 1.182692 1.182693 1.182692.589156 0 1.070693-.427851 1.162672-.990197.0043.06798.02002.132625.02002.201735 0 1.747231-1.406615 3.153847-3.153846 3.153847s-3.153846-1.406616-3.153846-3.153847c0-1.74723 1.406615-3.153846 3.153846-3.153846zm11.826923 0c1.388763 0 2.550578.89392 2.97367 2.13593-.208349-.335106-.577261-.559007-1.002516-.559007-.655212 0-1.182692.527481-1.182692 1.182693 0 .655211.52748 1.182692 1.182692 1.182692.589156 0 1.070693-.427851 1.162672-.990197.0043.06798.02002.132625.02002.201735 0 1.747231-1.406615 3.153847-3.153846 3.153847s-3.153846-1.406616-3.153846-3.153847c0-1.74723 1.406615-3.153846 3.153846-3.153846z"
     fill="#ffffff"
     stroke-width=".788462"
     id="path4" />
</svg>
