<?xml version="1.0" encoding="UTF-8" standalone="no"?>
<svg
   height="48"
   width="48"
   version="1.1"
   id="svg8"
   sodipodi:docname="boomaga.svg"
   inkscape:version="1.1.2 (0a00cf5339, 2022-02-04)"
   xmlns:inkscape="http://www.inkscape.org/namespaces/inkscape"
   xmlns:sodipodi="http://sodipodi.sourceforge.net/DTD/sodipodi-0.dtd"
   xmlns="http://www.w3.org/2000/svg"
   xmlns:svg="http://www.w3.org/2000/svg"
   xmlns:rdf="http://www.w3.org/1999/02/22-rdf-syntax-ns#"
   xmlns:cc="http://creativecommons.org/ns#"
   xmlns:dc="http://purl.org/dc/elements/1.1/">
  <metadata
     id="metadata14">
    <rdf:RDF>
      <cc:Work
         rdf:about="">
        <dc:format>image/svg+xml</dc:format>
        <dc:type
           rdf:resource="http://purl.org/dc/dcmitype/StillImage" />
        <dc:title />
      </cc:Work>
    </rdf:RDF>
  </metadata>
  <defs
     id="defs12" />
  <sodipodi:namedview
     pagecolor="#ffffff"
     bordercolor="#666666"
     borderopacity="1"
     objecttolerance="10"
     gridtolerance="10"
     guidetolerance="10"
     inkscape:pageopacity="0"
     inkscape:pageshadow="2"
     inkscape:window-width="1920"
     inkscape:window-height="1029"
     id="namedview10"
     showgrid="false"
     inkscape:zoom="6.6880516"
     inkscape:cx="-23.549459"
     inkscape:cy="37.006293"
     inkscape:window-x="0"
     inkscape:window-y="0"
     inkscape:window-maximized="1"
     inkscape:current-layer="svg8"
     inkscape:pagecheckerboard="0" />
  <path
     id="path2"
     style="fill:#8fbcbb;fill-opacity:1;stroke-width:1.15035"
     d="M 23.804688 1.3046875 A 22.696228 22.696232 0 0 0 1.1074219 24 A 22.696228 22.696232 0 0 0 23.804688 46.695312 A 22.696228 22.696232 0 0 0 46.5 24 A 22.696228 22.696232 0 0 0 23.804688 1.3046875 z " />
  <path
     id="path839"
     style="fill:#ffffff;fill-opacity:0.22448978;stroke-width:1.15035"
     d="M 23.804688 1.3046875 L 23.804688 46.695312 C 36.339469 46.695312 46.5 36.534782 46.5 24 C 46.499999 11.465218 36.339468 1.3046875 23.804688 1.3046875 z " />
  <g
     fill="#ffffff"
     stroke-width="0.03234"
     id="g10"
     transform="translate(0.519741,-0.04679814)">
    <path
       d="M 19.221061,8.255928 H 27.5 v 2.069734 h 1.034868 V 8.255928 C 28.534868,7.684939 28.07199,7.22106 27.5,7.22106 h -8.278939 c -0.570989,0 -1.034869,0.463879 -1.034869,1.034868 v 2.069734 h 1.034869 z"
       id="path6" />
    <path
       d="M 30.604601,11.36053 H 16.116457 c -0.570988,0 -1.034867,0.46388 -1.034867,1.034867 v 5.174338 c 0,0.572023 0.463879,1.034867 1.034867,1.034867 h 2.069735 v 4.13947 c 0,0.572023 0.46388,1.034867 1.034869,1.034867 H 27.5 c 0.57202,0 1.034868,-0.462877 1.034868,-1.034867 v -4.13947 h 2.069733 c 0.572024,0 1.034867,-0.462877 1.034867,-1.034867 v -5.174338 c 0,-0.570987 -0.462843,-1.034867 -1.034867,-1.034867 M 27.5,22.744072 H 19.221061 V 15.5 H 27.5 Z m 2.069734,-8.278939 c -0.572024,0 -1.034866,-0.462878 -1.034866,-1.034868 0,-0.570988 0.462876,-1.034868 1.034866,-1.034868 0.57199,0 1.034867,0.46388 1.034867,1.034868 0,0.572022 -0.462843,1.034868 -1.034867,1.034868"
       id="path8" />
  </g>
</svg>
