<?xml version="1.0" encoding="UTF-8" standalone="no"?>
<svg
   version="1.1"
   preserveAspectRatio="xMidYMid meet"
   viewBox="0 0 640 640"
   width="64"
   height="64"
   id="svg71"
   sodipodi:docname="olivia.svg"
   inkscape:version="1.1.2 (0a00cf5339, 2022-02-04)"
   xmlns:inkscape="http://www.inkscape.org/namespaces/inkscape"
   xmlns:sodipodi="http://sodipodi.sourceforge.net/DTD/sodipodi-0.dtd"
   xmlns:xlink="http://www.w3.org/1999/xlink"
   xmlns="http://www.w3.org/2000/svg"
   xmlns:svg="http://www.w3.org/2000/svg"
   xmlns:rdf="http://www.w3.org/1999/02/22-rdf-syntax-ns#"
   xmlns:cc="http://creativecommons.org/ns#"
   xmlns:dc="http://purl.org/dc/elements/1.1/">
  <metadata
     id="metadata75">
    <rdf:RDF>
      <cc:Work
         rdf:about="">
        <dc:format>image/svg+xml</dc:format>
        <dc:type
           rdf:resource="http://purl.org/dc/dcmitype/StillImage" />
      </cc:Work>
    </rdf:RDF>
  </metadata>
  <sodipodi:namedview
     pagecolor="#ffffff"
     bordercolor="#666666"
     borderopacity="1"
     objecttolerance="10"
     gridtolerance="10"
     guidetolerance="10"
     inkscape:pageopacity="0"
     inkscape:pageshadow="2"
     inkscape:window-width="1920"
     inkscape:window-height="1022"
     id="namedview73"
     showgrid="false"
     inkscape:zoom="10.429825"
     inkscape:cx="30.920941"
     inkscape:cy="33.893186"
     inkscape:window-x="0"
     inkscape:window-y="32"
     inkscape:window-maximized="1"
     inkscape:current-layer="g67"
     inkscape:pagecheckerboard="0" />
  <defs
     id="defs9">
    <path
       d="M619.71 324.88C619.71 483.63 485.03 612.52 319.14 612.52C153.26 612.52 18.58 483.63 18.58 324.88C18.58 166.12 153.26 37.24 319.14 37.24C485.03 37.24 619.71 166.12 619.71 324.88Z"
       id="a5nBlLjrc" />
    <path
       d="M175.12 267.85C175.12 275.19 175.12 333.93 175.12 341.27C175.12 350.81 184.3 358.57 195.58 358.57C206.86 358.57 216.03 350.81 216.03 341.27C216.03 333.93 216.03 275.19 216.03 267.85C216.03 219.77 262.29 180.66 319.14 180.66C376 180.66 422.26 219.77 422.26 267.85C422.26 275.19 422.26 333.93 422.26 341.27C422.26 350.81 431.43 358.57 442.71 358.57C453.99 358.57 463.17 350.81 463.17 341.27C463.17 333.93 463.17 275.19 463.17 267.85C463.17 200.7 398.56 146.07 319.15 146.07C239.73 146.07 175.12 200.7 175.12 267.85Z"
       id="b3eof2L0e" />
    <path
       d="M175.12 341.27C175.12 350.81 184.3 358.57 195.58 358.57C206.86 358.57 216.03 350.81 216.03 341.27C216.03 333.93 216.03 275.19 216.03 267.85C216.03 219.77 262.29 180.66 319.14 180.66C319.14 177.2 319.14 149.53 319.14 146.07C239.73 146.07 175.12 200.7 175.12 267.85C175.12 282.54 175.12 333.93 175.12 341.27Z"
       id="d3tddR1cAb" />
    <path
       d="M138.12 398.72C138.12 434.34 172.39 463.32 214.51 463.32C217.97 463.32 220.78 460.95 220.78 458.02C220.78 446.16 220.78 351.28 220.78 339.41C220.78 336.49 217.97 334.12 214.51 334.12C172.39 334.12 138.12 363.1 138.12 398.72Z"
       id="gZfIUaxQ" />
    <path
       d="M418.33 339.41C418.33 351.28 418.33 446.16 418.33 458.02C418.33 460.95 421.13 463.32 424.59 463.32C466.71 463.32 500.98 434.34 500.98 398.72C500.98 363.1 466.71 334.12 424.59 334.12C421.13 334.12 418.33 336.49 418.33 339.41Z"
       id="b42twxSCwN" />
    <path
       d="M348.61 324.88C345.15 324.88 342.35 327.1 342.35 329.84C342.35 343.62 342.35 453.82 342.35 467.59C342.35 470.34 345.15 472.56 348.61 472.56C354.96 472.56 405.72 472.56 412.07 472.56C415.52 472.56 418.33 470.34 418.33 467.59C418.33 453.82 418.33 343.62 418.33 329.84C418.33 327.1 415.52 324.88 412.07 324.88C399.37 324.88 354.96 324.88 348.61 324.88Z"
       id="bemwVNEvV" />
    <path
       d="M227.04 324.88C223.58 324.88 220.78 327.1 220.78 329.84C220.78 343.62 220.78 453.82 220.78 467.59C220.78 470.34 223.58 472.56 227.04 472.56C233.38 472.56 284.15 472.56 290.49 472.56C293.95 472.56 296.75 470.34 296.75 467.59C296.75 453.82 296.75 343.62 296.75 329.84C296.75 327.1 293.95 324.88 290.49 324.88C277.8 324.88 233.38 324.88 227.04 324.88Z"
       id="bPbUAzU2o" />
  </defs>
  <g
     id="g69">
    <g
       id="g67">
      <g
         id="g17">
        <use
           xlink:href="#a5nBlLjrc"
           opacity="1"
           fill="#bbb0ce"
           fill-opacity="1"
           id="use11" />
        <g
           id="g15">
          <use
             xlink:href="#a5nBlLjrc"
             opacity="1"
             fill-opacity="0"
             stroke="#000000"
             stroke-width="0"
             stroke-opacity="1"
             id="use13" />
        </g>
      </g>
      <g
         id="g25">
        <use
           xlink:href="#b3eof2L0e"
           opacity="1"
           fill="#dee9ea"
           fill-opacity="1"
           id="use19"
           style="fill:#ffffff" />
        <g
           id="g23">
          <use
             xlink:href="#b3eof2L0e"
             opacity="1"
             fill-opacity="0"
             stroke="#000000"
             stroke-width="1"
             stroke-opacity="0"
             id="use21" />
        </g>
      </g>
      <g
         id="g33">
        <use
           xlink:href="#d3tddR1cAb"
           opacity="1"
           fill="#dee9ea"
           fill-opacity="1"
           id="use27"
           style="fill:#ffffff" />
        <g
           id="g31">
          <use
             xlink:href="#d3tddR1cAb"
             opacity="1"
             fill-opacity="0"
             stroke="#000000"
             stroke-width="1"
             stroke-opacity="0"
             id="use29" />
        </g>
      </g>
      <g
         id="g41">
        <path
           id="use35"
           style="fill:#e6e2ed;fill-opacity:1;stroke-width:0.1"
           d="M 21.451172 33.412109 C 17.239172 33.412109 13.8125 36.309094 13.8125 39.871094 C 13.8125 43.433094 17.239172 46.332031 21.451172 46.332031 C 21.797172 46.332031 22.078125 46.095734 22.078125 45.802734 L 22.078125 33.941406 C 22.078125 33.649406 21.797172 33.412109 21.451172 33.412109 z "
           transform="scale(10)" />
        <g
           id="g39">
          <use
             xlink:href="#gZfIUaxQ"
             opacity="1"
             fill-opacity="0"
             stroke="#000000"
             stroke-width="1"
             stroke-opacity="0"
             id="use37" />
        </g>
      </g>
      <g
         id="g65">
        <path
           id="use59"
           style="fill:#ffffff;fill-opacity:1;stroke-width:0.1"
           d="M 22.703125 32.488281 C 22.357125 32.488281 22.078125 32.710375 22.078125 32.984375 L 22.078125 46.759766 C 22.078125 47.034766 22.357125 47.255859 22.703125 47.255859 L 29.048828 47.255859 C 29.394828 47.255859 29.675781 47.034766 29.675781 46.759766 L 29.675781 32.984375 C 29.675781 32.710375 29.394828 32.488281 29.048828 32.488281 L 22.703125 32.488281 z "
           transform="scale(10)" />
        <g
           id="g63">
          <use
             xlink:href="#bPbUAzU2o"
             opacity="1"
             fill-opacity="0"
             stroke="#000000"
             stroke-width="1"
             stroke-opacity="0"
             id="use61" />
        </g>
        <path
           id="path1384"
           style="fill:#ffffff;fill-opacity:1;stroke-width:1"
           d="m 348.61,324.88 c -3.46,0 -6.25,2.22094 -6.25,4.96094 v 137.75391 c 0,2.75 2.79,4.96093 6.25,4.96093 h 63.45703 c 3.46,0 6.26953,-2.21093 6.26953,-4.96093 V 329.84094 c 0,-2.74 -2.80953,-4.96094 -6.26953,-4.96094 z" />
      </g>
      <g
         id="g1157"
         transform="matrix(-1,0,0,1,639.23743,0)">
        <path
           id="path1151"
           style="fill:#e6e2ed;fill-opacity:1;stroke-width:0.1"
           d="m 21.451172,33.412109 c -4.212,0 -7.638672,2.896985 -7.638672,6.458985 0,3.562 3.426672,6.460937 7.638672,6.460937 0.346,0 0.626953,-0.236297 0.626953,-0.529297 V 33.941406 c 0,-0.292 -0.280953,-0.529297 -0.626953,-0.529297 z"
           transform="scale(10)" />
        <g
           id="g1155">
          <use
             xlink:href="#gZfIUaxQ"
             opacity="1"
             fill-opacity="0"
             stroke="#000000"
             stroke-width="1"
             stroke-opacity="0"
             id="use1153"
             x="0"
             y="0"
             width="100%"
             height="100%" />
        </g>
      </g>
    </g>
  </g>
</svg>
