<?xml version="1.0" encoding="UTF-8" standalone="no"?>
<svg
   height="48"
   width="48"
   version="1.1"
   id="svg6"
   sodipodi:docname="opensnitch-ui.svg"
   inkscape:version="1.1.2 (0a00cf5339, 2022-02-04)"
   xmlns:inkscape="http://www.inkscape.org/namespaces/inkscape"
   xmlns:sodipodi="http://sodipodi.sourceforge.net/DTD/sodipodi-0.dtd"
   xmlns="http://www.w3.org/2000/svg"
   xmlns:svg="http://www.w3.org/2000/svg"
   xmlns:rdf="http://www.w3.org/1999/02/22-rdf-syntax-ns#"
   xmlns:cc="http://creativecommons.org/ns#"
   xmlns:dc="http://purl.org/dc/elements/1.1/">
  <metadata
     id="metadata12">
    <rdf:RDF>
      <cc:Work
         rdf:about="">
        <dc:format>image/svg+xml</dc:format>
        <dc:type
           rdf:resource="http://purl.org/dc/dcmitype/StillImage" />
      </cc:Work>
    </rdf:RDF>
  </metadata>
  <defs
     id="defs10">
    <clipPath
       id="a">
      <rect
         height="43"
         ry="1.452703"
         width="43"
         x="2"
         y="3"
         id="rect2" />
    </clipPath>
  </defs>
  <sodipodi:namedview
     pagecolor="#ffffff"
     bordercolor="#666666"
     borderopacity="1"
     objecttolerance="10"
     gridtolerance="10"
     guidetolerance="10"
     inkscape:pageopacity="0"
     inkscape:pageshadow="2"
     inkscape:window-width="1920"
     inkscape:window-height="1032"
     id="namedview8"
     showgrid="false"
     inkscape:zoom="6.6880515"
     inkscape:cx="-5.6070142"
     inkscape:cy="20.409532"
     inkscape:window-x="0"
     inkscape:window-y="24"
     inkscape:window-maximized="1"
     inkscape:current-layer="svg6"
     inkscape:document-rotation="0"
     inkscape:pagecheckerboard="0" />
  <circle
     cx="23.940615"
     cy="31.534513"
     opacity=".99"
     r="13.232998"
     transform="matrix(1.75830584759 0 0 1.75830608345 -18.15909274367 -30.97874795549)"
     id="circle2"
     style="fill:#81a1c1;fill-opacity:1" />
  <path
     id="path7"
     clip-path="url(#a)"
     d="M 15.605469 6.8964844 L 15.605469 7.8964844 L 14.605469 7.8964844 L 14.605469 8.8964844 L 12.605469 8.8964844 L 12.605469 9.8964844 L 11.605469 9.8964844 L 11.605469 10.896484 L 11.605469 11.896484 L 10.605469 11.896484 L 10.605469 12.896484 L 10.605469 13.896484 L 12.605469 13.896484 L 12.605469 14.896484 L 12.605469 15.896484 L 13.605469 15.896484 L 13.605469 16.896484 L 13.605469 17.896484 L 13.605469 18.896484 L 13.605469 19.896484 L 14.605469 19.896484 L 14.605469 20.896484 L 15.605469 20.896484 L 15.605469 19.896484 L 15.605469 18.896484 L 16.605469 18.896484 L 16.605469 17.896484 L 17.605469 17.896484 L 17.605469 16.896484 L 17.605469 15.896484 L 18.605469 15.896484 L 18.605469 14.896484 L 18.605469 13.896484 L 18.605469 12.896484 L 18.605469 11.896484 L 18.605469 10.896484 L 19.605469 10.896484 L 19.605469 9.8964844 L 19.605469 8.8964844 L 18.605469 8.8964844 L 18.605469 9.8964844 L 17.605469 9.8964844 L 17.605469 8.8964844 L 16.605469 8.8964844 L 16.605469 7.8964844 L 17.605469 7.8964844 L 17.605469 6.8964844 L 15.605469 6.8964844 z M 8.6054688 7.8964844 L 8.6054688 8.8964844 L 7.6054688 8.8964844 L 7.6054688 9.8964844 L 8.6054688 9.8964844 L 8.6054688 10.896484 L 8.6054688 11.896484 L 8.6054688 12.896484 L 9.6054688 12.896484 L 9.6054688 11.896484 L 9.6054688 10.896484 L 10.605469 10.896484 L 10.605469 9.8964844 L 10.605469 8.8964844 L 11.605469 8.8964844 L 11.605469 7.8964844 L 8.6054688 7.8964844 z M 7.6054688 9.8964844 L 6.6054688 9.8964844 L 6.6054688 10.896484 L 6.6054688 11.896484 L 7.6054688 11.896484 L 7.6054688 10.896484 L 7.6054688 9.8964844 z M 36.605469 9.8964844 L 36.605469 10.896484 L 36.605469 11.896484 L 37.605469 11.896484 L 37.605469 10.896484 L 37.605469 9.8964844 L 36.605469 9.8964844 z M 37.605469 11.896484 L 37.605469 12.896484 L 38.605469 12.896484 L 38.605469 11.896484 L 37.605469 11.896484 z M 6.6054688 12.896484 L 6.6054688 13.896484 L 7.6054688 13.896484 L 7.6054688 12.896484 L 6.6054688 12.896484 z M 7.6054688 13.896484 L 7.6054688 14.896484 L 8.6054688 14.896484 L 8.6054688 13.896484 L 7.6054688 13.896484 z M 3.6054688 13.152344 A 23.267658 23.267661 0 0 0 3.2089844 13.896484 L 3.6054688 13.896484 L 3.6054688 13.152344 z M 4.6054688 13.896484 L 4.6054688 14.896484 L 5.6054688 14.896484 L 5.6054688 13.896484 L 4.6054688 13.896484 z M 35.605469 13.896484 L 35.605469 14.896484 L 36.605469 14.896484 L 37.605469 14.896484 L 37.605469 15.896484 L 35.605469 15.896484 L 35.605469 14.896484 L 34.605469 14.896484 L 34.605469 15.896484 L 33.605469 15.896484 L 33.605469 16.896484 L 33.605469 18.896484 L 32.605469 18.896484 L 32.605469 17.896484 L 32.605469 16.896484 L 32.605469 15.896484 L 31.605469 15.896484 L 31.605469 16.896484 L 31.605469 17.896484 L 30.605469 17.896484 L 29.605469 17.896484 L 29.605469 18.896484 L 28.605469 18.896484 L 28.605469 19.896484 L 27.605469 19.896484 L 26.605469 19.896484 L 26.605469 18.896484 L 27.605469 18.896484 L 27.605469 17.896484 L 26.605469 17.896484 L 26.605469 16.896484 L 25.605469 16.896484 L 25.605469 17.896484 L 24.605469 17.896484 L 24.605469 18.896484 L 25.605469 18.896484 L 25.605469 19.896484 L 25.605469 20.896484 L 25.605469 21.896484 L 24.605469 21.896484 L 24.605469 22.896484 L 22.605469 22.896484 L 22.605469 23.896484 L 21.605469 23.896484 L 21.605469 24.896484 L 20.605469 24.896484 L 20.605469 25.896484 L 22.605469 25.896484 L 22.605469 24.896484 L 23.205078 24.896484 L 23.205078 25.095703 L 23.40625 25.095703 L 23.40625 25.296875 L 23.605469 25.296875 L 23.605469 25.496094 L 23.804688 25.496094 L 23.804688 25.697266 L 24.005859 25.697266 L 24.005859 25.896484 L 24.205078 25.896484 L 24.205078 25.697266 L 24.40625 25.697266 L 24.40625 25.496094 L 24.205078 25.496094 L 24.005859 25.496094 L 24.005859 25.296875 L 23.804688 25.296875 L 23.804688 25.095703 L 23.605469 25.095703 L 23.605469 24.896484 L 24.605469 24.896484 L 24.605469 25.896484 L 25.605469 25.896484 L 25.605469 24.896484 L 27.605469 24.896484 L 27.605469 25.896484 L 26.605469 25.896484 L 25.605469 25.896484 L 25.605469 26.896484 L 26.605469 26.896484 L 26.605469 27.896484 L 27.605469 27.896484 L 27.605469 28.896484 L 28.605469 28.896484 L 28.605469 29.896484 L 29.605469 29.896484 L 30.605469 29.896484 L 30.605469 28.896484 L 29.605469 28.896484 L 29.605469 27.896484 L 30.605469 27.896484 L 31.605469 27.896484 L 31.605469 28.896484 L 32.605469 28.896484 L 32.605469 29.896484 L 33.605469 29.896484 L 33.605469 30.896484 L 34.605469 30.896484 L 34.605469 29.896484 L 34.605469 28.896484 L 36.605469 28.896484 L 36.605469 29.896484 L 37.605469 29.896484 L 37.605469 28.896484 L 39.605469 28.896484 L 39.605469 27.896484 L 40.605469 27.896484 L 40.605469 26.896484 L 40.605469 25.896484 L 41.605469 25.896484 L 41.605469 24.896484 L 42.605469 24.896484 L 42.605469 23.896484 L 43.605469 23.896484 L 43.605469 22.896484 L 42.605469 22.896484 L 42.605469 21.896484 L 43.605469 21.896484 L 43.605469 20.896484 L 45.605469 20.896484 L 45.605469 19.896484 L 46.75 19.896484 A 23.267658 23.267661 0 0 0 46.255859 17.896484 L 45.605469 17.896484 L 45.605469 16.896484 L 44.605469 16.896484 L 44.605469 15.896484 L 43.605469 15.896484 L 43.605469 16.896484 L 41.605469 16.896484 L 41.605469 15.896484 L 38.605469 15.896484 L 38.605469 14.896484 L 38.605469 13.896484 L 37.605469 13.896484 L 36.605469 13.896484 L 35.605469 13.896484 z M 37.605469 29.896484 L 37.605469 30.896484 L 38.605469 30.896484 L 38.605469 29.896484 L 37.605469 29.896484 z M 27.605469 28.896484 L 26.605469 28.896484 L 26.605469 27.896484 L 23.605469 27.896484 L 23.605469 26.896484 L 20.605469 26.896484 L 20.605469 27.896484 L 19.605469 27.896484 L 19.605469 28.896484 L 19.605469 29.896484 L 19.605469 30.896484 L 19.605469 31.896484 L 20.605469 31.896484 L 22.605469 31.896484 L 22.605469 32.896484 L 23.605469 32.896484 L 23.605469 33.896484 L 23.605469 34.896484 L 23.605469 35.896484 L 23.605469 36.896484 L 24.605469 36.896484 L 24.605469 37.896484 L 26.605469 37.896484 L 26.605469 36.896484 L 26.605469 35.896484 L 27.605469 35.896484 L 27.605469 34.896484 L 27.605469 33.896484 L 27.605469 32.896484 L 28.605469 32.896484 L 28.605469 31.896484 L 29.605469 31.896484 L 29.605469 30.896484 L 27.605469 30.896484 L 27.605469 29.896484 L 27.605469 28.896484 z M 24.205078 25.896484 L 24.205078 26.095703 L 24.40625 26.095703 L 24.40625 25.896484 L 24.205078 25.896484 z M 24.605469 18.896484 L 23.605469 18.896484 L 23.605469 19.896484 L 24.605469 19.896484 L 24.605469 18.896484 z M 23.605469 19.896484 L 22.605469 19.896484 L 22.605469 20.896484 L 23.605469 20.896484 L 23.605469 19.896484 z M 2.7304688 14.896484 A 23.267658 23.267661 0 0 0 2.6054688 15.175781 L 2.6054688 15.896484 L 3.6054688 15.896484 L 3.6054688 14.896484 L 2.7304688 14.896484 z M 3.6054688 15.896484 L 3.6054688 16.896484 L 4.6054688 16.896484 L 5.6054688 16.896484 L 5.6054688 15.896484 L 4.6054688 15.896484 L 3.6054688 15.896484 z M 8.6054688 15.896484 L 8.6054688 16.896484 L 9.6054688 16.896484 L 10.605469 16.896484 L 10.605469 15.896484 L 9.6054688 15.896484 L 8.6054688 15.896484 z M 10.605469 16.896484 L 10.605469 17.896484 L 10.605469 18.896484 L 11.605469 18.896484 L 11.605469 17.896484 L 11.605469 16.896484 L 10.605469 16.896484 z M 1.9355469 16.896484 A 23.267658 23.267661 0 0 0 0.8125 21.896484 L 1.6054688 21.896484 L 1.6054688 22.896484 L 1.6054688 23.896484 L 2.6054688 23.896484 L 2.6054688 24.896484 L 2.6054688 25.896484 L 2.6054688 26.896484 L 3.6054688 26.896484 L 3.6054688 27.896484 L 3.6054688 28.896484 L 4.6054688 28.896484 L 4.6054688 29.896484 L 5.6054688 29.896484 L 5.6054688 30.896484 L 6.6054688 30.896484 L 7.6054688 30.896484 L 8.6054688 30.896484 L 8.6054688 29.896484 L 8.6054688 28.896484 L 7.6054688 28.896484 L 7.6054688 29.896484 L 6.6054688 29.896484 L 6.6054688 28.896484 L 6.6054688 27.896484 L 7.6054688 27.896484 L 8.6054688 27.896484 L 9.6054688 27.896484 L 9.6054688 26.896484 L 9.6054688 25.896484 L 10.605469 25.896484 L 10.605469 24.896484 L 10.605469 23.896484 L 11.605469 23.896484 L 12.605469 23.896484 L 12.605469 22.896484 L 12.605469 21.896484 L 11.605469 21.896484 L 11.605469 20.896484 L 10.605469 20.896484 L 10.605469 19.896484 L 9.6054688 19.896484 L 9.6054688 20.896484 L 9.6054688 21.896484 L 9.6054688 22.896484 L 8.6054688 22.896484 L 8.6054688 21.896484 L 7.6054688 21.896484 L 6.6054688 21.896484 L 6.6054688 20.896484 L 7.6054688 20.896484 L 7.6054688 19.896484 L 7.6054688 18.896484 L 8.6054688 18.896484 L 9.6054688 18.896484 L 9.6054688 17.896484 L 8.6054688 17.896484 L 7.6054688 17.896484 L 7.6054688 16.896484 L 6.6054688 16.896484 L 6.6054688 17.896484 L 5.6054688 17.896484 L 4.6054688 17.896484 L 3.6054688 17.896484 L 2.6054688 17.896484 L 2.6054688 16.896484 L 1.9355469 16.896484 z M 8.6054688 30.896484 L 8.6054688 31.896484 L 9.6054688 31.896484 L 9.6054688 32.896484 L 8.6054688 32.896484 L 8.6054688 33.896484 L 9.6054688 33.896484 L 9.6054688 34.896484 L 10.605469 34.896484 L 10.605469 35.896484 L 10.605469 36.896484 L 10.605469 37.896484 L 10.605469 38.896484 L 10.605469 39.896484 L 10.605469 40.896484 L 9.6054688 40.896484 L 9.6054688 41.896484 L 10.605469 41.896484 L 10.605469 42.896484 L 11.605469 42.896484 L 11.605469 41.896484 L 11.605469 40.896484 L 11.605469 39.896484 L 11.605469 38.896484 L 12.605469 38.896484 L 12.605469 37.896484 L 13.605469 37.896484 L 13.605469 36.896484 L 14.605469 36.896484 L 14.605469 35.896484 L 15.605469 35.896484 L 15.605469 34.896484 L 16.605469 34.896484 L 16.605469 33.896484 L 15.605469 33.896484 L 15.605469 32.896484 L 14.605469 32.896484 L 13.605469 32.896484 L 13.605469 31.896484 L 12.605469 31.896484 L 12.605469 30.896484 L 11.605469 30.896484 L 10.605469 30.896484 L 9.6054688 30.896484 L 8.6054688 30.896484 z M 18.605469 18.896484 L 18.605469 19.896484 L 19.605469 19.896484 L 19.605469 18.896484 L 18.605469 18.896484 z M 46.605469 20.896484 L 46.605469 21.896484 L 47.060547 21.896484 A 23.267658 23.267661 0 0 0 46.925781 20.896484 L 46.605469 20.896484 z M 46.605469 21.896484 L 45.605469 21.896484 L 45.605469 22.896484 L 46.605469 22.896484 L 46.605469 21.896484 z M 20.605469 21.896484 L 20.605469 22.896484 L 21.605469 22.896484 L 21.605469 21.896484 L 20.605469 21.896484 z M 28.605469 23.896484 L 29.605469 23.896484 L 29.605469 24.896484 L 29.605469 25.896484 L 29.605469 26.896484 L 28.605469 26.896484 L 28.605469 25.896484 L 28.605469 24.896484 L 28.605469 23.896484 z M 40.605469 34.896484 L 40.605469 35.896484 L 39.605469 35.896484 L 39.605469 36.896484 L 39.605469 37.896484 L 42.9375 37.896484 A 23.267658 23.267661 0 0 0 44.605469 35.150391 L 44.605469 34.896484 L 43.605469 34.896484 L 43.605469 35.896484 L 42.605469 35.896484 L 42.605469 34.896484 L 40.605469 34.896484 z "
     style="fill:#ffffff;fill-opacity:0.24254937" />
  <path
     d="m 22.117131,13.436868 h 4.548604 v 1.543276 h -4.548604 z"
     id="path13"
     style="fill:#81a1c1;fill-opacity:0.992157;stroke-width:0.285912" />
  <path
     fill="#ffffff"
     d="m 27.748842,11.735886 c -1.628328,0.07871 -3.004757,0.536028 -4.358695,1.448402 -0.576512,0.387587 -1.443153,1.104291 -1.826243,1.593088 -0.192678,0.245888 -0.193415,0.245152 -0.4888,0.169441 -0.167176,-0.04199 -0.783425,-0.07498 -1.416164,-0.07272 -0.992588,0.0015 -1.195753,0.02238 -1.760269,0.173915 a 7.5156388,7.5156388 0 0 0 -5.577691,6.874653 l -0.03749,0.739194 -0.253398,0.07647 c -0.907121,0.273628 -2.0406523,0.988093 -2.8375713,1.79026 -0.9506089,0.957352 -1.5915945,2.090883 -1.9536949,3.450069 -0.1529275,0.575014 -0.1709504,0.763184 -0.1709504,1.803755 0,1.041319 0.018221,1.229489 0.1709504,1.803753 0.787175,2.957524 3.1696902,5.133875 6.0927282,5.562698 v -0.0031 c 0.215175,0.03223 4.723046,0.05998 10.021101,0.06596 10.321729,0.0083 10.17179,0.0127 11.38179,-0.323117 1.143274,-0.317868 2.70713,-1.251981 3.602257,-2.152359 0.937113,-0.943107 1.83974,-2.505462 2.165854,-3.7432 0.79842,-3.033244 -0.0096,-6.073236 -2.195089,-8.255583 -0.386093,-0.385342 -0.943111,-0.860645 -1.236991,-1.055563 l -0.536022,-0.354602 0.03375,-0.746693 a 8.2135999,8.2135999 0 0 0 -0.83966,-4.051323 c -0.873389,-1.799256 -2.141113,-3.07373 -3.928375,-3.953114 a 8.024678,8.024678 0 0 0 -4.051321,-0.840402 z m 0.107214,2.246068 h 0.0015 c 1.102044,-0.05248 1.961938,0.125939 2.950028,0.612499 1.392173,0.684468 2.216833,1.512125 2.899051,2.917791 0.477551,0.982843 0.661977,1.875725 0.613998,2.969521 l -0.03223,0.746692 a 2.2490688,2.2490688 0 0 0 1.004586,1.973934 l 0.533776,0.354604 c -0.01823,-0.01271 0.616999,0.498543 0.892134,0.77218 1.641819,1.64032 2.218332,3.776934 1.60883,6.091976 -0.183671,0.69721 -1.015828,2.154608 -1.587088,2.72887 -0.520286,0.524033 -2.051903,1.416915 -2.607423,1.571351 -0.625991,0.173914 -0.413079,0.173177 -1.737033,0.210669 -1.3232,0.03749 -3.880393,0.03522 -9.041255,0.03075 a 1315.9902,1315.9902 0 0 1 -6.904687,-0.02238 342.65239,342.65239 0 0 1 -2.177098,-0.01955 c -0.263145,-0.0037 -0.472306,-0.0074 -0.610998,-0.01044 -0.02012,0 -0.04497,-0.0053 -0.07121,-0.0074 -1.984429,-0.320118 -3.6187533,-1.787261 -4.1787703,-3.893139 -0.13345,-0.499294 -0.09521,-0.21217 -0.09521,-1.227243 0,-1.015079 -0.03749,-0.727198 0.09521,-1.22724 0.271389,-1.01958 0.6942143,-1.755774 1.3756823,-2.441741 0.517283,-0.520285 1.523368,-1.110291 1.890717,-1.221993 a 2.2490688,2.2490688 0 0 0 0.0031,-7.31e-4 l 0.253397,-0.07648 a 2.2490688,2.2490688 0 0 0 1.594588,-2.03393 l 0.03749,-0.736193 v -0.0015 c 0.125221,-2.294791 1.649318,-4.213247 3.91413,-4.821997 a 2.2490688,2.2490688 0 0 0 0.0015,0 c 0.482051,-0.129694 0.217413,-0.09597 1.180011,-0.09744 a 2.2490688,2.2490688 0 0 0 0.0015,0 c 0.277398,-7.51e-4 0.557021,0.0068 0.761687,0.01731 0.07721,0.0037 0.146171,0.01584 0.202423,0.02465 0.209167,0.07947 0.640982,0.229398 1.46939,-0.05998 0.985091,-0.343359 1.138776,-0.817163 1.234738,-0.94161 l 0.0015,-0.0015 c 0.02635,-0.03299 0.933369,-0.857642 1.311965,-1.112535 1.057059,-0.712206 1.940945,-1.006085 3.209419,-1.06756 z m -1.91396,5.990024 v 2.249068 h -8.303563 v 2.249068 h 8.303563 v 2.249069 l 5.190852,-3.21092 z m -3.112711,6.747205 -5.190852,3.536287 5.190852,3.21092 v -2.249068 h 8.303563 v -2.249069 h -8.303563 z"
     id="path18"
     style="stroke-width:0.749691" />
</svg>
