<?xml version="1.0" encoding="UTF-8" standalone="no"?>
<svg
   height="48"
   width="48"
   version="1.1"
   id="svg18"
   sodipodi:docname="opendesktop-app.svg"
   inkscape:version="1.1.2 (0a00cf5339, 2022-02-04)"
   xmlns:inkscape="http://www.inkscape.org/namespaces/inkscape"
   xmlns:sodipodi="http://sodipodi.sourceforge.net/DTD/sodipodi-0.dtd"
   xmlns="http://www.w3.org/2000/svg"
   xmlns:svg="http://www.w3.org/2000/svg"
   xmlns:rdf="http://www.w3.org/1999/02/22-rdf-syntax-ns#"
   xmlns:cc="http://creativecommons.org/ns#"
   xmlns:dc="http://purl.org/dc/elements/1.1/">
  <metadata
     id="metadata24">
    <rdf:RDF>
      <cc:Work
         rdf:about="">
        <dc:format>image/svg+xml</dc:format>
        <dc:type
           rdf:resource="http://purl.org/dc/dcmitype/StillImage" />
      </cc:Work>
    </rdf:RDF>
  </metadata>
  <defs
     id="defs22" />
  <sodipodi:namedview
     pagecolor="#ffffff"
     bordercolor="#666666"
     borderopacity="1"
     objecttolerance="10"
     gridtolerance="10"
     guidetolerance="10"
     inkscape:pageopacity="0"
     inkscape:pageshadow="2"
     inkscape:window-width="1920"
     inkscape:window-height="1000"
     id="namedview20"
     showgrid="true"
     inkscape:zoom="9.8333334"
     inkscape:cx="11.644068"
     inkscape:cy="40.169491"
     inkscape:window-x="0"
     inkscape:window-y="0"
     inkscape:window-maximized="1"
     inkscape:current-layer="svg18"
     inkscape:document-rotation="0"
     inkscape:pagecheckerboard="0">
    <inkscape:grid
       type="xygrid"
       id="grid834" />
  </sodipodi:namedview>
  <path
     id="circle2"
     style="opacity:0.99;fill:#b7c4c8"
     transform="matrix(1.72140702696 0 0 1.72140725788 -17.2289093957 -30.06939350282)"
     d="M 37.173613,31.534513 A 13.232998,13.232998 0 0 1 23.940615,44.767511 13.232998,13.232998 0 0 1 10.707617,31.534513 13.232998,13.232998 0 0 1 23.940615,18.301516 13.232998,13.232998 0 0 1 37.173613,31.534513 Z" />
  <circle
     style="opacity:1;fill:#ffffff;fill-opacity:1;stroke:none;stroke-width:18.33686447;stroke-linecap:round;stroke-linejoin:bevel;stroke-miterlimit:4;stroke-dasharray:none;stroke-dashoffset:0;stroke-opacity:1"
     id="path4490"
     cx="23.982634"
     cy="24.214346"
     r="19.559322" />
  <path
     style="fill:#b48ead;fill-opacity:1;stroke:none;stroke-width:2.29533;stroke-linecap:round;stroke-linejoin:miter;stroke-miterlimit:4;stroke-dasharray:none;stroke-dashoffset:0;stroke-opacity:1;paint-order:fill markers stroke"
     d="m 11.833551,12.87676 c -2.8780494,3.074652 -4.4832793,7.126182 -4.4920204,11.337663 0.00404,4.213354 1.6061647,8.268325 4.4830544,11.346616 l 3.516956,-3.517004 v -3.949573 l 0.01794,0.01569 V 16.402608 Z"
     id="path819"
     inkscape:connector-curvature="0"
     sodipodi:nodetypes="cccccccc" />
  <path
     style="fill:#a3be8c;fill-opacity:1;stroke:none;stroke-width:2.29533;stroke-linecap:round;stroke-linejoin:miter;stroke-miterlimit:4;stroke-dasharray:none;stroke-dashoffset:0;stroke-opacity:1;paint-order:fill markers stroke"
     d="m 23.982631,7.5732301 c -4.212884,0.00522 -8.266992,1.6081185 -11.344372,4.4852969 l 2.87588,2.875879 c 0.194829,-0.354628 0.558245,-0.602969 0.992998,-0.602969 h 14.95099 c 0.434753,0 0.798169,0.248341 0.992998,0.602969 l 2.871396,-2.871397 C 32.246962,9.1852524 28.194577,7.5807998 23.982631,7.5732301 Z"
     id="path845"
     inkscape:connector-curvature="0"
     sodipodi:nodetypes="cccssccc" />
  <path
     style="fill:#d08770;fill-opacity:1;stroke:none;stroke-width:2.29533;stroke-linecap:round;stroke-linejoin:miter;stroke-miterlimit:4;stroke-dasharray:none;stroke-dashoffset:0;stroke-opacity:1;paint-order:fill markers stroke"
     d="m 36.138438,12.86996 -3.532649,3.532648 v 15.62345 l 3.528166,3.528164 c 2.877757,-3.075558 4.482209,-7.127943 4.48978,-11.339888 -0.0052,-4.212885 -1.608118,-8.266994 -4.485297,-11.344374 z"
     id="path847"
     inkscape:connector-curvature="0"
     sodipodi:nodetypes="cccccc" />
  <path
     style="fill:#ebcb8b;fill-opacity:1;stroke:none;stroke-width:2.29533;stroke-linecap:round;stroke-linejoin:miter;stroke-miterlimit:4;stroke-dasharray:none;stroke-dashoffset:0;stroke-opacity:1;paint-order:fill markers stroke"
     d="m 32.451125,33.494378 c -0.194829,0.354629 -0.558245,0.602971 -0.992998,0.602971 H 17.762392 l -2.420851,2.420759 v -2.851224 l -2.698799,2.6988 c 3.075558,2.877757 7.127944,4.48221 11.339889,4.48978 4.212884,-0.0052 8.266993,-1.608118 11.344373,-4.485296 z"
     id="path849"
     inkscape:connector-curvature="0"
     sodipodi:nodetypes="csccccccc" />
</svg>
