<?xml version="1.0" encoding="UTF-8" standalone="no"?>
<svg
   height="48"
   width="48"
   version="1.1"
   id="svg6"
   sodipodi:docname="ws.openarena.OpenArena.svg"
   inkscape:version="1.1.2 (0a00cf5339, 2022-02-04)"
   xmlns:inkscape="http://www.inkscape.org/namespaces/inkscape"
   xmlns:sodipodi="http://sodipodi.sourceforge.net/DTD/sodipodi-0.dtd"
   xmlns="http://www.w3.org/2000/svg"
   xmlns:svg="http://www.w3.org/2000/svg">
  <defs
     id="defs10" />
  <sodipodi:namedview
     id="namedview8"
     pagecolor="#ffffff"
     bordercolor="#666666"
     borderopacity="1.0"
     inkscape:pageshadow="2"
     inkscape:pageopacity="0.0"
     inkscape:pagecheckerboard="0"
     showgrid="false"
     inkscape:zoom="5.7894368"
     inkscape:cx="-19.691035"
     inkscape:cy="51.213963"
     inkscape:window-width="1920"
     inkscape:window-height="1031"
     inkscape:window-x="0"
     inkscape:window-y="0"
     inkscape:window-maximized="1"
     inkscape:current-layer="svg6" />
  <path
     id="circle2"
     transform="matrix(1.72140702696 0 0 1.72140725788 -17.2289093957 -30.06939350282)"
     style="opacity:0.99;fill:#81a1c1;fill-opacity:1"
     d="M 37.173613,31.534513 A 13.232998,13.232998 0 0 1 23.940615,44.767511 13.232998,13.232998 0 0 1 10.707617,31.534513 13.232998,13.232998 0 0 1 23.940615,18.301516 13.232998,13.232998 0 0 1 37.173613,31.534513 Z" />
  <path
     d="m23.983723 14.214697c-3.1744.003-6.3449.77158-8.7639 2.2907-5.3173997 3.3405-5.6825997 9.1198-.79736 12.67.4492.32024.85538.62147.90641.6605l-1.3506 2.3768 3.5016 2.0015 6.503-11.887 6.503 11.886 3.501-2.002-1.35-2.376c.051-.039.457-.341.906-.661 4.885-3.549 4.52-9.33-.797-12.669-2.419-1.519-5.589-2.288-8.764-2.291m-.96543 1.6793-5.8576 10.828c-.13706.12509-1.5437-.86765-2.251-1.5912-3.5836-3.6708 0-8.2792 7.0892-9.1549.54324-.05904 1.0205-.08206 1.0205-.08206zm1.9309 0s.47721.02302 1.0205.08206c7.0892.87566 10.673 5.4841 7.0892 9.1549-.70732.72354-2.114 1.7163-2.251 1.5912zm-.966 9.314-2.501 4.502 2.501 4.505 2.501-4.505"
     fill="#ffffff"
     id="path4" />
</svg>
