<?xml version="1.0" encoding="UTF-8" standalone="no"?>
<svg
   height="48"
   width="48"
   version="1.1"
   id="svg6"
   sodipodi:docname="org.kde.step.svg"
   inkscape:version="1.1.2 (0a00cf5339, 2022-02-04)"
   xmlns:inkscape="http://www.inkscape.org/namespaces/inkscape"
   xmlns:sodipodi="http://sodipodi.sourceforge.net/DTD/sodipodi-0.dtd"
   xmlns="http://www.w3.org/2000/svg"
   xmlns:svg="http://www.w3.org/2000/svg"
   xmlns:rdf="http://www.w3.org/1999/02/22-rdf-syntax-ns#"
   xmlns:cc="http://creativecommons.org/ns#"
   xmlns:dc="http://purl.org/dc/elements/1.1/">
  <metadata
     id="metadata12">
    <rdf:RDF>
      <cc:Work
         rdf:about="">
        <dc:format>image/svg+xml</dc:format>
        <dc:type
           rdf:resource="http://purl.org/dc/dcmitype/StillImage" />
      </cc:Work>
    </rdf:RDF>
  </metadata>
  <defs
     id="defs10" />
  <sodipodi:namedview
     pagecolor="#ffffff"
     bordercolor="#666666"
     borderopacity="1"
     objecttolerance="10"
     gridtolerance="10"
     guidetolerance="10"
     inkscape:pageopacity="0"
     inkscape:pageshadow="2"
     inkscape:window-width="1920"
     inkscape:window-height="1030"
     id="namedview8"
     showgrid="false"
     inkscape:zoom="9.4583331"
     inkscape:cx="1.7444934"
     inkscape:cy="31.665199"
     inkscape:window-x="0"
     inkscape:window-y="24"
     inkscape:window-maximized="1"
     inkscape:current-layer="svg6"
     inkscape:document-rotation="0"
     inkscape:pagecheckerboard="0" />
  <path
     id="circle2"
     style="opacity:0.99;fill:#b48ead"
     transform="matrix(1.75830584759 0 0 1.75830608345 -18.15909274367 -30.97874795549)"
     d="M 37.173613,31.534513 A 13.232998,13.232998 0 0 1 23.940615,44.767511 13.232998,13.232998 0 0 1 10.707617,31.534513 13.232998,13.232998 0 0 1 23.940615,18.301516 13.232998,13.232998 0 0 1 37.173613,31.534513 Z" />
  <g
     id="g22"
     style="fill:#c69aac;fill-opacity:1"
     transform="matrix(0.05721211,0,0,0.05721211,6.1727145,6.0442332)">
    <path
       d="M 91.35,89.66 H 518.76 V 463.82 H 91.35 Z"
       id="use20"
       style="fill:#ffffff;fill-opacity:0.90861148" />
  </g>
  <g
     id="g26"
     style="fill:#ffffff;fill-opacity:1"
     transform="matrix(0.05721211,0,0,0.05721211,6.1727145,6.0442332)">
    <path
       d="m 64.27,463.82 h 494.38 v 84.27 H 64.27 Z"
       id="use24"
       style="fill:#ffffff;fill-opacity:1" />
  </g>
  <g
     id="g30"
     style="fill:#977681;fill-opacity:1"
     transform="matrix(0.05721211,0,0,0.05721211,6.1727145,6.0442332)">
    <path
       d="M 110.22,116.4 H 497.87 V 455.96 H 110.22 Z"
       id="use28"
       style="fill:#b48ead;fill-opacity:0.99215686" />
  </g>
  <g
     id="g34"
     style="fill:#f8f5f8;fill-opacity:0.81884992"
     transform="matrix(0.05721211,0,0,0.05721211,6.1727145,6.0442332)">
    <path
       d="M 414.61,111.85 429.64,102 568.2,313.46 553.16,323.31 Z"
       id="use32"
       style="fill:#f8f5f8;fill-opacity:0.81884992" />
  </g>
  <g
     id="g38"
     style="fill:#c69aac;fill-opacity:1"
     transform="matrix(0.05721211,0,0,0.05721211,6.1727145,6.0442332)">
    <path
       id="use36"
       style="fill:#ffffff;fill-opacity:0.75478327;stroke-width:0.0572121"
       d="M 15.320312 12.710938 L 15.320312 24.029297 C 15.486938 23.997517 15.657731 23.978516 15.833984 23.978516 C 16.01019 23.978516 16.183003 23.997509 16.349609 24.029297 L 16.349609 12.710938 L 15.320312 12.710938 z "
       transform="matrix(17.478817,0,0,17.478817,-107.89175,-105.64605)" />
  </g>
  <g
     id="g42"
     style="fill:#c69aac;fill-opacity:1"
     transform="matrix(0.05721211,0,0,0.05721211,6.1727145,6.0442332)">
    <path
       id="use40"
       style="fill:#ffffff;fill-opacity:0.75478327;stroke-width:0.0572121"
       d="M 21.220703 12.710938 L 21.220703 24.023438 C 21.367739 23.998947 21.517618 23.978516 21.671875 23.978516 C 21.871356 23.978516 22.063122 24.004475 22.25 24.044922 L 22.25 12.710938 L 21.220703 12.710938 z "
       transform="matrix(17.478817,0,0,17.478817,-107.89175,-105.64605)" />
  </g>
  <g
     id="g46"
     style="fill:#c69aac;fill-opacity:1"
     transform="matrix(0.05721211,0,0,0.05721211,6.1727145,6.0442332)">
    <path
       id="use44"
       style="fill:#ffffff;fill-opacity:0.75478327;stroke-width:0.0572121"
       d="M 26.736328 12.712891 L 26.736328 24.029297 C 26.902973 23.997509 27.075678 23.978516 27.251953 23.978516 C 27.428137 23.978516 27.599038 23.997517 27.765625 24.029297 L 27.765625 12.712891 L 26.736328 12.712891 z "
       transform="matrix(17.478817,0,0,17.478817,-107.89175,-105.64605)" />
  </g>
  <g
     id="g50"
     style="fill:#ddafc2;fill-opacity:1"
     transform="matrix(0.05721211,0,0,0.05721211,6.1727145,6.0442332)">
    <path
       d="m 215.06,357.98 c 0,24.55 -20.7,44.49 -46.18,44.49 -25.49,0 -46.18,-19.94 -46.18,-44.49 0,-24.56 20.69,-44.5 46.18,-44.5 25.48,0 46.18,19.94 46.18,44.5 z"
       id="use48"
       style="fill:#ffffff;fill-opacity:0.75478327" />
  </g>
  <g
     id="g54"
     style="fill:#ddafc2;fill-opacity:1"
     transform="matrix(0.05721211,0,0,0.05721211,6.1727145,6.0442332)">
    <path
       d="m 317.08,357.98 c 0,24.55 -20.69,44.49 -46.18,44.49 -25.49,0 -46.18,-19.94 -46.18,-44.49 0,-24.56 20.69,-44.5 46.18,-44.5 25.49,0 46.18,19.94 46.18,44.5 z"
       id="use52"
       style="fill:#ffffff;fill-opacity:0.75478327" />
  </g>
  <g
     id="g58"
     style="fill:#ddafc2;fill-opacity:1"
     transform="matrix(0.05721211,0,0,0.05721211,6.1727145,6.0442332)">
    <path
       d="m 414.61,357.98 c 0,24.55 -20.7,44.49 -46.18,44.49 -25.49,0 -46.18,-19.94 -46.18,-44.49 0,-24.56 20.69,-44.5 46.18,-44.5 25.48,0 46.18,19.94 46.18,44.5 z"
       id="use56"
       style="fill:#ffffff;fill-opacity:0.75478327" />
  </g>
  <g
     id="g62"
     style="fill:#ddafc2;fill-opacity:1"
     transform="matrix(0.05721211,0,0,0.05721211,6.1727145,6.0442332)">
    <path
       d="m 603.72,299.2 c 17.18,17.55 16.33,46.28 -1.89,64.1 -18.22,17.83 -46.95,18.05 -64.13,0.49 -17.17,-17.55 -16.32,-46.27 1.9,-64.1 18.21,-17.82 46.95,-18.04 64.12,-0.49 z"
       id="use60"
       style="fill:#ffffff;fill-opacity:1" />
  </g>
</svg>
