<?xml version="1.0" encoding="UTF-8" standalone="no"?>
<svg
   height="48"
   width="48"
   version="1.1"
   id="svg6"
   sodipodi:docname="petris-icon.svg"
   inkscape:version="1.1.2 (0a00cf5339, 2022-02-04)"
   xmlns:inkscape="http://www.inkscape.org/namespaces/inkscape"
   xmlns:sodipodi="http://sodipodi.sourceforge.net/DTD/sodipodi-0.dtd"
   xmlns="http://www.w3.org/2000/svg"
   xmlns:svg="http://www.w3.org/2000/svg"
   xmlns:rdf="http://www.w3.org/1999/02/22-rdf-syntax-ns#"
   xmlns:cc="http://creativecommons.org/ns#"
   xmlns:dc="http://purl.org/dc/elements/1.1/">
  <metadata
     id="metadata12">
    <rdf:RDF>
      <cc:Work
         rdf:about="">
        <dc:format>image/svg+xml</dc:format>
        <dc:type
           rdf:resource="http://purl.org/dc/dcmitype/StillImage" />
      </cc:Work>
    </rdf:RDF>
  </metadata>
  <defs
     id="defs10" />
  <sodipodi:namedview
     pagecolor="#ffffff"
     bordercolor="#666666"
     borderopacity="1"
     objecttolerance="10"
     gridtolerance="10"
     guidetolerance="10"
     inkscape:pageopacity="0"
     inkscape:pageshadow="2"
     inkscape:window-width="1920"
     inkscape:window-height="1032"
     id="namedview8"
     showgrid="true"
     inkscape:zoom="6.9532164"
     inkscape:cx="-9.4201009"
     inkscape:cy="31.568124"
     inkscape:window-x="0"
     inkscape:window-y="24"
     inkscape:window-maximized="1"
     inkscape:current-layer="svg6"
     inkscape:pagecheckerboard="0">
    <inkscape:grid
       type="xygrid"
       id="grid822" />
  </sodipodi:namedview>
  <path
     d="m44.322082 27.405077a19.729762 19.729765 0 0 1 -19.729762 19.729765 19.729762 19.729765 0 0 1 -19.7297621-19.729765 19.729762 19.729765 0 0 1 19.7297621-19.7297632 19.729762 19.729765 0 0 1 19.729762 19.7297632z"
     opacity=".99"
     transform="matrix(1.1503549 0 0 1.1503549 -4.486125 -7.525565)"
     id="path2"
     style="fill:#ebcb8b;fill-opacity:1" />
  <g
     fill="#ff3333"
     id="g23"
     transform="matrix(2.6541381,0,0,2.6541381,1.207911,1.207911)"
     style="fill:#fefffe;fill-opacity:1">
    <rect
       width="6.8790002"
       height="2.1170001"
       x="6.3499999"
       y="11.112"
       rx="0.52899998"
       ry="0.52899998"
       id="rect17"
       style="fill:#fefffe;fill-opacity:1" />
    <rect
       width="2.1170001"
       height="3.4389999"
       x="11.112"
       y="8.7309999"
       rx="0.52899998"
       ry="0.52899998"
       id="rect19"
       style="fill:#fefffe;fill-opacity:1" />
    <path
       d="m 11.112,10.319 c 0,0.44 -0.354,0.794 -0.794,0.794 v 0.264 h 1.059 V 10.32 Z"
       id="path21"
       style="fill:#fefffe;fill-opacity:1" />
  </g>
  <g
     fill="#00e500"
     id="g31"
     transform="matrix(2.6541381,0,0,2.6541381,1.207911,1.207911)"
     style="fill:#fefffe;fill-opacity:1">
    <rect
       width="2.1170001"
       height="6.8790002"
       x="3.9690001"
       y="6.3499999"
       rx="0.52899998"
       ry="0.52899998"
       id="rect25"
       style="fill:#fefffe;fill-opacity:1" />
    <rect
       width="2.9100001"
       height="2.1170001"
       x="5.5560002"
       y="8.7309999"
       rx="0.52899998"
       ry="0.52899998"
       id="rect27"
       style="fill:#fefffe;fill-opacity:1" />
    <path
       d="m 6.085,11.641 c 0,-0.44 0.354,-0.794 0.794,-0.794 V 10.583 H 5.821 v 1.058 z M 6.879,8.731 A 0.792,0.792 0 0 1 6.085,7.937 H 5.821 v 1.059 h 1.058 z"
       id="path29"
       style="fill:#fefffe;fill-opacity:1" />
  </g>
  <g
     fill="#0088cc"
     id="g41"
     transform="matrix(2.6541381,0,0,2.6541381,1.207911,1.207911)"
     style="fill:#fefffe;fill-opacity:1">
    <rect
       width="2.1170001"
       height="4.4980001"
       x="8.7309999"
       y="6.3499999"
       rx="0.52899998"
       ry="0.52899998"
       id="rect33"
       style="fill:#fefffe;fill-opacity:1" />
    <rect
       width="3.4389999"
       height="2.1170001"
       x="9.7889996"
       y="6.3499999"
       rx="0.52899998"
       ry="0.52899998"
       id="rect35"
       style="fill:#fefffe;fill-opacity:1" />
    <rect
       width="2.1170001"
       height="3.4389999"
       x="11.112"
       y="3.9690001"
       rx="0.52899998"
       ry="0.52899998"
       id="rect37"
       style="fill:#fefffe;fill-opacity:1" />
    <path
       d="m 11.112,5.556 c 0,0.44 -0.354,0.794 -0.794,0.794 v 0.264 h 1.059 V 5.556 Z M 10.848,9.26 c 0,-0.44 0.354,-0.794 0.794,-0.794 V 8.202 H 10.583 V 9.26 Z"
       id="path39"
       style="fill:#fefffe;fill-opacity:1" />
  </g>
</svg>
