<?xml version="1.0" encoding="UTF-8" standalone="no"?>
<svg
   height="48"
   width="48"
   version="1.1"
   id="svg24"
   sodipodi:docname="playonlinux.svg"
   inkscape:version="1.1.2 (0a00cf5339, 2022-02-04)"
   xmlns:inkscape="http://www.inkscape.org/namespaces/inkscape"
   xmlns:sodipodi="http://sodipodi.sourceforge.net/DTD/sodipodi-0.dtd"
   xmlns="http://www.w3.org/2000/svg"
   xmlns:svg="http://www.w3.org/2000/svg">
  <defs
     id="defs28" />
  <sodipodi:namedview
     id="namedview26"
     pagecolor="#ffffff"
     bordercolor="#666666"
     borderopacity="1.0"
     inkscape:pageshadow="2"
     inkscape:pageopacity="0.0"
     inkscape:pagecheckerboard="0"
     showgrid="false"
     inkscape:zoom="13.229167"
     inkscape:cx="37.75748"
     inkscape:cy="26.267717"
     inkscape:window-width="1920"
     inkscape:window-height="1028"
     inkscape:window-x="0"
     inkscape:window-y="24"
     inkscape:window-maximized="1"
     inkscape:current-layer="svg24" />
  <g
     fill="#c7b892"
     opacity=".99"
     transform="matrix(1.1503549 0 0 1.1503549 -4.486125 -7.525565)"
     id="g12">
    <path
       d="m44.322082 27.405077a19.729762 19.729765 0 0 1 -19.729762 19.729765 19.729762 19.729765 0 0 1 -19.7297621-19.729765 19.729762 19.729765 0 0 1 19.7297621-19.7297632 19.729762 19.729765 0 0 1 19.729762 19.7297632z"
       fill="#80c778"
       id="path2" />
    <path
       d="m44.322082 27.405077c0 10.896448-8.833315 19.729765-19.729762 19.729765s-19.7297621-8.833317-19.7297621-19.729765h19.7297621z"
       fill="#80c7f3"
       id="path4" />
    <path
       d="m24.59232 7.6753138c10.896446 0 19.729761 8.8333152 19.729762 19.7297632 0 10.896448-8.833315 19.729765-19.729762 19.729765"
       fill="#ffc778"
       id="path6" />
    <path
       d="m10.641272 13.454028c3.570385-3.5703853 8.502825-5.7787142 13.951048-5.7787142 10.896446.0000001 19.729761 8.8333152 19.729762 19.7297632h-19.729762z"
       fill="#4dc778"
       id="path8" />
    <path
       d="m24.59232 27.529263v-19.8539492c10.896446 0 19.729761 8.8333152 19.729762 19.7297632"
       fill="#ffc778"
       id="path10" />
  </g>
  <path
     id="path14"
     d="M 23.804688 1.3046875 A 22.696228 22.696232 0 0 0 1.1074219 24 A 22.696228 22.696232 0 0 0 23.804688 46.695312 A 22.696228 22.696232 0 0 0 46.5 24 A 22.696228 22.696232 0 0 0 23.804688 1.3046875 z "
     style="fill:#a3be8c;fill-opacity:1" />
  <path
     id="path16"
     d="M 1.1074219 24 C 1.1074219 36.534782 11.269906 46.695312 23.804688 46.695312 C 36.339469 46.695313 46.5 36.534782 46.5 24 L 23.804688 24 L 1.1074219 24 z "
     style="fill:#81a1c1;fill-opacity:1" />
  <path
     id="path18"
     d="M 23.804688 1.3046875 L 23.804688 46.695312 C 36.339469 46.695313 46.5 36.534782 46.5 24 C 46.499999 11.465217 36.339468 1.3046875 23.804688 1.3046875 z "
     style="fill:#d08770;fill-opacity:1" />
  <path
     id="path20"
     d="M 23.804688 1.3046875 L 23.804688 24.142578 L 46.5 24 C 46.499999 11.465217 36.339468 1.3046875 23.804688 1.3046875 z "
     style="fill:#ebcb8b;fill-opacity:1" />
  <path
     d="m28.557857 10.749909c-2.756124-.73962-4.642333 3.04596-5.084631 7.263295-1.119724-4.975755-4.236369-9.0927479-7.534596-5.395814-1.224929 1.376228-1.508231 2.489981-1.322288 3.382009-.908975-.08048-1.985202.331375-3.211683 1.703723-2.908496 3.25825 1.170246 5.984169 6.010869 6.713074-4.786158 1.192167-8.5667309 4.223034-4.96706 7.422481 1.380687 1.223826 2.497294 1.508851 3.390903 1.324177-.07993.907094.332489 1.981516 1.70851 3.206512 3.195748 2.842413 5.874424-.989264 6.670073-5.678459 1.336854 4.566823 4.444707 8.066333 7.287833 4.877594 1.224012-1.374211 1.509785-2.488197 1.324685-3.380122.90921.08141 1.984667-.329991 3.213019-1.703447 3.207358-3.595099-.91922-6.174024-5.821645-6.806032 4.732262-1.274516 8.484575-4.44791 5.210965-7.355357-1.377894-1.223532-2.495823-1.509225-3.389291-1.325233.08063-.907377-.330376-1.98069-1.708235-3.207846-.624431-.555033-1.21917-.890744-1.777428-1.040555zm-4.819452 13.210818c.0047.03197.0057.06435.01493.09625-.0089-.0015-.01842-.0014-.02727-.0029.0055-.03018.0071-.06303.01237-.09338z"
     fill="#ffffff"
     stroke-width=".697905"
     id="path22" />
</svg>
