<?xml version="1.0" encoding="UTF-8" standalone="no"?>
<svg
   height="48"
   width="48"
   version="1.1"
   id="svg6"
   sodipodi:docname="preferences-system-network-sharing.svg"
   inkscape:version="1.1.2 (0a00cf5339, 2022-02-04)"
   xmlns:inkscape="http://www.inkscape.org/namespaces/inkscape"
   xmlns:sodipodi="http://sodipodi.sourceforge.net/DTD/sodipodi-0.dtd"
   xmlns="http://www.w3.org/2000/svg"
   xmlns:svg="http://www.w3.org/2000/svg">
  <defs
     id="defs10" />
  <sodipodi:namedview
     id="namedview8"
     pagecolor="#ffffff"
     bordercolor="#666666"
     borderopacity="1.0"
     inkscape:pageshadow="2"
     inkscape:pageopacity="0.0"
     inkscape:pagecheckerboard="0"
     showgrid="false"
     inkscape:zoom="13.229167"
     inkscape:cx="23.017323"
     inkscape:cy="24"
     inkscape:window-width="1920"
     inkscape:window-height="1022"
     inkscape:window-x="0"
     inkscape:window-y="32"
     inkscape:window-maximized="1"
     inkscape:current-layer="svg6" />
  <path
     id="path2"
     style="stroke-width:1.15035;fill:#a3be8c;fill-opacity:1"
     d="M 23.804688 1.3046875 A 22.696228 22.696232 0 0 0 1.1074219 24 A 22.696228 22.696232 0 0 0 23.804688 46.695312 A 22.696228 22.696232 0 0 0 46.5 24 A 22.696228 22.696232 0 0 0 23.804688 1.3046875 z " />
  <path
     d="m30.071151 11.142298c-2.080327 0-3.755102 1.674776-3.755102 3.755102 0 2.080327 1.674775 3.755102 3.755102 3.755102 2.080326 0 3.755102-1.674775 3.755102-3.755102 0-2.080326-1.674776-3.755102-3.755102-3.755102zm-6.571429 5.632654c-.520082 0-.938775.418693-.938775.938775 0 .520081.418693.938775.938775.938775s.938776-.418694.938776-.938775c0-.520082-.418694-.938775-.938776-.938775zm-3.755101 1.87755c-.520082 0-.938776.418694-.938776.938776s.418694.938776.938776.938776c.520081 0 .938775-.418694.938775-.938776s-.418694-.938776-.938775-.938776zm-6.571429 1.877552c-2.080327 0-3.7551037 1.674775-3.7551037 3.755102 0 2.080326 1.6747767 3.755102 3.7551037 3.755102 2.080326 0 3.755102-1.674776 3.755102-3.755102 0-2.080327-1.674776-3.755102-3.755102-3.755102zm6.571429 7.510204c-.520082 0-.938776.418694-.938776.938776 0 .520081.418694.938774.938776.938774.520081 0 .938775-.418693.938775-.938774 0-.520082-.418694-.938776-.938775-.938776zm3.755101 1.87755c-.520082 0-.938775.418695-.938775.938776 0 .520082.418693.938776.938775.938776s.938776-.418694.938776-.938776c0-.520081-.418694-.938776-.938776-.938776zm6.571429 0c-2.080327 0-3.755102 1.674776-3.755102 3.755103 0 2.080326 1.674775 3.755102 3.755102 3.755102 2.080326 0 3.755102-1.674776 3.755102-3.755102 0-2.080327-1.674776-3.755103-3.755102-3.755103z"
     fill="#ffffff"
     id="path4" />
</svg>
