<?xml version="1.0" encoding="UTF-8" standalone="no"?>
<svg
   height="48"
   width="48"
   version="1.1"
   id="svg20"
   sodipodi:docname="preferences-system-brightness-lock.svg"
   inkscape:version="1.1.2 (0a00cf5339, 2022-02-04)"
   xmlns:inkscape="http://www.inkscape.org/namespaces/inkscape"
   xmlns:sodipodi="http://sodipodi.sourceforge.net/DTD/sodipodi-0.dtd"
   xmlns="http://www.w3.org/2000/svg"
   xmlns:svg="http://www.w3.org/2000/svg">
  <defs
     id="defs24" />
  <sodipodi:namedview
     id="namedview22"
     pagecolor="#ffffff"
     bordercolor="#666666"
     borderopacity="1.0"
     inkscape:pageshadow="2"
     inkscape:pageopacity="0.0"
     inkscape:pagecheckerboard="0"
     showgrid="false"
     inkscape:zoom="6.6145835"
     inkscape:cx="21.392125"
     inkscape:cy="35.75433"
     inkscape:window-width="1920"
     inkscape:window-height="1022"
     inkscape:window-x="0"
     inkscape:window-y="32"
     inkscape:window-maximized="1"
     inkscape:current-layer="svg20" />
  <path
     id="path2"
     style="fill:#ebcb8b;fill-opacity:1;stroke-width:1.15035"
     d="M 23.804688 1.3046875 A 22.696228 22.696232 0 0 0 1.1074219 24 A 22.696228 22.696232 0 0 0 23.804688 46.695312 A 22.696228 22.696232 0 0 0 46.5 24 A 22.696228 22.696232 0 0 0 23.804688 1.3046875 z " />
  <path
     d="m22.303771 9.5000008c-.554 0-.95907.447514-1 1.0000002l-.171875 2.330078c-2.165358.518359-4.133678 1.654163-5.666016 3.269531l-2.103515-1.015625c-.479778-.277-1.088236-.112591-1.365235.367188l-1.5 2.597656c-.277.479779-.09277 1.055499.365235 1.367188l1.923828 1.308593c-.317947 1.062814-.480437 2.16604-.482422 3.275391.0028 1.108791.165954 2.211349.484375 3.273438l-1.925781 1.310546c-.479779.277-.642235.88741-.365235 1.367188l1.5 2.597656c.277.479779.866303.607985 1.365235.367188l2.097656-1.011719c1.53418 1.615627 3.504639 2.750812 5.671875 3.267578l.171875 2.328125c0 .554.446 1 1 1h3c.554 0 .95907-.447514 1-1l.171875-2.330078c2.165358-.518359 4.133678-1.654163 5.666016-3.269531l2.103515 1.015625c.479778.277 1.088236.112591 1.365235-.367188l1.5-2.597656c.277001-.479779.09277-1.055499-.365235-1.367188l-1.923828-1.308593c.317947-1.062814.480437-2.16604.482422-3.275391-.0028-1.108791-.165954-2.211349-.484375-3.273438l1.925781-1.310546c.479778-.277.642236-.88741.365235-1.367188l-1.5-2.597656c-.277-.479779-.866303-.607985-1.365235-.367188l-2.097656 1.011719c-1.53418-1.615627-3.504639-2.750812-5.671875-3.267578l-.171875-2.328125c0-.5540002-.446-1.0000002-1-1.0000002z"
     fill="#ffffff"
     fill-opacity=".541063"
     id="path4" />
  <path
     d="m22.303771 9.5000008c-.554 0-.95907.447514-1 1.0000002l-.171875 2.330078c-2.165358.518359-4.133678 1.654163-5.666016 3.269531l-2.103515-1.015625c-.479778-.277-1.088236-.112591-1.365235.367188l-1.5 2.597656c-.277.479779-.09277 1.055499.365235 1.367188l1.923828 1.308593c-.317947 1.062814-.480437 2.16604-.482422 3.275391.0028 1.108791.165954 2.211349.484375 3.273438l22.033203.002c.317947-1.062814.480437-2.16604.482422-3.275391-.0028-1.108791-.165954-2.211349-.484375-3.273438l1.925781-1.310546c.479778-.277.642236-.88741.365235-1.367188l-1.5-2.597656c-.277-.479779-.866303-.607985-1.365235-.367188l-2.097656 1.011719c-1.53418-1.615627-3.504639-2.750812-5.671875-3.267578l-.171875-2.328125c0-.5540002-.446-1.0000002-1-1.0000002z"
     fill="#ffffff"
     fill-opacity=".444444"
     id="path6" />
  <path
     d="m22.303771 9.5000008c-.554 0-.95907.447514-1 1.0000002l-.171875 2.330078c-2.165358.518359-4.133678 1.654163-5.666016 3.269531l-2.103515-1.015625c-.479778-.277-1.088236-.112591-1.365235.367188l-1.5 2.597656c-.277.479779-.09277 1.055499.365235 1.367188l1.923828 1.308593 22.033203.002 1.925781-1.310546c.479778-.277.642236-.88741.365235-1.367188l-1.5-2.597656c-.277-.479779-.866303-.607985-1.365235-.367188l-2.097656 1.011719c-1.53418-1.615627-3.504639-2.750812-5.671875-3.267578l-.171875-2.328125c0-.5540002-.446-1.0000002-1-1.0000002z"
     fill="#ffffff"
     id="path8" />
  <g
     fill="#c38e2c"
     id="g18">
    <path
       d="m19.5 30h9v3h-9z"
       id="path10"
       style="fill:#ebcb8b;fill-opacity:1" />
    <path
       d="m19.5 25.5h9v3h-9z"
       id="path12"
       style="fill:#ebcb8b;fill-opacity:1" />
    <path
       d="m19.5 21h9v3h-9z"
       id="path14"
       style="fill:#ebcb8b;fill-opacity:1" />
    <path
       d="m19.5 16.5h9v3h-9z"
       id="path16"
       style="fill:#ebcb8b;fill-opacity:1" />
  </g>
</svg>
