<?xml version="1.0" encoding="UTF-8" standalone="no"?>
<svg
   xmlns:dc="http://purl.org/dc/elements/1.1/"
   xmlns:cc="http://creativecommons.org/ns#"
   xmlns:rdf="http://www.w3.org/1999/02/22-rdf-syntax-ns#"
   xmlns:svg="http://www.w3.org/2000/svg"
   xmlns="http://www.w3.org/2000/svg"
   xmlns:sodipodi="http://sodipodi.sourceforge.net/DTD/sodipodi-0.dtd"
   xmlns:inkscape="http://www.inkscape.org/namespaces/inkscape"
   height="48"
   width="48"
   version="1.1"
   id="svg8"
   sodipodi:docname="preferences-desktop-user.svg"
   inkscape:version="1.0.2 (e86c870879, 2021-01-15)">
  <metadata
     id="metadata14">
    <rdf:RDF>
      <cc:Work
         rdf:about="">
        <dc:format>image/svg+xml</dc:format>
        <dc:type
           rdf:resource="http://purl.org/dc/dcmitype/StillImage" />
        <dc:title />
      </cc:Work>
    </rdf:RDF>
  </metadata>
  <defs
     id="defs12" />
  <sodipodi:namedview
     pagecolor="#ffffff"
     bordercolor="#666666"
     borderopacity="1"
     objecttolerance="10"
     gridtolerance="10"
     guidetolerance="10"
     inkscape:pageopacity="0"
     inkscape:pageshadow="2"
     inkscape:window-width="1920"
     inkscape:window-height="1028"
     id="namedview10"
     showgrid="false"
     inkscape:zoom="9.4583336"
     inkscape:cx="23.691426"
     inkscape:cy="32.323063"
     inkscape:window-x="0"
     inkscape:window-y="24"
     inkscape:window-maximized="1"
     inkscape:current-layer="svg8"
     inkscape:document-rotation="0" />
  <path
     d="m44.322082 27.405077a19.729762 19.729765 0 0 1 -19.729762 19.729765 19.729762 19.729765 0 0 1 -19.7297621-19.729765 19.729762 19.729765 0 0 1 19.7297621-19.7297632 19.729762 19.729765 0 0 1 19.729762 19.7297632z"
     fill="#89a02c"
     opacity=".99"
     transform="matrix(1.1503549 0 0 1.1503549 -4.486125 -7.525565)"
     id="path2"
     style="fill:#bf6d61;fill-opacity:1" />
  <circle
     style="fill:#ffffff;fill-opacity:1;stroke-width:2.05471;stroke-linecap:square"
     id="path835"
     cx="24.005949"
     cy="13.22702"
     r="5.7180758" />
  <path
     id="path837"
     style="fill:#ffffff;fill-opacity:1;stroke-width:1.80608;stroke-linecap:square"
     d="m 23.999768,21.344156 -2.608521,2.222262 2.046685,2.42793 -0.717344,8.43255 1.27918,4.449536 1.279179,-4.449536 -0.717344,-8.43255 2.046687,-2.42793 z m -3.576685,0.0051 c -6.90755,1.721762 -10.128087,8.408552 -10.128087,14.938804 h 11.763431 l -3.576685,-6.857404 2.503177,-2.718882 -4.45957,-1.198917 z m 7.153369,0 3.897734,4.163601 -4.459568,1.198917 2.503179,2.718882 -3.576685,6.857404 h 11.76343 c 0,-6.530252 -3.220538,-13.217042 -10.12809,-14.938804 z" />
  <circle
     cx="34.48148"
     cy="32.459538"
     fill="#ffffff"
     r="8.25"
     stroke="#ec725f"
     stroke-linecap="round"
     stroke-width="1.6"
     id="circle6"
     style="stroke:#c06d61;stroke-opacity:0.99215686" />
  <g
     fill="#ec725f"
     transform="translate(1.5171924,-0.50475058)"
     id="g12"
     style="fill:#df7b6c;fill-opacity:1">
    <path
       d="M 32.099609,28.5 C 31.767209,28.5 31.5,28.767209 31.5,29.099609 v 0.572266 a 3.6550763,3.6550763 0 0 0 -0.630859,0.363281 L 30.373047,29.75 c -0.287867,-0.1662 -0.654113,-0.06716 -0.820313,0.220703 l -0.90039,1.558594 c -0.1662,0.287867 -0.06716,0.654112 0.220703,0.820312 l 0.490234,0.283203 A 3.6550763,3.6550763 0 0 0 29.345703,33 a 3.6550763,3.6550763 0 0 0 0.02148,0.365234 l -0.494141,0.285157 c -0.287867,0.1662 -0.386903,0.532445 -0.220703,0.820312 l 0.90039,1.558594 c 0.1662,0.287867 0.532446,0.386903 0.820313,0.220703 l 0.494141,-0.285156 A 3.6550763,3.6550763 0 0 0 31.5,36.330078 v 0.570313 c 0,0.3324 0.267209,0.599609 0.599609,0.599609 h 1.800782 C 34.232791,37.5 34.5,37.232791 34.5,36.900391 v -0.572266 a 3.6550763,3.6550763 0 0 0 0.630859,-0.363281 L 35.626953,36.25 c 0.287867,0.1662 0.654113,0.06716 0.820313,-0.220703 l 0.90039,-1.558594 c 0.1662,-0.287867 0.06716,-0.654112 -0.220703,-0.820312 L 36.636719,33.367188 A 3.6550763,3.6550763 0 0 0 36.654297,33 3.6550763,3.6550763 0 0 0 36.632812,32.634766 l 0.494141,-0.285157 c 0.287867,-0.1662 0.386903,-0.532445 0.220703,-0.820312 l -0.90039,-1.558594 C 36.281066,29.682836 35.91482,29.5838 35.626953,29.75 l -0.494141,0.285156 A 3.6550763,3.6550763 0 0 0 34.5,29.669922 V 29.099609 C 34.5,28.767209 34.232791,28.5 33.900391,28.5 Z"
       id="path8"
       style="fill:#df7b6c;fill-opacity:1" />
    <circle
       cx="33"
       cy="33"
       r="2.1099329"
       stroke="#ffffff"
       stroke-linecap="round"
       stroke-width="0.7"
       id="circle10"
       style="fill:#df7b6c;fill-opacity:1" />
  </g>
</svg>
