<?xml version="1.0" encoding="UTF-8" standalone="no"?>
<svg
   height="48"
   width="48"
   version="1.1"
   id="svg6"
   sodipodi:docname="ksmiletris.svg"
   inkscape:version="1.1.2 (0a00cf5339, 2022-02-04)"
   xmlns:inkscape="http://www.inkscape.org/namespaces/inkscape"
   xmlns:sodipodi="http://sodipodi.sourceforge.net/DTD/sodipodi-0.dtd"
   xmlns="http://www.w3.org/2000/svg"
   xmlns:svg="http://www.w3.org/2000/svg"
   xmlns:rdf="http://www.w3.org/1999/02/22-rdf-syntax-ns#"
   xmlns:cc="http://creativecommons.org/ns#"
   xmlns:dc="http://purl.org/dc/elements/1.1/">
  <metadata
     id="metadata12">
    <rdf:RDF>
      <cc:Work
         rdf:about="">
        <dc:format>image/svg+xml</dc:format>
        <dc:type
           rdf:resource="http://purl.org/dc/dcmitype/StillImage" />
      </cc:Work>
    </rdf:RDF>
  </metadata>
  <defs
     id="defs10" />
  <sodipodi:namedview
     pagecolor="#ffffff"
     bordercolor="#666666"
     borderopacity="1"
     objecttolerance="10"
     gridtolerance="10"
     guidetolerance="10"
     inkscape:pageopacity="0"
     inkscape:pageshadow="2"
     inkscape:window-width="1920"
     inkscape:window-height="1031"
     id="namedview8"
     showgrid="false"
     inkscape:zoom="9.4583332"
     inkscape:cx="3.38326"
     inkscape:cy="26.696036"
     inkscape:window-x="0"
     inkscape:window-y="0"
     inkscape:window-maximized="1"
     inkscape:current-layer="svg6"
     inkscape:document-rotation="0"
     inkscape:pagecheckerboard="0" />
  <path
     id="circle2"
     style="opacity:0.99;fill:#ebcb8b;fill-opacity:1"
     transform="matrix(1.75830584759 0 0 1.75830608345 -18.15909274367 -30.97874795549)"
     d="M 37.173613,31.534513 A 13.232998,13.232998 0 0 1 23.940615,44.767511 13.232998,13.232998 0 0 1 10.707617,31.534513 13.232998,13.232998 0 0 1 23.940615,18.301516 13.232998,13.232998 0 0 1 37.173613,31.534513 Z" />
  <circle
     style="fill:#4c566a;fill-opacity:1;fill-rule:evenodd;stroke-width:0.91152"
     id="path1013"
     cx="23.935831"
     cy="24.468578"
     r="19.982378" />
  <circle
     r="17.653955"
     cy="24.634361"
     cx="23.894272"
     id="path905"
     style="fill:#ebcb8b;fill-opacity:1;stroke-width:0.705005;stroke-miterlimit:4;stroke-dasharray:none" />
  <path
     id="path1054"
     style="fill:#4c566a;fill-opacity:1;stroke:none;stroke-width:0.126139;stroke-linecap:butt;stroke-linejoin:miter;stroke-miterlimit:4;stroke-dasharray:none;stroke-opacity:1"
     d="m 16.552021,16.977695 c -1.931694,-0.02566 -4.152761,0.202369 -6.7614412,0.675405 -0.133895,0 -0.179123,0.05216 -0.179123,0.387001 v 0.536545 c 4.22e-4,0.07614 0.05925,0.149229 0.119141,0.148721 h 0.208702 c 0.1559612,-0.01542 0.2821452,0.0643 0.3278422,0.417403 0.48208,5.441268 3.269656,7.167776 6.020304,7.210888 3.332955,0.05223 6.323973,-2.119655 6.703925,-5.721218 0.06325,-0.584563 0.489492,-0.848315 0.903004,-0.833985 0.413513,-0.01431 0.840579,0.249422 0.903826,0.833985 0.379951,3.601563 3.077639,5.982153 6.410592,5.92992 2.75065,-0.04312 5.830735,-1.769624 6.312815,-7.210889 0.0457,-0.353112 0.171882,-0.432804 0.327843,-0.417403 h 0.208701 c 0.05989,5.05e-4 0.119141,-0.07258 0.119141,-0.148721 v -0.536544 c 0,-0.334843 -0.04522,-0.387823 -0.179121,-0.387823 -3.478238,-0.630715 -6.28859,-0.929231 -8.620858,-0.668832 -4.053877,0.452619 -3.99189,1.670435 -5.259446,1.670435 h -0.447806 c -1.267557,0 -1.225289,-1.321346 -5.279166,-1.773964 -0.583068,-0.06509 -1.194979,-0.102373 -1.838875,-0.110926 z m -3.170787,12.669177 c -0.37979,0.0086 -0.796999,0.449461 -0.235817,1.128962 3.247822,3.771322 11.657342,8.974941 20.45605,0.105171 0.638675,-0.638674 -0.06189,-1.568285 -0.617888,-1.012285 -8.730947,7.117757 -15.392874,3.499261 -19.272859,-0.07888 -0.08076,-0.100164 -0.202889,-0.145845 -0.329486,-0.14297 z" />
</svg>
