<?xml version="1.0" encoding="UTF-8" standalone="no"?>
<svg
   height="48"
   width="48"
   version="1.1"
   id="svg6"
   sodipodi:docname="premid.svg"
   inkscape:version="1.1.2 (0a00cf5339, 2022-02-04)"
   xmlns:inkscape="http://www.inkscape.org/namespaces/inkscape"
   xmlns:sodipodi="http://sodipodi.sourceforge.net/DTD/sodipodi-0.dtd"
   xmlns="http://www.w3.org/2000/svg"
   xmlns:svg="http://www.w3.org/2000/svg"
   xmlns:rdf="http://www.w3.org/1999/02/22-rdf-syntax-ns#"
   xmlns:cc="http://creativecommons.org/ns#"
   xmlns:dc="http://purl.org/dc/elements/1.1/">
  <metadata
     id="metadata12">
    <rdf:RDF>
      <cc:Work
         rdf:about="">
        <dc:format>image/svg+xml</dc:format>
        <dc:type
           rdf:resource="http://purl.org/dc/dcmitype/StillImage" />
      </cc:Work>
    </rdf:RDF>
  </metadata>
  <defs
     id="defs10">
    <linearGradient
       gradientUnits="userSpaceOnUse"
       gradientTransform="matrix(0.0920001,0,0,0.09064843,-21.193131,1.5846311)"
       y2="269.48999"
       y1="235.14999"
       x2="657.65002"
       x1="319.20999"
       id="a-12">
      <stop
         id="stop1076"
         offset="0"
         stop-color="#e54c18" />
      <stop
         id="stop1078"
         offset="1"
         stop-color="#fec350" />
    </linearGradient>
    <linearGradient
       id="linearGradient946"
       x1="31.833"
       x2="32.167"
       y1="51.558998"
       y2="11.098"
       gradientUnits="userSpaceOnUse"
       gradientTransform="matrix(0.83258662,0,0,0.83258662,-4.004011,0.8380211)">
      <stop
         stop-color="#f9f9f9"
         offset="0"
         id="stop5" />
      <stop
         stop-color="#f0fee6"
         offset="1"
         id="stop7-3" />
    </linearGradient>
    <linearGradient
       gradientUnits="userSpaceOnUse"
       y2="12.7"
       y1="4.2333002"
       x2="7.9373002"
       x1="7.9373002"
       id="linearGradient1166">
      <stop
         id="stop13"
         offset="0"
         stop-color="#ffffff" />
      <stop
         id="stop15"
         offset="1"
         stop-color="#b8ffe1"
         style="stop-color:#d6f2dc;stop-opacity:1" />
    </linearGradient>
  </defs>
  <sodipodi:namedview
     pagecolor="#ffffff"
     bordercolor="#666666"
     borderopacity="1"
     objecttolerance="10"
     gridtolerance="10"
     guidetolerance="10"
     inkscape:pageopacity="0"
     inkscape:pageshadow="2"
     inkscape:window-width="1920"
     inkscape:window-height="1030"
     id="namedview8"
     showgrid="true"
     inkscape:zoom="26.221876"
     inkscape:cx="8.8666425"
     inkscape:cy="19.354069"
     inkscape:window-x="0"
     inkscape:window-y="24"
     inkscape:window-maximized="1"
     inkscape:current-layer="svg6"
     inkscape:document-rotation="0"
     inkscape:pagecheckerboard="0">
    <inkscape:grid
       type="xygrid"
       id="grid837" />
  </sodipodi:namedview>
  <circle
     cx="23.940615"
     cy="31.534513"
     opacity=".99"
     r="13.232998"
     transform="matrix(1.75830584759 0 0 1.75830608345 -18.15909274367 -30.97874795549)"
     id="circle2"
     style="fill:#b48ead;fill-opacity:1" />
  <ellipse
     cx="23.935829"
     cy="24.468578"
     opacity="0.99"
     id="circle858"
     style="fill:#ffffff;fill-opacity:0.26542;stroke-width:1.50099"
     rx="19.862556"
     ry="19.862558" />
  <path
     style="fill:#fbfbfb;fill-opacity:1;stroke-width:0.663616"
     d="m 12.6777,16.173388 a 1.6822645,1.66739 0 0 0 -1.682368,1.666815 v 13.25675 a 1.6822645,1.66739 0 0 0 1.682368,1.666815 h 22.516259 a 1.6822645,1.66739 0 0 0 1.682368,-1.666815 v -13.25675 a 1.6822645,1.66739 0 0 0 -1.682368,-1.666815 z m 1.428327,3.318074 a 0.48826544,0.49547428 0 0 1 0.04926,0 0.48826544,0.49547428 0 0 1 0.224227,0.06611 l 7.654908,4.484589 a 0.48826544,0.49547428 0 0 1 0,0.855441 l -7.654908,4.483291 a 0.48826544,0.49547428 0 0 1 -0.729718,-0.42772 v -8.967877 a 0.48826544,0.49547428 0 0 1 0.456235,-0.493826 z m 11.610676,0.663617 h 5.065251 a 0.78878473,0.99927721 0 0 1 0.78545,0.995423 0.78878473,0.99927721 0 0 1 -0.78545,0.995422 h -5.065251 a 0.78878473,0.99927721 0 0 1 -0.78545,-0.995422 0.77355721,0.97998609 0 0 1 0.232003,-0.701204 0.77355721,0.97998609 0 0 1 0.553447,-0.294219 z m -0.04537,3.318074 h 7.810441 a 0.7400608,0.99542216 0 0 1 0.524929,1.696627 0.74292926,0.99928041 0 0 1 -0.524929,0.294219 h -7.810442 a 0.74292926,0.99928041 0 0 1 -0.740086,-0.995423 0.74292926,0.99928041 0 0 1 0.740086,-0.995423 z m 0,3.318077 h 7.810441 a 0.74006084,0.99542275 0 0 1 0.524929,1.696627 0.74292939,0.99928108 0 0 1 -0.524929,0.29422 h -7.810442 a 0.74292939,0.99928108 0 0 1 -0.740086,-0.995424 0.74292939,0.99928108 0 0 1 0.740086,-0.995423 z"
     id="path8" />
</svg>
