<?xml version="1.0" encoding="UTF-8" standalone="no"?>
<svg
   height="48"
   width="48"
   version="1.1"
   id="svg6"
   sodipodi:docname="project-zomboid.svg"
   inkscape:version="1.1.2 (0a00cf5339, 2022-02-04)"
   xmlns:inkscape="http://www.inkscape.org/namespaces/inkscape"
   xmlns:sodipodi="http://sodipodi.sourceforge.net/DTD/sodipodi-0.dtd"
   xmlns="http://www.w3.org/2000/svg"
   xmlns:svg="http://www.w3.org/2000/svg">
  <defs
     id="defs10" />
  <sodipodi:namedview
     id="namedview8"
     pagecolor="#ffffff"
     bordercolor="#666666"
     borderopacity="1.0"
     inkscape:pageshadow="2"
     inkscape:pageopacity="0.0"
     inkscape:pagecheckerboard="0"
     showgrid="false"
     inkscape:zoom="6.84375"
     inkscape:cx="0.87671233"
     inkscape:cy="11.178082"
     inkscape:window-width="1920"
     inkscape:window-height="1002"
     inkscape:window-x="0"
     inkscape:window-y="0"
     inkscape:window-maximized="1"
     inkscape:current-layer="svg6" />
  <path
     d="m44.322082 27.405077a19.729762 19.729765 0 0 1 -19.729762 19.729765 19.729762 19.729765 0 0 1 -19.7297621-19.729765 19.729762 19.729765 0 0 1 19.7297621-19.7297632 19.729762 19.729765 0 0 1 19.729762 19.7297632z"
     fill="#d6966c"
     opacity=".99"
     transform="matrix(1.1503549 0 0 1.1503549 -4.486125 -7.525565)"
     id="path2" />
  <ellipse
     cx="24.163631"
     cy="32.174877"
     fill-opacity="0.49"
     rx="5.1707711"
     ry="4.3434262"
     id="ellipse30"
     style="fill:#d6966c;fill-opacity:0.992157;stroke-width:0.26775" />
  <ellipse
     cx="-20.674862"
     cy="26.426302"
     rx="1.1277591"
     ry="1.2616338"
     transform="scale(-1,1)"
     id="ellipse36"
     style="fill:#d6966c;fill-opacity:1;stroke-width:0.26775" />
  <ellipse
     cx="27.42482"
     cy="26.426302"
     rx="1.1277591"
     ry="1.2616338"
     id="ellipse38"
     style="fill:#d6966c;fill-opacity:1;stroke-width:0.26775" />
  <path
     style="fill:#ffffff;stroke-width:0.822866"
     d="m 22.135596,7.7251585 -0.421368,0.129502 c -0.599532,0.09349 -0.668061,0.63995 -0.902676,1.125748 -0.458249,0.685185 -0.484178,1.1455835 -0.214313,1.8162635 0.299311,0.73824 0.724758,1.371319 1.264114,2.031334 l 0.884383,1.081343 v 0.26314 0.263141 l -0.525102,0.231077 -0.524686,0.231479 -0.989471,0.136899 c -0.644237,0.05191 -0.749652,0.125266 -0.999196,0.654561 -0.282235,0.420245 -0.244604,0.814518 -0.246189,1.296794 l -0.0023,0.77955 -0.327397,1.157816 c -0.52305,1.386582 -0.311105,2.865404 -0.29763,4.3155 -0.02209,1.459042 -0.207472,2.756032 0.534883,4.017418 0.27048,0.435669 0.303323,0.859728 0.841873,0.859728 0.562261,0.08634 0.265472,-0.423073 0.201965,-0.807098 -0.0455,-0.511185 -0.364817,-0.8071 0.235554,-0.8071 0.484256,0.0473 0.33999,-0.09227 0.219819,-0.473651 -0.05673,-0.368512 -0.23683,-0.570115 -0.480036,-0.837942 -0.301299,-0.301611 -0.371888,-0.313754 -0.118218,-0.631535 0.419846,-0.495416 0.373338,-1.231519 0.475793,-1.846091 l 0.263171,-1.578845 0.152639,-0.720755 c 0.08722,-0.369371 0.244491,-0.675498 0.625468,-0.79601 l 0.238103,-0.07526 0.687106,1.246619 c 0.490369,0.681572 0.687097,1.223007 0.687097,2.015088 0.09075,0.607723 -0.07057,0.865842 -0.413274,1.338714 -0.460672,0.465093 -0.460388,0.942388 -0.537868,1.55459 l -0.124584,0.984313 -0.966455,1.541828 c -0.666516,0.82133 -0.969215,1.564268 -1.110599,2.558226 l -0.144561,1.016383 -0.74875,0.801335 c -0.751719,0.592749 -0.817039,1.158627 -0.984742,2.035232 l -0.23599,1.233464 -0.239785,0.422263 -0.24025,0.421845 -0.01612,0.842043 c -0.2131,0.6064 0.126213,0.771109 0.294707,1.210448 0.517049,0.888177 1.937223,2.201285 3.090271,1.801285 l -0.136443,-0.432942 -0.149247,-0.473654 -0.310382,-0.342082 -0.309947,-0.342496 -0.127974,-0.7627 -0.127975,-0.763105 h 0.224917 0.224918 l 0.474511,-1.526218 c 0.164987,-0.98973 0.52068,-1.573077 1.200303,-2.262999 0.647696,-0.486258 0.785369,-0.95605 0.981768,-1.684099 l 0.25552,-0.947303 0.466435,-0.736795 0.465999,-0.736795 0.735155,-0.787779 c 0.675289,-0.622555 1.122921,-1.295407 1.122921,0.04609 -0.08621,0.601021 0.205728,1.066018 0.44433,1.604753 0.556113,0.889605 0.345122,1.240155 -0.03483,2.145407 -0.577304,0.934424 -0.405424,1.606662 -0.241525,2.630998 l 0.23854,1.487971 -0.312083,0.583434 c -0.435857,0.699609 -0.4095,1.218082 0.03359,1.83047 l 0.346111,0.477769 -0.120762,0.30385 c -0.002,0.843527 0.870541,0.684511 1.465731,0.688277 h 3.812133 c -0.0362,-0.793549 -1.76744,-1.084767 -2.501811,-1.189074 l -0.287835,-0.335499 -0.28743,-0.335092 -0.06761,-1.418082 -0.06718,-1.418084 0.328253,-1.406155 0.328236,-1.406563 c 0.637533,-0.407405 0.532783,-0.617897 0.386923,-1.346952 l -0.178548,-0.892614 -0.02456,-2.210385 -0.0252,-2.210379 -0.153487,-1.631469 c 0.115161,-0.504998 -0.598986,-1.631467 0.137781,-1.631467 l 0.132245,0.33303 0.132246,0.333042 v 0.607689 c 0.02021,0.470175 -0.156378,0.665666 0.348231,0.478591 l 0.348651,-0.129504 0.192636,0.293992 0.192169,0.293557 0.0035,0.485985 c 0.03563,0.318375 -0.136966,0.570422 0.221092,0.35606 l 0.217703,-0.129937 0.0068,-0.566572 0.0068,-0.566581 0.319743,0.408687 c 0.188468,0.158522 0.319752,0.622866 0.319752,0.189558 0.02395,-0.311962 -0.136401,-0.597772 -0.240654,-0.886863 -0.1129,-0.477698 -0.215557,-0.654308 -0.632686,-0.870412 L 30.40601,23.561283 30.519526,22.743501 C 30.79657,21.782557 30.230574,21.03104 29.839193,20.161435 l -0.793524,-1.5292 -0.417965,-0.842056 -0.418379,-0.842044 -0.147969,-0.81163 c -0.05151,-0.767161 -0.189961,-0.828591 -0.874199,-1.105184 -0.425972,-0.241339 -0.792356,-0.293557 -1.265359,-0.293557 H 25.38309 L 25.044207,14.035212 24.705341,13.56731 v -0.254495 -0.254899 l 0.435385,-0.133608 c 0.682054,-0.101914 0.435394,-0.677043 0.435394,-1.23677 0.0599,-0.634612 0.05955,-1.027329 -0.319744,-1.512226 l -0.319747,-0.4086915 -0.0068,-0.47365 c 0.06137,-0.457589 -0.108717,-0.572222 -0.426471,-0.87947 -0.369491,-0.48966 -0.806209,-0.461769 -1.393761,-0.546832 z"
     id="path8" />
  <path
     d="M 44.015981,24 A 20.212211,20.212214 0 0 1 23.803771,44.212213 20.212211,20.212214 0 0 1 3.5915603,24 20.212211,20.212214 0 0 1 23.803771,3.7877879 20.212211,20.212214 0 0 1 44.015981,24 Z"
     fill="#d6966c"
     opacity="0.99"
     id="path1156"
     style="fill:#ffffff;fill-opacity:0.17757;stroke-width:1.02445" />
</svg>
