<?xml version="1.0" encoding="UTF-8" standalone="no"?>
<svg
   height="48"
   width="48"
   version="1.1"
   id="svg8"
   sodipodi:docname="com.jetbrains.PyCharm.svg"
   inkscape:version="1.1.2 (0a00cf5339, 2022-02-04)"
   xmlns:inkscape="http://www.inkscape.org/namespaces/inkscape"
   xmlns:sodipodi="http://sodipodi.sourceforge.net/DTD/sodipodi-0.dtd"
   xmlns="http://www.w3.org/2000/svg"
   xmlns:svg="http://www.w3.org/2000/svg"
   xmlns:rdf="http://www.w3.org/1999/02/22-rdf-syntax-ns#"
   xmlns:cc="http://creativecommons.org/ns#"
   xmlns:dc="http://purl.org/dc/elements/1.1/">
  <metadata
     id="metadata14">
    <rdf:RDF>
      <cc:Work
         rdf:about="">
        <dc:format>image/svg+xml</dc:format>
        <dc:type
           rdf:resource="http://purl.org/dc/dcmitype/StillImage" />
      </cc:Work>
    </rdf:RDF>
  </metadata>
  <defs
     id="defs12" />
  <sodipodi:namedview
     pagecolor="#ffffff"
     bordercolor="#666666"
     borderopacity="1"
     objecttolerance="10"
     gridtolerance="10"
     guidetolerance="10"
     inkscape:pageopacity="0"
     inkscape:pageshadow="2"
     inkscape:window-width="1920"
     inkscape:window-height="996"
     id="namedview10"
     showgrid="false"
     inkscape:zoom="4.7291667"
     inkscape:cx="25.374449"
     inkscape:cy="52.651983"
     inkscape:window-x="0"
     inkscape:window-y="0"
     inkscape:window-maximized="1"
     inkscape:current-layer="svg8"
     inkscape:document-rotation="0"
     inkscape:pagecheckerboard="0" />
  <path
     id="path2"
     style="fill:#8fbcbb;fill-opacity:1;stroke-width:1.15035"
     d="M 23.804688 1.3046875 A 22.696228 22.696232 0 0 0 1.1074219 24 A 22.696228 22.696232 0 0 0 23.804688 46.695312 A 22.696228 22.696232 0 0 0 46.5 24 A 22.696228 22.696232 0 0 0 23.804688 1.3046875 z " />
  <path
     id="path839"
     style="fill:#ffffff;fill-opacity:0.162031;stroke-width:1.15035"
     d="M 23.804688 1.3046875 C 11.269907 1.3046874 1.107423 11.465218 1.1074219 24 L 46.5 24 C 46.499999 11.465218 36.339468 1.3046875 23.804688 1.3046875 z " />
  <path
     id="path841"
     style="fill:#5e81ac;fill-opacity:0.25748503;stroke-width:1.15035"
     d="M 23.804688 1.3046875 L 23.804688 46.695312 C 36.339469 46.695312 46.5 36.534782 46.5 24 C 46.499999 11.465218 36.339468 1.3046875 23.804688 1.3046875 z " />
  <path
     d="M 11.175104,12.352419 V 36.879947 H 35.702632 V 12.352419 Z m 13.884286,3.274082 c 1.100239,0 1.931472,0.294061 2.491076,0.882117 0.564347,0.58806 0.854891,1.459261 0.87386,2.611668 l -0.02148,0.04295 H 26.45525 c 0.02846,-0.678165 -0.06412,-1.168122 -0.27752,-1.466895 -0.213409,-0.298771 -0.587192,-0.447668 -1.118342,-0.447668 -0.45527,3e-6 -0.803794,0.177887 -1.045657,0.533567 -0.241863,0.355681 -0.361768,0.89472 -0.361768,1.615566 v 3.108891 c 0,0.730332 0.127152,1.273101 0.383243,1.628781 0.260832,0.355681 0.640212,0.533566 1.138164,0.533566 0.488468,0 0.827879,-0.139781 1.017576,-0.419584 0.194439,-0.284545 0.279756,-0.76912 0.256045,-1.452027 h 1.949251 l 0.02147,0.04295 c 0.0094,1.138178 -0.26097,1.99675 -0.811088,2.575324 -0.550119,0.578574 -1.361477,0.867253 -2.43326,0.867253 -1.071784,0 -1.926839,-0.326781 -2.567064,-0.981234 -0.640226,-0.659195 -0.961411,-1.590456 -0.961411,-2.795028 v -3.095676 c 0,-1.199829 0.308555,-2.129226 0.925068,-2.788421 0.621256,-0.663937 1.450839,-0.996099 2.489426,-0.996099 z m -11.409729,0.150323 h 3.599509 c 1.033844,0 1.850584,0.305039 2.448127,0.916809 0.597544,0.61177 0.895334,1.414014 0.895334,2.405178 0,0.995905 -0.301308,1.800015 -0.903595,2.411785 -0.597542,0.607029 -1.410764,0.910202 -2.439866,0.910202 h -1.572617 v 3.713488 h -2.026892 z m 2.026892,1.622173 v 3.399627 h 1.572617 c 0.431558,0 0.761856,-0.158009 0.989491,-0.47575 0.227637,-0.31774 0.340294,-0.722381 0.340294,-1.210848 0,-0.49321 -0.112653,-0.899928 -0.340294,-1.222412 C 18.01577,17.562388 17.68547,17.398997 17.24917,17.398997 Z m -1.964119,12.714735 h 10.149322 v 1.691554 H 13.712434 Z"
     fill="#ffffff"
     id="path10"
     style="stroke-width:0.845777" />
</svg>
