<?xml version="1.0" encoding="UTF-8" standalone="no"?>
<svg
   height="48"
   width="48"
   version="1.1"
   id="svg18"
   sodipodi:docname="pysol.svg"
   inkscape:version="1.1.2 (0a00cf5339, 2022-02-04)"
   xmlns:inkscape="http://www.inkscape.org/namespaces/inkscape"
   xmlns:sodipodi="http://sodipodi.sourceforge.net/DTD/sodipodi-0.dtd"
   xmlns="http://www.w3.org/2000/svg"
   xmlns:svg="http://www.w3.org/2000/svg"
   xmlns:rdf="http://www.w3.org/1999/02/22-rdf-syntax-ns#"
   xmlns:cc="http://creativecommons.org/ns#"
   xmlns:dc="http://purl.org/dc/elements/1.1/">
  <metadata
     id="metadata24">
    <rdf:RDF>
      <cc:Work
         rdf:about="">
        <dc:format>image/svg+xml</dc:format>
        <dc:type
           rdf:resource="http://purl.org/dc/dcmitype/StillImage" />
      </cc:Work>
    </rdf:RDF>
  </metadata>
  <defs
     id="defs22" />
  <sodipodi:namedview
     pagecolor="#ffffff"
     bordercolor="#666666"
     borderopacity="1"
     objecttolerance="10"
     gridtolerance="10"
     guidetolerance="10"
     inkscape:pageopacity="0"
     inkscape:pageshadow="2"
     inkscape:window-width="1920"
     inkscape:window-height="1023"
     id="namedview20"
     showgrid="true"
     inkscape:zoom="9.8333334"
     inkscape:cx="11.644068"
     inkscape:cy="40.118644"
     inkscape:window-x="0"
     inkscape:window-y="25"
     inkscape:window-maximized="1"
     inkscape:current-layer="svg18"
     inkscape:document-rotation="0"
     inkscape:pagecheckerboard="0">
    <inkscape:grid
       type="xygrid"
       id="grid834" />
  </sodipodi:namedview>
  <path
     id="circle2"
     style="opacity:0.99;fill:#b7c4c8"
     transform="matrix(1.72140702696 0 0 1.72140725788 -17.2289093957 -30.06939350282)"
     d="M 37.173613,31.534513 A 13.232998,13.232998 0 0 1 23.940615,44.767511 13.232998,13.232998 0 0 1 10.707617,31.534513 13.232998,13.232998 0 0 1 23.940615,18.301516 13.232998,13.232998 0 0 1 37.173613,31.534513 Z" />
  <path
     id="path4490"
     style="opacity:1;fill:#ffffff;stroke-width:18.3369;stroke-linecap:round;stroke-linejoin:bevel"
     d="M 43.541956,24.214346 A 19.559322,19.559322 0 0 1 23.982634,43.773668 19.559322,19.559322 0 0 1 4.4233112,24.214346 19.559322,19.559322 0 0 1 23.982634,4.6550236 19.559322,19.559322 0 0 1 43.541956,24.214346 Z" />
  <path
     id="rect2"
     style="fill:#bf616a;fill-opacity:1;stroke-width:0.706998"
     transform="rotate(-30)"
     d="M -1.5883156,18.707726 H 17.85414 c 0.979193,0 1.767496,0.788303 1.767496,1.767496 v 26.512439 c 0,0.979193 -0.788303,1.767496 -1.767496,1.767496 H -1.5883156 c -0.9791928,0 -1.767496,-0.788303 -1.767496,-1.767496 V 20.475222 c 0,-0.979193 0.7883032,-1.767496 1.767496,-1.767496 z" />
  <g
     fill="#ffffff"
     fill-rule="evenodd"
     id="g12"
     transform="matrix(0.61227858,-0.3534992,0.3534992,0.61227858,0.7950579,18.69368)"
     style="fill:#e69bc3;fill-opacity:1">
    <path
       d="m 23.172343,14.587282 c -2.195997,0 -3.976529,1.780532 -3.976529,3.976536 0,1.020296 0.385252,1.951171 1.016995,2.65511 -0.39936,-0.134744 -0.826422,-0.208527 -1.271243,-0.208527 -2.196003,0 -3.976535,1.780532 -3.976535,3.976529 0,2.196004 1.780532,3.976536 3.976535,3.976536 0.915375,0 1.758845,-0.309775 2.43097,-0.829652 l -1.687183,5.580081 h 3.48699 3.55499 L 25,28 c 0.678465,0.539023 1.537021,0.860873 2.47112,0.860873 2.196004,0 3.976536,-2.142023 3.976536,-4.338027 0,-2.196003 -1.780532,-3.613924 -3.976536,-3.613924 -0.399864,0 -0.785638,0.05854 -1.149689,0.168383 0.559584,-0.685043 0.895442,-1.559953 0.895442,-2.513487 0,-2.196004 -1.84852,-3.976536 -4.04453,-3.976536 z"
       id="path6"
       style="fill:#fbfbfb;fill-opacity:1" />
    <path
       d="m 11.692894,6.246227 c -0.368999,0 -0.668186,0.299187 -0.668186,0.668188 0,0.171443 0.06473,0.32786 0.170888,0.446145 -0.06711,-0.02264 -0.138866,-0.03504 -0.21361,-0.03504 -0.369001,0 -0.668188,0.299187 -0.668188,0.668186 0,0.369 0.299187,0.668188 0.668188,0.668188 0.153812,0 0.295543,-0.05205 0.408482,-0.139409 l -0.283502,0.937636 h 0.585928 0.597354 L 12,8.5 c 0.114004,0.09057 0.25827,0.144655 0.415229,0.144655 0.369,0 0.668188,-0.35993 0.668188,-0.72893 0,-0.369 -0.299188,-0.607257 -0.668188,-0.607257 -0.06719,0 -0.132013,0.0098 -0.193185,0.02829 0.09403,-0.11511 0.150463,-0.262123 0.150463,-0.422348 0,-0.368996 -0.310611,-0.668183 -0.679613,-0.668183 z"
       id="path8"
       style="fill:#fbfbfb;fill-opacity:1" />
    <path
       d="m 35.997298,42.614333 c -0.368999,0 -0.668186,-0.299187 -0.668186,-0.668188 0,-0.171443 0.06473,-0.32786 0.170888,-0.446145 -0.06711,0.02264 -0.138866,0.03504 -0.21361,0.03504 -0.369001,0 -0.668188,-0.299187 -0.668188,-0.668186 0,-0.369 0.299187,-0.668188 0.668188,-0.668188 0.153812,0 0.295543,0.05205 0.408482,0.139409 L 35.41137,39.400439 h 0.585928 0.597354 l -0.290248,0.960121 c 0.114004,-0.09057 0.25827,-0.144655 0.415229,-0.144655 0.369,0 0.668188,0.35993 0.668188,0.72893 0,0.369 -0.299188,0.607257 -0.668188,0.607257 -0.06719,0 -0.132013,-0.0098 -0.193185,-0.02829 0.09403,0.11511 0.150463,0.262123 0.150463,0.422348 0,0.368996 -0.310611,0.668183 -0.679613,0.668183 z"
       id="path10"
       style="fill:#fbfbfb;fill-opacity:1" />
  </g>
</svg>
