<?xml version="1.0" encoding="UTF-8" standalone="no"?>
<svg
   height="48"
   width="48"
   version="1.1"
   id="svg6"
   sodipodi:docname="idle-python2.6.svg"
   inkscape:version="1.1.2 (0a00cf5339, 2022-02-04)"
   xmlns:inkscape="http://www.inkscape.org/namespaces/inkscape"
   xmlns:sodipodi="http://sodipodi.sourceforge.net/DTD/sodipodi-0.dtd"
   xmlns="http://www.w3.org/2000/svg"
   xmlns:svg="http://www.w3.org/2000/svg">
  <defs
     id="defs10" />
  <sodipodi:namedview
     id="namedview8"
     pagecolor="#ffffff"
     bordercolor="#666666"
     borderopacity="1.0"
     inkscape:pageshadow="2"
     inkscape:pageopacity="0.0"
     inkscape:pagecheckerboard="0"
     showgrid="false"
     inkscape:zoom="13.229167"
     inkscape:cx="23.319684"
     inkscape:cy="23.999999"
     inkscape:window-width="1920"
     inkscape:window-height="1022"
     inkscape:window-x="0"
     inkscape:window-y="32"
     inkscape:window-maximized="1"
     inkscape:current-layer="svg6" />
  <path
     id="path2"
     style="fill:#81a1c1;fill-opacity:1;stroke-width:1.15035"
     d="M 23.804688 1.3046875 A 22.696228 22.696232 0 0 0 1.1074219 24 A 22.696228 22.696232 0 0 0 23.804688 46.695312 A 22.696228 22.696232 0 0 0 46.5 24 A 22.696228 22.696232 0 0 0 23.804688 1.3046875 z " />
  <path
     d="m23.846588 9.853716c-1.171895.0049-2.292336.107259-3.279194.278061-2.904827.510036-3.435802 1.571017-3.435802 3.531683v2.58884h6.868408v.862945h-9.44446c-1.997439 0-3.742354 1.186176-4.28916 3.442194-.629833 2.585759-.663044 4.201101 0 6.89717.486314 2.010491 1.650492 3.442194 3.646745 3.442194h2.019932v-3.4358c0-2.238223 1.961614-4.202863 4.292355-4.202863h7.188017c1.908479 0 3.717058-1.557537 3.717058-3.451785v-6.130107c0-1.839689-1.850093-3.225664-3.717058-3.531689-1.176638-.194524-2.399329-.282802-3.570038-.278056l.0032-.01276zm-3.627568 2.66235c.698966 0 1.265653.563489 1.265653 1.262457 0 .698962-.566687 1.265655-1.265653 1.265655s-1.265654-.566693-1.265654-1.265655c0-.698968.566688-1.262457 1.265654-1.262457zm11.889473 4.595982v3.017113c0 2.335484-2.004678 4.027077-4.289159 4.027077h-7.536392c-1.876455 0-3.432606 1.871183-3.432606 3.729846v6.468898c0 1.839682 1.615458 2.91756 3.432606 3.445385 2.172986.629834 4.540084.750823 7.140075 0 1.728189-.495802 3.435802-1.490651 3.435802-3.445385v-2.592037h-6.858819v-.862945h10.297817c1.992695 0 2.737535-1.380705 3.432606-3.442194.717608-2.126727.680838-4.173824 0-6.89717-.495802-1.968974-1.435166-3.442194-3.432606-3.442194zm-4.295552 16.664439c.698966 0 1.265653.566686 1.265653 1.265654 0 .698962-.566687 1.265654-1.265653 1.265654s-1.265653-.566692-1.265653-1.265654c0-.698968.566687-1.265654 1.265653-1.265654z"
     fill="#ffffff"
     id="path4" />
</svg>
