<?xml version="1.0" encoding="UTF-8" standalone="no"?>
<svg
   height="48"
   width="48"
   version="1.1"
   id="svg6"
   sodipodi:docname="ktorrent.svg"
   inkscape:version="1.1.2 (0a00cf5339, 2022-02-04)"
   xmlns:inkscape="http://www.inkscape.org/namespaces/inkscape"
   xmlns:sodipodi="http://sodipodi.sourceforge.net/DTD/sodipodi-0.dtd"
   xmlns="http://www.w3.org/2000/svg"
   xmlns:svg="http://www.w3.org/2000/svg">
  <defs
     id="defs10" />
  <sodipodi:namedview
     id="namedview8"
     pagecolor="#ffffff"
     bordercolor="#666666"
     borderopacity="1.0"
     inkscape:pageshadow="2"
     inkscape:pageopacity="0.0"
     inkscape:pagecheckerboard="0"
     showgrid="false"
     inkscape:zoom="8.1875"
     inkscape:cx="33.221374"
     inkscape:cy="31.694656"
     inkscape:window-width="1920"
     inkscape:window-height="1031"
     inkscape:window-x="0"
     inkscape:window-y="0"
     inkscape:window-maximized="1"
     inkscape:current-layer="svg6" />
  <path
     id="path2"
     style="stroke-width:1.15035;fill:#8fbcbb;fill-opacity:1"
     d="M 23.804688 1.3046875 A 22.696228 22.696232 0 0 0 1.1074219 24 A 22.696228 22.696232 0 0 0 23.804688 46.695312 A 22.696228 22.696232 0 0 0 46.5 24 A 22.696228 22.696232 0 0 0 23.804688 1.3046875 z " />
  <path
     d="m24 14c-2.910714 0-5.217522 1.299201-6.695312 3.199219-1.477792 1.900018-2.179688 4.356337-2.179688 6.800781s.701896 4.900763 2.179688 6.800781c1.47779 1.900018 3.784598 3.199219 6.695312 3.199219h20.146484a22.696228 22.696232 0 0 0 .869141-2h-21.015625c-2.339286 0-3.969978-.950799-5.117188-2.425781-1.147208-1.474982-1.757812-3.518663-1.757812-5.574219s.610604-4.099237 1.757812-5.574219c1.14721-1.474982 2.777902-2.425781 5.117188-2.425781zm1.5 3c-2.141667 0-3.873914.899478-4.986328 2.234375s-1.638672 3.057292-1.638672 4.765625.526258 3.430728 1.638672 4.765625 2.844661 2.234375 4.986328 2.234375h19.878906a22.696228 22.696232 0 0 0 .542969-2h-20.421875c-1.608333 0-2.688586-.600522-3.451172-1.515625s-1.173828-2.192708-1.173828-3.484375.411242-2.569272 1.173828-3.484375 1.842839-1.515625 3.451172-1.515625zm1.5 3c-2.694444 0-4.375 2-4.375 4s1.680556 4 4.375 4h19.125a22.696228 22.696232 0 0 0 .275391-2h-19.400391c-1.805556 0-2.375-1-2.375-2s.569444-2 2.375-2z"
     fill="#f9f9f9"
     id="path4" />
</svg>
