<?xml version="1.0" encoding="UTF-8" standalone="no"?>
<svg
   height="48"
   width="48"
   version="1.1"
   id="svg6"
   sodipodi:docname="qnapi.svg"
   inkscape:version="1.1.2 (0a00cf5339, 2022-02-04)"
   xmlns:inkscape="http://www.inkscape.org/namespaces/inkscape"
   xmlns:sodipodi="http://sodipodi.sourceforge.net/DTD/sodipodi-0.dtd"
   xmlns="http://www.w3.org/2000/svg"
   xmlns:svg="http://www.w3.org/2000/svg"
   xmlns:rdf="http://www.w3.org/1999/02/22-rdf-syntax-ns#"
   xmlns:cc="http://creativecommons.org/ns#"
   xmlns:dc="http://purl.org/dc/elements/1.1/">
  <metadata
     id="metadata12">
    <rdf:RDF>
      <cc:Work
         rdf:about="">
        <dc:format>image/svg+xml</dc:format>
        <dc:type
           rdf:resource="http://purl.org/dc/dcmitype/StillImage" />
      </cc:Work>
    </rdf:RDF>
  </metadata>
  <defs
     id="defs10" />
  <sodipodi:namedview
     pagecolor="#ffffff"
     bordercolor="#666666"
     borderopacity="1"
     objecttolerance="10"
     gridtolerance="10"
     guidetolerance="10"
     inkscape:pageopacity="0"
     inkscape:pageshadow="2"
     inkscape:window-width="1920"
     inkscape:window-height="1007"
     id="namedview8"
     showgrid="true"
     inkscape:zoom="13.906433"
     inkscape:cx="21.392976"
     inkscape:cy="26.067072"
     inkscape:window-x="0"
     inkscape:window-y="0"
     inkscape:window-maximized="1"
     inkscape:current-layer="svg6"
     inkscape:pagecheckerboard="0">
    <inkscape:grid
       type="xygrid"
       id="grid822" />
  </sodipodi:namedview>
  <path
     d="m44.322082 27.405077a19.729762 19.729765 0 0 1 -19.729762 19.729765 19.729762 19.729765 0 0 1 -19.7297621-19.729765 19.729762 19.729765 0 0 1 19.7297621-19.7297632 19.729762 19.729765 0 0 1 19.729762 19.7297632z"
     opacity=".99"
     transform="matrix(1.1503549 0 0 1.1503549 -4.486125 -7.525565)"
     id="path2"
     style="fill:#ebcb8b;fill-opacity:1" />
  <path
     style="fill:#ffffff;fill-opacity:0.80969399;stroke-width:1.05486"
     d="M 23.890561,9.153786 A 14.768034,14.768034 0 0 0 9.122525,23.92182 14.768034,14.768034 0 0 0 23.890561,38.689856 14.768034,14.768034 0 0 0 38.658597,23.92182 14.768034,14.768034 0 0 0 23.890561,9.153786 Z m 0,5.274299 a 8.4388766,9.493736 0 0 1 8.438879,9.493735 8.4388766,9.493736 0 0 1 -8.438879,9.493738 8.4388766,9.493736 0 0 1 -8.438879,-9.493738 8.4388766,9.493736 0 0 1 8.438879,-9.493735 z"
     id="path8" />
  <path
     style="fill:none;stroke:#ffffff;stroke-width:4.21942;stroke-opacity:0.9813444"
     d="M 20.83498,28.230739 C 25.879321,27.838311 32.578914,33.446511 36,39"
     id="path12" />
</svg>
