<?xml version="1.0" encoding="UTF-8" standalone="no"?>
<svg
   height="48"
   width="48"
   version="1.1"
   id="svg8"
   sodipodi:docname="ramme.svg"
   inkscape:version="1.1.2 (0a00cf5339, 2022-02-04)"
   xmlns:inkscape="http://www.inkscape.org/namespaces/inkscape"
   xmlns:sodipodi="http://sodipodi.sourceforge.net/DTD/sodipodi-0.dtd"
   xmlns="http://www.w3.org/2000/svg"
   xmlns:svg="http://www.w3.org/2000/svg">
  <defs
     id="defs12" />
  <sodipodi:namedview
     id="namedview10"
     pagecolor="#ffffff"
     bordercolor="#666666"
     borderopacity="1.0"
     inkscape:pageshadow="2"
     inkscape:pageopacity="0.0"
     inkscape:pagecheckerboard="0"
     showgrid="false"
     inkscape:zoom="13.229167"
     inkscape:cx="23.017323"
     inkscape:cy="24"
     inkscape:window-width="1920"
     inkscape:window-height="1030"
     inkscape:window-x="0"
     inkscape:window-y="24"
     inkscape:window-maximized="1"
     inkscape:current-layer="svg8" />
  <path
     id="path2"
     style="stroke-width:1.15035;fill:#b48ead;fill-opacity:1"
     d="M 23.804688 1.3046875 A 22.696228 22.696232 0 0 0 1.1074219 24 A 22.696228 22.696232 0 0 0 23.804688 46.695312 A 22.696228 22.696232 0 0 0 46.5 24 A 22.696228 22.696232 0 0 0 23.804688 1.3046875 z " />
  <path
     id="path4"
     style="stroke-width:1.15035;fill:#d08770;fill-opacity:0.99607843"
     d="M 1.1074219 24 C 1.1074219 36.534782 11.269906 46.695312 23.804688 46.695312 C 36.339469 46.695312 46.5 36.534782 46.5 24 L 1.1074219 24 z " />
  <path
     d="m23.804688 3.875a20.125 20.125 0 0 0 -20.1250005 20.125 20.125 20.125 0 0 0 20.1250005 20.125 20.125 20.125 0 0 0 20.125-20.125 20.125 20.125 0 0 0 -20.125-20.125zm-10.304688 8.125h21c.831 0 1.5.669 1.5 1.5v21c0 .831-.669 1.5-1.5 1.5h-21c-.831 0-1.5-.669-1.5-1.5v-21c0-.831.669-1.5 1.5-1.5zm1.837891 2.099609c-.685575 0-1.238282.552707-1.238282 1.238282v16.943359l6.900391-8.28125 4.5 6 3-3 5.400391 5.400391v-17.0625c0-.685575-.552707-1.238282-1.238282-1.238282zm13.912109 2.400391a2.25 2.25 0 0 1 2.25 2.25 2.25 2.25 0 0 1 -2.25 2.25 2.25 2.25 0 0 1 -2.25-2.25 2.25 2.25 0 0 1 2.25-2.25z"
     fill="#ffffff"
     id="path6" />
</svg>
