<?xml version="1.0" encoding="UTF-8" standalone="no"?>
<svg
   height="48"
   width="48"
   version="1.1"
   id="svg6"
   sodipodi:docname="rapid-photo-downloader.svg"
   inkscape:version="1.1.2 (0a00cf5339, 2022-02-04)"
   xmlns:inkscape="http://www.inkscape.org/namespaces/inkscape"
   xmlns:sodipodi="http://sodipodi.sourceforge.net/DTD/sodipodi-0.dtd"
   xmlns="http://www.w3.org/2000/svg"
   xmlns:svg="http://www.w3.org/2000/svg"
   xmlns:rdf="http://www.w3.org/1999/02/22-rdf-syntax-ns#"
   xmlns:cc="http://creativecommons.org/ns#"
   xmlns:dc="http://purl.org/dc/elements/1.1/">
  <metadata
     id="metadata12">
    <rdf:RDF>
      <cc:Work
         rdf:about="">
        <dc:format>image/svg+xml</dc:format>
        <dc:type
           rdf:resource="http://purl.org/dc/dcmitype/StillImage" />
      </cc:Work>
    </rdf:RDF>
  </metadata>
  <defs
     id="defs10" />
  <sodipodi:namedview
     pagecolor="#ffffff"
     bordercolor="#666666"
     borderopacity="1"
     objecttolerance="10"
     gridtolerance="10"
     guidetolerance="10"
     inkscape:pageopacity="0"
     inkscape:pageshadow="2"
     inkscape:window-width="1920"
     inkscape:window-height="1022"
     id="namedview8"
     showgrid="false"
     inkscape:zoom="6.6880515"
     inkscape:cx="-17.419124"
     inkscape:cy="5.1584531"
     inkscape:window-x="0"
     inkscape:window-y="32"
     inkscape:window-maximized="1"
     inkscape:current-layer="svg6"
     inkscape:document-rotation="0"
     inkscape:pagecheckerboard="0" />
  <path
     id="circle2"
     style="opacity:0.99;fill:#d08770;fill-opacity:1"
     transform="matrix(1.75830584759 0 0 1.75830608345 -18.15909274367 -30.97874795549)"
     d="M 37.173613,31.534513 A 13.232998,13.232998 0 0 1 23.940615,44.767511 13.232998,13.232998 0 0 1 10.707617,31.534513 13.232998,13.232998 0 0 1 23.940615,18.301516 13.232998,13.232998 0 0 1 37.173613,31.534513 Z" />
  <path
     id="circle836"
     style="opacity:0.99;fill:#81a1c1;fill-opacity:1;stroke-width:1.75831"
     d="M 23.935547 1.2011719 L 23.935547 47.736328 C 36.785919 47.736328 47.203125 37.319124 47.203125 24.46875 C 47.203123 11.618376 36.785919 1.2011719 23.935547 1.2011719 z " />
  <path
     style="fill:#ffffff;fill-opacity:1;stroke:none;stroke-width:1px;stroke-linecap:butt;stroke-linejoin:miter;stroke-opacity:1"
     d="m 7.3616099,17.699276 2,-2 H 20.36161 v 19 H 5.3616099 v -7 l 1,-1 v -2 h -1 v -2 l 2,-2 z"
     id="path849"
     sodipodi:nodetypes="cccccccccccc" />
  <path
     id="rect851"
     style="fill:#d08770;fill-opacity:1;stroke:none;stroke-width:0.377953;stroke-linecap:round;stroke-linejoin:round"
     d="m 9.3616099,17.699276 v 3 H 11.36161 v -3 z m 4.0000001,0 v 3 h 2 v -3 z m 4,0 v 3 h 2 v -3 z" />
  <rect
     style="fill:#ffffff;fill-opacity:1;stroke:none;stroke-width:0.342987;stroke-linecap:round;stroke-linejoin:round"
     id="rect861"
     width="17"
     height="14"
     x="26.36161"
     y="16.699276" />
  <path
     id="rect863"
     style="fill:#81a1c1;stroke-width:0.377953;stroke-linecap:round;stroke-linejoin:round;fill-opacity:1"
     d="m 27.36161,17.699276 h 2 v 2 h -2 z" />
  <path
     id="rect865"
     style="fill:#81a1c1;stroke-width:0.377953;stroke-linecap:round;stroke-linejoin:round;fill-opacity:1"
     d="m 40.36161,17.699276 h 2 v 2 h -2 z" />
  <path
     id="rect867"
     style="fill:#81a1c1;stroke-width:0.377953;stroke-linecap:round;stroke-linejoin:round;fill-opacity:1"
     d="m 40.36161,27.699276 h 2 v 2 h -2 z" />
  <path
     id="rect869"
     style="fill:#81a1c1;stroke-width:0.377953;stroke-linecap:round;stroke-linejoin:round;fill-opacity:1"
     d="m 27.36161,27.699276 h 2 v 2 h -2 z" />
  <rect
     style="fill:#ffffff;fill-opacity:0.561127;stroke:none;stroke-width:0.158772;stroke-linecap:round;stroke-linejoin:round"
     id="rect871"
     width="17"
     height="3"
     x="26.36161"
     y="30.699276" />
  <rect
     style="fill:#ffffff;fill-opacity:0.829087;stroke:none;stroke-width:0.377953;stroke-linecap:round;stroke-linejoin:round"
     id="rect873"
     width="1"
     height="2"
     x="35.36161"
     y="31.699278" />
  <rect
     style="fill:#ffffff;fill-opacity:0.829087;stroke:none;stroke-width:0.377953;stroke-linecap:round;stroke-linejoin:round"
     id="rect875"
     width="1"
     height="2"
     x="37.36161"
     y="31.699278" />
  <rect
     style="fill:#ffffff;fill-opacity:0.829087;stroke:none;stroke-width:0.377953;stroke-linecap:round;stroke-linejoin:round"
     id="rect877"
     width="1"
     height="2"
     x="39.36161"
     y="31.699278" />
  <rect
     style="fill:#ffffff;fill-opacity:0.829087;stroke:none;stroke-width:0.377953;stroke-linecap:round;stroke-linejoin:round"
     id="rect879"
     width="1"
     height="2"
     x="41.36161"
     y="31.699278" />
</svg>
