<?xml version="1.0" encoding="UTF-8" standalone="no"?>
<svg
   height="48"
   width="48"
   version="1.1"
   id="svg6"
   sodipodi:docname="appimagekit-raven-reader.svg"
   inkscape:version="1.2.2 (b0a8486541, 2022-12-01)"
   xmlns:inkscape="http://www.inkscape.org/namespaces/inkscape"
   xmlns:sodipodi="http://sodipodi.sourceforge.net/DTD/sodipodi-0.dtd"
   xmlns="http://www.w3.org/2000/svg"
   xmlns:svg="http://www.w3.org/2000/svg"
   xmlns:rdf="http://www.w3.org/1999/02/22-rdf-syntax-ns#"
   xmlns:cc="http://creativecommons.org/ns#"
   xmlns:dc="http://purl.org/dc/elements/1.1/">
  <metadata
     id="metadata12">
    <rdf:RDF>
      <cc:Work
         rdf:about="">
        <dc:format>image/svg+xml</dc:format>
        <dc:type
           rdf:resource="http://purl.org/dc/dcmitype/StillImage" />
        <dc:title />
      </cc:Work>
    </rdf:RDF>
  </metadata>
  <defs
     id="defs10" />
  <sodipodi:namedview
     pagecolor="#ffffff"
     bordercolor="#666666"
     borderopacity="1"
     objecttolerance="10"
     gridtolerance="10"
     guidetolerance="10"
     inkscape:pageopacity="0"
     inkscape:pageshadow="2"
     inkscape:window-width="1920"
     inkscape:window-height="1029"
     id="namedview8"
     showgrid="false"
     inkscape:zoom="13.376103"
     inkscape:cx="-7.2143583"
     inkscape:cy="26.315587"
     inkscape:window-x="0"
     inkscape:window-y="0"
     inkscape:window-maximized="1"
     inkscape:current-layer="svg6"
     inkscape:document-rotation="0"
     inkscape:showpageshadow="2"
     inkscape:pagecheckerboard="0"
     inkscape:deskcolor="#d1d1d1" />
  <path
     id="circle2"
     style="opacity:0.99;fill:#a3be8c;fill-opacity:1"
     transform="matrix(1.75830584759 0 0 1.75830608345 -18.15909274367 -30.97874795549)"
     d="M 37.173613,31.534513 A 13.232998,13.232998 0 0 1 23.940615,44.767511 13.232998,13.232998 0 0 1 10.707617,31.534513 13.232998,13.232998 0 0 1 23.940615,18.301516 13.232998,13.232998 0 0 1 37.173613,31.534513 Z" />
  <rect
     style="fill:#ffffff;fill-opacity:1;stroke:none;stroke-width:1.53493;stroke-linecap:round;stroke-linejoin:round;stroke-miterlimit:4;stroke-dasharray:none;stroke-dashoffset:0;stroke-opacity:1;paint-order:fill markers stroke"
     id="rect983"
     width="28.396141"
     height="27.628677"
     x="9.3240728"
     y="11.203512"
     rx="0"
     ry="0" />
  <path
     id="rect985"
     style="fill:#a3be8c;stroke-width:1.53493;stroke-linecap:round;stroke-linejoin:round;paint-order:fill markers stroke;fill-opacity:1"
     d="m 10.091537,30.390091 h 9.20956 v 7.674632 h -9.20956 z" />
  <path
     id="rect987"
     style="fill:#a3be8c;stroke-width:1.53493;stroke-linecap:round;stroke-linejoin:round;paint-order:fill markers stroke;fill-opacity:1"
     d="m 11.626463,19.645607 h 6.907169 c 0.425174,0 0.767463,0.342289 0.767463,0.767463 0,0.425175 -0.342289,0.767464 -0.767463,0.767464 h -6.907169 c -0.425175,0 -0.767464,-0.342289 -0.767464,-0.767464 0,-0.425174 0.342289,-0.767463 0.767464,-0.767463 z" />
  <path
     id="rect989"
     style="fill:#a3be8c;stroke-width:1.53493;stroke-linecap:round;stroke-linejoin:round;paint-order:fill markers stroke;fill-opacity:1"
     d="m 11.626463,22.71546 h 6.907169 c 0.425174,0 0.767463,0.342288 0.767463,0.767463 0,0.425175 -0.342289,0.767463 -0.767463,0.767463 h -6.907169 c -0.425175,0 -0.767464,-0.342288 -0.767464,-0.767463 0,-0.425175 0.342289,-0.767463 0.767464,-0.767463 z" />
  <path
     id="rect991"
     style="fill:#a3be8c;stroke-width:1.53493;stroke-linecap:round;stroke-linejoin:round;paint-order:fill markers stroke;fill-opacity:1"
     d="m 11.626463,25.785313 h 6.907169 c 0.425174,0 0.767463,0.342288 0.767463,0.767463 0,0.425175 -0.342289,0.767463 -0.767463,0.767463 h -6.907169 c -0.425175,0 -0.767464,-0.342288 -0.767464,-0.767463 0,-0.425175 0.342289,-0.767463 0.767464,-0.767463 z" />
  <path
     style="fill:none;stroke:#a3be8c;stroke-width:0.767463px;stroke-linecap:round;stroke-linejoin:miter;stroke-opacity:1"
     d="M 23.905876,19.645622 V 38.06474"
     id="path993"
     inkscape:connector-curvature="0"
     sodipodi:nodetypes="cc" />
  <path
     id="rect995"
     style="fill:#a3be8c;stroke-width:1.53493;stroke-linecap:round;stroke-linejoin:round;paint-order:fill markers stroke;fill-opacity:1"
     d="m 25.4408,19.645607 h 5.372243 V 25.01785 H 25.4408 Z" />
  <path
     id="rect997"
     style="fill:#a3be8c;stroke-width:1.53493;stroke-linecap:round;stroke-linejoin:round;paint-order:fill markers stroke;fill-opacity:1"
     d="m 33.115436,19.645607 h 3.069853 c 0.425175,0 0.767464,0.342289 0.767464,0.767463 0,0.425175 -0.342289,0.767464 -0.767464,0.767464 h -3.069853 c -0.425175,0 -0.767463,-0.342289 -0.767463,-0.767464 0,-0.425174 0.342288,-0.767463 0.767463,-0.767463 z" />
  <path
     id="rect999"
     style="fill:#a3be8c;stroke-width:1.53493;stroke-linecap:round;stroke-linejoin:round;paint-order:fill markers stroke;fill-opacity:1"
     d="m 26.208263,27.320238 h 9.209559 c 0.425175,0 0.767464,0.342289 0.767464,0.767463 0,0.425175 -0.342289,0.767464 -0.767464,0.767464 h -9.209559 c -0.425175,0 -0.767463,-0.342289 -0.767463,-0.767464 0,-0.425174 0.342288,-0.767463 0.767463,-0.767463 z" />
  <path
     style="fill:#ffffff;fill-opacity:1;stroke:none;stroke-width:0.767463px;stroke-linecap:butt;stroke-linejoin:miter;stroke-opacity:1"
     d="m 12.010195,13.505916 v 1.918658 h 1.534927 v -1.918658 z"
     id="path1003"
     inkscape:connector-curvature="0"
     sodipodi:nodetypes="ccccc" />
  <rect
     style="fill:#ffffff;fill-opacity:1;stroke:none;stroke-width:1.53494;stroke-linecap:round;stroke-linejoin:round;stroke-miterlimit:4;stroke-dasharray:none;stroke-dashoffset:0;stroke-opacity:1;paint-order:fill markers stroke"
     id="rect1007"
     width="0.38373163"
     height="0.76747662"
     x="17.766169"
     y="15.040828" />
</svg>
