<?xml version="1.0" encoding="UTF-8" standalone="no"?>
<svg
   height="48"
   width="48"
   version="1.1"
   id="svg32"
   sodipodi:docname="rawtherapee.svg"
   inkscape:version="1.1.2 (0a00cf5339, 2022-02-04)"
   xmlns:inkscape="http://www.inkscape.org/namespaces/inkscape"
   xmlns:sodipodi="http://sodipodi.sourceforge.net/DTD/sodipodi-0.dtd"
   xmlns="http://www.w3.org/2000/svg"
   xmlns:svg="http://www.w3.org/2000/svg">
  <defs
     id="defs36" />
  <sodipodi:namedview
     id="namedview34"
     pagecolor="#ffffff"
     bordercolor="#666666"
     borderopacity="1.0"
     inkscape:pageshadow="2"
     inkscape:pageopacity="0.0"
     inkscape:pagecheckerboard="0"
     showgrid="false"
     inkscape:zoom="6.59375"
     inkscape:cx="-9.9336493"
     inkscape:cy="25.402844"
     inkscape:window-width="1920"
     inkscape:window-height="1024"
     inkscape:window-x="0"
     inkscape:window-y="32"
     inkscape:window-maximized="1"
     inkscape:current-layer="svg32" />
  <g
     fill="#c7b892"
     opacity=".99"
     transform="matrix(1.1503549 0 0 1.1503549 -4.486125 -7.525565)"
     id="g12">
    <path
       d="m44.322082 27.405077a19.729762 19.729765 0 0 1 -19.729762 19.729765 19.729762 19.729765 0 0 1 -19.7297621-19.729765 19.729762 19.729765 0 0 1 19.7297621-19.7297632 19.729762 19.729765 0 0 1 19.729762 19.7297632z"
       fill="#80c778"
       id="path2" />
    <path
       d="m44.322082 27.405077c0 10.896448-8.833315 19.729765-19.729762 19.729765s-19.7297621-8.833317-19.7297621-19.729765h19.7297621z"
       fill="#80c7f3"
       id="path4" />
    <path
       d="m24.59232 7.6753138c10.896446 0 19.729761 8.8333152 19.729762 19.7297632 0 10.896448-8.833315 19.729765-19.729762 19.729765"
       fill="#ffc778"
       id="path6" />
    <path
       d="m10.641272 13.454028c3.570385-3.5703853 8.502825-5.7787142 13.951048-5.7787142 10.896446.0000001 19.729761 8.8333152 19.729762 19.7297632h-19.729762z"
       fill="#4dc778"
       id="path8" />
    <path
       d="m24.59232 27.529263v-19.8539492c10.896446 0 19.729761 8.8333152 19.729762 19.7297632"
       fill="#ffc778"
       id="path10" />
  </g>
  <path
     id="path14"
     style="fill:#8fbcbb;fill-opacity:1"
     d="M 23.804688 1.3046875 A 22.696228 22.696232 0 0 0 1.1074219 24 A 22.696228 22.696232 0 0 0 23.804688 46.695312 A 22.696228 22.696232 0 0 0 46.5 24 A 22.696228 22.696232 0 0 0 23.804688 1.3046875 z " />
  <path
     id="path16"
     style="fill:#81a1c1;fill-opacity:1"
     d="M 1.1074219 24 C 1.1074219 36.534782 11.269906 46.695312 23.804688 46.695312 C 36.339469 46.695313 46.5 36.534782 46.5 24 L 23.804688 24 L 1.1074219 24 z " />
  <path
     id="path18"
     style="fill:#bf616a;fill-opacity:1"
     d="M 23.804688 1.3046875 L 23.804688 46.695312 C 36.339469 46.695313 46.5 36.534782 46.5 24 C 46.499999 11.465217 36.339468 1.3046875 23.804688 1.3046875 z " />
  <path
     id="path20"
     style="fill:#a3be8c;fill-opacity:1"
     d="M 23.804688 1.3046875 C 17.537298 1.3046875 11.863069 3.8439617 7.7558594 7.9511719 L 23.804688 24 L 46.5 24 C 46.499999 11.465217 36.339467 1.3046877 23.804688 1.3046875 z " />
  <path
     id="path22"
     style="fill:#ebcb8b;fill-opacity:1"
     d="M 23.804688 1.3046875 L 23.804688 24.142578 L 46.5 24 C 46.499999 11.465217 36.339468 1.3046875 23.804688 1.3046875 z " />
  <path
     id="path24"
     style="fill:#d08770;fill-opacity:1"
     d="M 23.902344 1.3066406 C 23.869612 1.3067793 23.837385 1.3102698 23.804688 1.3105469 L 23.804688 24 L 24 24 L 39.947266 8.0527344 C 35.853859 3.9090385 30.180892 1.3332349 23.902344 1.3066406 z " />
  <path
     id="path26"
     style="fill:#b48ead;fill-opacity:1"
     d="M 23.804688 24 L 39.851562 40.048828 C 43.958771 35.941618 46.5 30.267391 46.5 24 L 23.804688 24 z " />
  <path
     id="path28"
     style="fill:#5e81ac;fill-opacity:1"
     d="M 23.804688 24 L 7.7558594 40.048828 C 11.863068 44.156039 17.537297 46.695312 23.804688 46.695312 L 23.804688 24 z " />
  <circle
     cx="23.803772"
     cy="24.000002"
     fill="#ffffff"
     fill-opacity=".714932"
     r="13.5"
     id="circle30"
     style="fill:#ffffff;fill-opacity:0.93229926" />
</svg>
