<?xml version="1.0" encoding="UTF-8" standalone="no"?>
<svg
   height="48"
   width="48"
   version="1.1"
   id="svg6"
   sodipodi:docname="rclone-browser.svg"
   inkscape:version="1.1.2 (0a00cf5339, 2022-02-04)"
   xmlns:inkscape="http://www.inkscape.org/namespaces/inkscape"
   xmlns:sodipodi="http://sodipodi.sourceforge.net/DTD/sodipodi-0.dtd"
   xmlns="http://www.w3.org/2000/svg"
   xmlns:svg="http://www.w3.org/2000/svg"
   xmlns:rdf="http://www.w3.org/1999/02/22-rdf-syntax-ns#"
   xmlns:cc="http://creativecommons.org/ns#"
   xmlns:dc="http://purl.org/dc/elements/1.1/">
  <metadata
     id="metadata12">
    <rdf:RDF>
      <cc:Work
         rdf:about="">
        <dc:format>image/svg+xml</dc:format>
        <dc:type
           rdf:resource="http://purl.org/dc/dcmitype/StillImage" />
      </cc:Work>
    </rdf:RDF>
  </metadata>
  <defs
     id="defs10">
    <linearGradient
       gradientUnits="userSpaceOnUse"
       gradientTransform="matrix(0.0920001,0,0,0.09064843,-21.193131,1.5846311)"
       y2="269.48999"
       y1="235.14999"
       x2="657.65002"
       x1="319.20999"
       id="a-12">
      <stop
         id="stop1076"
         offset="0"
         stop-color="#e54c18" />
      <stop
         id="stop1078"
         offset="1"
         stop-color="#fec350" />
    </linearGradient>
    <linearGradient
       id="linearGradient946"
       x1="31.833"
       x2="32.167"
       y1="51.558998"
       y2="11.098"
       gradientUnits="userSpaceOnUse"
       gradientTransform="matrix(0.83258662,0,0,0.83258662,-4.004011,0.8380211)">
      <stop
         stop-color="#f9f9f9"
         offset="0"
         id="stop5" />
      <stop
         stop-color="#f0fee6"
         offset="1"
         id="stop7-3" />
    </linearGradient>
    <linearGradient
       gradientUnits="userSpaceOnUse"
       y2="12.7"
       y1="4.2333002"
       x2="7.9373002"
       x1="7.9373002"
       id="linearGradient1166">
      <stop
         id="stop13"
         offset="0"
         stop-color="#ffffff" />
      <stop
         id="stop15"
         offset="1"
         stop-color="#b8ffe1"
         style="stop-color:#d6f2dc;stop-opacity:1" />
    </linearGradient>
  </defs>
  <sodipodi:namedview
     pagecolor="#ffffff"
     bordercolor="#666666"
     borderopacity="1"
     objecttolerance="10"
     gridtolerance="10"
     guidetolerance="10"
     inkscape:pageopacity="0"
     inkscape:pageshadow="2"
     inkscape:window-width="1920"
     inkscape:window-height="1002"
     id="namedview8"
     showgrid="true"
     inkscape:zoom="13.110938"
     inkscape:cx="8.5806218"
     inkscape:cy="27.915623"
     inkscape:window-x="0"
     inkscape:window-y="0"
     inkscape:window-maximized="1"
     inkscape:current-layer="svg6"
     inkscape:document-rotation="0"
     inkscape:pagecheckerboard="0">
    <inkscape:grid
       type="xygrid"
       id="grid837" />
  </sodipodi:namedview>
  <circle
     cx="23.940615"
     cy="31.534513"
     opacity=".99"
     r="13.232998"
     transform="matrix(1.75830584759 0 0 1.75830608345 -18.15909274367 -30.97874795549)"
     id="circle2"
     style="fill:#4c566a;fill-opacity:1" />
  <ellipse
     cx="23.935829"
     cy="24.468578"
     opacity="0.99"
     id="circle858"
     style="fill:#eceff4;fill-opacity:1;stroke-width:1.50099;opacity:1"
     rx="19.862556"
     ry="19.862558" />
  <g
     id="g942"
     transform="translate(0.18202594,-1.055778)">
    <path
       d="m 37,25 a 8.7788398,8.7788398 0 0 0 -3.766337,-3.51575 9.6051009,9.6051009 0 0 1 -1.124257,3.039408 l -0.883453,1.53212 a 3.821271,3.821271 0 0 1 1.462136,1.43354 3.843094,3.843094 0 0 1 -6.655994,3.842342 L 24.250139,28.250111 H 21.37478 l -1.438056,2.490825 1.78346,3.080044 c 2.435891,4.220104 7.832176,5.665684 12.050775,3.229041 C 37.99031,34.614883 39.436644,29.219351 37,25"
       id="path24"
       style="stroke-width:0.752514;fill:#81a1c1;fill-opacity:1" />
    <path
       d="M 28.164722,12.058999 C 23.944618,9.623108 18.549086,11.067937 16.113948,15.287288 a 8.7773345,8.7773345 0 0 0 -1.163388,5.02078 9.6043483,9.6043483 0 0 1 3.194426,-0.546325 l 1.768409,-0.0015 a 3.821271,3.821271 0 0 1 0.510958,-1.981339 3.843094,3.843094 0 0 1 6.655995,3.841589 l -1.778193,3.085275 1.437304,2.490071 h 2.875359 l 1.776689,-3.085312 c 2.436643,-4.218599 0.991814,-9.614884 -3.22829,-12.050775"
       id="path26"
       style="stroke-width:0.752514;fill:#88c0d0;fill-opacity:1" />
    <path
       d="m 21.00379,34.235615 -0.88571,-1.531367 a 3.8182609,3.8182609 0 0 1 -1.971589,0.549336 3.843094,3.843094 0 1 1 0,-7.685435 l 3.559396,-0.0022 1.438055,-2.490825 -1.438055,-2.489319 -3.559396,0.003 c -4.872535,0 -8.8224859,3.94995 -8.8224859,8.821733 0,4.871781 3.9491989,8.822485 8.8217329,8.822485 a 8.7818495,8.7818495 0 0 0 4.926715,-1.502765 9.6111211,9.6111211 0 0 1 -2.068663,-2.494586"
       id="path28"
       style="stroke-width:0.752514;fill:#5e81ac;fill-opacity:1" />
  </g>
</svg>
