<?xml version="1.0" encoding="UTF-8" standalone="no"?>
<svg
   height="48"
   width="48"
   version="1.1"
   id="svg8"
   sodipodi:docname="recipes.svg"
   inkscape:version="1.1.2 (0a00cf5339, 2022-02-04)"
   xmlns:inkscape="http://www.inkscape.org/namespaces/inkscape"
   xmlns:sodipodi="http://sodipodi.sourceforge.net/DTD/sodipodi-0.dtd"
   xmlns="http://www.w3.org/2000/svg"
   xmlns:svg="http://www.w3.org/2000/svg"
   xmlns:rdf="http://www.w3.org/1999/02/22-rdf-syntax-ns#"
   xmlns:cc="http://creativecommons.org/ns#"
   xmlns:dc="http://purl.org/dc/elements/1.1/">
  <metadata
     id="metadata14">
    <rdf:RDF>
      <cc:Work
         rdf:about="">
        <dc:format>image/svg+xml</dc:format>
        <dc:type
           rdf:resource="http://purl.org/dc/dcmitype/StillImage" />
      </cc:Work>
    </rdf:RDF>
  </metadata>
  <defs
     id="defs12" />
  <sodipodi:namedview
     pagecolor="#ffffff"
     bordercolor="#666666"
     borderopacity="1"
     objecttolerance="10"
     gridtolerance="10"
     guidetolerance="10"
     inkscape:pageopacity="0"
     inkscape:pageshadow="2"
     inkscape:window-width="1920"
     inkscape:window-height="1024"
     id="namedview10"
     showgrid="false"
     inkscape:zoom="6.6880518"
     inkscape:cx="19.213368"
     inkscape:cy="43.734709"
     inkscape:window-x="0"
     inkscape:window-y="32"
     inkscape:window-maximized="1"
     inkscape:current-layer="svg8"
     inkscape:document-rotation="0"
     inkscape:pagecheckerboard="0" />
  <path
     id="path2"
     style="fill:#b48ead;fill-opacity:1;stroke-width:1.15035"
     d="M 23.804688 1.3046875 A 22.696228 22.696232 0 0 0 1.1074219 24 A 22.696228 22.696232 0 0 0 23.804688 46.695312 A 22.696228 22.696232 0 0 0 46.5 24 A 22.696228 22.696232 0 0 0 23.804688 1.3046875 z " />
  <path
     id="path880"
     style="fill:#ffffff;fill-opacity:0.24299738;stroke-width:1.0494"
     d="M 23.804688 3.2949219 A 20.704357 20.704361 0 0 0 3.0996094 24 A 20.704357 20.704361 0 0 0 23.804688 44.705078 A 20.704357 20.704361 0 0 0 44.507812 24 A 20.704357 20.704361 0 0 0 23.804688 3.2949219 z " />
  <path
     style="fill:#ffffff;fill-opacity:1;stroke:none;stroke-width:1px;stroke-linecap:butt;stroke-linejoin:miter;stroke-opacity:1"
     d="m 16.429438,35.91854 c 6.894699,-1.656108 11.111561,-0.971587 15,0 l -1,-9 c 0,0 11,0 5.271867,-9.755046 -5.245492,-8.933107 -8.271867,0.755046 -8.271867,0.755046 0,0 4,-6 -4.042682,-5.833684 -5.09793,0.105421 -3.957318,4.833684 -3.957318,4.833684 0,0 -4.796232,-6.396412 -7.761775,-0.107863 -5.2382255,11.107863 5.761775,10.107863 5.761775,10.107863 z"
     id="path828"
     inkscape:connector-curvature="0"
     sodipodi:nodetypes="cccscscscc" />
</svg>
