<?xml version="1.0" encoding="UTF-8" standalone="no"?>
<svg
   height="48"
   width="48"
   version="1.1"
   id="svg16"
   sodipodi:docname="rekonq.svg"
   inkscape:version="1.1.2 (0a00cf5339, 2022-02-04)"
   xmlns:inkscape="http://www.inkscape.org/namespaces/inkscape"
   xmlns:sodipodi="http://sodipodi.sourceforge.net/DTD/sodipodi-0.dtd"
   xmlns="http://www.w3.org/2000/svg"
   xmlns:svg="http://www.w3.org/2000/svg">
  <defs
     id="defs20" />
  <sodipodi:namedview
     id="namedview18"
     pagecolor="#ffffff"
     bordercolor="#666666"
     borderopacity="1.0"
     inkscape:pageshadow="2"
     inkscape:pageopacity="0.0"
     inkscape:pagecheckerboard="0"
     showgrid="false"
     inkscape:zoom="13.229167"
     inkscape:cx="24"
     inkscape:cy="24"
     inkscape:window-width="1920"
     inkscape:window-height="1030"
     inkscape:window-x="0"
     inkscape:window-y="24"
     inkscape:window-maximized="1"
     inkscape:current-layer="svg16" />
  <path
     d="m44.322082 27.405077a19.729762 19.729765 0 0 1 -19.729762 19.729765 19.729762 19.729765 0 0 1 -19.7297621-19.729765 19.729762 19.729765 0 0 1 19.7297621-19.7297632 19.729762 19.729765 0 0 1 19.729762 19.7297632z"
     fill="#69aee7"
     opacity=".99"
     transform="matrix(1.1503549 0 0 1.1503549 -4.486125 -7.525565)"
     id="path2"
     style="fill:#81a1c1;fill-opacity:1" />
  <path
     d="m15 27 4.5 13.5 4.5 1.5 4.5-1.5 4.5-13.5z"
     fill="#bcdaf4"
     id="path4" />
  <path
     d="m15 27 1.5 4.5 7.5 1.5 7.5-1.5 1.5-4.5z"
     fill="#ffffff"
     fill-opacity=".588957"
     id="path6" />
  <path
     d="m13.5 9 6 13.5 3 1.5h3l3-1.5 4.5-13.5h1.5l-1.5 18-9 1.5h-1.5l-7.5-1.5-3-18z"
     fill="#fcfeff"
     id="path8" />
  <path
     d="m27 30 3-.9v1.5l-3 .9z"
     id="path10"
     style="fill:#81a1c1;fill-opacity:1" />
  <path
     d="m18 29.1 3 .9v1.5l-3-.9z"
     id="path12"
     style="fill:#81a1c1;fill-opacity:1" />
  <path
     d="m18 36 1.5 4.5 4.5 1.5 4.5-1.5 1.5-4.5-6 1.5z"
     fill="#ffffff"
     fill-opacity=".337423"
     id="path14" />
</svg>
