<?xml version="1.0" encoding="UTF-8" standalone="no"?>
<svg
   height="48"
   width="48"
   version="1.1"
   id="svg8"
   sodipodi:docname="resharper.svg"
   inkscape:version="1.1.2 (0a00cf5339, 2022-02-04)"
   xmlns:inkscape="http://www.inkscape.org/namespaces/inkscape"
   xmlns:sodipodi="http://sodipodi.sourceforge.net/DTD/sodipodi-0.dtd"
   xmlns="http://www.w3.org/2000/svg"
   xmlns:svg="http://www.w3.org/2000/svg"
   xmlns:rdf="http://www.w3.org/1999/02/22-rdf-syntax-ns#"
   xmlns:cc="http://creativecommons.org/ns#"
   xmlns:dc="http://purl.org/dc/elements/1.1/">
  <metadata
     id="metadata14">
    <rdf:RDF>
      <cc:Work
         rdf:about="">
        <dc:format>image/svg+xml</dc:format>
        <dc:type
           rdf:resource="http://purl.org/dc/dcmitype/StillImage" />
      </cc:Work>
    </rdf:RDF>
  </metadata>
  <defs
     id="defs12" />
  <sodipodi:namedview
     pagecolor="#ffffff"
     bordercolor="#666666"
     borderopacity="1"
     objecttolerance="10"
     gridtolerance="10"
     guidetolerance="10"
     inkscape:pageopacity="0"
     inkscape:pageshadow="2"
     inkscape:window-width="1920"
     inkscape:window-height="1024"
     id="namedview10"
     showgrid="false"
     inkscape:zoom="9.4583333"
     inkscape:cx="9.6740088"
     inkscape:cy="30.713656"
     inkscape:window-x="0"
     inkscape:window-y="32"
     inkscape:window-maximized="1"
     inkscape:current-layer="svg8"
     inkscape:document-rotation="0"
     inkscape:pagecheckerboard="0" />
  <path
     id="path2"
     style="fill:#ebcb8b;fill-opacity:1;stroke-width:1.15035"
     d="M 23.804688 1.3046875 A 22.696228 22.696232 0 0 0 1.1074219 24 A 22.696228 22.696232 0 0 0 23.804688 46.695312 A 22.696228 22.696232 0 0 0 46.5 24 A 22.696228 22.696232 0 0 0 23.804688 1.3046875 z " />
  <path
     id="path839"
     style="fill:#ffffff;fill-opacity:0.162031;stroke-width:1.15035"
     d="M 23.804688 1.3046875 C 11.269907 1.3046874 1.107423 11.465218 1.1074219 24 L 46.5 24 C 46.499999 11.465218 36.339468 1.3046875 23.804688 1.3046875 z " />
  <path
     id="path841"
     style="fill:#d08770;fill-opacity:0.42352942;stroke-width:1.15035"
     d="M 23.804688 1.3046875 L 23.804688 46.695312 C 36.339469 46.695312 46.5 36.534782 46.5 24 C 46.499999 11.465218 36.339468 1.3046875 23.804688 1.3046875 z " />
  <path
     id="path10"
     style="fill:#ffffff;stroke-width:0.84919"
     d="M 10.920942,12.920294 V 37.546799 H 35.547447 V 12.920294 Z m 19.256044,4.730252 c 1.235584,0.02324 1.21161,-0.0045 1.18588,1.366666 l -0.01824,0.94041 1.114561,0.05805 1.114562,0.05639 0.01991,0.955339 c 0.02511,1.189442 -0.06857,1.276442 -1.360032,1.252223 l -0.932124,-0.01825 -0.01824,0.945387 c -0.0097,0.520072 -0.0531,1.035823 -0.09786,1.146075 -0.06486,0.159745 -0.292266,0.196664 -1.137782,0.180785 -1.23601,-0.02323 -1.211738,0.0051 -1.185881,-1.371641 l 0.01824,-0.945387 -0.988511,-0.02156 c -0.543726,-0.0095 -1.061611,-0.06736 -1.15105,-0.127711 -0.116627,-0.0771 -0.146544,-0.395894 -0.106148,-1.11622 l 0.05639,-1.006755 1.116221,-0.01658 1.11622,-0.01658 0.01824,-0.940412 c 0.02569,-1.370883 8.5e-5,-1.343424 1.235637,-1.320224 z M 14.787077,18.5412 c 1.420786,-0.03846 4.070275,0.04824 4.79162,0.19737 0.903002,0.184752 1.375961,0.418861 1.93224,0.961974 1.538294,1.501731 1.219329,4.464618 -0.587135,5.451732 -0.284773,0.15568 -0.519989,0.341039 -0.522452,0.411327 -0.0026,0.07007 0.476172,0.864426 1.064805,1.766381 0.66603,1.020507 1.041114,1.714375 0.991827,1.836041 -0.109218,0.269339 -2.204073,0.242585 -2.582399,-0.03317 -0.141004,-0.102688 -0.663989,-0.82955 -1.162661,-1.615451 l -0.90724,-1.429691 -0.874068,-0.01658 -0.875727,-0.01658 -0.02489,1.393202 c -0.02064,1.096407 -0.06995,1.436047 -0.230541,1.590573 -0.145696,0.140183 -0.446947,0.190029 -1.054851,0.175804 -1.416733,-0.03309 -1.307163,0.462304 -1.19749,-5.375438 0.09209,-4.899725 0.105257,-5.092275 0.344983,-5.214555 0.08343,-0.04266 0.420377,-0.07011 0.893971,-0.08293 z m 1.368324,2.260636 -0.02654,1.426375 -0.02653,1.426373 1.540815,-0.01327 1.540815,-0.01327 0.379814,-0.409668 c 0.52487,-0.566118 0.538168,-1.25936 0.03483,-1.844334 L 19.233718,20.9511 17.694561,20.876461 Z m 10.087448,2.638792 c 1.235572,0.02322 1.211627,-0.0046 1.185879,1.366665 l -0.01824,0.940411 1.114561,0.05805 1.114562,0.05805 -0.01991,1.083049 -0.01991,1.084707 -1.116221,0.01493 -1.11622,0.01658 -0.01824,0.940411 c -0.0096,0.517365 -0.05312,1.031045 -0.09786,1.141099 -0.06486,0.159744 -0.292274,0.195006 -1.137781,0.179126 -1.235535,-0.0232 -1.211645,0.0062 -1.185881,-1.365006 l 0.01824,-0.94207 -1.114562,-0.0564 -1.114562,-0.05805 0.01991,-1.084708 0.01991,-1.083049 1.11622,-0.01493 1.11622,-0.01658 0.01824,-0.940413 c 0.02583,-1.371453 8e-5,-1.345099 1.235638,-1.321883 z" />
</svg>
