<?xml version="1.0" encoding="UTF-8" standalone="no"?>
<svg
   xmlns:dc="http://purl.org/dc/elements/1.1/"
   xmlns:cc="http://creativecommons.org/ns#"
   xmlns:rdf="http://www.w3.org/1999/02/22-rdf-syntax-ns#"
   xmlns:svg="http://www.w3.org/2000/svg"
   xmlns="http://www.w3.org/2000/svg"
   xmlns:sodipodi="http://sodipodi.sourceforge.net/DTD/sodipodi-0.dtd"
   xmlns:inkscape="http://www.inkscape.org/namespaces/inkscape"
   height="48"
   width="48"
   version="1.1"
   id="svg8"
   sodipodi:docname="retroarch.svg"
   inkscape:version="1.0.2 (e86c870879, 2021-01-15)">
  <metadata
     id="metadata14">
    <rdf:RDF>
      <cc:Work
         rdf:about="">
        <dc:format>image/svg+xml</dc:format>
        <dc:type
           rdf:resource="http://purl.org/dc/dcmitype/StillImage" />
        <dc:title></dc:title>
      </cc:Work>
    </rdf:RDF>
  </metadata>
  <defs
     id="defs12" />
  <sodipodi:namedview
     pagecolor="#ffffff"
     bordercolor="#666666"
     borderopacity="1"
     objecttolerance="10"
     gridtolerance="10"
     guidetolerance="10"
     inkscape:pageopacity="0"
     inkscape:pageshadow="2"
     inkscape:window-width="1920"
     inkscape:window-height="1031"
     id="namedview10"
     showgrid="false"
     inkscape:zoom="6.6880515"
     inkscape:cx="16.416699"
     inkscape:cy="29.829664"
     inkscape:window-x="0"
     inkscape:window-y="24"
     inkscape:window-maximized="1"
     inkscape:current-layer="svg8"
     inkscape:document-rotation="0" />
  <path
     d="m44.322082 27.405077a19.729762 19.729765 0 0 1 -19.729762 19.729765 19.729762 19.729765 0 0 1 -19.7297621-19.729765 19.729762 19.729765 0 0 1 19.7297621-19.7297632 19.729762 19.729765 0 0 1 19.729762 19.7297632z"
     fill="#89a02c"
     opacity=".99"
     id="path2"
     style="fill:#6dadcf;fill-opacity:1"
     transform="matrix(1.1503549 0 0 1.1503549 -4.486125 -7.525565)" />
  <path
     id="path1136"
     style="fill:#a090c7;fill-opacity:1;stroke-width:1.15035"
     d="M 1.1816406 25.832031 A 22.696228 22.696232 0 0 0 23.804688 46.695312 A 22.696228 22.696232 0 0 0 46.423828 25.845703 C 46.379938 25.841746 46.337923 25.832031 46.292969 25.832031 L 1.1816406 25.832031 z " />
  <path
     id="path1156"
     style="fill:#a090c7;fill-opacity:1;stroke-width:1.15035"
     d="M 23.804688 1.3046875 A 22.696228 22.696232 0 0 0 1.1074219 24 A 22.696228 22.696232 0 0 0 23.804688 46.695312 A 22.696228 22.696232 0 0 0 46.5 24 A 22.696228 22.696232 0 0 0 23.804688 1.3046875 z M 23.759766 3.2382812 A 20.762165 20.762169 0 0 1 23.804688 3.2382812 A 20.762165 20.762169 0 0 1 44.566406 24 A 20.762165 20.762169 0 0 1 23.804688 44.761719 A 20.762165 20.762169 0 0 1 3.0410156 24 A 20.762165 20.762169 0 0 1 23.759766 3.2382812 z " />
  <circle
     style="fill:#ffffff;fill-opacity:1;stroke-width:35;stroke-linecap:round;stroke-linejoin:round"
     id="path839"
     cx="8.7300787"
     cy="30.959213"
     r="2.8051097" />
  <circle
     style="fill:#ffffff;fill-opacity:1;stroke-width:35;stroke-linecap:round;stroke-linejoin:round"
     id="circle841"
     cx="16.088963"
     cy="37.135891"
     r="2.8051097" />
  <rect
     style="fill:#ffffff;fill-opacity:1;stroke-width:35;stroke-linecap:round;stroke-linejoin:round"
     id="rect843"
     width="4.7316813"
     height="11.902602"
     x="32.336079"
     y="28.066406"
     rx="0"
     ry="0" />
  <rect
     style="fill:#ffffff;fill-opacity:1;stroke-width:35;stroke-linecap:round;stroke-linejoin:round"
     id="rect845"
     width="4.7316813"
     height="11.902602"
     x="31.651867"
     y="-40.653221"
     rx="0"
     ry="0"
     transform="rotate(90)" />
  <path
     d="m 16.641739,7.256161 c -0.144808,0 -0.178008,0.1229105 -0.178008,0.267719 v 1.5752335 c 0,0.144808 0.0332,0.253591 0.178008,0.253591 h 1.587948 c 0.144809,0 0.260655,-0.113021 0.259243,-0.25783 -0.0042,-0.5241356 -0.0049,-1.051097 -0.0057,-1.5752329 0,-0.1448083 -0.117259,-0.2634806 -0.262068,-0.2634806 H 16.64169 m 12.743142,0 c -0.144808,0 -0.340476,0.120085 -0.340476,0.2648934 v 1.5865351 c 0,0.144809 0.156111,0.260655 0.300919,0.259243 0.524136,-0.0042 1.030612,-0.0035 1.554748,-0.0042 0.144809,0 0.241583,-0.118672 0.241583,-0.263481 V 7.5210544 c 0,-0.1448084 -0.03603,-0.2648934 -0.180834,-0.2648934 H 29.385587 M 18.804683,9.3640065 c -0.145515,-0.0014 -0.244409,0.114434 -0.244409,0.259243 v 1.6225595 c 0,0.144809 -0.186485,0.204145 -0.331293,0.204145 h -1.608433 c -0.144809,0 -0.156111,0.175183 -0.156111,0.319991 v 1.602076 c 0,0.144809 -0.223923,0.17377 -0.368025,0.17377 h -1.604195 c -0.144808,0 -0.386391,0.205557 -0.386391,0.350366 v 1.604194 c 0,0.144809 0.0064,0.141983 -0.137746,0.141983 h -1.579471 c -0.144808,0 -0.379327,0.235932 -0.379327,0.380741 v 5.812822 c 0,0.144808 0.234519,0.358843 0.379327,0.358843 h 1.578059 c 0.144808,0 0.139158,-0.214035 0.139158,-0.358843 v -3.69862 c 0,-0.144807 0.24017,-0.134918 0.384978,-0.134918 h 1.621148 c 0.144809,0 0.353192,-0.0092 0.353192,0.134918 v 3.722637 c 0,0.144808 0.07134,0.262068 0.216859,0.262068 0.537557,0 1.080059,0 1.597837,0.0042 0.144809,0.0014 0.281141,-0.114433 0.281141,-0.259242 v -1.597837 c 0,-0.144809 0.0332,-0.170945 0.178008,-0.170945 h 10.129526 c 0.144809,0 0.262068,0.07205 0.262068,0.216859 0,0.537558 0,1.080766 -0.0042,1.604195 -0.0014,0.144809 0.114434,0.276195 0.259242,0.276195 h 1.595012 c 0.144103,0 0.160349,-0.192136 0.160349,-0.336944 v -3.716985 c 0,-0.144809 0.219685,-0.139157 0.364493,-0.139157 h 1.629625 c 0.144809,0 0.365906,-0.0057 0.365906,0.139157 v 3.694381 c 0,0.144808 0.01413,0.358843 0.158937,0.358843 h 1.558986 c 0.144808,0 0.379327,-0.214035 0.379327,-0.358843 v -5.822005 c 0,-0.144809 -0.234519,-0.370851 -0.379327,-0.370851 h -1.5936 c -0.144807,0 -0.386391,-0.0085 -0.386391,-0.153285 v -1.608395 c 0,-0.144809 7.07e-4,-0.335532 -0.137744,-0.335532 h -1.600663 c -0.144809,0 -0.358843,-0.0445 -0.358843,-0.189311 v -1.600663 c 0,-0.144808 -0.02119,-0.306569 -0.165293,-0.306569 h -1.596425 c -0.144808,0 -0.334118,-0.07347 -0.334118,-0.218273 V 9.6239555 c 0,-0.144809 -0.08194,-0.262068 -0.226043,-0.260655 -0.522723,0.0042 -1.058868,0.0057 -1.602076,0.0057 -0.144808,0 -0.269131,0.11726 -0.269131,0.262068 v 1.5935995 c 0,0.145515 -0.0664,0.224629 -0.211209,0.224629 h -5.879929 c -0.144808,0 -0.198493,-0.08053 -0.198493,-0.224629 V 9.6296555 c 0,-0.144809 -0.149047,-0.262068 -0.293855,-0.262068 -0.537558,0 -1.041208,0 -1.558986,-0.0042 m -0.05651,4.1817845 h 1.600663 c 0.144808,0 0.309395,0.188604 0.309395,0.334119 0,0.532612 0,1.060986 0,1.597837 0,0.144808 -0.164587,0.165293 -0.309395,0.165293 h -1.60066 c -0.144809,0 -0.187898,-0.02119 -0.187898,-0.165293 v -1.597837 c 0,-0.144809 0.04239,-0.334119 0.187898,-0.334119 m 8.51191,0 h 1.597837 c 0.144809,0 0.189311,0.192136 0.189311,0.336944 v 1.59925 c 0,0.144809 -0.04451,0.161762 -0.189311,0.161762 h -1.597837 c -0.144808,0 -0.310102,-0.01625 -0.310102,-0.161762 v -1.59925 c 0,-0.144102 0.166,-0.336944 0.310102,-0.336944 m -8.51191,8.583961 c -0.144809,-7.1e-5 -0.263481,0.11726 -0.262068,0.262067 0.0042,0.524136 0.0028,1.081472 0.0028,1.605608 0,0.144809 0.115847,0.293855 0.260656,0.293855 h 3.707095 c 0.144809,0 0.302332,-0.180834 0.302332,-0.325642 v -1.563224 c 0,-0.144809 -0.137038,-0.262775 -0.28114,-0.262068 -0.394161,0 -0.793268,0 -1.181072,-0.0014 -0.848366,-0.0028 -1.700263,-0.0064 -2.547922,-0.0099 m 10.216412,0.0042 c -0.04097,0.0028 -0.06358,0.0332 -0.104545,0.0332 -1.248178,7.1e-5 -2.474458,0.02755 -3.722636,0.02755 h -0.120085 c -0.06569,0 -0.161762,0.06217 -0.161762,0.20697 v 1.568875 c 0,0.144809 0.161055,0.321404 0.30657,0.321404 h 3.702857 c 0.144809,0 0.18366,-0.176595 0.18366,-0.321404 v -1.587948 c 0,-0.144809 -0.01554,-0.253591 -0.08406,-0.248647"
     fill="url(#1)"
     id="path16"
     style="fill:#ffffff;fill-opacity:0.682954;stroke-width:0.706383" />
</svg>
