<?xml version="1.0" encoding="UTF-8" standalone="no"?>
<svg
   height="48"
   width="48"
   version="1.1"
   id="svg14"
   sodipodi:docname="riot-web.svg"
   inkscape:version="1.1.2 (0a00cf5339, 2022-02-04)"
   xmlns:inkscape="http://www.inkscape.org/namespaces/inkscape"
   xmlns:sodipodi="http://sodipodi.sourceforge.net/DTD/sodipodi-0.dtd"
   xmlns="http://www.w3.org/2000/svg"
   xmlns:svg="http://www.w3.org/2000/svg">
  <defs
     id="defs18" />
  <sodipodi:namedview
     id="namedview16"
     pagecolor="#ffffff"
     bordercolor="#666666"
     borderopacity="1.0"
     inkscape:pageshadow="2"
     inkscape:pageopacity="0.0"
     inkscape:pagecheckerboard="0"
     showgrid="false"
     inkscape:zoom="4.09375"
     inkscape:cx="22.229008"
     inkscape:cy="54.10687"
     inkscape:window-width="1920"
     inkscape:window-height="1031"
     inkscape:window-x="0"
     inkscape:window-y="0"
     inkscape:window-maximized="1"
     inkscape:current-layer="svg14" />
  <g
     fill="#e49b71"
     opacity=".99"
     transform="matrix(1.1503549 0 0 1.1503549 -4.486125 -7.525565)"
     id="g6">
    <path
       id="path2"
       style="stroke-width:1.15035;fill:#b48ead;fill-opacity:1"
       d="M 23.804688 1.3046875 A 22.696228 22.696232 0 0 0 1.1074219 24 A 22.696228 22.696232 0 0 0 23.804688 46.695312 A 22.696228 22.696232 0 0 0 46.5 24 A 22.696228 22.696232 0 0 0 23.804688 1.3046875 z "
       transform="matrix(0.86929694,0,0,0.86929694,3.8997748,6.5419507)" />
    <path
       id="path4"
       style="stroke-width:1.15035;fill:#a3be8c;fill-opacity:1"
       d="M 39.851562 7.9511719 L 7.7558594 40.048828 C 11.863069 44.156038 17.537297 46.695312 23.804688 46.695312 C 36.339469 46.695312 46.500001 36.534782 46.5 24 C 46.5 17.732609 43.958771 12.058381 39.851562 7.9511719 z "
       transform="matrix(0.86929694,0,0,0.86929694,3.8997748,6.5419507)" />
  </g>
  <g
     fill="#ffffff"
     transform="translate(-.946229 .338135)"
     id="g12">
    <path
       d="m23.804688 8.0664062a11.25 11.25 0 0 0 -1.238282.0742188l-9.929687 9.929687a11.25 11.25 0 0 0 -.082031 1.246094 11.25 11.25 0 0 0 .013671.408203l11.642579-11.6425778a11.25 11.25 0 0 0 -.40625-.015625zm1.697265.1386719-12.947265 12.9472659v1.585937l14.261718-14.2617185a11.25 11.25 0 0 0 -1.314453-.2714844zm-4.693359.2792969a11.25 11.25 0 0 0 -7.851563 7.851563zm7.068359.3457031-15.322265 15.3222659v1.585937l16.412109-16.4121091a11.25 11.25 0 0 0 -1.089844-.4960938zm1.990235 1.0097657-17.3125 17.3125002v1.585937l18.238281-18.238281a11.25 11.25 0 0 0 -.925781-.6601562zm1.677734 1.3222652-18.990234 18.990235v1.585937l19.765624-19.765625a11.25 11.25 0 0 0 -.77539-.810547zm1.394531 1.605469-20.384765 20.384766v1.585937l21.003906-21.003906a11.25 11.25 0 0 0 -.619141-.966797zm1.097656 1.902344-21.335937 21.335937c.10033.402024.259097.776451.458984 1.126953l21.324219-21.324218a11.25 11.25 0 0 0 -.447266-1.138672zm.751953 2.248047-21.037109 21.037109c.255118.276742.540094.522982.857422.728516l6.945313-6.945313v-1.40039a11.25 11.25 0 0 0 1.224609.175781l12.222656-12.222656a11.25 11.25 0 0 0 -.212891-1.373047zm.251954 2.748047-10.882813 10.882812a11.25 11.25 0 0 0 1.777344-.191406l8.904297-8.904297a11.25 11.25 0 0 0 .201172-1.787109zm-.771485 3.771484-6.330078 6.330078a11.25 11.25 0 0 0 6.330078-6.330078zm-12.714843 9.714844-5.988282 5.988281c.419781.146929.86493.23776 1.332032.253906l4.65625-4.65625zm-.28125 3.28125-2.695313 2.695312c1.257417-.452405 2.243523-1.437596 2.695313-2.695312z"
       fill-opacity=".624"
       transform="translate(.946229 -.338135)"
       id="path8" />
    <path
       d="m17.55 10.428516a4.525862 4.8024409 0 0 0 -1.65658 6.560257 4.525862 4.8024409 0 0 0 6.182442 1.757815 4.525862 4.8024409 0 0 0 1.65658-6.560256 4.525862 4.8024409 0 0 0 -6.182442-1.757816zm7.112069 13.071256c-2.171409 1.330276-2.910244 4.25615-1.65658 6.560256l3.87931 7.129776c1.253664 2.304106 4.011033 3.088091 6.182442 1.757815 2.17141-1.330276 2.910244-4.25615 1.656581-6.560256l-3.879311-7.129776c-1.253664-2.304106-4.011033-3.088091-6.182442-1.757815z"
       stroke-width=".888019"
       id="path10" />
  </g>
</svg>
