<?xml version="1.0" encoding="UTF-8" standalone="no"?>
<svg
   viewBox="0 0 48 48"
   version="1.1"
   id="svg57"
   sodipodi:docname="rlogo_icon.svg"
   inkscape:version="1.1.2 (0a00cf5339, 2022-02-04)"
   xmlns:inkscape="http://www.inkscape.org/namespaces/inkscape"
   xmlns:sodipodi="http://sodipodi.sourceforge.net/DTD/sodipodi-0.dtd"
   xmlns="http://www.w3.org/2000/svg"
   xmlns:svg="http://www.w3.org/2000/svg">
  <sodipodi:namedview
     id="namedview59"
     pagecolor="#505050"
     bordercolor="#eeeeee"
     borderopacity="1"
     inkscape:pageshadow="0"
     inkscape:pageopacity="0"
     inkscape:pagecheckerboard="0"
     showgrid="false"
     inkscape:zoom="14.729167"
     inkscape:cx="23.966054"
     inkscape:cy="23.966054"
     inkscape:window-width="2560"
     inkscape:window-height="1365"
     inkscape:window-x="0"
     inkscape:window-y="0"
     inkscape:window-maximized="1"
     inkscape:current-layer="g47" />
  <defs
     id="defs7">
    <linearGradient
       id="linearGradient3764"
       x1="1"
       x2="47"
       gradientUnits="userSpaceOnUse"
       gradientTransform="matrix(0,-1,1,0,-1.5e-6,47.999998)">
      <stop
         style="stop-color:#9db6d7;stop-opacity:1"
         id="stop2" />
      <stop
         offset="1"
         style="stop-color:#acc1dd;stop-opacity:1"
         id="stop4" />
    </linearGradient>
  </defs>
  <g
     id="g19">
    <path
       d="M 24,1 C 36.703,1 47,11.297 47,24 47,36.703 36.703,47 24,47 11.297,47 1,36.703 1,24 1,11.297 11.297,1 24,1 Z"
       style="fill:#81a1c1;fill-opacity:1"
       id="path17" />
  </g>
  <g
     id="g51">
    <g
       id="g49">
      <!-- color: #acc1dd -->
      <g
         id="g47">
        <path
           d="m 24,16 c -6.629,0 -12,3.582 -12,8 0,4.418 5.371,8 12,8 6.629,0 12,-3.582 12,-8 0,-4.418 -5.371,-8 -12,-8 m 1.5,2 c 5.246,0 9.5,2.688 9.5,6 0,3.313 -4.254,6 -9.5,6 -5.246,0 -9.5,-2.688 -9.5,-6 0,-3.313 4.254,-6 9.5,-6 m 0,0"
           style="fill:#e5e9f0;fill-opacity:1;fill-rule:nonzero;stroke:none"
           id="path39" />
        <path
           d="M 24.5,17 C 18.699,17 14,20.133 14,24 c 0,3.867 4.699,7 10.5,7 5.172,0 9.441,-2.5 10.313,-5.781 C 33.926,27.953 30.09,30 25.5,30 20.254,30 16,27.312 16,24 c 0,-3.313 4.254,-6 9.5,-6 4.59,0 8.426,2.047 9.313,4.781 C 33.946,19.5 29.672,17 24.5,17 m 10.313,5.781 c 0.063,0.195 0.094,0.391 0.125,0.594 -0.027,-0.203 -0.074,-0.395 -0.125,-0.594 m 0,2.438 c 0.051,-0.199 0.098,-0.391 0.125,-0.594 -0.031,0.203 -0.063,0.398 -0.125,0.594 m 0,0"
           style="fill:#4c566a;fill-opacity:1;fill-rule:nonzero;stroke:none"
           id="path41" />
        <path
           d="m 20.992,20 v 14.996 h 3 v -5 h 1 l 3,5 h 3 l -3,-5 -0.219,-0.344 c 1.875,-0.719 3.215,-2.523 3.215,-4.656 0,-2.758 -2.238,-4.996 -5,-4.996 m -1.996,3 h 1.996 c 1.105,0 2,0.895 2,1.996 0,1.109 -0.898,2 -2,2 h -1.996 v -4 m 0,0.004"
           style="fill:#e5e9f0;fill-opacity:1;fill-rule:nonzero;stroke:none"
           id="path43" />
        <path
           d="m 22,19 v 14.996 h 3 V 29 h 1 l 3,4.996 h 3 L 29,29 28.777,28.656 c 1.875,-0.723 3.219,-2.527 3.219,-4.656 0,-2.762 -2.238,-5 -5,-5 m -2,3 h 2 c 1.105,0 2,0.898 2,2 0,1.105 -0.898,1.996 -2,1.996 h -2 v -4 m 0,0.004"
           style="fill:#4c566a;fill-opacity:1;fill-rule:nonzero;stroke:none"
           id="path45" />
      </g>
    </g>
  </g>
</svg>
