<?xml version="1.0" encoding="UTF-8" standalone="no"?>
<svg
   height="48"
   width="48"
   version="1.1"
   id="svg8"
   sodipodi:docname="rubymine.svg"
   inkscape:version="1.1.2 (0a00cf5339, 2022-02-04)"
   xmlns:inkscape="http://www.inkscape.org/namespaces/inkscape"
   xmlns:sodipodi="http://sodipodi.sourceforge.net/DTD/sodipodi-0.dtd"
   xmlns="http://www.w3.org/2000/svg"
   xmlns:svg="http://www.w3.org/2000/svg"
   xmlns:rdf="http://www.w3.org/1999/02/22-rdf-syntax-ns#"
   xmlns:cc="http://creativecommons.org/ns#"
   xmlns:dc="http://purl.org/dc/elements/1.1/">
  <metadata
     id="metadata14">
    <rdf:RDF>
      <cc:Work
         rdf:about="">
        <dc:format>image/svg+xml</dc:format>
        <dc:type
           rdf:resource="http://purl.org/dc/dcmitype/StillImage" />
      </cc:Work>
    </rdf:RDF>
  </metadata>
  <defs
     id="defs12" />
  <sodipodi:namedview
     pagecolor="#ffffff"
     bordercolor="#666666"
     borderopacity="1"
     objecttolerance="10"
     gridtolerance="10"
     guidetolerance="10"
     inkscape:pageopacity="0"
     inkscape:pageshadow="2"
     inkscape:window-width="1920"
     inkscape:window-height="1022"
     id="namedview10"
     showgrid="false"
     inkscape:zoom="9.4583333"
     inkscape:cx="9.6740088"
     inkscape:cy="30.713656"
     inkscape:window-x="0"
     inkscape:window-y="32"
     inkscape:window-maximized="1"
     inkscape:current-layer="svg8"
     inkscape:document-rotation="0"
     inkscape:pagecheckerboard="0" />
  <path
     id="path2"
     style="fill:#81a1c1;fill-opacity:1;stroke-width:1.15035"
     d="M 23.804688 1.3046875 A 22.696228 22.696232 0 0 0 1.1074219 24 A 22.696228 22.696232 0 0 0 23.804688 46.695312 A 22.696228 22.696232 0 0 0 46.5 24 A 22.696228 22.696232 0 0 0 23.804688 1.3046875 z " />
  <path
     id="path841"
     style="fill:#b48ead;fill-opacity:1;stroke-width:1.15035"
     d="M 23.804688 1.3046875 L 23.804688 46.695312 C 36.339469 46.695312 46.5 36.534782 46.5 24 C 46.499999 11.465218 36.339468 1.3046875 23.804688 1.3046875 z " />
  <path
     id="path839"
     style="fill:#ffffff;fill-opacity:0.162031;stroke-width:1.15035"
     d="M 23.804688 1.3046875 C 11.269907 1.3046874 1.107423 11.465218 1.1074219 24 L 46.5 24 C 46.499999 11.465218 36.339468 1.3046875 23.804688 1.3046875 z " />
  <path
     id="path10-3"
     style="fill:#ffffff;stroke-width:0.848863"
     d="M 10.930415,12.920294 V 37.537326 H 35.547447 V 12.920294 Z m 3.110287,6.245444 h 2.657671 c 1.243224,0 2.15799,0.256336 2.745542,0.767625 0.596067,0.511288 0.893627,1.28753 0.893627,2.329399 0,0.472701 -0.08027,0.888172 -0.242058,1.24511 -0.153275,0.34729 -0.36107,0.646123 -0.625042,0.896944 -0.255458,0.241174 -0.532592,0.439191 -0.830626,0.593541 l 2.682541,4.499638 H 19.17533 l -2.170239,-3.965783 h -1.034552 v 3.965783 h -1.929837 z m 8.430604,0 h 2.631144 l 2.158633,7.901723 h 0.03813 l 2.286295,-7.901723 h 2.631144 v 10.332257 h -1.800517 v -4.890911 c 0,-0.327997 0.0048,-0.70459 0.01327,-1.129055 0.01704,-0.424466 0.02962,-0.824116 0.03813,-1.200345 0.01703,-0.385878 0.02962,-0.67582 0.03813,-0.868759 h -0.0514 l -2.350953,8.08907 h -1.77399 l -2.196765,-8.103991 h -0.0514 c 0.0085,0.19294 0.02107,0.482882 0.03813,0.868758 0.01703,0.385878 0.03437,0.80135 0.0514,1.24511 0.01704,0.434112 0.02487,0.828488 0.02487,1.185425 v 4.804698 h -1.724253 z m -6.500767,1.793887 v 2.793622 h 0.625042 c 0.638642,0 1.093652,-0.120257 1.366139,-0.36143 0.281004,-0.241175 0.422774,-0.598327 0.422774,-1.071027 0,-0.491994 -0.14961,-0.840256 -0.447643,-1.042842 -0.289518,-0.212233 -0.749274,-0.318323 -1.379403,-0.318323 z" />
</svg>
