<?xml version="1.0" encoding="UTF-8" standalone="no"?>
<svg
   height="48"
   width="48"
   version="1.1"
   id="svg6"
   sodipodi:docname="scantailor.svg"
   inkscape:version="1.1.2 (0a00cf5339, 2022-02-04)"
   xmlns:inkscape="http://www.inkscape.org/namespaces/inkscape"
   xmlns:sodipodi="http://sodipodi.sourceforge.net/DTD/sodipodi-0.dtd"
   xmlns="http://www.w3.org/2000/svg"
   xmlns:svg="http://www.w3.org/2000/svg"
   xmlns:rdf="http://www.w3.org/1999/02/22-rdf-syntax-ns#"
   xmlns:cc="http://creativecommons.org/ns#"
   xmlns:dc="http://purl.org/dc/elements/1.1/">
  <metadata
     id="metadata12">
    <rdf:RDF>
      <cc:Work
         rdf:about="">
        <dc:format>image/svg+xml</dc:format>
        <dc:type
           rdf:resource="http://purl.org/dc/dcmitype/StillImage" />
      </cc:Work>
    </rdf:RDF>
  </metadata>
  <defs
     id="defs10" />
  <sodipodi:namedview
     pagecolor="#ffffff"
     bordercolor="#666666"
     borderopacity="1"
     objecttolerance="10"
     gridtolerance="10"
     guidetolerance="10"
     inkscape:pageopacity="0"
     inkscape:pageshadow="2"
     inkscape:window-width="1920"
     inkscape:window-height="1032"
     id="namedview8"
     showgrid="true"
     inkscape:zoom="4.9166665"
     inkscape:cx="-40.067798"
     inkscape:cy="3.9661019"
     inkscape:window-x="0"
     inkscape:window-y="0"
     inkscape:window-maximized="1"
     inkscape:current-layer="svg6"
     inkscape:pagecheckerboard="0">
    <inkscape:grid
       type="xygrid"
       id="grid822" />
  </sodipodi:namedview>
  <path
     d="m44.322082 27.405077a19.729762 19.729765 0 0 1 -19.729762 19.729765 19.729762 19.729765 0 0 1 -19.7297621-19.729765 19.729762 19.729765 0 0 1 19.7297621-19.7297632 19.729762 19.729765 0 0 1 19.729762 19.7297632z"
     opacity=".99"
     transform="matrix(1.1503549 0 0 1.1503549 -4.486125 -7.525565)"
     id="path2"
     style="fill:#ebcb8b;fill-opacity:1" />
  <path
     id="path2374"
     style="color:#000000;fill:#ffffff;fill-opacity:1;stroke-width:0.846956;stroke-linecap:round;-inkscape-stroke:none"
     d="m 24.197333,11.061103 c -0.491047,0.01228 -0.882647,0.411858 -0.882647,0.905991 v 1.811978 c 0,0.501975 0.404014,0.905991 0.905989,0.905991 0.501977,0 0.905991,-0.404016 0.905991,-0.905991 v -1.811978 c 0,-0.501975 -0.404014,-0.905991 -0.905991,-0.905991 -0.0078,0 -0.01557,-1.96e-4 -0.02335,0 z m 0.02335,5.435938 c -0.501975,0 -0.905989,0.404014 -0.905989,0.905991 v 1.812708 c 0,0.501975 0.404014,0.905989 0.905989,0.905989 0.501976,0 0.905991,-0.404014 0.905991,-0.905989 v -1.812708 c 0,-0.501977 -0.404015,-0.905991 -0.905991,-0.905991 z m 5.197397,0.877541 c -2.241816,0 -2.227014,3.625418 0,3.625418 h 2.958692 v 10.520278 c 0,1.661822 3.623228,1.719015 3.623228,0 V 21 h 3.091454 c 1.947164,0 2.063231,-3.625418 0,-3.625418 z m -16.431094,0.06346 c -1.47585,0 -2.793772,0.554385 -3.606452,1.52749 -0.795759,0.952841 -1.035475,2.10543 -1.025621,3.115525 0,9.72e-4 -2e-6,0.0019 0,0.0029 7e-6,8.21e-4 -8e-6,0.0014 0,0.0022 0.0031,1.751717 0.51175,3.247781 1.704018,4.025892 1.152944,0.752446 2.314722,0.612139 2.980576,0.587215 0.516806,0 0.686913,0.107658 0.779793,0.228322 0.09289,0.120665 0.149119,0.375115 0.151731,0.763745 -8.58e-4,0.385139 -0.12646,0.673166 -0.195496,0.755722 -0.06507,0.07782 -0.08645,0.102295 -0.179446,0.140781 -0.09299,0.0385 -0.275904,0.07939 -0.609099,0.07952 -2.093744,6.73e-4 -3.333635,0 -3.333635,0 -0.463826,0 -0.838689,0.29914 -1.044587,0.64776 -0.205897,0.348626 -0.296663,0.761451 -0.303454,1.174432 -0.0067,0.41298 0.07028,0.828111 0.275735,1.183185 0.20507,0.354406 0.596993,0.649571 1.070118,0.650678 0,0 1.243496,6.73e-4 3.338741,0 1.470073,-4.86e-4 2.783904,-0.567111 3.591862,-1.533325 0.79382,-0.949308 1.042399,-2.092797 1.042399,-3.101666 0,-1.762593 -0.507364,-3.263002 -1.701102,-4.047046 -1.157842,-0.760583 -2.332814,-0.619146 -2.99954,-0.59524 h -0.008 -0.0088 c -0.441441,0.03238 -0.60013,-0.06192 -0.711223,-0.199142 -0.110719,-0.136768 -0.184531,-0.405756 -0.187471,-0.774686 v -0.008 -0.0109 -0.0029 c -0.0047,-0.392997 0.115579,-0.665963 0.176529,-0.738943 0.06208,-0.07433 0.08126,-0.09865 0.176529,-0.137876 0.09526,-0.03921 0.28259,-0.08244 0.625878,-0.08244 h 3.410228 c 0.470641,0 0.855321,-0.290514 1.072306,-0.639736 0.216982,-0.349222 0.315953,-0.764281 0.32315,-1.180266 0.0073,-0.415986 -0.07545,-0.837431 -0.292513,-1.193397 -0.217067,-0.355968 -0.619495,-0.639738 -1.102943,-0.639738 z m 11.233688,4.495664 c -0.501975,0 -0.905989,0.404015 -0.905989,0.90599 v 1.812709 c 0,0.501975 0.404014,0.90599 0.905989,0.90599 0.501977,0 0.905991,-0.404015 0.905991,-0.90599 v -1.812709 c 0,-0.501975 -0.404014,-0.90599 -0.905991,-0.90599 z m -0.02335,5.436669 c -0.491046,0.01228 -0.882647,0.411858 -0.882647,0.905989 v 1.81198 c 0,0.501975 0.404015,0.906719 0.90599,0.906719 0.501976,0 0.90599,-0.404744 0.90599,-0.906719 v -1.81198 c 0,-0.501975 -0.404014,-0.905989 -0.90599,-0.905989 -0.0078,0 -0.01557,-1.98e-4 -0.02335,0 z m 0,5.436668 c -0.491046,0.01228 -0.882647,0.411857 -0.882647,0.905989 v 1.81198 c 0,0.501975 0.404015,0.905989 0.90599,0.905989 0.501976,0 0.90599,-0.404014 0.90599,-0.905989 v -1.81198 c 0,-0.501972 -0.404014,-0.905986 -0.90599,-0.905986 -0.0078,0 -0.01557,-1.97e-4 -0.02335,0 z" />
</svg>
