<?xml version="1.0" encoding="UTF-8" standalone="no"?>
<svg
   xmlns:dc="http://purl.org/dc/elements/1.1/"
   xmlns:cc="http://creativecommons.org/ns#"
   xmlns:rdf="http://www.w3.org/1999/02/22-rdf-syntax-ns#"
   xmlns:svg="http://www.w3.org/2000/svg"
   xmlns="http://www.w3.org/2000/svg"
   xmlns:xlink="http://www.w3.org/1999/xlink"
   xmlns:sodipodi="http://sodipodi.sourceforge.net/DTD/sodipodi-0.dtd"
   xmlns:inkscape="http://www.inkscape.org/namespaces/inkscape"
   height="48"
   width="48"
   version="1.1"
   id="svg6"
   sodipodi:docname="com.hamrick.VueScan.svg"
   inkscape:version="1.0.2 (e86c870879, 2021-01-15)">
  <metadata
     id="metadata12">
    <rdf:RDF>
      <cc:Work
         rdf:about="">
        <dc:format>image/svg+xml</dc:format>
        <dc:type
           rdf:resource="http://purl.org/dc/dcmitype/StillImage" />
        <dc:title></dc:title>
      </cc:Work>
    </rdf:RDF>
  </metadata>
  <defs
     id="defs10">
    <linearGradient
       inkscape:collect="always"
       id="linearGradient847">
      <stop
         style="stop-color:#b3e6ea;stop-opacity:1"
         offset="0"
         id="stop843" />
      <stop
         style="stop-color:#6dc4d9;stop-opacity:1"
         offset="1"
         id="stop845" />
    </linearGradient>
    <radialGradient
       inkscape:collect="always"
       xlink:href="#linearGradient847"
       id="radialGradient849"
       cx="23.744673"
       cy="30.413481"
       fx="23.744673"
       fy="30.413481"
       r="20.310076"
       gradientTransform="matrix(11.371884,0,0,1.6262795,-246.4423,-20.529252)"
       gradientUnits="userSpaceOnUse" />
  </defs>
  <sodipodi:namedview
     pagecolor="#ffffff"
     bordercolor="#666666"
     borderopacity="1"
     objecttolerance="10"
     gridtolerance="10"
     guidetolerance="10"
     inkscape:pageopacity="0"
     inkscape:pageshadow="2"
     inkscape:window-width="1920"
     inkscape:window-height="1031"
     id="namedview8"
     showgrid="false"
     inkscape:zoom="4.986576"
     inkscape:cx="-57.030761"
     inkscape:cy="21.834254"
     inkscape:window-x="0"
     inkscape:window-y="24"
     inkscape:window-maximized="1"
     inkscape:current-layer="svg6"
     inkscape:document-rotation="0" />
  <circle
     cx="23.940615"
     cy="31.534513"
     fill="#5e81ac"
     opacity=".99"
     r="13.232998"
     transform="matrix(1.75830584759 0 0 1.75830608345 -18.15909274367 -30.97874795549)"
     id="circle2"
     style="fill:#b0bfce;fill-opacity:1" />
  <g
     id="g849"
     transform="rotate(-90,23.935829,24.468578)">
    <ellipse
       cx="23.935829"
       cy="24.468578"
       fill="#5e81ac"
       opacity="0.99"
       id="circle831"
       style="fill:#ffffff;fill-opacity:0.994427;stroke-width:1.6391"
       rx="21.690235"
       ry="21.690239" />
    <ellipse
       cx="23.935829"
       cy="24.468578"
       fill="#5e81ac"
       opacity="0.99"
       id="ellipse833"
       style="fill:url(#radialGradient849);fill-opacity:1;stroke-width:1.5348"
       rx="20.310076"
       ry="20.31008" />
    <path
       id="path854"
       style="fill:#ffffff;fill-opacity:0.70168;stroke:none;stroke-width:1px;stroke-linecap:butt;stroke-linejoin:miter;stroke-opacity:1"
       d="m 20.443359,22.066406 c -2.411719,-0.03517 -1.34566,5.810379 -3.146484,6.292969 -1.800824,0.48259 -1.272498,-1.627421 -2.697266,-1.800781 -1.424768,-0.17336 -2.510275,2.59221 -3.679687,2.03125 -1.1694122,-0.56096 0.913386,-2.644532 -0.69336,-3.060547 -1.6020853,-0.414809 -5.6289577,5.040568 -5.6523432,5.072265 A 20.310076,20.31008 0 0 0 23.935547,44.779297 20.310076,20.31008 0 0 0 44.097656,26.912109 c -1.096294,-0.606519 -2.47606,-1.209751 -3.443359,-1.003906 -1.791811,0.381304 -2.057215,3.700822 -3.822266,3.929688 -1.765051,0.228866 -3.169927,-2.852493 -4.453125,-2.677735 -1.283198,0.174758 -0.406454,1.751291 -1.771484,1.869141 -1.36503,0.11785 -2.866368,-3.482767 -4.529297,-3.371094 -1.662929,0.111673 -0.669288,2.844171 -2.533203,2.433594 -1.863915,-0.410577 -0.689844,-5.990221 -3.101563,-6.025391 z" />
    <path
       id="path905"
       style="fill:#ffffff;fill-opacity:0.416389;stroke:none;stroke-width:1px;stroke-linecap:butt;stroke-linejoin:miter;stroke-opacity:1"
       d="m 43.445312,19.751953 c 10e-7,0 -7.89,4.176178 -11.644531,4.080078 -3.754531,-0.0961 -6.370197,-3.943385 -9.4375,-3.859375 -3.067302,0.08401 -4.991211,3.315427 -7.421875,3.521485 -2.430663,0.206058 -3.780373,-2.223549 -6.1816404,-1.736329 -1.5521418,0.314932 -3.7115629,2.317469 -5.1074218,3.740235 A 20.310076,20.31008 0 0 0 23.935547,44.779297 20.310076,20.31008 0 0 0 44.246094,24.46875 20.310076,20.31008 0 0 0 43.789062,20.191406 Z" />
    <path
       id="path852"
       style="fill:#f7e2b7;fill-opacity:1;stroke:none;stroke-width:1px;stroke-linecap:butt;stroke-linejoin:miter;stroke-opacity:1"
       d="m 20.441406,23.296875 c -2.411719,-0.03517 -1.019488,6.331863 -2.820312,6.814453 -1.800824,0.48259 -1.59867,-2.148906 -3.023438,-2.322266 -1.424768,-0.17336 -3.227072,2.484789 -4.396484,1.923829 -1.1694121,-0.56096 0.829401,-2.462892 -0.7773439,-2.878907 -1.3958312,-0.361405 -3.9098317,3.496339 -4.578125,4.564454 A 20.310076,20.31008 0 0 0 23.935547,44.779297 20.310076,20.31008 0 0 0 43.927734,28.041016 c -1.064402,-0.568657 -2.363147,-1.09801 -3.273437,-0.904297 -1.791811,0.381304 -2.059168,3.702774 -3.824219,3.93164 -1.765051,0.228866 -3.167974,-2.852492 -4.451172,-2.677734 -1.283198,0.174758 -0.406454,1.751291 -1.771484,1.869141 -1.36503,0.11785 -2.866368,-3.482767 -4.529297,-3.371094 -1.662929,0.111673 -1.251319,3.453546 -3.115234,3.042969 -1.863915,-0.410577 -0.109766,-6.599596 -2.521485,-6.634766 z" />
    <path
       id="path865"
       style="fill:#704f0c;fill-opacity:0.0790061;stroke:none;stroke-width:1px;stroke-linecap:butt;stroke-linejoin:miter;stroke-opacity:1"
       d="m 20.441406,23.296875 c -2.411719,-0.03517 -1.019488,6.331863 -2.820312,6.814453 -1.800824,0.48259 -1.59867,-2.148905 -3.023438,-2.322266 -1.424768,-0.17336 -3.227072,2.484789 -4.396484,1.923829 -1.1694122,-0.56096 0.829401,-2.462892 -0.7773439,-2.878907 -1.3958312,-0.361405 -3.9098317,3.496339 -4.578125,4.564454 a 20.310076,20.31008 0 0 0 0.328125,0.839843 c 0.8591429,-1.493185 2.6218936,-4.703205 3.6992188,-4.007812 1.2722711,0.821227 -0.7084746,2.444899 0.4609375,3.005859 1.1694126,0.56096 3.8389036,-2.216329 5.2636716,-2.042969 1.424768,0.17336 1.816364,3.142747 3.617188,2.660157 1.800824,-0.48259 0.43034,-7.178534 2.226562,-7.152344 1.539797,0.02246 0.65757,6.224189 2.521485,6.634766 1.863915,0.410577 1.452305,-2.931296 3.115234,-3.042969 1.662929,-0.111673 3.164267,3.488944 4.529297,3.371093 1.36503,-0.11785 0.488286,-1.694382 1.771484,-1.86914 1.283198,-0.174758 2.686121,2.9066 4.451172,2.677734 1.765051,-0.228866 2.032408,-3.550336 3.824219,-3.93164 0.836507,-0.178012 1.994629,0.258902 3.003906,0.771484 a 20.310076,20.31008 0 0 0 0.269531,-1.271484 c -1.064402,-0.568657 -2.363147,-1.09801 -3.273437,-0.904297 -1.791811,0.381304 -2.059168,3.702774 -3.824219,3.93164 -1.765051,0.228866 -3.167974,-2.852492 -4.451172,-2.677734 -1.283198,0.174758 -0.406454,1.751291 -1.771484,1.869141 -1.36503,0.11785 -2.866368,-3.482767 -4.529297,-3.371094 -1.662929,0.111673 -1.251319,3.453546 -3.115234,3.042969 -1.863915,-0.410577 -0.109766,-6.599596 -2.521485,-6.634766 z" />
    <path
       sodipodi:type="star"
       style="fill:#cb9166;fill-opacity:1;stroke:none;stroke-width:0.8;stroke-linecap:square"
       id="path872"
       sodipodi:sides="5"
       sodipodi:cx="29.792685"
       sodipodi:cy="36.782307"
       sodipodi:r1="5.6270628"
       sodipodi:r2="2.8135314"
       sodipodi:arg1="0.52359878"
       sodipodi:arg2="1.1519173"
       inkscape:flatsided="false"
       inkscape:rounded="0"
       inkscape:randomized="0"
       d="m 34.665864,39.595838 -3.728813,-0.243243 -2.314299,2.93381 -0.920929,-3.621478 -3.505376,-1.294432 3.159648,-1.994954 0.147857,-3.733812 2.873699,2.388529 3.596756,-1.013191 -1.383604,3.471146 z"
       inkscape:transform-center-x="0.36152891"
       inkscape:transform-center-y="0.18176016" />
  </g>
  <rect
     style="fill:#ffffff;fill-opacity:0.996078;stroke-width:0.579449;stroke-linecap:square"
     id="rect851"
     width="42.452553"
     height="2.1242311"
     x="2.5889242"
     y="23.406464"
     ry="0"
     rx="0" />
  <rect
     style="fill:#ffffff;fill-opacity:0.15748;stroke-width:0.837563;stroke-linecap:square"
     id="rect853"
     width="42.452553"
     height="4.4381919"
     x="2.5889242"
     y="21.092503"
     ry="0"
     rx="0" />
  <rect
     style="fill:#ffffff;fill-opacity:0.15748;stroke-width:1.01748;stroke-linecap:square"
     id="rect855"
     width="42.452553"
     height="6.5496655"
     x="2.5889242"
     y="18.98103"
     ry="0"
     rx="0" />
  <rect
     style="fill:#ffffff;fill-opacity:0.15748;stroke-width:1.15332;stroke-linecap:square"
     id="rect857"
     width="42.452553"
     height="8.4152241"
     x="2.5889242"
     y="17.115471"
     ry="0"
     rx="0" />
  <rect
     style="fill:#ffffff;fill-opacity:0.15748;stroke-width:1.26257;stroke-linecap:square"
     id="rect859"
     width="42.452553"
     height="10.084988"
     x="2.5889242"
     y="15.445707"
     ry="0"
     rx="0" />
</svg>
