<?xml version="1.0" encoding="UTF-8" standalone="no"?>
<svg
   height="48"
   width="48"
   version="1.1"
   id="svg6"
   sodipodi:docname="sequeler.svg"
   inkscape:version="1.1.2 (0a00cf5339, 2022-02-04)"
   xmlns:inkscape="http://www.inkscape.org/namespaces/inkscape"
   xmlns:sodipodi="http://sodipodi.sourceforge.net/DTD/sodipodi-0.dtd"
   xmlns="http://www.w3.org/2000/svg"
   xmlns:svg="http://www.w3.org/2000/svg"
   xmlns:rdf="http://www.w3.org/1999/02/22-rdf-syntax-ns#"
   xmlns:cc="http://creativecommons.org/ns#"
   xmlns:dc="http://purl.org/dc/elements/1.1/">
  <rect
     style="fill:#c1a08f;fill-opacity:0.992157;stroke-width:1.74852;stroke-dasharray:1.74852, 3.49704"
     id="rect842-7"
     width="3"
     height="3"
     x="18"
     y="22" />
  <metadata
     id="metadata12">
    <rdf:RDF>
      <cc:Work
         rdf:about="">
        <dc:format>image/svg+xml</dc:format>
        <dc:type
           rdf:resource="http://purl.org/dc/dcmitype/StillImage" />
      </cc:Work>
    </rdf:RDF>
  </metadata>
  <defs
     id="defs10">
    <linearGradient
       gradientUnits="userSpaceOnUse"
       gradientTransform="matrix(0.0920001,0,0,0.09064843,-21.193131,1.5846311)"
       y2="269.48999"
       y1="235.14999"
       x2="657.65002"
       x1="319.20999"
       id="a-12">
      <stop
         id="stop1076"
         offset="0"
         stop-color="#e54c18" />
      <stop
         id="stop1078"
         offset="1"
         stop-color="#fec350" />
    </linearGradient>
  </defs>
  <sodipodi:namedview
     pagecolor="#ffffff"
     bordercolor="#666666"
     borderopacity="1"
     objecttolerance="10"
     gridtolerance="10"
     guidetolerance="10"
     inkscape:pageopacity="0"
     inkscape:pageshadow="2"
     inkscape:window-width="1920"
     inkscape:window-height="1028"
     id="namedview8"
     showgrid="true"
     inkscape:zoom="4.6354166"
     inkscape:cx="72.593259"
     inkscape:cy="41.52809"
     inkscape:window-x="0"
     inkscape:window-y="24"
     inkscape:window-maximized="1"
     inkscape:current-layer="svg6"
     inkscape:document-rotation="0"
     inkscape:pagecheckerboard="0">
    <inkscape:grid
       type="xygrid"
       id="grid837" />
  </sodipodi:namedview>
  <path
     id="circle2"
     style="opacity:0.99;fill:#b48ead;fill-opacity:1"
     transform="matrix(1.75830584759 0 0 1.75830608345 -18.15909274367 -30.97874795549)"
     d="M 37.173613,31.534513 A 13.232998,13.232998 0 0 1 23.940615,44.767511 13.232998,13.232998 0 0 1 10.707617,31.534513 13.232998,13.232998 0 0 1 23.940615,18.301516 13.232998,13.232998 0 0 1 37.173613,31.534513 Z" />
  <path
     id="circle846"
     style="opacity:0.99;fill:#ffffff;fill-opacity:0.319973;stroke-width:1.534"
     d="M 44.235264,24.468578 A 20.299435,20.299437 0 0 1 23.935829,44.768015 20.299435,20.299437 0 0 1 3.6363945,24.468578 20.299435,20.299437 0 0 1 23.935829,4.1691418 20.299435,20.299437 0 0 1 44.235264,24.468578 Z" />
  <rect
     style="fill:#ffffff;fill-opacity:1;stroke-dasharray:1, 2"
     id="rect836"
     width="24"
     height="7"
     x="12"
     y="29" />
  <path
     id="rect838"
     style="fill:#b48ead;fill-opacity:0.99215686;stroke-width:1.74852;stroke-dasharray:1.74852, 3.49704"
     d="m 14,31 h 3 v 3 h -3 z" />
  <path
     id="rect842"
     style="fill:#b48ead;fill-opacity:0.99215686;stroke-width:1.74852;stroke-dasharray:1.74852, 3.49704"
     d="m 18,31 h 3 v 3 h -3 z" />
  <rect
     style="fill:#ffffff;fill-opacity:1;stroke-dasharray:1, 2"
     id="rect836-3"
     width="24"
     height="7"
     x="12"
     y="20" />
  <path
     id="rect838-6"
     style="fill:#b48ead;fill-opacity:0.99215686;stroke-width:1.74852;stroke-dasharray:1.74852, 3.49704"
     d="m 14,22 h 3 v 3 h -3 z" />
  <path
     id="rect885"
     style="fill:#b48ead;fill-opacity:0.99215686;stroke-width:1.74852;stroke-dasharray:1.74852, 3.49704"
     d="m 18,22 h 3 v 3 h -3 z" />
  <rect
     style="fill:#ffffff;fill-opacity:1;stroke-dasharray:1, 2"
     id="rect836-3-5"
     width="24"
     height="7"
     x="12"
     y="12" />
  <path
     id="rect838-6-3"
     style="fill:#b48ead;fill-opacity:0.99215686;stroke-width:1.74852;stroke-dasharray:1.74852, 3.49704"
     d="m 14,14 h 3 v 3 h -3 z" />
  <path
     id="rect885-5"
     style="fill:#b48ead;fill-opacity:0.99215686;stroke-width:1.74852;stroke-dasharray:1.74852, 3.49704"
     d="m 18,14 h 3 v 3 h -3 z" />
</svg>
