<?xml version="1.0" encoding="UTF-8" standalone="no"?>
<svg
   height="48"
   width="48"
   version="1.1"
   id="svg8"
   sodipodi:docname="signal.svg"
   inkscape:version="1.1.2 (0a00cf5339, 2022-02-04)"
   xmlns:inkscape="http://www.inkscape.org/namespaces/inkscape"
   xmlns:sodipodi="http://sodipodi.sourceforge.net/DTD/sodipodi-0.dtd"
   xmlns="http://www.w3.org/2000/svg"
   xmlns:svg="http://www.w3.org/2000/svg"
   xmlns:rdf="http://www.w3.org/1999/02/22-rdf-syntax-ns#"
   xmlns:cc="http://creativecommons.org/ns#"
   xmlns:dc="http://purl.org/dc/elements/1.1/">
  <metadata
     id="metadata14">
    <rdf:RDF>
      <cc:Work
         rdf:about="">
        <dc:format>image/svg+xml</dc:format>
        <dc:type
           rdf:resource="http://purl.org/dc/dcmitype/StillImage" />
        <dc:title />
      </cc:Work>
    </rdf:RDF>
  </metadata>
  <defs
     id="defs12" />
  <sodipodi:namedview
     pagecolor="#ffffff"
     bordercolor="#666666"
     borderopacity="1"
     objecttolerance="10"
     gridtolerance="10"
     guidetolerance="10"
     inkscape:pageopacity="0"
     inkscape:pageshadow="2"
     inkscape:window-width="1920"
     inkscape:window-height="1029"
     id="namedview10"
     showgrid="false"
     inkscape:zoom="4.7291668"
     inkscape:cx="-1.1629956"
     inkscape:cy="54.237884"
     inkscape:window-x="0"
     inkscape:window-y="0"
     inkscape:window-maximized="1"
     inkscape:current-layer="svg8"
     inkscape:document-rotation="0"
     inkscape:pagecheckerboard="0" />
  <path
     id="path2"
     style="fill:#88c0d0;fill-opacity:1;stroke-width:1.15035"
     d="M 23.804688 1.3046875 A 22.696228 22.696232 0 0 0 1.1074219 24 A 22.696228 22.696232 0 0 0 23.804688 46.695312 A 22.696228 22.696232 0 0 0 46.5 24 A 22.696228 22.696232 0 0 0 23.804688 1.3046875 z " />
  <path
     id="path835"
     style="fill:none;fill-opacity:1;stroke-width:1.79999995;stroke:#ffffff;stroke-opacity:1;stroke-miterlimit:4;stroke-dasharray:1.79999995, 5.39999986000000032;stroke-dashoffset:0;stroke-linecap:round"
     d="M 23.804688 5.7753906 A 18.225326 18.225329 0 0 0 5.578125 24 A 18.225326 18.225329 0 0 0 23.804688 42.224609 A 18.225326 18.225329 0 0 0 42.029297 24 A 18.225326 18.225329 0 0 0 23.804688 5.7753906 z " />
  <path
     id="path844"
     style="fill:#5e81ac;fill-opacity:1;stroke-width:1.15035"
     d="M 23.804688 1.3046875 C 11.269906 1.3046875 1.1074207 11.465218 1.1074219 24 C 1.1074219 30.267391 3.6486504 35.941619 7.7558594 40.048828 L 13.621094 34.183594 L 19.898438 35.8125 L 18.185547 29.617188 L 39.851562 7.9511719 C 35.744352 3.8439619 30.072076 1.3046875 23.804688 1.3046875 z " />
  <g
     id="g880"
     transform="rotate(-45,9.9269914,22.936309)">
    <circle
       style="fill:#ffffff;fill-opacity:1;stroke:none;stroke-width:0.885181;stroke-linecap:square"
       id="path871"
       cx="9.4212971"
       cy="23.193588"
       r="2.8147938" />
    <circle
       style="fill:#ffffff;fill-opacity:1;stroke:none;stroke-width:0.885181;stroke-linecap:square"
       id="circle873"
       cx="19.516201"
       cy="23.193588"
       r="2.8147938" />
    <circle
       style="fill:#ffffff;fill-opacity:1;stroke:none;stroke-width:0.885181;stroke-linecap:square"
       id="circle875"
       cx="29.611105"
       cy="23.193588"
       r="2.8147938" />
  </g>
</svg>
