<?xml version="1.0" encoding="UTF-8" standalone="no"?>
<svg
   height="48"
   width="48"
   version="1.1"
   id="svg6"
   sodipodi:docname="spek.svg"
   inkscape:version="1.1.2 (0a00cf5339, 2022-02-04)"
   xmlns:inkscape="http://www.inkscape.org/namespaces/inkscape"
   xmlns:sodipodi="http://sodipodi.sourceforge.net/DTD/sodipodi-0.dtd"
   xmlns="http://www.w3.org/2000/svg"
   xmlns:svg="http://www.w3.org/2000/svg">
  <defs
     id="defs10" />
  <sodipodi:namedview
     id="namedview8"
     pagecolor="#ffffff"
     bordercolor="#666666"
     borderopacity="1.0"
     inkscape:pageshadow="2"
     inkscape:pageopacity="0.0"
     inkscape:pagecheckerboard="0"
     showgrid="false"
     inkscape:zoom="13.6875"
     inkscape:cx="17.497717"
     inkscape:cy="17.643836"
     inkscape:window-width="1920"
     inkscape:window-height="1030"
     inkscape:window-x="0"
     inkscape:window-y="24"
     inkscape:window-maximized="1"
     inkscape:current-layer="svg6" />
  <path
     d="m44.322082 27.405077a19.729762 19.729765 0 0 1 -19.729762 19.729765 19.729762 19.729765 0 0 1 -19.7297621-19.729765 19.729762 19.729765 0 0 1 19.7297621-19.7297632 19.729762 19.729765 0 0 1 19.729762 19.7297632z"
     fill="#d6966c"
     opacity=".99"
     transform="matrix(1.1503549 0 0 1.1503549 -4.486125 -7.525565)"
     id="path2" />
  <ellipse
     cx="24.07411"
     cy="27.080082"
     rx="13.801008"
     ry="11.079219"
     id="ellipse28"
     style="fill:#ffffff;fill-opacity:1;stroke:none;stroke-width:1.52525;stroke-miterlimit:4;stroke-dasharray:none;stroke-opacity:1" />
  <ellipse
     cx="24.163631"
     cy="32.174877"
     fill-opacity="0.49"
     rx="5.1707711"
     ry="4.3434262"
     id="ellipse30"
     style="fill:#d6966c;fill-opacity:0.992157;stroke-width:0.26775" />
  <ellipse
     cx="22.525009"
     cy="32.252522"
     rx="0.86188436"
     ry="0.77566916"
     id="ellipse32"
     style="fill:#f4e1d5;fill-opacity:0.996078;stroke-width:0.26775" />
  <ellipse
     cx="25.54254"
     cy="32.252522"
     rx="0.86188436"
     ry="0.77566916"
     id="ellipse34"
     style="fill:#f4e1d5;fill-opacity:0.996078;stroke-width:0.26775" />
  <ellipse
     cx="-20.674862"
     cy="26.426302"
     rx="1.1277591"
     ry="1.2616338"
     transform="scale(-1,1)"
     id="ellipse36"
     style="fill:#d6966c;fill-opacity:1;stroke-width:0.26775" />
  <ellipse
     cx="27.42482"
     cy="26.426302"
     rx="1.1277591"
     ry="1.2616338"
     id="ellipse38"
     style="fill:#d6966c;fill-opacity:1;stroke-width:0.26775" />
  <path
     d="m 24.011017,9.8740558 c -6.713543,0 -11.471443,1.8544302 -14.5840274,4.6690082 -2.91793,2.638669 -4.377162,6.09772 -4.66044,9.613799 -0.09853,0.869383 -0.04365,1.763396 0.133871,2.593955 0.183943,0.860545 0.664018,1.710916 1.338745,2.275867 0.985317,0.824666 3.614614,1.338745 3.614614,1.338745 0,0 -1.241554,-3.37819 -0.133871,-6.559853 0.5333554,-1.532595 2.5436154,-4.150111 2.5436154,-4.150111 0,0 -2.6555354,-0.54835 -3.8823624,-0.133871 -0.965503,0.325851 -1.878259,0.97407 -2.518448,1.790438 0.671248,-2.342269 1.946268,-4.546915 3.941,-6.350741 2.9912924,-2.704802 7.5976484,-4.518267 14.2073034,-4.518267 6.609653,0 11.258045,1.812663 14.282807,4.518267 2.024183,1.810787 3.317947,4.024269 3.999636,6.375641 -0.640992,-0.828683 -1.567939,-1.486007 -2.543617,-1.815607 -1.226826,-0.414207 -3.88236,0.133871 -3.88236,0.133871 0,0 2.009991,2.617784 2.543616,4.15011 1.107677,3.181932 -0.133871,6.559854 -0.133871,6.559854 0,0 2.629296,-0.514078 3.614612,-1.338746 0.674729,-0.564951 1.154802,-1.415321 1.338747,-2.275867 0.129326,-0.605916 0.196527,-1.242623 0.183944,-1.882544 h 0.01687 C 43.294844,21.112288 41.807769,17.356572 38.662253,14.543064 35.516737,11.729557 30.725098,9.8740558 24.011023,9.8740558 Z"
     id="path40"
     style="fill:#ffffff;fill-opacity:0.710304;stroke-width:0.26775" />
</svg>
