<?xml version="1.0" encoding="UTF-8" standalone="no"?>
<svg
   height="48"
   width="48"
   version="1.1"
   id="svg6"
   sodipodi:docname="starbound.svg"
   inkscape:version="1.1.2 (0a00cf5339, 2022-02-04)"
   xmlns:inkscape="http://www.inkscape.org/namespaces/inkscape"
   xmlns:sodipodi="http://sodipodi.sourceforge.net/DTD/sodipodi-0.dtd"
   xmlns="http://www.w3.org/2000/svg"
   xmlns:svg="http://www.w3.org/2000/svg">
  <defs
     id="defs10" />
  <sodipodi:namedview
     id="namedview8"
     pagecolor="#ffffff"
     bordercolor="#666666"
     borderopacity="1.0"
     inkscape:pageshadow="2"
     inkscape:pageopacity="0.0"
     inkscape:pagecheckerboard="0"
     showgrid="false"
     inkscape:zoom="13.229167"
     inkscape:cx="24"
     inkscape:cy="24"
     inkscape:window-width="1920"
     inkscape:window-height="1022"
     inkscape:window-x="0"
     inkscape:window-y="32"
     inkscape:window-maximized="1"
     inkscape:current-layer="svg6" />
  <path
     id="path2"
     style="stroke-width:1.15035;fill:#b48ead;fill-opacity:1"
     d="M 23.804688 1.3046875 A 22.696228 22.696232 0 0 0 1.1074219 24 A 22.696228 22.696232 0 0 0 23.804688 46.695312 A 22.696228 22.696232 0 0 0 46.5 24 A 22.696228 22.696232 0 0 0 23.804688 1.3046875 z " />
  <path
     d="m29.333984 8.5175781-2.128906 3.2226559a9.2858 9.2858 0 0 0 -1.207031-.089843 9.2858 9.2858 0 0 0 -3.556641.710937l-2.884765-2.5566405.77539 3.7910155a9.2858 9.2858 0 0 0 -2.019531 2.164063 31.429 31.429 0 0 0 -10.8847656-1.966797 31.429 31.429 0 0 0 -2.1425782.107422v1.482421a30.714 30.714 0 0 1 2.8574219-.162109 30.714 30.714 0 0 1 30.1132809 24.912109 22.696228 22.696232 0 0 0 .097657-.105468 31.429 31.429 0 0 0 -5.353516-13.027344 9.2858 9.2858 0 0 0 1.552734-2.46875l3.892578-.232422-3.251953-2.148437a9.2858 9.2858 0 0 0 .091797-1.214844 9.2858 9.2858 0 0 0 -.695312-3.517578l2.568359-2.896485-3.794922.777344a9.2858 9.2858 0 0 0 -3.798828-2.929687zm-3.335937 4.5605469a7.8572 7.8572 0 0 1 7.859375 7.857422 7.8572 7.8572 0 0 1 -1.75 4.923828 31.429 31.429 0 0 0 -12.455078-9.537109 7.8572 7.8572 0 0 1 6.345703-3.244141z"
     fill="#ffffff"
     id="path4" />
</svg>
