<?xml version="1.0" encoding="UTF-8" standalone="no"?>
<svg
   height="48"
   width="48"
   version="1.1"
   id="svg6"
   sodipodi:docname="steam_Grand-Theft-Auto.svg"
   inkscape:version="1.1.2 (0a00cf5339, 2022-02-04)"
   xmlns:inkscape="http://www.inkscape.org/namespaces/inkscape"
   xmlns:sodipodi="http://sodipodi.sourceforge.net/DTD/sodipodi-0.dtd"
   xmlns="http://www.w3.org/2000/svg"
   xmlns:svg="http://www.w3.org/2000/svg"
   xmlns:rdf="http://www.w3.org/1999/02/22-rdf-syntax-ns#"
   xmlns:cc="http://creativecommons.org/ns#"
   xmlns:dc="http://purl.org/dc/elements/1.1/">
  <metadata
     id="metadata12">
    <rdf:RDF>
      <cc:Work
         rdf:about="">
        <dc:format>image/svg+xml</dc:format>
        <dc:type
           rdf:resource="http://purl.org/dc/dcmitype/StillImage" />
      </cc:Work>
    </rdf:RDF>
  </metadata>
  <defs
     id="defs10" />
  <sodipodi:namedview
     pagecolor="#ffffff"
     bordercolor="#666666"
     borderopacity="1"
     objecttolerance="10"
     gridtolerance="10"
     guidetolerance="10"
     inkscape:pageopacity="0"
     inkscape:pageshadow="2"
     inkscape:window-width="1920"
     inkscape:window-height="1022"
     id="namedview8"
     showgrid="false"
     inkscape:zoom="13.376103"
     inkscape:cx="8.261001"
     inkscape:cy="17.306984"
     inkscape:window-x="0"
     inkscape:window-y="32"
     inkscape:window-maximized="1"
     inkscape:current-layer="svg6"
     inkscape:document-rotation="0"
     inkscape:pagecheckerboard="0" />
  <path
     id="circle2"
     style="opacity:0.99;fill:#b48ead;fill-opacity:1"
     transform="matrix(1.75830584759 0 0 1.75830608345 -18.15909274367 -30.97874795549)"
     d="M 37.173613,31.534513 A 13.232998,13.232998 0 0 1 23.940615,44.767511 13.232998,13.232998 0 0 1 10.707617,31.534513 13.232998,13.232998 0 0 1 23.940615,18.301516 13.232998,13.232998 0 0 1 37.173613,31.534513 Z" />
  <ellipse
     style="fill:#938dbf;fill-opacity:1;stroke:none;stroke-width:3.26068;stroke-linecap:butt;stroke-linejoin:round;stroke-miterlimit:4;stroke-dasharray:none;stroke-opacity:1"
     id="path922"
     cx="30.341728"
     cy="26.550285"
     rx="3.2578471"
     ry="3.5134296" />
  <g
     fill-rule="evenodd"
     id="g1011"
     transform="matrix(0.08829611,0,0,0.08829611,5.5370579,8.9385903)">
    <path
       d="m 84.8,137.25 h 17.15 l -0.05,-4.6 H 84.8 v 4.6 M 308.2,21.6 V 0 h 51.6 v 132.65 h -59.05 q -4.8,0 -9.65,-1.85 v 1.85 H 189.05 v 4.6 h 7.45 l 6.15,0.7 q 5.3,1.25 9.95,4.6 l 1.6,1.35 1.6,-1.3 q 7.15,-5.35 16.15,-5.35 h 33.35 q 8.85,0 16,5.25 l 1.75,1.4 1.6,-1.3 q 7.2,-5.35 16.15,-5.35 h 97.55 v 5.45 h 33.15 v 84.5 q 0,11.05 -9.7,17.9 -7.6,5.3 -16.05,5.3 h -33.3 q -8.15,0 -15.6,-5.05 l -0.25,-0.2 q -4.8,-3.45 -7.55,-9.45 -2.35,-5.25 -2.35,-10.5 v -14.6 h -20 v 29.7 q 1.25,0.75 2.1,1.4 9.65,6.95 9.65,18 v 64.6 q 0,11.1 -9.6,17.8 -7.5,5.35 -16.1,5.35 h -33.4 q -8.45,0 -15.95,-5.25 l -1.7,-1.4 -1.65,1.3 q -7.5,5.35 -16.1,5.35 h -33.3 q -8.25,0 -15.6,-5.05 l -0.25,-0.15 -4,-3.5 q -1.9,2.05 -3.85,3.35 -7.5,5.35 -16.1,5.35 H 137.5 q -5.05,0 -9.7,-1.9 v 1.9 H 68.75 q -8.6,0 -16,-5.25 -9.7,-6.75 -9.7,-17.9 v -32.45 q 0,-1.9 0.35,-3.7 H 43.05 V 259.7 q 0,-11.05 9.5,-17.95 7.3,-5.35 16.2,-5.35 h 3.05 q -2.7,-5.65 -2.7,-11.2 V 189 h -6.7 v -29.7 l -3.3,0.2 H 0 V 113.15 H 0.4 L 0,109.5 V 44.95 Q 0,33.8 9.55,26.9 16.75,21.6 25.7,21.6 h 102.1 q 9.05,0 16,5.2 l 1.75,1.4 1.5,-1.3 q 7.25,-5.3 16.15,-5.3 h 33.4 q 5.05,0 9.65,1.8 v -1.8 h 51.65 v 0.45 l 7.45,-0.45 q 9,0 16,5.2 l 1.7,1.4 1.55,-1.3 q 7.25,-5.3 16.15,-5.3 h 7.45"
       id="path1005"
       style="fill:#ffffff;fill-opacity:1" />
    <path
       id="path1007"
       style="fill:#b48ead;fill-opacity:1;stroke-width:0.0882961"
       d="M 33.849609 10.042969 L 33.849609 11.945312 L 32.091797 11.945312 C 31.809249 11.945312 31.552826 12.030466 31.320312 12.201172 C 31.055424 12.389537 30.921875 12.625656 30.921875 12.908203 L 30.921875 18.607422 C 30.921875 18.88114 31.050582 19.103695 31.306641 19.277344 C 31.562699 19.459822 31.823965 19.552734 32.091797 19.552734 L 36.210938 19.552734 L 36.210938 10.042969 L 33.849609 10.042969 z M 7.8066406 11.945312 C 7.5240931 11.945312 7.2657162 12.030466 7.0332031 12.201172 C 6.7653716 12.389537 6.6328125 12.625656 6.6328125 12.908203 L 6.6328125 18.607422 C 6.6328125 18.878197 6.7605293 19.100752 7.0195312 19.277344 C 7.27559 19.459822 7.5388091 19.552734 7.8066406 19.552734 L 9.5625 19.552734 L 9.5625 20.033203 L 6.6328125 20.033203 L 6.6328125 21.921875 L 10.755859 21.921875 C 11.006032 21.921875 11.255687 21.837684 11.505859 21.669922 C 11.785464 21.466841 11.925781 21.237518 11.925781 20.978516 L 11.925781 11.945312 L 7.8066406 11.945312 z M 12.707031 11.945312 L 12.707031 19.552734 L 15.064453 19.552734 L 15.064453 16.699219 L 15.638672 16.699219 L 15.638672 20.978516 C 15.638672 21.240461 15.776073 21.469784 16.052734 21.669922 C 16.30585 21.837684 16.563264 21.921875 16.822266 21.921875 L 18.773438 21.921875 L 18.773438 29.943359 L 21.130859 29.943359 L 21.130859 24.064453 L 21.699219 24.064453 L 21.699219 29.943359 L 24.0625 29.943359 L 24.0625 23.119141 C 24.0625 22.842479 23.927988 22.606361 23.660156 22.412109 C 23.512996 22.306154 23.355263 22.232611 23.1875 22.191406 L 22.886719 22.160156 L 21.130859 22.160156 L 21.130859 20.033203 L 17.996094 20.033203 L 17.996094 16.21875 C 17.996094 16.077476 17.934161 15.964259 17.810547 15.878906 C 17.678103 15.79944 17.544554 15.75396 17.412109 15.742188 C 17.547497 15.742188 17.681046 15.696708 17.810547 15.605469 C 17.934161 15.531889 17.996094 15.420598 17.996094 15.273438 L 17.996094 12.908203 C 17.996094 12.625656 17.861582 12.389537 17.59375 12.201172 C 17.367123 12.030466 17.1107 11.945312 16.822266 11.945312 L 12.707031 11.945312 z M 19.947266 11.945312 C 19.664718 11.945312 19.409257 12.030466 19.179688 12.201172 C 18.914799 12.389537 18.78125 12.625656 18.78125 12.908203 L 18.78125 14.316406 L 21.134766 14.316406 L 21.134766 13.851562 L 21.703125 13.851562 L 21.703125 14.796875 L 19.947266 14.796875 C 19.688264 14.796875 19.435692 14.886871 19.191406 15.066406 C 18.917688 15.266544 18.78125 15.492015 18.78125 15.742188 L 18.78125 18.607422 C 18.78125 18.88114 18.909957 19.103695 19.166016 19.277344 C 19.419131 19.459822 19.679434 19.552734 19.947266 19.552734 L 24.070312 19.552734 L 24.070312 12.908203 C 24.070313 12.625656 23.9358 12.389537 23.667969 12.201172 C 23.435456 12.030466 23.179032 11.945313 22.896484 11.945312 L 19.947266 11.945312 z M 24.847656 11.945312 L 24.847656 19.552734 L 27.208984 19.552734 L 27.208984 13.851562 L 27.779297 13.851562 L 27.779297 19.552734 L 30.136719 19.552734 L 30.136719 12.908203 C 30.136719 12.625656 30.002207 12.389537 29.734375 12.201172 C 29.507748 12.030466 29.252288 11.945313 28.966797 11.945312 C 28.189791 11.945313 27.603374 12.104972 27.208984 12.425781 L 27.208984 11.945312 L 24.847656 11.945312 z M 8.9980469 13.851562 L 9.5625 13.851562 L 9.5625 17.662109 L 8.9980469 17.662109 L 8.9980469 13.851562 z M 15.064453 13.851562 L 15.638672 13.851562 L 15.638672 14.796875 L 15.064453 14.796875 L 15.064453 13.851562 z M 33.275391 13.851562 L 33.849609 13.851562 L 33.849609 17.662109 L 33.275391 17.662109 L 33.275391 13.851562 z M 21.134766 16.699219 L 21.703125 16.699219 L 21.703125 17.662109 L 21.134766 17.662109 L 21.134766 16.699219 z M 12.738281 22.160156 L 12.738281 22.638672 L 12.150391 22.638672 L 12.150391 24.527344 L 12.738281 24.527344 L 12.738281 28.822266 C 12.738281 28.966483 12.773113 29.12229 12.84375 29.287109 C 12.923216 29.463702 13.025786 29.599177 13.152344 29.693359 C 13.399573 29.861122 13.653107 29.943359 13.912109 29.943359 L 16.851562 29.943359 C 17.116451 29.943359 17.37967 29.85628 17.638672 29.679688 C 17.897674 29.497209 18.027344 29.210769 18.027344 28.822266 L 18.027344 25.007812 L 15.681641 25.007812 L 15.681641 27.873047 L 15.089844 27.873047 L 15.089844 24.527344 L 18.027344 24.527344 L 18.027344 22.638672 L 15.089844 22.638672 L 15.089844 22.160156 L 12.738281 22.160156 z M 26.017578 22.160156 C 25.732087 22.160156 25.473711 22.244347 25.244141 22.412109 C 24.976309 22.606361 24.84375 22.842479 24.84375 23.119141 L 24.84375 28.822266 C 24.84375 29.207825 24.970504 29.494266 25.226562 29.679688 C 25.485564 29.85628 25.749747 29.943359 26.017578 29.943359 L 28.962891 29.943359 C 29.230722 29.943359 29.491025 29.85628 29.744141 29.679688 C 30.003143 29.497209 30.132812 29.210769 30.132812 28.822266 L 30.132812 27.392578 L 27.775391 27.392578 L 27.775391 27.873047 L 27.205078 27.873047 L 27.205078 26.912109 L 30.132812 26.912109 L 30.132812 23.119141 C 30.132812 22.842479 29.9983 22.606361 29.730469 22.412109 C 29.500899 22.244347 29.245438 22.160156 28.962891 22.160156 L 26.017578 22.160156 z M 32.095703 22.160156 C 31.813156 22.160156 31.556732 22.244347 31.324219 22.412109 C 31.05933 22.603418 30.925781 22.839536 30.925781 23.119141 L 30.925781 29.943359 L 33.283203 29.943359 L 33.283203 26.433594 L 36.214844 26.433594 L 36.214844 24.527344 L 33.283203 24.527344 L 33.283203 24.064453 L 36.214844 24.064453 L 36.214844 22.160156 L 32.095703 22.160156 z M 37.248047 22.160156 L 37.248047 22.638672 L 36.662109 22.638672 L 36.662109 24.527344 L 37.248047 24.527344 L 37.248047 28.822266 C 37.248047 28.966483 37.284832 29.12229 37.355469 29.287109 C 37.434935 29.463702 37.537505 29.599177 37.664062 29.693359 C 37.917178 29.861122 38.170713 29.943359 38.423828 29.943359 L 41.363281 29.943359 C 41.634056 29.943359 41.895322 29.85628 42.148438 29.679688 C 42.407439 29.497209 42.537109 29.270775 42.537109 29 L 42.537109 25.007812 L 40.193359 25.007812 L 40.193359 27.873047 L 39.605469 27.873047 L 39.605469 24.527344 L 42.537109 24.527344 L 42.537109 22.638672 L 39.605469 22.638672 L 39.605469 22.160156 L 37.248047 22.160156 z M 27.205078 24.064453 L 27.775391 24.064453 L 27.775391 25.007812 L 27.205078 25.007812 L 27.205078 24.064453 z M 11.607422 30.910156 C 11.324874 30.910156 11.066497 30.997263 10.833984 31.167969 C 10.569096 31.359277 10.4375 31.592479 10.4375 31.869141 L 10.4375 33.28125 L 12.791016 33.28125 L 12.791016 32.818359 L 13.369141 32.818359 L 13.369141 33.763672 L 11.607422 33.763672 C 11.351363 33.763672 11.097829 33.853668 10.847656 34.033203 C 10.573938 34.230398 10.4375 34.453916 10.4375 34.707031 L 10.4375 37.572266 C 10.4375 37.845984 10.566207 38.071455 10.822266 38.248047 C 11.084211 38.427582 11.345477 38.517578 11.607422 38.517578 L 15.726562 38.517578 L 15.726562 31.869141 C 15.726562 31.598366 15.591087 31.365163 15.320312 31.167969 C 15.090743 30.997263 14.835282 30.910156 14.552734 30.910156 L 11.607422 30.910156 z M 16.507812 30.910156 L 16.507812 37.572266 C 16.507813 37.84304 16.633603 38.068511 16.886719 38.248047 C 17.148664 38.427582 17.412846 38.517578 17.677734 38.517578 L 20.623047 38.517578 C 20.887935 38.517578 21.150164 38.427582 21.412109 38.248047 C 21.665225 38.068511 21.792969 37.84304 21.792969 37.572266 L 21.792969 30.910156 L 19.435547 30.910156 L 19.435547 36.628906 L 18.865234 36.628906 L 18.865234 30.910156 L 16.507812 30.910156 z M 22.962891 30.910156 L 22.962891 31.392578 L 22.378906 31.392578 L 22.378906 33.28125 L 22.962891 33.28125 L 22.962891 37.572266 C 22.962891 37.834211 23.100292 38.064524 23.376953 38.261719 C 23.630069 38.432425 23.883603 38.517578 24.136719 38.517578 L 27.076172 38.517578 C 27.34106 38.517578 27.605242 38.427582 27.867188 38.248047 C 28.123246 38.068511 28.251953 37.84304 28.251953 37.572266 L 28.251953 33.763672 L 25.912109 33.763672 L 25.912109 36.628906 L 25.320312 36.628906 L 25.320312 33.28125 L 28.251953 33.28125 L 28.251953 31.392578 L 25.320312 31.392578 L 25.320312 30.910156 L 22.962891 30.910156 z M 30.203125 30.910156 C 29.920577 30.910156 29.663164 30.997263 29.433594 31.167969 C 29.168705 31.359277 29.037109 31.592479 29.037109 31.869141 L 29.037109 37.572266 C 29.037109 37.845984 29.165816 38.071455 29.421875 38.248047 C 29.680877 38.427582 29.94118 38.517578 30.203125 38.517578 L 33.152344 38.517578 C 33.417232 38.517578 33.678498 38.427582 33.9375 38.248047 C 34.196502 38.068511 34.326172 37.84304 34.326172 37.572266 L 34.326172 31.869141 C 34.326172 31.595423 34.19166 31.36222 33.923828 31.167969 C 33.694258 30.997263 33.437835 30.910156 33.152344 30.910156 L 30.203125 30.910156 z M 31.394531 32.818359 L 31.964844 32.818359 L 31.964844 36.628906 L 31.394531 36.628906 L 31.394531 32.818359 z M 12.791016 35.666016 L 13.369141 35.666016 L 13.369141 36.628906 L 12.791016 36.628906 L 12.791016 35.666016 z "
       transform="matrix(11.325527,0,0,11.325527,-62.7101,-101.23425)" />
  </g>
</svg>
