<?xml version="1.0" encoding="UTF-8" standalone="no"?>
<svg
   height="48"
   width="48"
   version="1.1"
   id="svg6"
   sodipodi:docname="appimagekit-teams-for-linux.svg"
   inkscape:version="1.1.2 (0a00cf5339, 2022-02-04)"
   xmlns:inkscape="http://www.inkscape.org/namespaces/inkscape"
   xmlns:sodipodi="http://sodipodi.sourceforge.net/DTD/sodipodi-0.dtd"
   xmlns="http://www.w3.org/2000/svg"
   xmlns:svg="http://www.w3.org/2000/svg"
   xmlns:rdf="http://www.w3.org/1999/02/22-rdf-syntax-ns#"
   xmlns:cc="http://creativecommons.org/ns#"
   xmlns:dc="http://purl.org/dc/elements/1.1/">
  <metadata
     id="metadata12">
    <rdf:RDF>
      <cc:Work
         rdf:about="">
        <dc:format>image/svg+xml</dc:format>
        <dc:type
           rdf:resource="http://purl.org/dc/dcmitype/StillImage" />
      </cc:Work>
    </rdf:RDF>
  </metadata>
  <defs
     id="defs10" />
  <sodipodi:namedview
     pagecolor="#ffffff"
     bordercolor="#666666"
     borderopacity="1"
     objecttolerance="10"
     gridtolerance="10"
     guidetolerance="10"
     inkscape:pageopacity="0"
     inkscape:pageshadow="2"
     inkscape:window-width="1920"
     inkscape:window-height="1031"
     id="namedview8"
     showgrid="false"
     inkscape:zoom="9.4583333"
     inkscape:cx="40.9163"
     inkscape:cy="26.220264"
     inkscape:window-x="0"
     inkscape:window-y="0"
     inkscape:window-maximized="1"
     inkscape:current-layer="svg6"
     inkscape:document-rotation="0"
     inkscape:pagecheckerboard="0" />
  <path
     id="circle2"
     style="opacity:0.99;fill:#b48ead;fill-opacity:1"
     transform="matrix(1.75830584759 0 0 1.75830608345 -18.15909274367 -30.97874795549)"
     d="M 37.173613,31.534513 A 13.232998,13.232998 0 0 1 23.940615,44.767511 13.232998,13.232998 0 0 1 10.707617,31.534513 13.232998,13.232998 0 0 1 23.940615,18.301516 13.232998,13.232998 0 0 1 37.173613,31.534513 Z" />
  <path
     d="M 20.96154,6.9987269 A 5.7105267,5.7105267 0 0 0 15.250603,12.707711 5.7105267,5.7105267 0 0 0 20.96154,18.418648 5.7105267,5.7105267 0 0 0 26.670524,12.707711 5.7105267,5.7105267 0 0 0 20.96154,6.9987269 Z M 14.025993,20.051461 c -1.129868,0 -2.039062,0.909173 -2.039062,2.039063 v 2.039062 6.933594 1.224609 a 8.9736847,8.9736847 0 0 0 5.408203,8.154297 L 29.934196,28.260445 v -4.130859 -2.039062 c 0,-1.12989 -0.909194,-2.039063 -2.039062,-2.039063 z"
     style="fill:#ffffff;fill-opacity:1;stroke-width:0.815788"
     id="circle848-7" />
  <path
     id="path834-5"
     style="fill:#ffffff;fill-opacity:0.556104;stroke-width:0.815788"
     d="M 32.380859 10.259766 A 4.0789474 4.0789474 0 0 0 28.302734 14.339844 A 4.0789474 4.0789474 0 0 0 32.380859 18.417969 A 4.0789474 4.0789474 0 0 0 36.460938 14.339844 A 4.0789474 4.0789474 0 0 0 32.380859 10.259766 z M 27.894531 20.050781 C 27.21661 20.050781 26.669922 20.595579 26.669922 21.273438 L 26.669922 21.681641 L 26.669922 29.134766 L 26.669922 29.839844 A 5.7105267 5.7105267 0 0 0 26.888672 31.21875 L 27.933594 30.203125 C 28.124395 30.294937 28.335842 30.349609 28.5625 30.349609 L 36.693359 30.349609 C 37.498155 30.349609 38.144531 29.703233 38.144531 28.898438 L 38.144531 21.503906 C 38.144531 21.158079 38.020623 20.846584 37.820312 20.597656 L 37.845703 20.574219 C 37.624058 20.26486 37.278444 20.050781 36.867188 20.050781 L 36.693359 20.050781 L 28.5625 20.050781 L 27.894531 20.050781 z " />
  <path
     id="circle937"
     style="opacity:0.99;fill:#a47b9d;fill-opacity:1;stroke-width:1.75831"
     d="M 47.203125 24.46875 L 2.4960938 33.525391 C 3.673501 36.309095 5.3771144 38.816565 7.4824219 40.921875 C 9.5877293 43.027185 12.095202 44.730796 14.878906 45.908203 C 17.66261 47.085612 20.722953 47.736328 23.935547 47.736328 C 30.360732 47.736328 36.178053 45.132492 40.388672 40.921875 C 42.493979 38.816565 44.197593 36.309095 45.375 33.525391 C 46.552409 30.741686 47.203125 27.681344 47.203125 24.46875 z " />
</svg>
