<?xml version="1.0" encoding="UTF-8" standalone="no"?>
<svg
   height="48"
   width="48"
   version="1.1"
   id="svg6"
   sodipodi:docname="trommaps.svg"
   inkscape:version="1.1.2 (0a00cf5339, 2022-02-04)"
   xmlns:inkscape="http://www.inkscape.org/namespaces/inkscape"
   xmlns:sodipodi="http://sodipodi.sourceforge.net/DTD/sodipodi-0.dtd"
   xmlns="http://www.w3.org/2000/svg"
   xmlns:svg="http://www.w3.org/2000/svg"
   xmlns:rdf="http://www.w3.org/1999/02/22-rdf-syntax-ns#"
   xmlns:cc="http://creativecommons.org/ns#"
   xmlns:dc="http://purl.org/dc/elements/1.1/">
  <metadata
     id="metadata12">
    <rdf:RDF>
      <cc:Work
         rdf:about="">
        <dc:format>image/svg+xml</dc:format>
        <dc:type
           rdf:resource="http://purl.org/dc/dcmitype/StillImage" />
      </cc:Work>
    </rdf:RDF>
  </metadata>
  <defs
     id="defs10">
    <marker
       style="overflow:visible"
       id="DotL"
       refX="0.0"
       refY="0.0"
       orient="auto"
       inkscape:stockid="DotL"
       inkscape:isstock="true">
      <path
         transform="scale(0.8) translate(7.4, 1)"
         style="fill-rule:evenodd;stroke:#000000;stroke-width:1pt;stroke-opacity:1;fill:#000000;fill-opacity:1"
         d="M -2.5,-1.0 C -2.5,1.7600000 -4.7400000,4.0 -7.5,4.0 C -10.260000,4.0 -12.5,1.7600000 -12.5,-1.0 C -12.5,-3.7600000 -10.260000,-6.0 -7.5,-6.0 C -4.7400000,-6.0 -2.5,-3.7600000 -2.5,-1.0 z "
         id="path898" />
    </marker>
  </defs>
  <sodipodi:namedview
     pagecolor="#ffffff"
     bordercolor="#666666"
     borderopacity="1"
     objecttolerance="10"
     gridtolerance="10"
     guidetolerance="10"
     inkscape:pageopacity="0"
     inkscape:pageshadow="2"
     inkscape:window-width="1920"
     inkscape:window-height="1031"
     id="namedview8"
     showgrid="false"
     inkscape:zoom="2.8284271"
     inkscape:cx="-14.849243"
     inkscape:cy="65.937708"
     inkscape:window-x="0"
     inkscape:window-y="0"
     inkscape:window-maximized="1"
     inkscape:current-layer="svg6"
     inkscape:document-rotation="0"
     showguides="true"
     inkscape:guide-bbox="true"
     inkscape:pagecheckerboard="0" />
  <path
     id="circle2"
     style="opacity:0.99;fill:#88c0d0;fill-opacity:1"
     transform="matrix(1.75830584759 0 0 1.75830608345 -18.15909274367 -30.97874795549)"
     d="M 37.173613,31.534513 A 13.232998,13.232998 0 0 1 23.940615,44.767511 13.232998,13.232998 0 0 1 10.707617,31.534513 13.232998,13.232998 0 0 1 23.940615,18.301516 13.232998,13.232998 0 0 1 37.173613,31.534513 Z" />
  <path
     id="circle925"
     style="opacity:0.99;fill:#d08770;fill-opacity:1;stroke-width:1.75831"
     d="M 0.66796875 24.46875 C 0.66796875 37.319124 11.085175 47.736328 23.935547 47.736328 C 36.785919 47.736328 47.203125 37.319124 47.203125 24.46875 L 0.66796875 24.46875 z " />
  <path
     id="path908"
     style="opacity:1;fill:#ffffff;fill-opacity:1;stroke-width:0.251223;stroke-linecap:round;stroke-linejoin:round"
     d="m 23.937002,10.995335 c -5.816602,0 -10.533178,4.716577 -10.533178,10.533179 h 0.01253 c 0,6.742073 6.585731,11.071442 10.523192,16.413368 3.943194,-5.340924 10.525688,-9.068121 10.525688,-16.413368 l 0.0026,-0.0026 C 34.466382,15.710512 29.75287,10.995276 23.937106,10.995276 Z m -0.04744,5.400158 c 2.741692,9.92e-4 4.963637,2.224056 4.963251,4.965748 3.88e-4,2.741691 -2.221559,4.964756 -4.963251,4.965748 -2.742667,3.88e-4 -4.966136,-2.223081 -4.965748,-4.965748 -3.86e-4,-2.742667 2.223081,-4.966135 4.965748,-4.965748 z"
     sodipodi:nodetypes="ccccccscccccc" />
</svg>
