<?xml version="1.0" encoding="UTF-8" standalone="no"?>
<svg
   height="48"
   width="48"
   version="1.1"
   id="svg6"
   sodipodi:docname="tromnotes.svg"
   inkscape:version="1.2.2 (b0a8486541, 2022-12-01)"
   xmlns:inkscape="http://www.inkscape.org/namespaces/inkscape"
   xmlns:sodipodi="http://sodipodi.sourceforge.net/DTD/sodipodi-0.dtd"
   xmlns="http://www.w3.org/2000/svg"
   xmlns:svg="http://www.w3.org/2000/svg"
   xmlns:rdf="http://www.w3.org/1999/02/22-rdf-syntax-ns#"
   xmlns:cc="http://creativecommons.org/ns#"
   xmlns:dc="http://purl.org/dc/elements/1.1/">
  <metadata
     id="metadata12">
    <rdf:RDF>
      <cc:Work
         rdf:about="">
        <dc:format>image/svg+xml</dc:format>
        <dc:type
           rdf:resource="http://purl.org/dc/dcmitype/StillImage" />
        <dc:title />
      </cc:Work>
    </rdf:RDF>
  </metadata>
  <defs
     id="defs10" />
  <sodipodi:namedview
     pagecolor="#ffffff"
     bordercolor="#666666"
     borderopacity="1"
     objecttolerance="10"
     gridtolerance="10"
     guidetolerance="10"
     inkscape:pageopacity="0"
     inkscape:pageshadow="2"
     inkscape:window-width="1920"
     inkscape:window-height="1029"
     id="namedview8"
     showgrid="false"
     inkscape:zoom="6.6880515"
     inkscape:cx="4.709892"
     inkscape:cy="35.137289"
     inkscape:window-x="0"
     inkscape:window-y="0"
     inkscape:window-maximized="1"
     inkscape:current-layer="svg6"
     inkscape:document-rotation="0"
     inkscape:showpageshadow="2"
     inkscape:pagecheckerboard="0"
     inkscape:deskcolor="#d1d1d1" />
  <path
     id="circle2"
     style="opacity:0.99;fill:#d8987d;stroke-width:1.75831"
     d="M 47.203487,24.468578 A 23.267658,23.26766 0 0 1 23.935829,47.736238 23.267658,23.26766 0 0 1 0.66817093,24.468578 23.267658,23.26766 0 0 1 23.935829,1.2009182 23.267658,23.26766 0 0 1 47.203487,24.468578 Z" />
  <path
     id="circle835"
     style="opacity:0.99;fill:#e2cdbd;stroke-width:1.61232"
     d="M 45.271582,24.468578 A 21.335752,21.335754 0 0 1 23.935829,45.804333 21.335752,21.335754 0 0 1 2.6000767,24.468578 21.335752,21.335754 0 0 1 23.935829,3.1328239 21.335752,21.335754 0 0 1 45.271582,24.468578 Z" />
  <path
     id="rect831"
     style="opacity:1;fill:#d8987d;stroke-width:0.196535;stroke-linecap:round;stroke-linejoin:round;fill-opacity:1"
     d="M 28.253906 29.789062 L 28.253906 45.361328 A 21.335752 21.335754 0 0 0 44.597656 29.789062 L 28.253906 29.789062 z " />
  <path
     id="rect833"
     style="opacity:1;fill:#e1cdbd;fill-opacity:0.99215686;stroke-width:0.196535;stroke-linecap:round;stroke-linejoin:round"
     d="M 31.341797 32.941406 L 31.341797 44.478516 A 21.335752 21.335754 0 0 0 43.515625 32.941406 L 31.341797 32.941406 z " />
  <path
     id="circle833"
     style="fill:#d7977d;fill-opacity:0.9921568;stroke-width:1.75831"
     d="M 23.892578 1.2011719 A 23.267658 23.267661 0 0 0 5.8320312 9.8515625 L 42.037109 9.8515625 A 23.267658 23.267661 0 0 0 23.935547 1.2011719 A 23.267658 23.267661 0 0 0 23.892578 1.2011719 z " />
</svg>
