<?xml version="1.0" encoding="UTF-8" standalone="no"?>
<svg
   height="48"
   width="48"
   version="1.1"
   id="svg6"
   sodipodi:docname="tromrss.svg"
   inkscape:version="1.1.2 (0a00cf5339, 2022-02-04)"
   xmlns:inkscape="http://www.inkscape.org/namespaces/inkscape"
   xmlns:sodipodi="http://sodipodi.sourceforge.net/DTD/sodipodi-0.dtd"
   xmlns="http://www.w3.org/2000/svg"
   xmlns:svg="http://www.w3.org/2000/svg"
   xmlns:rdf="http://www.w3.org/1999/02/22-rdf-syntax-ns#"
   xmlns:cc="http://creativecommons.org/ns#"
   xmlns:dc="http://purl.org/dc/elements/1.1/">
  <metadata
     id="metadata12">
    <rdf:RDF>
      <cc:Work
         rdf:about="">
        <dc:format>image/svg+xml</dc:format>
        <dc:type
           rdf:resource="http://purl.org/dc/dcmitype/StillImage" />
      </cc:Work>
    </rdf:RDF>
  </metadata>
  <defs
     id="defs10" />
  <sodipodi:namedview
     pagecolor="#ffffff"
     bordercolor="#666666"
     borderopacity="1"
     objecttolerance="10"
     gridtolerance="10"
     guidetolerance="10"
     inkscape:pageopacity="0"
     inkscape:pageshadow="2"
     inkscape:window-width="1920"
     inkscape:window-height="1031"
     id="namedview8"
     showgrid="false"
     inkscape:zoom="4.7291666"
     inkscape:cx="46.096917"
     inkscape:cy="13.004405"
     inkscape:window-x="0"
     inkscape:window-y="0"
     inkscape:window-maximized="1"
     inkscape:current-layer="svg6"
     inkscape:document-rotation="0"
     inkscape:pagecheckerboard="0" />
  <path
     id="circle2"
     style="opacity:0.99;fill:#a3be8c;fill-opacity:1"
     transform="matrix(1.75830584759 0 0 1.75830608345 -18.15909274367 -30.97874795549)"
     d="M 37.173613,31.534513 A 13.232998,13.232998 0 0 1 23.940615,44.767511 13.232998,13.232998 0 0 1 10.707617,31.534513 13.232998,13.232998 0 0 1 23.940615,18.301516 13.232998,13.232998 0 0 1 37.173613,31.534513 Z" />
  <path
     id="circle1050"
     style="opacity:0.99;fill:#ffffff;fill-opacity:0.29540917;stroke-width:1.59129"
     d="M 44.99346,24.468578 A 21.057631,21.057634 0 0 1 23.935829,45.526213 21.057631,21.057634 0 0 1 2.8781986,24.468578 21.057631,21.057634 0 0 1 23.935829,3.410944 21.057631,21.057634 0 0 1 44.99346,24.468578 Z" />
  <path
     id="rect965"
     style="fill:#a3be8c;fill-opacity:0.99215686;stroke:#ffffff;stroke-width:1.69724"
     d="M 15.937262,12.151357 H 32.511896 V 34.710896 H 15.937262 Z" />
  <path
     id="rect963"
     style="fill:#a3be8c;fill-opacity:0.99215686;stroke:#ffffff;stroke-width:1.69724"
     d="m 13.223839,15.950191 h 22.001486 v 18.23932 H 13.223839 Z" />
  <rect
     style="fill:#ffffff;fill-opacity:0.992157;stroke:none;stroke-width:1.35779;stroke-linecap:square;stroke-opacity:0.992157"
     id="rect961"
     width="31.277063"
     height="19.330288"
     x="8.5860491"
     y="19.290251"
     ry="0.013416697" />
  <path
     id="path8"
     style="fill:#a3be8c;fill-opacity:0.99215686;stroke-width:0.645238"
     d="M 18.210938 21.605469 C 17.5657 21.605469 16.919922 22.251246 16.919922 22.896484 C 16.919922 23.541722 17.5657 24.185547 18.210938 24.185547 C 24.625311 24.18554 29.824219 29.386407 29.824219 35.800781 C 29.824219 36.446019 30.40995 37.091797 31.115234 37.091797 C 31.760472 37.091797 32.40625 36.446019 32.40625 35.800781 C 32.40625 27.961141 26.05077 21.605469 18.210938 21.605469 z M 18.210938 26.767578 C 17.5657 26.767578 16.919922 27.413356 16.919922 28.058594 C 16.919922 28.703832 17.5657 29.347656 18.210938 29.347656 C 21.774521 29.347652 24.664062 32.237197 24.664062 35.800781 C 24.664062 36.446019 25.307887 37.091797 25.953125 37.091797 C 26.598363 37.091797 27.244141 36.446019 27.244141 35.800781 C 27.244141 30.811802 23.199916 26.767578 18.210938 26.767578 z M 19.501953 31.929688 C 18.076558 31.929688 16.919922 33.084371 16.919922 34.509766 C 16.919922 35.935096 18.076623 37.091797 19.501953 37.091797 C 20.927348 37.091797 22.082031 35.935161 22.082031 34.509766 C 22.082031 33.084371 20.927348 31.929688 19.501953 31.929688 z " />
</svg>
