<?xml version="1.0" encoding="UTF-8" standalone="no"?>
<svg
   height="48"
   width="48"
   version="1.1"
   id="svg6"
   sodipodi:docname="typora.svg"
   inkscape:version="1.1.2 (0a00cf5339, 2022-02-04)"
   xmlns:inkscape="http://www.inkscape.org/namespaces/inkscape"
   xmlns:sodipodi="http://sodipodi.sourceforge.net/DTD/sodipodi-0.dtd"
   xmlns="http://www.w3.org/2000/svg"
   xmlns:svg="http://www.w3.org/2000/svg"
   xmlns:rdf="http://www.w3.org/1999/02/22-rdf-syntax-ns#"
   xmlns:cc="http://creativecommons.org/ns#"
   xmlns:dc="http://purl.org/dc/elements/1.1/">
  <metadata
     id="metadata12">
    <rdf:RDF>
      <cc:Work
         rdf:about="">
        <dc:format>image/svg+xml</dc:format>
        <dc:type
           rdf:resource="http://purl.org/dc/dcmitype/StillImage" />
      </cc:Work>
    </rdf:RDF>
  </metadata>
  <defs
     id="defs10" />
  <sodipodi:namedview
     pagecolor="#ffffff"
     bordercolor="#666666"
     borderopacity="1"
     objecttolerance="10"
     gridtolerance="10"
     guidetolerance="10"
     inkscape:pageopacity="0"
     inkscape:pageshadow="2"
     inkscape:window-width="1920"
     inkscape:window-height="1024"
     id="namedview8"
     showgrid="false"
     inkscape:zoom="9.458333"
     inkscape:cx="20.035243"
     inkscape:cy="27.753305"
     inkscape:window-x="0"
     inkscape:window-y="32"
     inkscape:window-maximized="1"
     inkscape:current-layer="svg6"
     inkscape:document-rotation="0"
     inkscape:pagecheckerboard="0" />
  <path
     id="circle2"
     style="opacity:0.99;fill:#b48ead;fill-opacity:1"
     transform="matrix(1.75830584759 0 0 1.75830608345 -18.15909274367 -30.97874795549)"
     d="M 37.173613,31.534513 A 13.232998,13.232998 0 0 1 23.940615,44.767511 13.232998,13.232998 0 0 1 10.707617,31.534513 13.232998,13.232998 0 0 1 23.940615,18.301516 13.232998,13.232998 0 0 1 37.173613,31.534513 Z" />
  <path
     id="circle937"
     style="opacity:0.99;fill:#9e709e;fill-opacity:0.9921568;stroke-width:1.75831"
     d="M 47.203125 24.46875 L 2.4960938 33.525391 C 3.673501 36.309095 5.3771144 38.816565 7.4824219 40.921875 C 9.5877293 43.027185 12.095202 44.730796 14.878906 45.908203 C 17.66261 47.085612 20.722953 47.736328 23.935547 47.736328 C 30.360732 47.736328 36.178053 45.132492 40.388672 40.921875 C 42.493979 38.816565 44.197593 36.309095 45.375 33.525391 C 46.552409 30.741686 47.203125 27.681344 47.203125 24.46875 z " />
  <path
     d="m 34.478725,13.773278 c -0.04039,0.06285 -0.158661,0.109141 -0.35275,0.138046 -0.423149,0.07997 -0.705118,-0.05202 -0.846159,-0.392979 -0.496771,-1.25784 -1.086226,-2.091936 -1.764873,-2.508018 -0.941506,-0.572561 -2.58478,-0.853665 -4.936798,-0.843896 -0.950707,0.0047 -1.472849,0.09242 -1.563437,0.263457 -0.03175,0.05555 -0.05063,0.137254 -0.05034,0.241642 0.0068,1.41651 0.0565,12.747173 0.06333,14.163683 0.0025,0.605319 0.17365,1.030083 0.520683,1.271884 0.345457,0.236652 0.966266,0.540516 1.988561,0.735502 0.436291,0.07467 0.875906,0.145598 0.933694,0.174521 0.414647,-0.0024 0.458012,0.78596 -0.33607,0.78971 -0.02201,0.0112 -9.358576,0.03519 -9.358576,0.03519 0,0 -0.654185,-0.324721 -0.07062,-0.762552 0.244439,-0.09092 0.690959,-0.258243 0.690959,-0.258243 0,0 1.648556,-0.465058 1.991487,-0.761476 0.389202,-0.333686 0.580671,-0.870582 0.57723,-1.608442 -0.0062,-1.376315 -0.05523,-12.390824 -0.06141,-13.767139 -0.0011,-0.275047 -0.208436,-0.43491 -0.622151,-0.479589 -0.04426,-0.01073 -0.383249,-0.01302 -1.011655,-0.01045 -2.179367,0.0092 -3.779616,0.328755 -4.811875,0.959819 -0.776746,0.467815 -1.463377,1.321496 -2.065458,2.567601 -0.194151,0.389157 -0.464681,0.516025 -0.808022,0.385921 -0.390284,-0.07282 -0.531972,-0.250264 -0.432872,-0.522945 0.397037,-1.026449 0.592192,-2.4702 0.583973,-4.337398 -8.26e-4,-0.217828 0.346808,-0.43859 1.047198,-0.402018 1.927073,-0.0042 17.346723,-0.03863 19.274792,-0.04276 0.638901,-0.07997 0.988073,0.0045 1.047684,0.251301 0.326196,1.257605 0.475093,2.715113 0.449764,4.371778 -0.01128,0.170654 -0.03931,0.28973 -0.07629,0.347847 z"
     id="use32"
     style="fill:#ffffff;fill-opacity:1;stroke-width:0.1" />
</svg>
