<?xml version="1.0" encoding="UTF-8" standalone="no"?>
<svg
   height="48"
   width="48"
   version="1.1"
   id="svg6"
   sodipodi:docname="ubuntusoftware.svg"
   inkscape:version="1.1.2 (0a00cf5339, 2022-02-04)"
   xmlns:inkscape="http://www.inkscape.org/namespaces/inkscape"
   xmlns:sodipodi="http://sodipodi.sourceforge.net/DTD/sodipodi-0.dtd"
   xmlns="http://www.w3.org/2000/svg"
   xmlns:svg="http://www.w3.org/2000/svg"
   xmlns:rdf="http://www.w3.org/1999/02/22-rdf-syntax-ns#"
   xmlns:cc="http://creativecommons.org/ns#"
   xmlns:dc="http://purl.org/dc/elements/1.1/">
  <metadata
     id="metadata12">
    <rdf:RDF>
      <cc:Work
         rdf:about="">
        <dc:format>image/svg+xml</dc:format>
        <dc:type
           rdf:resource="http://purl.org/dc/dcmitype/StillImage" />
      </cc:Work>
    </rdf:RDF>
  </metadata>
  <defs
     id="defs10" />
  <sodipodi:namedview
     pagecolor="#ffffff"
     bordercolor="#666666"
     borderopacity="1"
     objecttolerance="10"
     gridtolerance="10"
     guidetolerance="10"
     inkscape:pageopacity="0"
     inkscape:pageshadow="2"
     inkscape:window-width="1920"
     inkscape:window-height="1024"
     id="namedview8"
     showgrid="false"
     inkscape:zoom="13.376103"
     inkscape:cx="17.157464"
     inkscape:cy="27.69865"
     inkscape:window-x="0"
     inkscape:window-y="32"
     inkscape:window-maximized="1"
     inkscape:current-layer="svg6"
     inkscape:document-rotation="0"
     inkscape:pagecheckerboard="0" />
  <path
     id="circle2"
     style="opacity:0.99;fill:#d08770;fill-opacity:1"
     transform="matrix(1.75830584759 0 0 1.75830608345 -18.15909274367 -30.97874795549)"
     d="M 37.173613,31.534513 A 13.232998,13.232998 0 0 1 23.940615,44.767511 13.232998,13.232998 0 0 1 10.707617,31.534513 13.232998,13.232998 0 0 1 23.940615,18.301516 13.232998,13.232998 0 0 1 37.173613,31.534513 Z" />
  <g
     transform="translate(-0.43265992,-3.1147541)"
     id="g10">
    <path
       d="m 22.033855,16.583333 c -0.732289,1.52384 -1.443673,3.089376 -2.134115,4.697917 -0.669542,1.587274 -1.365481,3.263906 -2.076823,5.041666 -0.157243,0.404865 -0.313269,0.843466 -0.472657,1.260417 h 4.654949 c 0.04998,-0.138858 0.108092,-0.292928 0.157552,-0.429688 0.334757,-0.867773 0.63032,-1.658103 0.902344,-2.377604 0.27201,-0.719638 0.506913,-1.354712 0.716145,-1.904948 0.209223,-0.550236 0.368054,-0.985848 0.472657,-1.303385 0.125534,0.317537 0.292056,0.753012 0.501302,1.303385 0.209236,0.550236 0.45849,1.185356 0.730468,1.904948 0.29292,0.719501 0.588474,1.509831 0.902344,2.377604 0.04946,0.13676 0.107571,0.29083 0.157552,0.429688 h 4.826823 C 31.209255,27.166254 31.047467,26.727905 30.885417,26.322916 30.193325,24.545019 29.498853,22.868478 28.808594,21.28125 28.117877,19.672938 27.413572,18.10731 26.70223,16.583333 Z M 15.660156,28.5 c -1.269599,0 -2.291666,1.022067 -2.291666,2.291666 0,1.2696 1.022067,2.291667 2.291666,2.291667 h 17.416667 c 1.2696,0 2.291667,-1.022067 2.291667,-2.291667 C 35.36849,29.522067 34.346423,28.5 33.076823,28.5 Z m -0.658854,5.426595 c -0.526631,1.475851 -1.065388,3.006717 -1.632812,4.656738 h 5.084635 C 18.683284,37.821344 18.940261,37.038668 19.21224,36.234375 19.484342,35.487282 19.745897,34.747092 20,34 h -4.339844 c -0.226983,0 -0.445433,-0.02718 -0.658854,-0.07161 z m 18.720053,0 c -0.210837,0.04583 -0.426319,0.0734 -0.646322,0.0734 h -4.497396 c 0.252586,0.746863 0.506525,1.487511 0.759115,2.234375 0.292897,0.804201 0.557582,1.586969 0.78776,2.348958 h 5.243978 c -0.567561,-1.648691 -1.105768,-3.18038 -1.632813,-4.654948 -0.0046,9.17e-4 -0.0098,-9.17e-4 -0.01432,0 z"
       fill="#ffffff"
       stroke-width="0.458339"
       id="path6" />
    <path
       id="rect8"
       style="fill:#d08770;fill-opacity:0.992157"
       d="m 15.5,29.291666 h 9 c 0.831,0 1.5,0.669 1.5,1.5 0,0.831 -0.669,1.5 -1.5,1.5 h -9 c -0.831,0 -1.5,-0.669 -1.5,-1.5 0,-0.831 0.669,-1.5 1.5,-1.5 z" />
  </g>
</svg>
