<?xml version="1.0" encoding="UTF-8" standalone="no"?>
<svg
   height="48"
   width="48"
   version="1.1"
   id="svg6"
   sodipodi:docname="upscarly.svg"
   inkscape:version="1.1.2 (0a00cf5339, 2022-02-04)"
   xmlns:inkscape="http://www.inkscape.org/namespaces/inkscape"
   xmlns:sodipodi="http://sodipodi.sourceforge.net/DTD/sodipodi-0.dtd"
   xmlns="http://www.w3.org/2000/svg"
   xmlns:svg="http://www.w3.org/2000/svg"
   xmlns:rdf="http://www.w3.org/1999/02/22-rdf-syntax-ns#"
   xmlns:cc="http://creativecommons.org/ns#"
   xmlns:dc="http://purl.org/dc/elements/1.1/">
  <metadata
     id="metadata12">
    <rdf:RDF>
      <cc:Work
         rdf:about="">
        <dc:format>image/svg+xml</dc:format>
        <dc:type
           rdf:resource="http://purl.org/dc/dcmitype/StillImage" />
      </cc:Work>
    </rdf:RDF>
  </metadata>
  <defs
     id="defs10" />
  <sodipodi:namedview
     pagecolor="#ffffff"
     bordercolor="#666666"
     borderopacity="1"
     objecttolerance="10"
     gridtolerance="10"
     guidetolerance="10"
     inkscape:pageopacity="0"
     inkscape:pageshadow="2"
     inkscape:window-width="1920"
     inkscape:window-height="1030"
     id="namedview8"
     showgrid="false"
     inkscape:zoom="7.0520834"
     inkscape:cx="-4.0413589"
     inkscape:cy="12.974889"
     inkscape:window-x="0"
     inkscape:window-y="24"
     inkscape:window-maximized="1"
     inkscape:current-layer="svg6"
     inkscape:document-rotation="0"
     inkscape:pagecheckerboard="0" />
  <circle
     cx="23.940615"
     cy="31.534513"
     fill="#5e81ac"
     opacity=".99"
     r="13.232998"
     transform="matrix(1.75830584759 0 0 1.75830608345 -18.15909274367 -30.97874795549)"
     id="circle2"
     style="fill:#b0bfce;fill-opacity:1" />
  <path
     id="circle831"
     style="opacity:0.99;fill:#ffffff;fill-opacity:0.994427;stroke-width:1.6391"
     d="M 45.626064,24.468578 A 21.690235,21.690239 0 0 1 23.935829,46.158817 21.690235,21.690239 0 0 1 2.245594,24.468578 21.690235,21.690239 0 0 1 23.935829,2.7783394 21.690235,21.690239 0 0 1 45.626064,24.468578 Z" />
  <path
     id="ellipse833"
     style="opacity:0.99;fill:#8fbcbb;stroke-width:1.5348"
     d="M 44.245905,24.468578 A 20.310076,20.31008 0 0 1 23.935829,44.778658 20.310076,20.31008 0 0 1 3.6257534,24.468578 20.310076,20.31008 0 0 1 23.935829,4.1584988 20.310076,20.31008 0 0 1 44.245905,24.468578 Z" />
  <path
     id="path854"
     style="fill:#ffffff;fill-opacity:0.70168;stroke:none;stroke-width:1px;stroke-linecap:butt;stroke-linejoin:miter;stroke-opacity:1"
     d="M 20.443359 22.066406 C 18.03164 22.031232 19.097699 27.876785 17.296875 28.359375 C 15.496051 28.841965 16.024377 26.731954 14.599609 26.558594 C 13.174841 26.385234 12.089334 29.150804 10.919922 28.589844 C 9.7505098 28.028884 11.833308 25.945312 10.226562 25.529297 C 8.6244767 25.114488 4.5976043 30.569865 4.5742188 30.601562 A 20.310076 20.31008 0 0 0 23.935547 44.779297 A 20.310076 20.31008 0 0 0 44.097656 26.912109 C 43.001362 26.30559 41.621596 25.702358 40.654297 25.908203 C 38.862486 26.289507 38.597082 29.609025 36.832031 29.837891 C 35.06698 30.066757 33.662104 26.985398 32.378906 27.160156 C 31.095708 27.334914 31.972452 28.911447 30.607422 29.029297 C 29.242392 29.147147 27.741054 25.54653 26.078125 25.658203 C 24.415196 25.769876 25.408837 28.502374 23.544922 28.091797 C 21.681007 27.68122 22.855078 22.101576 20.443359 22.066406 z " />
  <path
     id="path905"
     style="fill:#ffffff;fill-opacity:0.416389;stroke:none;stroke-width:1px;stroke-linecap:butt;stroke-linejoin:miter;stroke-opacity:1"
     d="M 43.445312 19.751953 C 43.445313 19.751953 35.555312 23.928131 31.800781 23.832031 C 28.04625 23.735936 25.430584 19.888646 22.363281 19.972656 C 19.295979 20.056662 17.37207 23.288083 14.941406 23.494141 C 12.510743 23.700199 11.161033 21.270592 8.7597656 21.757812 C 7.2076238 22.072744 5.0482027 24.075281 3.6523438 25.498047 A 20.310076 20.31008 0 0 0 23.935547 44.779297 A 20.310076 20.31008 0 0 0 44.246094 24.46875 A 20.310076 20.31008 0 0 0 43.789062 20.191406 L 43.445312 19.751953 z " />
  <path
     id="path852"
     style="fill:#ebcb8b;stroke:none;stroke-width:1px;stroke-linecap:butt;stroke-linejoin:miter;stroke-opacity:1;fill-opacity:1"
     d="M 20.441406 23.296875 C 18.029687 23.261701 19.421918 29.628738 17.621094 30.111328 C 15.82027 30.593918 16.022424 27.962422 14.597656 27.789062 C 13.172888 27.615702 11.370584 30.273851 10.201172 29.712891 C 9.0317599 29.151931 11.030573 27.249999 9.4238281 26.833984 C 8.0279969 26.472579 5.5139964 30.330323 4.8457031 31.398438 A 20.310076 20.31008 0 0 0 23.935547 44.779297 A 20.310076 20.31008 0 0 0 43.927734 28.041016 C 42.863332 27.472359 41.564587 26.943006 40.654297 27.136719 C 38.862486 27.518023 38.595129 30.839493 36.830078 31.068359 C 35.065027 31.297225 33.662104 28.215867 32.378906 28.390625 C 31.095708 28.565383 31.972452 30.141916 30.607422 30.259766 C 29.242392 30.377616 27.741054 26.776999 26.078125 26.888672 C 24.415196 27.000345 24.826806 30.342218 22.962891 29.931641 C 21.098976 29.521064 22.853125 23.332045 20.441406 23.296875 z " />
  <path
     id="path865"
     style="fill:#704f0c;stroke:none;stroke-width:1px;stroke-linecap:butt;stroke-linejoin:miter;stroke-opacity:1;fill-opacity:0.07900614"
     d="M 20.441406 23.296875 C 18.029687 23.261701 19.421918 29.628738 17.621094 30.111328 C 15.82027 30.593918 16.022424 27.962423 14.597656 27.789062 C 13.172888 27.615702 11.370584 30.273851 10.201172 29.712891 C 9.0317598 29.151931 11.030573 27.249999 9.4238281 26.833984 C 8.0279969 26.472579 5.5139964 30.330323 4.8457031 31.398438 A 20.310076 20.31008 0 0 0 5.1738281 32.238281 C 6.032971 30.745096 7.7957217 27.535076 8.8730469 28.230469 C 10.145318 29.051696 8.1645723 30.675368 9.3339844 31.236328 C 10.503397 31.797288 13.172888 29.019999 14.597656 29.193359 C 16.022424 29.366719 16.41402 32.336106 18.214844 31.853516 C 20.015668 31.370926 18.645184 24.674982 20.441406 24.701172 C 21.981203 24.723627 21.098976 30.925361 22.962891 31.335938 C 24.826806 31.746515 24.415196 28.404642 26.078125 28.292969 C 27.741054 28.181296 29.242392 31.781913 30.607422 31.664062 C 31.972452 31.546212 31.095708 29.96968 32.378906 29.794922 C 33.662104 29.620164 35.065027 32.701522 36.830078 32.472656 C 38.595129 32.24379 38.862486 28.92232 40.654297 28.541016 C 41.490804 28.363004 42.648926 28.799918 43.658203 29.3125 A 20.310076 20.31008 0 0 0 43.927734 28.041016 C 42.863332 27.472359 41.564587 26.943006 40.654297 27.136719 C 38.862486 27.518023 38.595129 30.839493 36.830078 31.068359 C 35.065027 31.297225 33.662104 28.215867 32.378906 28.390625 C 31.095708 28.565383 31.972452 30.141916 30.607422 30.259766 C 29.242392 30.377616 27.741054 26.776999 26.078125 26.888672 C 24.415196 27.000345 24.826806 30.342218 22.962891 29.931641 C 21.098976 29.521064 22.853125 23.332045 20.441406 23.296875 z " />
  <path
     sodipodi:type="star"
     style="fill:#d08770;fill-opacity:1;stroke:none;stroke-width:0.8;stroke-linecap:square"
     id="path872"
     sodipodi:sides="5"
     sodipodi:cx="29.792685"
     sodipodi:cy="36.782305"
     sodipodi:r1="5.6270628"
     sodipodi:r2="2.8135314"
     sodipodi:arg1="0.52359878"
     sodipodi:arg2="1.1519173"
     inkscape:flatsided="false"
     inkscape:rounded="0"
     inkscape:randomized="0"
     d="m 34.665864,39.595838 -3.728813,-0.243243 -2.314299,2.93381 -0.920929,-3.621478 -3.505376,-1.294432 3.159648,-1.994954 0.147857,-3.733812 2.873699,2.388529 3.596756,-1.013191 -1.383604,3.471146 z"
     inkscape:transform-center-x="0.36152891"
     inkscape:transform-center-y="0.18176016" />
  <path
     id="circle936"
     style="opacity:0.99;fill:#93bab9;stroke-width:1.75831;fill-opacity:1"
     d="M 23.935547 4.1582031 A 20.310076 20.31008 0 0 0 3.625 24.46875 A 20.310076 20.31008 0 0 0 23.935547 44.779297 L 23.935547 4.1582031 z " />
  <path
     id="rect2268"
     style="fill:#c5dcdc;fill-opacity:1;stroke-width:15;stroke-linejoin:round;stroke-opacity:0.543049;paint-order:fill markers stroke"
     d="M 4.2460938 19.568359 A 20.310076 20.31008 0 0 0 3.625 24.46875 A 20.310076 20.31008 0 0 0 4.2089844 29.179688 L 22.201172 29.179688 C 22.84902 29.179688 23.446216 28.975452 23.935547 28.628906 L 23.935547 20.121094 C 23.446174 19.77445 22.84912 19.568359 22.201172 19.568359 L 4.2460938 19.568359 z " />
  <path
     id="rect3625"
     style="fill:#ebcb8b;fill-opacity:1;stroke-width:15;stroke-linejoin:round;stroke-opacity:0.543049;paint-order:fill markers stroke"
     d="M 6.5761719 25.126953 L 3.9296875 27.773438 A 20.310076 20.31008 0 0 0 7.65625 36.585938 L 12.84375 31.396484 L 6.5761719 25.126953 z " />
  <path
     id="rect3707"
     style="fill:#ebcb8b;fill-opacity:1;stroke-width:15;stroke-linejoin:round;stroke-opacity:0.543049;paint-order:fill markers stroke"
     d="M 9.9570312 25.027344 L 4.5546875 30.429688 A 20.310076 20.31008 0 0 0 5.6953125 33.304688 L 9.9570312 37.566406 L 16.226562 31.296875 L 9.9570312 25.027344 z " />
  <rect
     style="fill:#ebcb8b;fill-opacity:1;stroke-width:15;stroke-linejoin:round;stroke-opacity:0.543049;paint-order:fill markers stroke"
     id="rect3709"
     width="8.8654528"
     height="8.8654528"
     x="-17.263479"
     y="28.667324"
     rx="0"
     ry="0"
     transform="rotate(-45)" />
  <rect
     style="fill:#ebcb8b;fill-opacity:1;stroke-width:15;stroke-linejoin:round;stroke-opacity:0.543049;paint-order:fill markers stroke"
     id="rect3711"
     width="8.8654528"
     height="8.8654528"
     x="-11.791303"
     y="32.95686"
     rx="0"
     ry="0"
     transform="rotate(-45)" />
  <path
     id="rect19093"
     style="fill:#d7bc85;fill-opacity:1;stroke-width:21.0561;stroke-linejoin:round;stroke-opacity:0.543049;paint-order:fill markers stroke"
     d="M 23.935547 35.035156 L 14.123047 41.457031 L 17.566406 43.708984 A 20.310076 20.31008 0 0 0 23.935547 44.779297 L 23.935547 35.035156 z " />
  <path
     id="rect19095"
     style="fill:#d7bc85;fill-opacity:1;stroke-width:21.0561;stroke-linejoin:round;stroke-opacity:0.543049;paint-order:fill markers stroke"
     d="M 17.320312 33.558594 L 9.4609375 38.701172 A 20.310076 20.31008 0 0 0 22.111328 44.660156 L 23.935547 43.466797 L 23.935547 37.884766 L 17.320312 33.558594 z " />
  <path
     id="rect19097"
     style="fill:#d7bc85;fill-opacity:1;stroke-width:21.0561;stroke-linejoin:round;stroke-opacity:0.543049;paint-order:fill markers stroke"
     d="M 9.8320312 34.341797 L 7.2753906 36.015625 A 20.310076 20.31008 0 0 0 17.373047 43.644531 L 20.710938 41.458984 L 9.8320312 34.341797 z " />
  <path
     id="rect22941"
     style="fill:#fefefe;fill-opacity:1;stroke-width:15;stroke-linejoin:round;stroke-opacity:0.543049;paint-order:fill markers stroke"
     d="M 21.797159,3.2128906 V 45.984375 a 21.690235,21.690239 0 0 0 2.443359,0.173828 21.690235,21.690239 0 0 0 1.833984,-0.130859 V 3.2128906 Z" />
  <rect
     style="fill:#454b54;fill-opacity:1;stroke-width:15;stroke-linejoin:round;stroke-opacity:0.543049;paint-order:fill markers stroke"
     id="rect22837"
     width="14.716464"
     height="14.716464"
     x="16.577597"
     y="17.110346"
     rx="7.1696901"
     ry="7.1696901" />
  <path
     sodipodi:type="star"
     style="fill:#fefefe;fill-opacity:1;stroke-width:15;stroke-linejoin:round;stroke-opacity:0.543049;paint-order:fill markers stroke"
     id="path25130"
     inkscape:flatsided="true"
     sodipodi:sides="3"
     sodipodi:cx="27.144243"
     sodipodi:cy="24.009701"
     sodipodi:r1="3.4977233"
     sodipodi:r2="1.7488616"
     sodipodi:arg1="0"
     sodipodi:arg2="1.0471976"
     inkscape:rounded="0"
     inkscape:randomized="0"
     d="m 30.641967,24.009701 -5.246585,3.029117 v -6.058234 z"
     inkscape:transform-center-x="-0.59284568"
     transform="matrix(0.67797881,0,0,1,9.4288661,0.5254127)" />
  <path
     sodipodi:type="star"
     style="fill:#fefefe;fill-opacity:1;stroke-width:15;stroke-linejoin:round;stroke-opacity:0.543049;paint-order:fill markers stroke"
     id="path26891"
     inkscape:flatsided="true"
     sodipodi:sides="3"
     sodipodi:cx="27.144243"
     sodipodi:cy="24.009701"
     sodipodi:r1="3.4977233"
     sodipodi:r2="1.7488616"
     sodipodi:arg1="0"
     sodipodi:arg2="1.0471976"
     inkscape:rounded="0"
     inkscape:randomized="0"
     d="m 30.641967,24.009701 -5.246585,3.029117 v -6.058234 z"
     transform="matrix(-0.67797881,0,0,-1,38.612432,48.544814)"
     inkscape:transform-center-x="0.59284608" />
</svg>
