<?xml version="1.0" encoding="UTF-8" standalone="no"?>
<svg
   height="48"
   width="48"
   version="1.1"
   id="svg6"
   sodipodi:docname="wallch.svg"
   inkscape:version="1.1.2 (0a00cf5339, 2022-02-04)"
   xmlns:inkscape="http://www.inkscape.org/namespaces/inkscape"
   xmlns:sodipodi="http://sodipodi.sourceforge.net/DTD/sodipodi-0.dtd"
   xmlns="http://www.w3.org/2000/svg"
   xmlns:svg="http://www.w3.org/2000/svg"
   xmlns:rdf="http://www.w3.org/1999/02/22-rdf-syntax-ns#"
   xmlns:cc="http://creativecommons.org/ns#"
   xmlns:dc="http://purl.org/dc/elements/1.1/">
  <metadata
     id="metadata12">
    <rdf:RDF>
      <cc:Work
         rdf:about="">
        <dc:format>image/svg+xml</dc:format>
        <dc:type
           rdf:resource="http://purl.org/dc/dcmitype/StillImage" />
      </cc:Work>
    </rdf:RDF>
  </metadata>
  <defs
     id="defs10" />
  <sodipodi:namedview
     pagecolor="#ffffff"
     bordercolor="#666666"
     borderopacity="1"
     objecttolerance="10"
     gridtolerance="10"
     guidetolerance="10"
     inkscape:pageopacity="0"
     inkscape:pageshadow="2"
     inkscape:window-width="1920"
     inkscape:window-height="1030"
     id="namedview8"
     showgrid="true"
     inkscape:zoom="9.8333334"
     inkscape:cx="16.220339"
     inkscape:cy="25.779661"
     inkscape:window-x="0"
     inkscape:window-y="24"
     inkscape:window-maximized="1"
     inkscape:current-layer="svg6"
     inkscape:pagecheckerboard="0">
    <inkscape:grid
       type="xygrid"
       id="grid822" />
  </sodipodi:namedview>
  <path
     d="m44.322082 27.405077a19.729762 19.729765 0 0 1 -19.729762 19.729765 19.729762 19.729765 0 0 1 -19.7297621-19.729765 19.729762 19.729765 0 0 1 19.7297621-19.7297632 19.729762 19.729765 0 0 1 19.729762 19.7297632z"
     opacity=".99"
     transform="matrix(1.1503549 0 0 1.1503549 -4.486125 -7.525565)"
     id="path2"
     style="fill:#ebcb8b;fill-opacity:1" />
  <path
     d="M 20.041746,38.289725 C 17.535143,37.668112 15.389829,36.386948 13.195399,34.201351 11.46448,32.47708 11.196574,32.093279 10.520075,30.368057 9.849938,28.658989 9.769185,28.219134 9.775741,26.308663 c 0.01033,-3.047256 0.604034,-4.883436 2.312136,-7.151304 1.606848,-2.133344 2.330755,-2.722351 4.887234,-3.976366 1.790105,-0.878054 2.947599,-1.219717 5.474152,-1.61568 1.029528,-0.161363 1.062682,-0.516722 0.110335,-1.181341 -1.219814,-0.851286 -2.523036,-2.037582 -2.389276,-2.174764 0.143587,-0.147214 4.944234,1.514318 7.145885,2.473258 2.796547,1.21801 6.237678,3.599307 7.811179,5.405371 0.617834,0.709156 0.907946,1.455227 0.565873,1.455227 -0.157943,0 -2.181604,-0.916778 -4.227734,-1.915317 -0.856264,-0.417853 -1.655682,-0.698144 -1.776522,-0.622874 -0.120823,0.07525 0.02584,0.243048 0.326097,0.37283 0.30021,0.129802 0.596168,0.303693 0.657711,0.386428 0.06154,0.08273 0.539846,0.279203 1.062872,0.436587 0.523067,0.157372 0.951054,0.37155 0.951054,0.475956 0,0.104428 0.125855,0.195653 0.279708,0.202797 0.153864,0.0071 0.778095,0.250518 1.387205,0.540777 l 1.10752,0.527777 -0.883738,0.247285 c -1.365546,0.382097 -1.958825,0.310405 -4.488038,-0.542398 -2.957004,-0.997036 -5.965403,-1.239384 -8.673221,-0.698611 -2.670573,0.533318 -2.914345,0.945529 -1.59174,2.691284 1.020119,1.34645 2.04993,1.677914 3.583249,1.153221 0.628451,-0.215042 1.288689,-0.296835 1.640857,-0.203337 0.538952,0.143089 0.551369,0.170553 0.14528,0.32125 -0.408131,0.151442 -0.390043,0.194216 0.223768,0.52892 0.453688,0.247392 0.542246,0.367027 0.276224,0.373162 -0.426395,0.0096 -0.525982,0.349724 -0.167828,0.57282 0.423266,0.263621 0.228864,0.595808 -0.257625,0.440205 -0.388764,-0.124337 -0.45362,-0.08104 -0.337049,0.225058 0.114073,0.2996 0.05082,0.349114 -0.30179,0.236334 -0.332991,-0.106488 -0.447663,-0.03873 -0.452158,0.267139 -0.0047,0.315614 -0.149341,0.235723 -0.629411,-0.347533 -0.596038,-0.724147 -0.716061,-0.766411 -2.735176,-0.963215 -2.494159,-0.243155 -3.16097,-0.477478 -3.90939,-1.373907 l -0.557828,-0.668107 -0.596494,1.313107 c -0.777032,1.710495 -0.960838,4.257475 -0.424576,5.884556 1.213448,3.681864 3.767076,5.246626 6.37457,3.906065 1.769683,-0.909853 2.271668,-2.590583 1.22732,-4.109175 -0.604872,-0.879634 -0.609518,-1.846635 -0.0064,-1.34227 0.362277,0.303008 0.587348,0.110837 0.606315,-0.517643 0.01264,-0.421006 0.03807,-0.41125 0.243946,0.09397 L 24,28 24.342794,27.492587 c 0.424804,-0.628838 0.733159,-0.658985 0.576796,-0.05637 -0.132243,0.509664 0.147969,0.590423 0.586871,0.169146 0.239851,-0.230227 0.264519,-0.184808 0.13454,0.247789 -0.142217,0.473457 -0.103341,0.513909 0.366447,0.381162 0.450818,-0.127398 0.418288,-0.05605 -0.228723,0.501587 l -0.754296,0.65009 0.1609,2.481904 0.1609,2.481905 -0.684285,0.580274 c -0.678525,0.575397 -0.67998,0.581361 -0.172352,0.709763 0.729049,0.184414 3.856189,-0.210228 5.176989,-0.65331 2.218943,-0.744409 4.852655,-2.750377 5.940892,-4.524901 1.367635,-2.230246 2.128787,-6.56182 1.472613,-8.381473 -0.2796,-0.775378 -0.288577,-0.958465 -0.047,-0.958465 0.603885,0 1.234254,2.464424 1.242517,4.857597 0.01,2.956242 -1.062394,5.709371 -3.138929,8.057421 -3.258062,3.683951 -9.873462,5.547968 -15.093773,4.253294 z"
     id="path10"
     style="fill:#ffffff;fill-opacity:0.993914;stroke-width:0.950006" />
</svg>
