<?xml version="1.0" encoding="UTF-8" standalone="no"?>
<svg
   height="48"
   width="48"
   version="1.1"
   id="svg8"
   sodipodi:docname="webstorm.svg"
   inkscape:version="1.1.2 (0a00cf5339, 2022-02-04)"
   xmlns:inkscape="http://www.inkscape.org/namespaces/inkscape"
   xmlns:sodipodi="http://sodipodi.sourceforge.net/DTD/sodipodi-0.dtd"
   xmlns="http://www.w3.org/2000/svg"
   xmlns:svg="http://www.w3.org/2000/svg"
   xmlns:rdf="http://www.w3.org/1999/02/22-rdf-syntax-ns#"
   xmlns:cc="http://creativecommons.org/ns#"
   xmlns:dc="http://purl.org/dc/elements/1.1/">
  <metadata
     id="metadata14">
    <rdf:RDF>
      <cc:Work
         rdf:about="">
        <dc:format>image/svg+xml</dc:format>
        <dc:type
           rdf:resource="http://purl.org/dc/dcmitype/StillImage" />
      </cc:Work>
    </rdf:RDF>
  </metadata>
  <defs
     id="defs12" />
  <sodipodi:namedview
     pagecolor="#ffffff"
     bordercolor="#666666"
     borderopacity="1"
     objecttolerance="10"
     gridtolerance="10"
     guidetolerance="10"
     inkscape:pageopacity="0"
     inkscape:pageshadow="2"
     inkscape:window-width="1920"
     inkscape:window-height="1031"
     id="namedview10"
     showgrid="false"
     inkscape:zoom="4.7291667"
     inkscape:cx="-28.546255"
     inkscape:cy="36.687224"
     inkscape:window-x="0"
     inkscape:window-y="0"
     inkscape:window-maximized="1"
     inkscape:current-layer="svg8"
     inkscape:document-rotation="0"
     inkscape:pagecheckerboard="0" />
  <path
     id="path2"
     style="fill:#a3be8c;fill-opacity:1;stroke-width:1.15035"
     d="M 23.804688 1.3046875 A 22.696228 22.696232 0 0 0 1.1074219 24 A 22.696228 22.696232 0 0 0 23.804688 46.695312 A 22.696228 22.696232 0 0 0 46.5 24 A 22.696228 22.696232 0 0 0 23.804688 1.3046875 z " />
  <path
     id="path839"
     style="fill:#ffffff;fill-opacity:0.162031;stroke-width:1.15035"
     d="M 23.804688 1.3046875 C 11.269907 1.3046874 1.107423 11.465218 1.1074219 24 L 46.5 24 C 46.499999 11.465218 36.339468 1.3046875 23.804688 1.3046875 z " />
  <path
     id="path841"
     style="fill:#3158d5;fill-opacity:0.257601;stroke-width:1.15035"
     d="M 23.804688 1.3046875 L 23.804688 46.695312 C 36.339469 46.695312 46.5 36.534782 46.5 24 C 46.499999 11.465218 36.339468 1.3046875 23.804688 1.3046875 z " />
  <path
     d="M 11.094509,12.239586 V 36.92293 H 35.777853 V 12.239586 Z m 17.528366,2.322376 c 0.999938,0 1.813783,0.303602 2.438744,0.909333 0.624961,0.600924 0.926901,1.360942 0.907672,2.279153 l -0.01496,0.04322 h -1.989894 c 0,-0.480739 -0.120372,-0.87061 -0.360741,-1.168668 -0.24037,-0.298059 -0.578255,-0.447187 -1.015728,-0.447187 -0.408628,0 -0.728451,0.124056 -0.959206,0.374041 -0.225947,0.245177 -0.33913,0.555968 -0.33913,0.930945 0,0.346132 0.127561,0.631852 0.382352,0.857799 0.254793,0.22114 0.696829,0.469073 1.326597,0.743094 0.99513,0.336518 1.742612,0.764176 2.242581,1.283374 0.504776,0.514391 0.758055,1.21155 0.758055,2.091302 0,0.908597 -0.303603,1.620133 -0.909334,2.134524 -0.605732,0.514391 -1.410725,0.771355 -2.41547,0.771355 -0.999938,0 -1.867791,-0.291067 -2.603322,-0.872762 -0.730723,-0.586502 -1.084649,-1.425598 -1.060612,-2.516876 l 0.01496,-0.04322 h 1.996543 c 0,0.648997 0.138254,1.116105 0.412276,1.399742 0.274021,0.283636 0.687302,0.425575 1.240152,0.425575 0.432665,0 0.752488,-0.115026 0.959206,-0.34578 0.211525,-0.230754 0.317518,-0.543388 0.317518,-0.937594 0,-0.408629 -0.105993,-0.730294 -0.317518,-0.965856 -0.211526,-0.24037 -0.585177,-0.477429 -1.118797,-0.708183 -1.091278,-0.379784 -1.91065,-0.809285 -2.458692,-1.290024 -0.543236,-0.485547 -0.814577,-1.16298 -0.814577,-2.033118 0,-0.860523 0.31798,-1.561185 0.952556,-2.099613 0.634575,-0.543236 1.443254,-0.814577 2.428769,-0.814576 z m -15.14282,0.151278 h 1.989896 l 1.132096,6.69948 h 0.04322 l 1.514448,-6.69948 h 1.471226 L 21.167,21.41272 h 0.04322 l 1.132095,-6.69948 h 1.989895 l -2.024805,10.499731 h -1.911763 l -1.477875,-6.431833 h -0.04322 l -1.464576,6.431833 h -1.903448 z m 0.167903,15.400492 h 10.213798 v 1.702299 H 13.647958 Z"
     fill="#ffffff"
     id="path10-3"
     style="stroke-width:0.85115" />
</svg>
