<?xml version="1.0" encoding="UTF-8" standalone="no"?>
<svg
   version="1.1"
   preserveAspectRatio="xMidYMid meet"
   viewBox="0 0 640 640"
   width="64"
   height="64"
   id="svg22"
   sodipodi:docname="whalebird.svg"
   inkscape:version="1.1.2 (0a00cf5339, 2022-02-04)"
   xmlns:inkscape="http://www.inkscape.org/namespaces/inkscape"
   xmlns:sodipodi="http://sodipodi.sourceforge.net/DTD/sodipodi-0.dtd"
   xmlns:xlink="http://www.w3.org/1999/xlink"
   xmlns="http://www.w3.org/2000/svg"
   xmlns:svg="http://www.w3.org/2000/svg"
   xmlns:rdf="http://www.w3.org/1999/02/22-rdf-syntax-ns#"
   xmlns:cc="http://creativecommons.org/ns#"
   xmlns:dc="http://purl.org/dc/elements/1.1/">
  <metadata
     id="metadata26">
    <rdf:RDF>
      <cc:Work
         rdf:about="">
        <dc:format>image/svg+xml</dc:format>
        <dc:type
           rdf:resource="http://purl.org/dc/dcmitype/StillImage" />
      </cc:Work>
    </rdf:RDF>
  </metadata>
  <sodipodi:namedview
     pagecolor="#ffffff"
     bordercolor="#666666"
     borderopacity="1"
     objecttolerance="10"
     gridtolerance="10"
     guidetolerance="10"
     inkscape:pageopacity="0"
     inkscape:pageshadow="2"
     inkscape:window-width="1920"
     inkscape:window-height="1031"
     id="namedview24"
     showgrid="false"
     inkscape:zoom="5.0160387"
     inkscape:cx="-21.132213"
     inkscape:cy="46.351317"
     inkscape:window-x="0"
     inkscape:window-y="0"
     inkscape:window-maximized="1"
     inkscape:current-layer="svg22"
     inkscape:pagecheckerboard="0" />
  <defs
     id="defs4">
    <path
       d="M599.55 324.66C599.55 479.26 474.54 604.77 320.57 604.77C166.6 604.77 41.59 479.26 41.59 324.66C41.59 170.06 166.6 44.55 320.57 44.55C474.54 44.55 599.55 170.06 599.55 324.66Z"
       id="a2wOmalFVK" />
    <path
       d="M122.53 359.43C132.18 318.29 145.1 279.38 167.72 246.74C184.17 222.99 205.84 207.83 230.35 197.27C253.4 187.35 277.81 182.7 302.73 180.03C317.81 178.42 323.42 172.12 325.15 154.34C327.07 134.67 323.74 114.98 319.51 95.34C317.61 86.51 319.16 84.22 326.6 86.7C339.9 91.14 348.32 102.76 352.84 117.05C359.25 137.31 364.62 157.99 369.3 178.7C372.49 192.81 377.49 203.67 388.41 212.92C408.38 229.81 428.16 247.11 446.62 266.36C447.58 264.89 448.54 263.42 449.5 261.94C450.57 258.09 451.81 253.94 452.7 249.63C453.89 243.84 456.06 242.23 461.11 245.91C476.4 257.06 488.72 283.78 489.04 305.09C489.82 309.22 489.82 313.44 488.89 317.31C502.27 335.6 514.33 354.99 523 377.01C526.98 387.11 528.81 398.19 531.38 408.88C532.83 414.95 533.53 421.18 535 427.24C537.85 439.05 530.41 455.2 520.51 456.17C514.08 456.79 506.76 457.12 500.76 454.2C476.56 442.39 451.42 437.14 426.79 428.55C415.21 424.5 404.05 419.01 393.18 411.6C388.41 409.23 383.92 405.93 379.94 401.85C346.74 416.01 304.73 411.13 276.53 388.58C270.48 383.74 264.97 377.34 260.19 370.71C255.73 364.5 257.03 361.04 263.21 359.17C273.81 355.94 284.46 352.85 295.08 349.7C295.11 349.8 295.33 350.54 295.36 350.63C300.1 349.23 304.84 347.84 309.58 346.45C304.68 345.97 299.82 345.08 295 343.46C288.92 342.4 282.77 339.76 276.26 335.87C262.25 327.5 247.03 320.88 232.02 317.26C214.93 313.13 200.22 315.61 187.47 322.78C185.26 324.48 183.07 326.34 180.89 328.38C179.35 329.82 177.58 330.71 175.69 331.15C168.57 337.35 162.14 345.11 156.32 354C155.25 355.64 154.25 357.33 153.28 359.07C153.74 360.23 154.19 361.39 154.65 362.55C154.74 362.57 154.84 362.6 154.93 362.62C159.46 372.89 167.95 376.56 175.42 381.88C185.06 388.74 193.98 396.36 195.49 410.57C195.98 415.18 195.47 419.86 195.06 424.41C194.93 425.83 193.84 427.83 192.87 427.98C191.89 428.14 189.99 426.6 189.41 425.32C185.08 415.82 178.21 418.37 171.73 416.53C165.72 414.83 160.93 417.23 155.71 416.47C152.68 416.03 149.7 411.27 146.52 408.09C146.42 408.26 146.32 408.44 146.22 408.61C146.04 418.61 139.64 422.31 131.92 422.9C120.28 423.79 113.62 432.63 107.02 441.44C104.66 444.6 104.25 449.86 102.32 456.21C99.97 451.72 97.98 449.02 97.07 446C87.39 413.56 94.07 388.06 116.15 370.34C119.1 367.97 121.54 363.61 122.53 359.43Z"
       id="a4tXvVMkw7" />
  </defs>
  <g
     id="g20">
    <g
       id="g18">
      <g
         id="g8">
        <path
           d="m 599.55,324.66 c 0,154.6 -125.01,280.11 -278.98,280.11 -153.97,0 -278.98,-125.51 -278.98,-280.11 0,-154.6 125.01,-280.11 278.98,-280.11 153.97,0 278.98,125.51 278.98,280.11 z"
           id="use6"
           style="fill:#b48ead;fill-opacity:1" />
      </g>
      <g
         id="g16">
        <path
           id="use10"
           style="fill:#ffffff;fill-opacity:1;stroke-width:0.1"
           d="M 32.660156 8.6699219 C 31.916156 8.4219219 31.761172 8.6502031 31.951172 9.5332031 C 32.374172 11.497203 32.707625 13.466594 32.515625 15.433594 C 32.342625 17.211594 31.781437 17.842906 30.273438 18.003906 C 27.781437 18.270906 25.340156 18.734562 23.035156 19.726562 C 20.584156 20.782562 18.416484 22.298828 16.771484 24.673828 C 14.509484 27.937828 13.218906 31.829359 12.253906 35.943359 C 12.154906 36.361359 11.910234 36.796203 11.615234 37.033203 C 9.4072344 38.805203 8.7390313 41.355609 9.7070312 44.599609 C 9.7980312 44.901609 9.9974219 45.172094 10.232422 45.621094 C 10.425422 44.986094 10.465172 44.460531 10.701172 44.144531 C 11.361172 43.263531 12.027406 42.378062 13.191406 42.289062 C 13.963406 42.230063 14.603094 41.861328 14.621094 40.861328 C 14.631094 40.844328 14.642344 40.825594 14.652344 40.808594 C 14.970344 41.126594 15.267312 41.602484 15.570312 41.646484 C 16.092312 41.722484 16.572828 41.482344 17.173828 41.652344 C 17.821828 41.836344 18.508406 41.58125 18.941406 42.53125 C 18.999406 42.65925 19.189109 42.814828 19.287109 42.798828 C 19.384109 42.783828 19.492859 42.583406 19.505859 42.441406 C 19.546859 41.986406 19.597828 41.517641 19.548828 41.056641 C 19.397828 39.635641 18.506969 38.8735 17.542969 38.1875 C 16.795969 37.6555 15.945187 37.288719 15.492188 36.261719 C 15.483187 36.259719 15.473844 36.257859 15.464844 36.255859 C 15.418844 36.139859 15.374125 36.02225 15.328125 35.90625 C 15.425125 35.73225 15.525813 35.564391 15.632812 35.400391 C 16.214813 34.511391 16.856359 33.735234 17.568359 33.115234 C 17.757359 33.071234 17.935844 32.981891 18.089844 32.837891 C 18.307844 32.633891 18.525094 32.447344 18.746094 32.277344 C 20.021094 31.560344 21.492172 31.313563 23.201172 31.726562 C 24.702172 32.088563 26.225953 32.750891 27.626953 33.587891 C 28.277953 33.976891 28.892 34.239703 29.5 34.345703 C 29.982 34.507703 30.467031 34.596531 30.957031 34.644531 C 30.483031 34.783531 30.009156 34.9225 29.535156 35.0625 C 29.532156 35.0535 29.510812 34.980703 29.507812 34.970703 C 28.445813 35.285703 27.380313 35.594969 26.320312 35.917969 C 25.702313 36.104969 25.573531 36.449313 26.019531 37.070312 C 26.497531 37.733312 27.047344 38.373422 27.652344 38.857422 C 30.472344 41.112422 34.674141 41.601547 37.994141 40.185547 C 38.392141 40.593547 38.841359 40.923156 39.318359 41.160156 C 40.405359 41.901156 41.521687 42.450469 42.679688 42.855469 C 45.142687 43.714469 47.656172 44.238922 50.076172 45.419922 C 50.676172 45.711922 51.407781 45.679187 52.050781 45.617188 C 53.040781 45.520188 53.785 43.905609 53.5 42.724609 C 53.353 42.118609 53.283672 41.495672 53.138672 40.888672 C 52.881672 39.819672 52.698781 38.711172 52.300781 37.701172 C 51.433781 35.499172 50.226672 33.559469 48.888672 31.730469 C 48.981672 31.343469 48.982297 30.922766 48.904297 30.509766 C 48.872297 28.378766 47.640328 25.706797 46.111328 24.591797 C 45.606328 24.223797 45.388531 24.383891 45.269531 24.962891 C 45.180531 25.393891 45.056219 25.808359 44.949219 26.193359 C 44.853219 26.341359 44.758109 26.489719 44.662109 26.636719 C 42.816109 24.711719 40.838797 22.981969 38.841797 21.292969 C 37.749797 20.367969 37.248688 19.280141 36.929688 17.869141 C 36.461688 15.798141 35.924203 13.731078 35.283203 11.705078 C 34.831203 10.276078 33.990156 9.1139219 32.660156 8.6699219 z "
           transform="scale(10)" />
        <g
           id="g14">
          <use
             xlink:href="#a4tXvVMkw7"
             opacity="1"
             fill-opacity="0"
             stroke="#000000"
             stroke-width="1"
             stroke-opacity="0"
             id="use12" />
        </g>
      </g>
    </g>
  </g>
</svg>
