<?xml version="1.0" encoding="UTF-8" standalone="no"?>
<!-- Created with Inkscape (http://www.inkscape.org/) -->

<svg
   width="48"
   height="48"
   viewBox="0 0 12.7 12.7"
   version="1.1"
   id="svg3772"
   inkscape:version="1.1.2 (0a00cf5339, 2022-02-04)"
   sodipodi:docname="whatsapp.svg"
   xmlns:inkscape="http://www.inkscape.org/namespaces/inkscape"
   xmlns:sodipodi="http://sodipodi.sourceforge.net/DTD/sodipodi-0.dtd"
   xmlns="http://www.w3.org/2000/svg"
   xmlns:svg="http://www.w3.org/2000/svg">
  <sodipodi:namedview
     id="namedview3774"
     pagecolor="#ffffff"
     bordercolor="#666666"
     borderopacity="1.0"
     inkscape:pageshadow="2"
     inkscape:pageopacity="0.0"
     inkscape:pagecheckerboard="0"
     inkscape:document-units="mm"
     showgrid="false"
     units="px"
     inkscape:zoom="6.621805"
     inkscape:cx="-17.59339"
     inkscape:cy="40.849889"
     inkscape:window-width="1920"
     inkscape:window-height="1031"
     inkscape:window-x="0"
     inkscape:window-y="0"
     inkscape:window-maximized="1"
     inkscape:current-layer="layer1" />
  <defs
     id="defs3769" />
  <g
     inkscape:label="Capa 1"
     inkscape:groupmode="layer"
     id="layer1">
    <path
       id="path4"
       style="fill:#a3be8c;fill-opacity:1;stroke-width:1.15036"
       d="M 23.878906 1.3828125 A 22.696228 22.696232 0 0 0 1.1835938 24.078125 A 22.696228 22.696232 0 0 0 23.878906 46.775391 A 22.696228 22.696232 0 0 0 46.576172 24.078125 A 22.696228 22.696232 0 0 0 23.878906 1.3828125 z "
       transform="scale(0.26458333)" />
    <path
       d="M 6.3332431,2.2040304 A 4.2890404,4.2890411 0 0 0 2.0439644,6.492911 4.2890404,4.2890411 0 0 0 2.4704234,8.3484663 L 2.1180272,10.461251 4.1101607,10.155044 A 4.2890404,4.2890411 0 0 0 6.3332431,10.781792 4.2890404,4.2890411 0 0 0 10.622123,6.492911 4.2890404,4.2890411 0 0 0 6.3332431,2.2040304 Z m -2.1064133,1.482055 0.2855006,0.00478 c 0.09112,0.00451 0.2137162,-0.034245 0.3348758,0.2556367 0.1236631,0.2978924 0.4211627,1.0300773 0.4587122,1.1041747 0.037548,0.074599 0.06191,0.1616822 0.012345,0.260813 -0.050066,0.09963 -0.074517,0.1619559 -0.1501167,0.2480697 -0.074599,0.087113 -0.1562949,0.1942234 -0.223383,0.2608113 -0.074099,0.074098 -0.151519,0.1547235 -0.064905,0.303419 0.086614,0.1491967 0.3853512,0.6363886 0.8274339,1.0309085 0.568249,0.5071681 1.0478588,0.6636419 1.196555,0.7382402 0.1486955,0.074598 0.2359174,0.062099 0.3225319,-0.037031 0.086614,-0.099131 0.3719255,-0.4342511 0.4710561,-0.5829471 0.099632,-0.1491962 0.1986965,-0.1244245 0.3348759,-0.074859 0.1366801,0.049565 0.8682756,0.4095978 1.0169715,0.4841962 0.1491961,0.074598 0.248054,0.1115282 0.2851026,0.17361 0.03755,0.062082 0.037757,0.3600197 -0.086407,0.7079781 C 9.1238151,8.9113423 8.5296259,9.2289083 8.2437495,9.2714643 7.9874118,9.3095173 7.662885,9.3252833 7.3064151,9.2121313 7.0906299,9.1435453 6.8132417,9.0519643 6.4582739,8.8987613 4.9658076,8.2544133 3.9916379,6.7517151 3.9170396,6.6525843 3.8429417,6.553454 3.309405,5.8460538 3.309405,5.1135886 c 0,-0.7324653 0.3846504,-1.0919547 0.5208296,-1.2411512 0.1361797,-0.1491969 0.2974646,-0.186352 0.3965952,-0.186352 z"
       fill="#ffffff"
       id="path4-3"
       style="stroke-width:0.218733" />
    <circle
       style="fill:#ffffff;fill-opacity:0.32941177;fill-rule:evenodd;stroke:none;stroke-width:0.346364;stroke-linecap:square;stroke-opacity:0.992157"
       id="path933"
       cx="6.3182187"
       cy="6.3709288"
       r="5.2742414" />
  </g>
</svg>
