<?xml version="1.0" encoding="UTF-8" standalone="no"?>
<svg
   height="48"
   width="48"
   version="1.1"
   id="svg16"
   sodipodi:docname="winusb.svg"
   inkscape:version="1.1.2 (0a00cf5339, 2022-02-04)"
   xmlns:inkscape="http://www.inkscape.org/namespaces/inkscape"
   xmlns:sodipodi="http://sodipodi.sourceforge.net/DTD/sodipodi-0.dtd"
   xmlns="http://www.w3.org/2000/svg"
   xmlns:svg="http://www.w3.org/2000/svg"
   xmlns:rdf="http://www.w3.org/1999/02/22-rdf-syntax-ns#"
   xmlns:cc="http://creativecommons.org/ns#"
   xmlns:dc="http://purl.org/dc/elements/1.1/">
  <metadata
     id="metadata22">
    <rdf:RDF>
      <cc:Work
         rdf:about="">
        <dc:format>image/svg+xml</dc:format>
        <dc:type
           rdf:resource="http://purl.org/dc/dcmitype/StillImage" />
      </cc:Work>
    </rdf:RDF>
  </metadata>
  <defs
     id="defs20" />
  <sodipodi:namedview
     pagecolor="#ffffff"
     bordercolor="#666666"
     borderopacity="1"
     objecttolerance="10"
     gridtolerance="10"
     guidetolerance="10"
     inkscape:pageopacity="0"
     inkscape:pageshadow="2"
     inkscape:window-width="1920"
     inkscape:window-height="1031"
     id="namedview18"
     showgrid="true"
     inkscape:zoom="4.9166666"
     inkscape:cx="-3.8644068"
     inkscape:cy="25.322034"
     inkscape:window-x="0"
     inkscape:window-y="0"
     inkscape:window-maximized="1"
     inkscape:current-layer="svg16"
     inkscape:pagecheckerboard="0">
    <inkscape:grid
       type="xygrid"
       id="grid829" />
  </sodipodi:namedview>
  <path
     id="path2-0"
     style="opacity:0.98999999;fill:#5e81ac;fill-opacity:1;stroke-width:1.15035486"
     d="M 23.804688 1.3046875 A 22.696228 22.696232 0 0 0 1.1074219 24 A 22.696228 22.696232 0 0 0 23.804688 46.695312 A 22.696228 22.696232 0 0 0 46.5 24 A 22.696228 22.696232 0 0 0 23.804688 1.3046875 z " />
  <path
     style="fill:#ffffff;fill-opacity:0.50777205"
     inkscape:connector-curvature="0"
     id="path4"
     d="m 12,6 c -0.831001,0 -1.5,0.669 -1.5,1.5 v 24 c 0,0.831 0.669,1.5 1.5,1.5 h 1.5 v 9 H 33 v -9 h 1.5 C 35.331,33 36,32.331 36,31.5 V 7.5 C 36,6.669 35.331,6 34.5,6 Z m 4.5,30 h 3 v 3 h -3 z M 27,36 h 3 v 3 h -3 z" />
  <path
     style="fill:#ffffff"
     inkscape:connector-curvature="0"
     id="path6"
     d="m 12,6 c -0.831001,0 -1.5,0.669 -1.5,1.5 v 24 c 0,0.831 0.669,1.5 1.5,1.5 H 13.5 33 34.5 C 35.331,33 36,32.331 36,31.5 V 7.5 C 36,6.669 35.331,6 34.5,6 Z" />
  <circle
     style="fill:#ffffff;stroke:#5e81ac;stroke-linecap:round;stroke-linejoin:bevel;stroke-opacity:1"
     id="circle8"
     r="8.3928576"
     cy="13.107143"
     cx="15.892858" />
  <path
     id="rect837"
     style="opacity:1;fill:#5e81ac;stroke-width:2;stroke-linecap:round;stroke-linejoin:round;paint-order:fill markers stroke;fill-opacity:1"
     d="M 11,8 H 21 V 18 H 11 Z" />
  <path
     style="fill:none;stroke:#ffffff;stroke-width:1px;stroke-linecap:butt;stroke-linejoin:miter;stroke-opacity:1"
     d="M 16,7 V 19"
     id="path839"
     inkscape:connector-curvature="0" />
  <path
     style="fill:none;stroke:#ffffff;stroke-width:1px;stroke-linecap:butt;stroke-linejoin:miter;stroke-opacity:1"
     d="M 10,13 H 23"
     id="path841"
     inkscape:connector-curvature="0" />
</svg>
