<?xml version="1.0" encoding="UTF-8" standalone="no"?>
<svg
   height="48"
   width="48"
   version="1.1"
   id="svg10"
   sodipodi:docname="xbmc.svg"
   inkscape:version="1.1.2 (0a00cf5339, 2022-02-04)"
   xmlns:inkscape="http://www.inkscape.org/namespaces/inkscape"
   xmlns:sodipodi="http://sodipodi.sourceforge.net/DTD/sodipodi-0.dtd"
   xmlns="http://www.w3.org/2000/svg"
   xmlns:svg="http://www.w3.org/2000/svg">
  <defs
     id="defs14" />
  <sodipodi:namedview
     id="namedview12"
     pagecolor="#ffffff"
     bordercolor="#666666"
     borderopacity="1.0"
     inkscape:pageshadow="2"
     inkscape:pageopacity="0.0"
     inkscape:pagecheckerboard="0"
     showgrid="false"
     inkscape:zoom="5.7894368"
     inkscape:cx="0.17272837"
     inkscape:cy="46.032112"
     inkscape:window-width="1920"
     inkscape:window-height="1031"
     inkscape:window-x="0"
     inkscape:window-y="0"
     inkscape:window-maximized="1"
     inkscape:current-layer="svg10" />
  <path
     id="path2"
     style="stroke-width:1.15035;fill:#8fbcbb;fill-opacity:1"
     d="M 23.804688 1.3046875 A 22.696228 22.696232 0 0 0 1.1074219 24 A 22.696228 22.696232 0 0 0 23.804688 46.695312 A 22.696228 22.696232 0 0 0 46.5 24 A 22.696228 22.696232 0 0 0 23.804688 1.3046875 z " />
  <g
     fill="#ffffff"
     fill-rule="evenodd"
     id="g8">
    <path
       d="m36 11.900391s-3.234143-.02157-6.5625 1.226562c-1.664178.624067-3.398223 1.577884-4.757812 3.107422-1.35959 1.529538-2.279297 3.660069-2.279297 6.265625s.919707 4.736087 2.279297 6.265625c1.359589 1.529538 3.093634 2.483355 4.757812 3.107422 3.328357 1.248134 6.5625 1.226562 6.5625 1.226562v-3.199218s-2.765857-.02157-5.4375-1.023438c-1.335822-.500933-2.601777-1.234616-3.492188-2.236328-.89041-1.001712-1.470703-2.246181-1.470703-4.140625s.580293-3.138913 1.470703-4.140625c.890411-1.001712 2.156366-1.735395 3.492188-2.236328 2.671643-1.001866 5.4375-1.023438 5.4375-1.023438z"
       id="path4" />
    <path
       d="m12 16.400391v3.199218s2.765857.02157 5.4375 1.023438c1.335822.500933 2.601777 1.234616 3.492188 2.236328.89041 1.001712 1.470703 2.246181 1.470703 4.140625s-.580293 3.138913-1.470703 4.140625c-.890411 1.001712-2.156366 1.735395-3.492188 2.236328-2.671643 1.001866-5.4375 1.023438-5.4375 1.023438v3.199218s3.234143.02157 6.5625-1.226562c1.664178-.624067 3.398223-1.577884 4.757812-3.107422 1.35959-1.529538 2.279297-3.660069 2.279297-6.265625s-.919707-4.736087-2.279297-6.265625c-1.359589-1.529538-3.093634-2.483355-4.757812-3.107422-3.328357-1.248134-6.5625-1.226562-6.5625-1.226562z"
       id="path6" />
  </g>
</svg>
