<?xml version="1.0" encoding="UTF-8" standalone="no"?>
<svg
   height="48"
   width="48"
   version="1.1"
   id="svg6"
   sodipodi:docname="zombie-panic-source.svg"
   inkscape:version="1.1.2 (0a00cf5339, 2022-02-04)"
   xmlns:inkscape="http://www.inkscape.org/namespaces/inkscape"
   xmlns:sodipodi="http://sodipodi.sourceforge.net/DTD/sodipodi-0.dtd"
   xmlns="http://www.w3.org/2000/svg"
   xmlns:svg="http://www.w3.org/2000/svg">
  <defs
     id="defs10" />
  <sodipodi:namedview
     id="namedview8"
     pagecolor="#ffffff"
     bordercolor="#666666"
     borderopacity="1.0"
     inkscape:pageshadow="2"
     inkscape:pageopacity="0.0"
     inkscape:pagecheckerboard="0"
     showgrid="false"
     inkscape:zoom="5.7894368"
     inkscape:cx="-16.668288"
     inkscape:cy="12.522807"
     inkscape:window-width="1920"
     inkscape:window-height="1030"
     inkscape:window-x="0"
     inkscape:window-y="24"
     inkscape:window-maximized="1"
     inkscape:current-layer="svg6" />
  <path
     d="m44.322082 27.405077a19.729762 19.729765 0 0 1 -19.729762 19.729765 19.729762 19.729765 0 0 1 -19.7297621-19.729765 19.729762 19.729765 0 0 1 19.7297621-19.7297632 19.729762 19.729765 0 0 1 19.729762 19.7297632z"
     opacity=".99"
     transform="matrix(1.1503549 0 0 1.1503549 -4.486125 -7.525565)"
     id="path2"
     style="fill:#d08770;fill-opacity:1" />
  <path
     d="m 23.504095,15.954876 a 8.1267756,8.1267756 0 0 0 -8.126777,8.126773 8.1267756,8.1267756 0 0 0 8.126777,8.126776 8.1267756,8.1267756 0 0 0 8.126776,-8.126776 8.1267756,8.1267756 0 0 0 -8.126776,-8.126773 z m 0,2.321934 a 5.8048396,5.8048396 0 0 1 5.804842,5.804839 5.8048396,5.8048396 0 0 1 -5.804842,5.804842 5.8048396,5.8048396 0 0 1 -5.804839,-5.804842 5.8048396,5.8048396 0 0 1 5.804839,-5.804839 z"
     style="fill:#ffffff;stroke-width:0.812678"
     id="path10" />
  <path
     d="m 23.016432,7.7202341 c -5.5548,0.26188 -9.926487,4.8268789 -9.957461,10.3816119 -0.992285,0.491778 -1.929429,1.131023 -2.755879,1.957465 C 6.4224723,23.94931 6.2161733,30.179419 9.8313049,34.317305 7.5709233,31.546629 7.7749193,27.514572 10.303092,24.985873 c 2.721156,-2.721154 7.131962,-2.721151 9.853118,0 2.721158,2.721158 2.721158,7.131966 0,9.853121 -2.58617,2.585619 -6.730375,2.732471 -9.492473,0.335698 3.611525,3.286329 8.924394,3.584797 12.840358,0.963988 3.915959,2.620809 9.228828,2.322341 12.840356,-0.963988 -2.762101,2.396773 -6.906304,2.249925 -9.492474,-0.335698 -2.721152,-2.721155 -2.721152,-7.131963 0,-9.853121 2.721154,-2.721151 7.131964,-2.721154 9.85312,0 2.528169,2.528699 2.732166,6.560756 0.471787,9.331432 C 40.792017,30.179419 40.585716,23.94931 36.705097,20.059311 35.881262,19.235476 34.94705,18.59766 33.958291,18.106383 33.926911,12.633315 29.677962,8.1069441 24.211779,7.7383811 c 3.557491,0.360832 6.264434,3.3559159 6.264804,6.9316609 0,3.848288 -3.119659,6.967951 -6.967952,6.967951 -3.848293,0 -6.967952,-3.119663 -6.967952,-6.967951 3.87e-4,-3.657012 2.827875,-6.6914849 6.475753,-6.9498079 z m 0.492199,15.0790839 1.741987,1.741987 -1.741987,1.741986 -1.74199,-1.741986 z"
     style="opacity:0.679031;fill:#ffffff;stroke-width:0.812678"
     id="path14" />
</svg>
