<?xml version="1.0" encoding="UTF-8" standalone="no"?>
<svg
   xmlns:dc="http://purl.org/dc/elements/1.1/"
   xmlns:cc="http://creativecommons.org/ns#"
   xmlns:rdf="http://www.w3.org/1999/02/22-rdf-syntax-ns#"
   xmlns:svg="http://www.w3.org/2000/svg"
   xmlns="http://www.w3.org/2000/svg"
   xmlns:sodipodi="http://sodipodi.sourceforge.net/DTD/sodipodi-0.dtd"
   xmlns:inkscape="http://www.inkscape.org/namespaces/inkscape"
   height="48"
   width="48"
   version="1.1"
   id="svg6"
   sodipodi:docname="inkscape.svg"
   inkscape:version="1.0.2 (e86c870879, 2021-01-15)">
  <metadata
     id="metadata12">
    <rdf:RDF>
      <cc:Work
         rdf:about="">
        <dc:format>image/svg+xml</dc:format>
        <dc:type
           rdf:resource="http://purl.org/dc/dcmitype/StillImage" />
        <dc:title></dc:title>
      </cc:Work>
    </rdf:RDF>
  </metadata>
  <defs
     id="defs10">
    <clipPath
       id="_clip2">
      <path
         d="m 362.691,209.643 h 9.844 v 36.359 H 65.488 v 33.244 H 33.142 V 176.398 h 32.346 v 33.245 H 226.136 V 68.456 h 36.772 z M 258.482,114.224 v 95.419 h 67.436 z"
         id="path44" />
    </clipPath>
    <clipPath
       id="_clip3">
      <path
         d="m 222.648,71.647 v 137.967 h 20.733 V 71.647 Z"
         id="path47" />
    </clipPath>
    <clipPath
       id="_clip4">
      <path
         d="m 246.665,71.675 99.352,137.968 H 366.75 L 267.398,71.675 Z"
         id="path54" />
    </clipPath>
    <clipPath
       id="_clip5">
      <path
         d="m 86.76,328.6 c -0.209,0.14 -0.307,0.397 -0.242,0.64 0.065,0.244 0.279,0.418 0.53,0.434 5.977,0.37 25.279,1.568 25.279,1.568 l -4.458,-16.639 c 0,0 -16.118,10.688 -21.109,13.997 z"
         id="path73" />
    </clipPath>
  </defs>
  <sodipodi:namedview
     pagecolor="#ffffff"
     bordercolor="#666666"
     borderopacity="1"
     objecttolerance="10"
     gridtolerance="10"
     guidetolerance="10"
     inkscape:pageopacity="0"
     inkscape:pageshadow="2"
     inkscape:window-width="1920"
     inkscape:window-height="1031"
     id="namedview8"
     showgrid="false"
     inkscape:zoom="13.376103"
     inkscape:cx="8.9844789"
     inkscape:cy="28.314246"
     inkscape:window-x="0"
     inkscape:window-y="24"
     inkscape:window-maximized="1"
     inkscape:current-layer="svg6"
     inkscape:document-rotation="0" />
  <circle
     cx="23.940615"
     cy="31.534513"
     fill="#74a2f3"
     opacity=".99"
     r="13.232998"
     transform="matrix(1.75830584759 0 0 1.75830608345 -18.15909274367 -30.97874795549)"
     id="circle2"
     style="fill:#cccccc;fill-opacity:1" />
  <ellipse
     cx="23.935829"
     cy="24.468578"
     fill="#74a2f3"
     opacity="0.99"
     id="circle878"
     style="fill:#ffffff;fill-opacity:1;stroke-width:1.56656"
     rx="20.730261"
     ry="20.730263" />
  <g
     fill-rule="evenodd"
     transform="matrix(0.84428659,0,0,0.84428659,4.4430884,-844.03529)"
     id="g6">
    <path
       d="m 23.402166,1006.6324 c -0.451853,0 -0.901164,0.1889 -1.24845,0.5173 l -19.2063453,18.1679 c -0.4138984,0.3921 -0.6755758,0.9845 -0.7048704,1.5958 -0.029294,0.6112 0.1742254,1.2324 0.5482114,1.6731 l 19.2063483,22.6416 c 0.365988,0.4313 0.889792,0.6842 1.417156,0.6842 0.527364,0 1.051172,-0.2529 1.417161,-0.6842 l 19.206344,-22.6416 c 0.373707,-0.441 0.576796,-1.0624 0.54705,-1.6737 -0.02975,-0.6113 -0.291891,-1.2034 -0.706116,-1.5952 l -19.206349,-18.1679 c -0.352843,-0.3336 -0.811053,-0.5202 -1.27014,-0.5173 z"
       fill="#525260"
       id="path2"
       style="fill:#5f687b;fill-opacity:1" />
    <path
       d="m 23.380088,1010.387 c -0.404393,0 -0.806512,0.1691 -1.117317,0.463 l -8.594518,8.1299 c -1.00733,0.9522 -2.307763,2.1176 -3.2803,3.0444 -0.09708,0.092 -0.190892,0.1827 -0.280819,0.27 -2.0168399,1.4673 3.787312,2.0493 4.551331,1.8896 1.901894,-0.4918 0.84765,-3.6125 2.30986,-3.753 1.902504,-0.1828 1.70831,4.102 3.880104,4.2215 2.399171,0.1321 5.35078,-4.3432 8.520845,-4.2358 2.317633,0.079 3.709368,3.8341 6.00575,3.5112 0.673042,-0.095 2.549837,-0.3946 1.408187,-1.4746 l -3.671872,-3.4733 -8.594519,-8.1299 c -0.315781,-0.2985 -0.725866,-0.4656 -1.136732,-0.463 z"
       fill="#ffffff"
       id="path4" />
  </g>
</svg>
